<svg width="42" height="41" viewBox="0 0 42 41" fill="none" xmlns="http://www.w3.org/2000/svg">
<g clip-path="url(#clip0_12_57)">
<path d="M20.9375 0.978516C31.9984 0.978554 41.0373 9.87323 41.2852 20.9893L41.29 21.5205V21.5215C41.29 30.5899 35.4668 38.2652 27.3857 40.9971C27.0173 41.065 26.8626 40.9713 26.7979 40.9111C26.7116 40.8309 26.6523 40.6869 26.6523 40.5186C26.6524 40.1724 26.6613 39.4357 26.6699 38.4238C26.6785 37.4147 26.6865 36.138 26.6865 34.7217C26.6865 33.2083 26.3248 32.0494 25.7861 31.2227C27.8482 30.9034 29.9478 30.2711 31.6094 28.8701C33.5699 27.2171 34.8329 24.5738 34.833 20.4043C34.833 18.0896 34.0696 16.1565 32.7598 14.626C33.05 13.7264 33.4914 11.6265 32.4375 8.95703L32.3418 8.71387L32.0918 8.63477L31.9365 9.12598C32.0782 8.67765 32.0902 8.63834 32.0908 8.63477L32.0898 8.63379H32.0869C32.0853 8.63331 32.0838 8.63237 32.082 8.63184C32.0783 8.63073 32.0739 8.62922 32.0693 8.62793C32.0603 8.62539 32.0496 8.62222 32.0371 8.61914C32.0116 8.61285 31.9785 8.60573 31.9385 8.59863C31.8584 8.58442 31.7495 8.57042 31.6113 8.56445C31.3344 8.55252 30.9419 8.57302 30.4287 8.68262C29.4381 8.89418 28.0013 9.43904 26.0684 10.7305C24.6425 10.3617 23.1274 10.1394 21.6201 10.0879L20.9375 10.0762H20.9365C19.2048 10.0781 17.481 10.2989 15.8047 10.7305C13.8726 9.43959 12.4367 8.89418 11.4463 8.68262C10.9331 8.57302 10.5406 8.55252 10.2637 8.56445C10.1254 8.57041 10.0166 8.58442 9.93652 8.59863C9.89651 8.60573 9.86346 8.61285 9.83789 8.61914C9.8254 8.62222 9.81471 8.62539 9.80566 8.62793C9.80112 8.62921 9.79663 8.63074 9.79297 8.63184C9.79124 8.63235 9.78962 8.63332 9.78809 8.63379H9.78516L9.78418 8.63477C9.78485 8.63858 9.79793 8.6806 9.94922 9.15918L9.7832 8.63477L9.5332 8.71387L9.4375 8.95703C8.38217 11.6301 8.82506 13.7323 9.11523 14.6299C7.83869 16.1543 7.04199 18.0844 7.04199 20.4043C7.04205 24.5735 8.3054 27.2244 10.2607 28.8818C11.9191 30.2874 14.0117 30.9212 16.0635 31.2295C15.7228 31.7655 15.4511 32.443 15.3096 33.2539C14.7354 33.4844 13.9123 33.7118 13.0537 33.6328C12.1495 33.5496 11.1593 33.1256 10.3428 31.8779L10.1816 31.6172L10.1689 31.5947C10.1579 31.5756 10.1421 31.549 10.1221 31.5166C10.082 31.4519 10.0234 31.3625 9.94727 31.2559C9.7954 31.043 9.56956 30.7579 9.26953 30.4678C8.6732 29.8912 7.75094 29.2612 6.51855 29.1797L6.5 29.1787H6.48242V29.458C6.48238 29.2059 6.48158 29.1811 6.48145 29.1787H6.44727C6.42844 29.1791 6.40233 29.1801 6.37109 29.1816C6.30868 29.1847 6.22179 29.1909 6.12402 29.2031C5.94972 29.2249 5.65755 29.2752 5.41797 29.417C5.29204 29.4915 5.13199 29.6192 5.04297 29.8291C4.94702 30.0554 4.97039 30.2879 5.05371 30.4863C5.16184 30.7437 5.38842 30.9877 5.69824 31.2314L6.03516 31.4756L6.07324 31.502L6.11133 31.5186L6.11328 31.5205C6.11739 31.5226 6.12597 31.5272 6.13867 31.5342C6.16505 31.5488 6.20927 31.5742 6.26758 31.6133C6.38467 31.6919 6.56038 31.8245 6.76562 32.0293C7.12349 32.3863 7.57984 32.9693 7.9834 33.8799L8.15234 34.29C8.15609 34.3007 8.1611 34.3145 8.16699 34.3301C8.18068 34.3663 8.20005 34.4157 8.22656 34.4756C8.27977 34.5959 8.36106 34.7601 8.47754 34.9502C8.71055 35.3303 9.08737 35.8181 9.66699 36.2598C10.7582 37.0912 12.4923 37.7026 15.1572 37.2686C15.1601 37.9092 15.1645 38.5199 15.1709 39.042C15.1795 39.7456 15.1875 40.2795 15.1875 40.5195C15.1875 40.6876 15.1281 40.8311 15.042 40.9111C14.977 40.9714 14.8212 41.066 14.4492 40.9961C6.37072 38.2637 0.549805 30.5881 0.549805 21.5215C0.549926 10.1571 9.6673 0.978516 20.9375 0.978516Z" stroke="white" stroke-width="1.1"/>
</g>
<defs>
<clipPath id="clip0_12_57">
<rect width="42" height="41" fill="white"/>
</clipPath>
</defs>
</svg>
