<svg width="42" height="41" viewBox="0 0 42 41" fill="none" xmlns="http://www.w3.org/2000/svg">
<g clip-path="url(#clip0_12_55)">
<path fill-rule="evenodd" clip-rule="evenodd" d="M20.9374 0.428711C9.35957 0.428711 0 9.85728 0 21.5217C0 30.8457 5.997 38.7383 14.3164 41.5317C15.3566 41.7417 15.7376 41.0779 15.7376 40.5194C15.7376 40.0304 15.7033 38.3543 15.7033 36.6079C9.879 37.8653 8.66614 34.0934 8.66614 34.0934C7.73014 31.6489 6.34329 31.0206 6.34329 31.0206C4.437 29.7284 6.48214 29.7284 6.48214 29.7284C8.59671 29.8681 9.70629 31.8936 9.70629 31.8936C11.5779 35.1061 14.5937 34.1984 15.807 33.6396C15.9801 32.2776 16.5351 31.3347 17.1244 30.811C12.4791 30.322 7.59171 28.5061 7.59171 20.404C7.59171 18.0991 8.42314 16.2134 9.74057 14.7469C9.53271 14.2231 8.80457 12.0576 9.94886 9.15914C9.94886 9.15914 11.7167 8.60028 15.7029 11.3243C17.4095 10.8626 19.1695 10.6277 20.9374 10.6257C22.7053 10.6257 24.5074 10.8704 26.1716 11.3243C30.1581 8.60028 31.926 9.15914 31.926 9.15914C33.0703 12.0576 32.3417 14.2231 32.1339 14.7469C33.486 16.2134 34.2831 18.0991 34.2831 20.404C34.2831 28.5061 29.3957 30.2869 24.7157 30.811C25.4786 31.4744 26.1369 32.7314 26.1369 34.7221C26.1369 37.5507 26.1026 39.8209 26.1026 40.519C26.1026 41.0779 26.484 41.7417 27.5237 41.5321C35.8431 38.7379 41.8401 30.8457 41.8401 21.5217C41.8744 9.85728 32.4806 0.428711 20.9374 0.428711Z" fill="white"/>
</g>
<defs>
<clipPath id="clip0_12_55">
<rect width="42" height="41" fill="white"/>
</clipPath>
</defs>
</svg>
