<svg width="42" height="42" viewBox="0 0 42 42" fill="none" xmlns="http://www.w3.org/2000/svg">
<path d="M5 0.549805H37C39.4562 0.549805 41.4502 2.54376 41.4502 5V37C41.4502 39.4562 39.4562 41.4502 37 41.4502H5C2.54376 41.4502 0.549805 39.4562 0.549805 37V5C0.549805 2.54376 2.54376 0.549805 5 0.549805ZM6.4502 35.5498H13.5498V15.4502H6.4502V35.5498ZM15.4502 35.5498H22.5498V25C22.5498 24.092 22.7812 23.205 23.248 22.5605C23.6993 21.9377 24.3901 21.5098 25.4199 21.5098H25.4912L25.6904 21.5176C26.6639 21.5816 27.3173 21.9979 27.7461 22.5732C28.2187 23.2076 28.4502 24.0818 28.4502 25V35.5498H35.5498V24.2598C35.5498 21.3879 34.7119 19.1757 33.293 17.6777C31.8733 16.1791 29.9229 15.4502 27.8096 15.4502C25.7422 15.4503 24.186 16.1336 23.1465 16.8213C22.9236 16.9687 22.7254 17.1176 22.5498 17.2588V15.4502H15.4502V35.5498ZM13.5498 10.4561L13.5488 10.4424C13.5065 9.59576 13.1408 8.83536 12.5068 8.29199C11.8753 7.75077 11.0092 7.4502 10 7.4502C7.98821 7.4502 6.45035 8.68175 6.4502 10.4697C6.4502 12.2421 7.96977 13.5498 10 13.5498C11.0501 13.5498 11.9377 13.2329 12.5703 12.6709C13.2054 12.1066 13.5498 11.3231 13.5498 10.4697V10.4561Z" stroke="#2E2E2E" stroke-width="1.1"/>
</svg>
