<svg width="578" height="51" viewBox="0 0 578 51" fill="none" xmlns="http://www.w3.org/2000/svg">
<g filter="url(#filter0_d_97_4001)">
<path d="M12.4375 1H39.5625C40.5395 0.999081 41.5071 1.19106 42.4097 1.56496C43.3126 1.93886 44.1328 2.48734 44.8237 3.179C45.5144 3.87067 46.0623 4.69193 46.4358 5.59581C46.8092 6.49968 47.0009 7.46842 47 8.44659V34.5534C47.0009 35.5316 46.8092 36.5004 46.4358 37.4042C46.0623 38.3081 45.5144 39.1293 44.8237 39.821C44.1328 40.5126 43.3126 41.0612 42.4097 41.4351C41.5071 41.809 40.5395 42.0009 39.5625 42H12.4375C11.4605 42.0009 10.493 41.809 9.5902 41.4351C8.68743 41.0612 7.86717 40.5126 7.17634 39.821C6.48552 39.1293 5.93772 38.3081 5.56427 37.4042C5.19083 36.5004 4.99908 35.5316 5 34.5534V8.44659C4.99908 7.46842 5.19083 6.49968 5.56427 5.59581C5.93772 4.69193 6.48552 3.87067 7.17634 3.179C7.86717 2.48734 8.68743 1.93886 9.5902 1.56496C10.493 1.19106 11.4605 0.999081 12.4375 1Z" fill="#001E36" stroke="#151515" stroke-opacity="0.2" stroke-width="0.7"/>
<path d="M14.45 29.7526V11.7232C14.45 11.6005 14.5025 11.5304 14.625 11.5304C14.9225 11.5304 15.2025 11.5304 15.605 11.5129C16.0075 11.4954 16.4625 11.4954 16.935 11.4779C17.4075 11.4603 17.915 11.4603 18.4575 11.4428C19 11.4253 19.525 11.4253 20.05 11.4253C21.485 11.4253 22.675 11.6005 23.655 11.9685C24.5335 12.2672 25.3344 12.758 26 13.4052C26.5638 13.9716 26.9996 14.6529 27.2775 15.4026C27.5424 16.1328 27.6786 16.9036 27.68 17.6804C27.68 19.1873 27.3299 20.4313 26.6299 21.4125C25.9266 22.3923 24.9449 23.1373 23.8125 23.5501C22.6225 23.9881 21.31 24.1458 19.875 24.1458C19.455 24.1458 19.175 24.1458 19 24.1283C18.825 24.1108 18.58 24.1108 18.2475 24.1108V29.7351C18.2514 29.764 18.2494 29.7933 18.2418 29.8213C18.2342 29.8494 18.221 29.8756 18.2031 29.8986C18.1851 29.9214 18.1627 29.9405 18.1373 29.9545C18.1119 29.9687 18.0839 29.9774 18.055 29.9804H14.66C14.52 29.9804 14.45 29.9103 14.45 29.7526ZM18.265 14.912V20.7992C18.51 20.8167 18.7375 20.8343 18.9475 20.8343H19.875C20.5581 20.8351 21.2372 20.7286 21.8875 20.5189C22.4453 20.3547 22.9437 20.0321 23.3224 19.5902C23.6899 19.1522 23.865 18.5565 23.865 17.7855C23.8814 17.238 23.7418 16.6971 23.4625 16.2261C23.1707 15.7712 22.7415 15.4214 22.2375 15.2274C21.5805 14.9698 20.8775 14.8505 20.1725 14.877C19.7175 14.877 19.315 14.877 18.9825 14.8945C18.7432 14.8789 18.5031 14.8847 18.265 14.912Z" fill="#31A8FF"/>
<path d="M38.6001 19.7303C38.0717 19.4517 37.5058 19.2511 36.9201 19.1346C36.2768 18.9887 35.6196 18.9124 34.9601 18.9068C34.6059 18.8946 34.2518 18.9359 33.9101 19.0295C33.692 19.0749 33.4988 19.1998 33.3676 19.3799C33.2792 19.522 33.2307 19.6855 33.2276 19.853C33.2356 20.0196 33.297 20.1794 33.4026 20.3085C33.5685 20.5034 33.7706 20.664 33.9976 20.7816C34.4001 20.9919 34.8201 21.1846 35.2401 21.3598C36.1856 21.6785 37.0902 22.1078 37.9351 22.6389C38.5098 23.0007 38.9851 23.5006 39.3176 24.0932C39.5988 24.6521 39.737 25.2722 39.7201 25.8979C39.7342 26.7261 39.4962 27.5389 39.0376 28.2282C38.5495 28.9277 37.8684 29.4696 37.0776 29.7876C36.2201 30.1555 35.1701 30.3483 33.9101 30.3483C33.1112 30.3514 32.3139 30.2752 31.5301 30.1205C30.9128 30.0138 30.3126 29.8251 29.7451 29.5598C29.684 29.5292 29.6332 29.4813 29.5991 29.4221C29.565 29.3631 29.5487 29.2951 29.5526 29.2269V26.1782C29.551 26.1482 29.5566 26.1185 29.5688 26.0909C29.5809 26.0636 29.5993 26.0394 29.6226 26.0205C29.6472 26.0061 29.6758 26 29.7043 26.0032C29.7326 26.0063 29.7592 26.0186 29.7801 26.038C30.4542 26.4359 31.1864 26.7256 31.9501 26.8966C32.6243 27.0723 33.3184 27.1606 34.0151 27.1594C34.6801 27.1594 35.1526 27.0718 35.4676 26.9141C35.6081 26.8491 35.7271 26.7454 35.8109 26.615C35.8946 26.4846 35.9394 26.3331 35.9401 26.1782C35.9401 25.9329 35.8001 25.7051 35.5201 25.4773C35.2401 25.2496 34.6626 24.9867 33.8051 24.6538C32.9253 24.3435 32.0901 23.9193 31.3201 23.3923C30.7716 23.0011 30.3173 22.4922 29.9901 21.903C29.7108 21.3497 29.5725 20.7357 29.5876 20.1158C29.5902 19.3682 29.7958 18.6353 30.1826 17.9957C30.6271 17.2923 31.2653 16.7326 32.0201 16.3838C32.8426 15.9632 33.8751 15.7705 35.1176 15.7705C35.8438 15.7707 36.569 15.8234 37.2876 15.9282C37.8042 15.9982 38.3099 16.1336 38.7926 16.3312C38.8694 16.3585 38.9324 16.4152 38.9676 16.4889C38.9877 16.5573 38.9994 16.6279 39.0026 16.6991V19.5551C39.0029 19.5891 38.995 19.6228 38.9798 19.6532C38.9646 19.6837 38.9424 19.7102 38.9151 19.7303C38.8132 19.767 38.7019 19.767 38.6001 19.7303Z" fill="#31A8FF"/>
</g>
<g filter="url(#filter1_d_97_4001)">
<path d="M60.4375 1H87.5625C88.5395 0.999081 89.5071 1.19106 90.4097 1.56496C91.3126 1.93886 92.1328 2.48734 92.8237 3.179C93.5144 3.87067 94.0623 4.69193 94.4358 5.59581C94.8092 6.49968 95.0009 7.46842 95 8.44659V34.5534C95.0009 35.5316 94.8092 36.5004 94.4358 37.4042C94.0623 38.3081 93.5144 39.1293 92.8237 39.821C92.1328 40.5126 91.3126 41.0612 90.4097 41.4351C89.5071 41.809 88.5395 42.0009 87.5625 42H60.4375C59.4605 42.0009 58.493 41.809 57.5902 41.4351C56.6874 41.0612 55.8672 40.5126 55.1763 39.821C54.4855 39.1293 53.9377 38.3081 53.5643 37.4042C53.1908 36.5004 52.9991 35.5316 53 34.5534V8.44659C52.9991 7.46842 53.1908 6.49968 53.5643 5.59581C53.9377 4.69193 54.4855 3.87067 55.1763 3.179C55.8672 2.48734 56.6874 1.93886 57.5902 1.56496C58.493 1.19106 59.4605 0.999081 60.4375 1Z" fill="#001E36" stroke="#151515" stroke-opacity="0.2" stroke-width="0.7"/>
<path d="M75.0501 29.9804H63.9551C63.7626 29.9804 63.6751 29.8753 63.6751 29.6651V11.7582C63.6712 11.7294 63.6731 11.7001 63.6807 11.672C63.6883 11.6439 63.7015 11.6177 63.7195 11.5948C63.7374 11.5719 63.7598 11.5529 63.7852 11.5388C63.8107 11.5247 63.8387 11.5159 63.8676 11.5129H67.3676C67.3895 11.5089 67.4119 11.5094 67.4336 11.5144C67.4553 11.5193 67.4758 11.5287 67.4938 11.5418C67.5118 11.5549 67.5269 11.5715 67.5383 11.5906C67.5497 11.6098 67.5571 11.631 67.5601 11.6531V26.4236H75.6451C75.8201 26.4236 75.8726 26.5112 75.8376 26.6689L75.3301 29.7176C75.3273 29.7579 75.3166 29.7972 75.2986 29.8333C75.2805 29.8694 75.2555 29.9016 75.2251 29.9279C75.1738 29.9634 75.1125 29.9818 75.0501 29.9804Z" fill="#31A8FF"/>
<path d="M77.85 15.9632H80.9125C80.9954 15.9652 81.0756 15.9934 81.1416 16.0437C81.2075 16.0941 81.256 16.164 81.28 16.2436C81.3524 16.3675 81.3999 16.5044 81.42 16.6466C81.455 16.8218 81.49 17.0145 81.5075 17.1897C81.525 17.3649 81.5425 17.5927 81.5425 17.8205C82.068 17.2063 82.7029 16.6954 83.415 16.3136C84.2146 15.8797 85.1134 15.6623 86.0225 15.6829C86.0514 15.679 86.0806 15.6809 86.1086 15.6885C86.1366 15.6962 86.1628 15.7094 86.1858 15.7273C86.2085 15.7453 86.2276 15.7677 86.2416 15.7932C86.2558 15.8186 86.2645 15.8467 86.2675 15.8756V19.3624C86.2675 19.5025 86.18 19.5551 85.9875 19.5551C84.8533 19.4871 83.7193 19.6914 82.68 20.1508C82.3254 20.3027 82.0045 20.523 81.735 20.7991V29.735C81.735 29.9102 81.665 29.9803 81.5075 29.9803H78.095C78.0628 29.9857 78.0297 29.9845 77.9979 29.9768C77.966 29.9691 77.9361 29.9549 77.91 29.9353C77.8838 29.9157 77.8619 29.8908 77.8454 29.8624C77.8292 29.834 77.8188 29.8026 77.815 29.7701V19.9931C77.815 19.5726 77.815 19.1346 77.7975 18.679C77.78 18.2235 77.78 17.7679 77.7625 17.3124C77.745 16.9269 77.71 16.5414 77.6575 16.156C77.6528 16.1352 77.6524 16.1138 77.6559 16.0929C77.6596 16.072 77.6673 16.052 77.6788 16.0341C77.6902 16.0162 77.7049 16.0007 77.7222 15.9886C77.7397 15.9764 77.7593 15.9678 77.78 15.9632C77.7975 15.9457 77.815 15.9457 77.85 15.9632Z" fill="#31A8FF"/>
</g>
<g filter="url(#filter2_d_97_4001)">
<path d="M108.438 1H135.563C136.54 0.999081 137.507 1.19106 138.41 1.56496C139.313 1.93886 140.133 2.48734 140.824 3.17899C141.514 3.87067 142.062 4.69193 142.436 5.5958C142.809 6.49969 143.001 7.46843 143 8.44658V34.5534C143.001 35.5316 142.809 36.5004 142.436 37.4041C142.062 38.3081 141.514 39.1293 140.824 39.821C140.133 40.5126 139.313 41.0612 138.41 41.4351C137.507 41.809 136.54 42.0009 135.563 42H108.438C107.461 42.0009 106.493 41.809 105.59 41.4351C104.687 41.0612 103.867 40.5126 103.176 39.821C102.486 39.1293 101.938 38.3081 101.564 37.4041C101.191 36.5004 100.999 35.5316 101 34.5534V8.44658C100.999 7.46843 101.191 6.49969 101.564 5.5958C101.938 4.69193 102.486 3.87067 103.176 3.17899C103.867 2.48734 104.687 1.93886 105.59 1.56496C106.493 1.19106 107.461 0.999081 108.438 1Z" fill="#330000" stroke="#151515" stroke-opacity="0.2" stroke-width="0.7"/>
<path d="M121.353 25.5998H114.843L113.513 29.7173C113.498 29.7923 113.455 29.8591 113.394 29.9046C113.332 29.95 113.256 29.9707 113.18 29.9626H109.89C109.698 29.9626 109.645 29.8575 109.698 29.6473L115.333 13.4049C115.385 13.2297 115.438 13.037 115.508 12.8267C115.578 12.4512 115.613 12.0699 115.613 11.6879C115.607 11.644 115.619 11.5997 115.645 11.564C115.671 11.5282 115.709 11.5037 115.753 11.4951H120.285C120.425 11.4951 120.495 11.5477 120.513 11.6353L126.9 29.6823C126.953 29.875 126.9 29.9626 126.725 29.9626H123.068C123.006 29.9686 122.944 29.9525 122.893 29.9173C122.841 29.882 122.804 29.8298 122.788 29.7699L121.353 25.5998ZM115.858 22.043H120.303C120.198 21.675 120.058 21.237 119.9 20.7814C119.743 20.3259 119.585 19.8002 119.428 19.2746C119.27 18.749 119.095 18.2058 118.92 17.6626C118.745 17.1195 118.588 16.6114 118.448 16.1032C118.308 15.5951 118.185 15.1571 118.063 14.7366H118.028C117.87 15.5002 117.672 16.2548 117.433 16.9968C117.17 17.8379 116.908 18.7139 116.628 19.59C116.383 20.4836 116.12 21.3071 115.858 22.043Z" fill="#FF9A00"/>
<path d="M130.715 14.4917C130.428 14.498 130.142 14.447 129.875 14.3417C129.607 14.2364 129.363 14.0789 129.157 13.8784C128.757 13.4395 128.543 12.861 128.562 12.2665C128.552 11.9768 128.603 11.6882 128.711 11.4195C128.82 11.1508 128.984 10.9081 129.192 10.7071C129.613 10.309 130.171 10.0893 130.75 10.0938C131.432 10.0938 131.957 10.3041 132.342 10.7071C132.73 11.1319 132.937 11.6913 132.92 12.2665C132.931 12.5625 132.882 12.8577 132.777 13.1345C132.671 13.4114 132.512 13.6644 132.307 13.8784C132.101 14.0887 131.852 14.2523 131.578 14.3581C131.303 14.4639 131.009 14.5094 130.715 14.4917ZM128.755 29.7002V16.2088C128.755 16.0336 128.825 15.9635 128.982 15.9635H132.447C132.605 15.9635 132.675 16.0511 132.675 16.2088V29.7002C132.675 29.893 132.605 29.9806 132.447 29.9806H129.017C128.981 29.9835 128.944 29.9783 128.909 29.965C128.875 29.9517 128.844 29.9308 128.819 29.9038C128.793 29.8768 128.775 29.8446 128.764 29.8094C128.753 29.774 128.75 29.7368 128.755 29.7002Z" fill="#FF9A00"/>
</g>
<g filter="url(#filter3_d_97_4001)">
<path d="M156.438 1H183.563C184.54 0.999081 185.507 1.19106 186.41 1.56496C187.313 1.93886 188.133 2.48734 188.824 3.17899C189.514 3.87067 190.062 4.69193 190.436 5.5958C190.809 6.49969 191.001 7.46843 191 8.44658V34.5534C191.001 35.5316 190.809 36.5004 190.436 37.4041C190.062 38.3081 189.514 39.1293 188.824 39.821C188.133 40.5126 187.313 41.0612 186.41 41.4351C185.507 41.809 184.54 42.0009 183.563 42H156.438C155.461 42.0009 154.493 41.809 153.59 41.4351C152.687 41.0612 151.867 40.5126 151.176 39.821C150.486 39.1293 149.938 38.3081 149.564 37.4041C149.191 36.5004 148.999 35.5316 149 34.5534V8.44658C148.999 7.46843 149.191 6.49969 149.564 5.5958C149.938 4.69193 150.486 3.87067 151.176 3.17899C151.867 2.48734 152.687 1.93886 153.59 1.56496C154.493 1.19106 155.461 0.999081 156.438 1Z" fill="#49021F" stroke="#151515" stroke-opacity="0.2" stroke-width="0.7"/>
<path d="M164.26 11.7229V29.6998C164.26 29.8925 164.173 29.9801 164.015 29.9801H160.585C160.428 29.9801 160.358 29.8925 160.358 29.6998V11.7229C160.358 11.5652 160.445 11.4951 160.603 11.4951H164.015C164.042 11.4909 164.069 11.4922 164.095 11.4988C164.121 11.5055 164.145 11.5173 164.166 11.5337C164.188 11.5501 164.205 11.5707 164.219 11.5942C164.232 11.6177 164.24 11.6436 164.243 11.6703C164.249 11.6772 164.254 11.6855 164.257 11.6946C164.26 11.7037 164.261 11.7134 164.26 11.7229Z" fill="#FF3366"/>
<path d="M174.34 30.2605C173.043 30.2818 171.757 30.0124 170.577 29.472C169.48 28.9581 168.56 28.1285 167.935 27.0891C167.287 26.0203 166.972 24.6887 166.972 23.0942C166.955 21.7976 167.287 20.5202 167.935 19.3972C168.599 18.2559 169.561 17.317 170.717 16.6814C171.942 15.9981 173.412 15.6652 175.145 15.6652C175.268 15.6638 175.39 15.6696 175.512 15.6827C175.67 15.7002 175.845 15.7002 176.055 15.7177V10.181C176.055 10.0583 176.107 9.98824 176.23 9.98824H179.782C179.822 9.98293 179.861 9.9926 179.894 10.0153C179.926 10.0381 179.949 10.0722 179.957 10.1109V26.8263C179.957 27.1417 179.975 27.4921 179.992 27.8776C180.01 28.263 180.045 28.5959 180.062 28.8938C180.066 28.953 180.051 29.0119 180.02 29.0622C179.989 29.1125 179.942 29.1515 179.887 29.1741C178.971 29.5598 178.014 29.8419 177.035 30.0152C176.146 30.1765 175.244 30.2587 174.34 30.2605ZM176.055 26.7562V19.0468C175.899 19.0091 175.741 18.9799 175.582 18.9592C175.39 18.9417 175.197 18.9241 175.005 18.9241C174.319 18.9164 173.641 19.0725 173.027 19.3797C172.429 19.6781 171.917 20.1243 171.54 20.6763C171.155 21.237 170.962 21.9904 170.962 22.9015C170.947 23.5165 171.048 24.1287 171.26 24.7062C171.429 25.1731 171.698 25.5977 172.047 25.9502C172.385 26.2726 172.792 26.5125 173.237 26.6511C173.706 26.8047 174.197 26.8816 174.69 26.8788C174.952 26.8788 175.197 26.8613 175.425 26.8438C175.639 26.8603 175.854 26.8305 176.055 26.7562Z" fill="#FF3366"/>
</g>
<g filter="url(#filter4_d_97_4001)">
<path d="M228.935 42H206.065C201.059 42 197 37.9408 197 32.9347V10.0653C197 5.05923 201.059 1 206.065 1H228.93C233.936 1 237.995 5.05923 237.995 10.0653V32.9302C238 37.9408 233.941 42 228.935 42Z" fill="#242424" stroke="#151515" stroke-opacity="0.2" stroke-width="0.7"/>
<path d="M216 18.5232C210.822 20.0635 201.675 23.5927 201.236 37.9133C202.889 30.2025 206.967 29.0971 214.46 27.3348C221.953 25.577 226.026 23.5927 230.547 18.1925C235.064 12.7923 233.524 5.08154 233.524 5.08154C233.524 9.26762 230.547 12.0221 227.684 14.0064C224.821 15.9907 221.178 16.9829 216 18.5232Z" fill="url(#paint0_linear_97_4001)"/>
<path d="M201.235 37.918C201.249 37.5465 201.267 37.1886 201.29 36.8352C201.249 37.2158 201.226 37.5782 201.235 37.918Z" fill="url(#paint1_linear_97_4001)"/>
<path d="M220.508 25.568C216.616 26.3019 212.652 26.2158 210.051 26.8999C205.426 28.1095 201.571 33.6184 201.235 37.9133C201.249 37.5463 201.267 37.1884 201.29 36.8305C201.802 32.1551 206.11 24.4852 215.56 20.2855C218.569 18.9491 221.278 17.531 223.634 16.0813C225.156 15.4878 226.488 14.8309 227.679 14.0064C230.542 12.0221 233.519 9.26762 233.519 5.08154C233.519 5.08154 233.764 11.3697 231.725 16.7518C231.444 17.2638 231.127 17.7576 230.764 18.2242C228.019 21.7896 224.78 23.9733 220.508 25.568Z" fill="url(#paint2_linear_97_4001)"/>
<path d="M201.299 36.6493C201.272 37.0615 201.249 37.4829 201.236 37.9133C201.209 37.5236 201.231 37.0978 201.299 36.6493C202.223 23.3798 210.976 20.0182 216 18.5232C221.179 16.9829 224.816 15.9907 227.68 14.0064C230.543 12.0221 233.519 9.26762 233.519 5.08154C233.519 5.08154 235.064 12.7923 230.543 18.1925C226.026 23.5927 222.279 21.3864 214.786 23.1487C207.95 24.7615 202.029 31.9694 201.299 36.6493Z" fill="url(#paint3_linear_97_4001)"/>
<path d="M212.915 23.9234C219.969 22.6005 224.372 22.7093 229.224 17.531C234.072 12.3528 233.519 5.08154 233.519 5.08154C233.519 9.26762 230.542 12.0221 227.679 14.0064C226.483 14.8355 225.151 15.4878 223.634 16.0813C221.278 17.531 218.02 19.0125 215.012 20.3489C205.562 24.5486 201.802 32.1551 201.29 36.8305C201.267 37.1839 201.249 37.5418 201.235 37.9133C201.571 33.6139 205.865 25.2463 212.915 23.9234Z" fill="url(#paint4_linear_97_4001)"/>
<path d="M201.235 37.918C201.249 37.5465 201.267 37.1886 201.29 36.8352C201.249 37.2158 201.226 37.5782 201.235 37.918Z" fill="url(#paint5_linear_97_4001)"/>
<path d="M217.876 19.6286C204.983 22.0524 201.127 33.4372 201.236 37.9178C201.567 33.623 205.313 28.6622 210.161 26.0165C217.324 22.3786 224.817 24.3629 229.995 19.0759C235.173 13.7889 233.52 5.08154 233.52 5.08154C233.52 9.26762 231.975 13.2362 229.22 15.5513C226.47 17.8618 220.961 19.0397 217.876 19.6286Z" fill="url(#paint6_linear_97_4001)"/>
</g>
<g filter="url(#filter5_d_97_4001)">
<path d="M251.433 1H278.558C279.535 0.999081 280.503 1.19106 281.405 1.56496C282.308 1.93886 283.128 2.48734 283.819 3.179C284.51 3.87067 285.058 4.69193 285.431 5.59581C285.805 6.49968 285.996 7.46842 285.996 8.44659V34.5534C285.996 35.5316 285.805 36.5004 285.431 37.4042C285.058 38.3081 284.51 39.1293 283.819 39.821C283.128 40.5126 282.308 41.0612 281.405 41.4351C280.503 41.809 279.535 42.0009 278.558 42H251.433C250.456 42.0009 249.489 41.809 248.586 41.4351C247.683 41.0612 246.863 40.5126 246.172 39.821C245.481 39.1293 244.933 38.3081 244.56 37.4042C244.186 36.5004 243.995 35.5316 243.996 34.5534V8.44659C243.995 7.46842 244.186 6.49968 244.56 5.59581C244.933 4.69193 245.481 3.87067 246.172 3.179C246.863 2.48734 247.683 1.93886 248.586 1.56496C249.489 1.19106 250.456 0.999081 251.433 1Z" fill="#000B1D" stroke="#151515" stroke-opacity="0.2" stroke-width="0.7"/>
<path d="M260.621 34.6411C263.037 34.6411 264.996 32.6799 264.996 30.2607V25.8804H260.621C258.204 25.8804 256.246 27.8415 256.246 30.2607C256.246 32.6799 258.204 34.6411 260.621 34.6411Z" fill="#0ACF83"/>
<path d="M256.246 21.5C256.246 19.0808 258.204 17.1196 260.621 17.1196H264.996V25.8803H260.621C258.204 25.8803 256.246 23.9191 256.246 21.5Z" fill="#A259FF"/>
<path d="M256.246 12.7395C256.246 10.3203 258.204 8.35913 260.621 8.35913H264.996V17.1198H260.621C258.204 17.1198 256.246 15.1587 256.246 12.7395Z" fill="#F24E1E"/>
<path d="M264.996 8.35913H269.371C271.787 8.35913 273.746 10.3203 273.746 12.7395C273.746 15.1587 271.787 17.1198 269.371 17.1198H264.996V8.35913Z" fill="#FF7262"/>
<path d="M273.746 21.5C273.746 23.9191 271.787 25.8803 269.371 25.8803C266.954 25.8803 264.996 23.9191 264.996 21.5C264.996 19.0808 266.954 17.1196 269.371 17.1196C271.787 17.1196 273.746 19.0808 273.746 21.5Z" fill="#1ABCFE"/>
</g>
<g filter="url(#filter6_d_97_4001)">
<path d="M299.433 1H326.558C327.535 0.999081 328.503 1.19106 329.405 1.56496C330.308 1.93886 331.128 2.48734 331.819 3.17899C332.51 3.87067 333.058 4.69193 333.431 5.5958C333.805 6.49969 333.996 7.46843 333.996 8.44658V34.5534C333.996 35.5316 333.805 36.5004 333.431 37.4041C333.058 38.3081 332.51 39.1293 331.819 39.821C331.128 40.5126 330.308 41.0612 329.405 41.4351C328.503 41.809 327.535 42.0009 326.558 42H299.433C298.456 42.0009 297.489 41.809 296.586 41.4351C295.683 41.0612 294.863 40.5126 294.172 39.821C293.481 39.1293 292.933 38.3081 292.56 37.4041C292.186 36.5004 291.995 35.5316 291.996 34.5534V8.44658C291.995 7.46843 292.186 6.49969 292.56 5.5958C292.933 4.69193 293.481 3.87067 294.172 3.17899C294.863 2.48734 295.683 1.93886 296.586 1.56496C297.489 1.19106 298.456 0.999081 299.433 1Z" fill="#FAFAFA" stroke="#151515" stroke-opacity="0.2" stroke-width="0.8"/>
<path d="M302.287 36.146L299.996 10.4475H325.172L322.878 36.142L312.568 39.0001L302.287 36.146Z" fill="#E44D26"/>
<path d="M312.584 36.8148L320.915 34.505L322.875 12.5483H312.584V36.8148Z" fill="#F16529"/>
<path d="M312.584 22.0801H308.413L308.125 18.8522H312.584V15.7004H304.68L304.756 16.5462L305.53 25.2316H312.584V22.0801ZM312.584 30.2653L312.57 30.269L309.06 29.321L308.835 26.8076H305.671L306.113 31.7563L312.569 33.5487L312.584 33.5445V30.2653Z" fill="#EBEBEB"/>
<path d="M302.338 3H303.94V4.58274H305.405V3H307.007V7.7921H305.405V6.18742H303.94V7.7921H302.338V3ZM309.113 4.58929H307.703V3H312.126V4.58929H310.715V7.7921H309.113V4.58929ZM312.828 3H314.497L315.525 4.68387L316.551 3H318.222V7.7921H316.627V5.41684L315.525 7.12066H315.497L314.395 5.41684V7.7921H312.827V3H312.828ZM319.019 3H320.622V6.20821H322.874V7.79238H319.019V3Z" fill="black"/>
<path d="M312.573 22.0801V25.2316H316.454L316.088 29.3193L312.573 30.2682V33.547L319.034 31.7563L319.082 31.2236L319.822 22.9262L319.899 22.0801H319.05H312.573ZM312.573 15.7004V18.8522H320.186L320.249 18.1438L320.393 16.5462L320.468 15.7004H312.573Z" fill="white"/>
</g>
<g filter="url(#filter7_d_97_4001)">
<path d="M347.433 1H374.558C375.535 0.999081 376.503 1.19106 377.405 1.56496C378.308 1.93886 379.128 2.48734 379.819 3.17899C380.51 3.87067 381.058 4.69193 381.431 5.5958C381.805 6.49969 381.996 7.46843 381.996 8.44658V34.5534C381.996 35.5316 381.805 36.5004 381.431 37.4041C381.058 38.3081 380.51 39.1293 379.819 39.821C379.128 40.5126 378.308 41.0612 377.405 41.4351C376.503 41.809 375.535 42.0009 374.558 42H347.433C346.456 42.0009 345.489 41.809 344.586 41.4351C343.683 41.0612 342.863 40.5126 342.172 39.821C341.481 39.1293 340.933 38.3081 340.56 37.4041C340.186 36.5004 339.995 35.5316 339.996 34.5534V8.44658C339.995 7.46843 340.186 6.49969 340.56 5.5958C340.933 4.69193 341.481 3.87067 342.172 3.17899C342.863 2.48734 343.683 1.93886 344.586 1.56496C345.489 1.19106 346.456 0.999081 347.433 1Z" fill="#FAFAFA" stroke="#151515" stroke-opacity="0.2" stroke-width="0.8"/>
<path d="M367.981 4.33266H365.864L368.065 6.72137V7.85853H363.532V6.52702H365.732L363.532 4.13831V3H367.981V4.33266ZM362.633 4.33266H360.516L362.717 6.72137V7.85853H358.183V6.52702H360.384L358.183 4.13831V3H362.633V4.33266ZM357.337 4.38713H355.053V6.47141H357.337V7.85853H353.429V3H357.337V4.38713Z" fill="black"/>
<path d="M350.317 36.1085L347.996 10.0764H373.499L371.175 36.1042L360.731 39L350.317 36.1085Z" fill="#1572B6"/>
<path d="M360.748 36.7867L369.187 34.447L371.172 12.2051H360.748V36.7867Z" fill="#33A9DC"/>
<path d="M360.747 21.6364H364.972L365.264 18.3671H360.747V15.1743H368.753L368.677 16.0308L367.892 24.8289H360.747V21.6364Z" fill="white"/>
<path d="M360.766 29.9282L360.752 29.9322L357.197 28.9719L356.969 26.4255H353.765L354.212 31.4386L360.752 33.254L360.767 33.2497L360.766 29.9282Z" fill="#EBEBEB"/>
<path d="M364.701 24.6938L364.316 28.9696L360.755 29.9308V33.2525L367.301 31.4386L367.349 30.8991L367.904 24.6938H364.701Z" fill="white"/>
<path d="M360.759 15.1743V18.3668H353.047L352.983 17.6493L352.837 16.0308L352.761 15.1743H360.759ZM360.748 21.6367V24.8295H357.237L357.173 24.112L357.027 22.4932L356.951 21.6367H360.748Z" fill="#EBEBEB"/>
</g>
<g filter="url(#filter8_d_97_4001)">
<circle cx="408.496" cy="21.5" r="20.5" fill="#F1F1F1" stroke="#151515" stroke-opacity="0.2" stroke-width="0.8"/>
<path d="M421.754 20.9934C420.702 20.9948 419.664 21.2355 418.718 21.6972C418.422 21.2058 418.193 20.6769 418.038 20.1245C417.949 19.6916 417.929 19.2474 417.977 18.808C418.079 18.3246 418.212 17.8481 418.375 17.3814C418.369 17.3204 418.302 17.032 417.628 17.0224C416.954 17.0128 416.373 17.1505 416.311 17.3288C416.194 17.6545 416.1 17.988 416.03 18.3269C415.472 19.7027 414.786 21.0227 413.98 22.2692C413.528 21.5289 413.342 20.6567 413.453 19.7966C413.556 19.3132 413.688 18.8367 413.851 18.37C413.845 18.309 413.778 18.0205 413.104 18.011C412.43 18.0014 411.85 18.139 411.787 18.3173C411.725 18.4957 411.646 18.9158 411.506 19.3155C411.366 19.7152 409.731 23.3679 409.303 24.3098C409.082 24.7885 408.892 25.1787 408.758 25.442C408.752 25.4591 408.744 25.4755 408.734 25.4911C408.615 25.7173 408.551 25.8405 408.551 25.8405V25.8465C408.459 26.0117 408.361 26.1649 408.312 26.1649C408.226 25.8229 408.23 25.4647 408.324 25.1248C408.563 23.8574 409.149 21.8874 409.144 21.8192C409.144 21.7821 409.254 21.4398 408.764 21.2627C408.651 21.2087 408.523 21.1912 408.399 21.2126C408.275 21.2341 408.161 21.2934 408.072 21.3824C408.029 21.3824 407.999 21.4865 407.999 21.4865C407.999 21.4865 408.532 19.2712 406.983 19.2712C406.38 19.3925 405.807 19.6332 405.299 19.9791C404.79 20.325 404.356 20.7692 404.021 21.2855C403.605 21.5117 402.718 21.9952 401.769 22.5158C401.41 22.718 401.034 22.9203 400.686 23.1142C400.662 23.0903 400.637 23.0591 400.613 23.0352C398.728 21.0269 395.263 19.6099 395.412 16.9231C395.467 15.9441 395.804 13.3733 402.066 10.2508C407.219 7.71116 411.321 8.41489 412.03 9.97554C413.046 12.204 409.833 16.3414 404.508 16.941C403.919 17.0605 403.311 17.0461 402.728 16.8988C402.145 16.7515 401.603 16.4751 401.142 16.0901C400.86 15.7837 400.817 15.7657 400.713 15.8268C400.542 15.9189 400.652 16.1942 400.713 16.3534C400.916 16.721 401.191 17.0441 401.521 17.3038C401.851 17.5634 402.23 17.7542 402.635 17.865C404.73 18.3176 406.914 18.1012 408.879 17.2462C412.11 15.9979 414.624 12.5272 413.886 9.62009C413.146 6.66994 408.249 5.69692 403.615 7.34614C400.713 8.32283 398.031 9.86125 395.722 11.8737C393.17 14.2613 392.766 16.3354 392.931 17.2055C393.53 20.2909 397.78 22.298 399.48 23.788C399.394 23.8371 399.315 23.8801 399.248 23.9161C398.397 24.3385 395.154 26.0344 394.341 27.8272C393.423 29.8618 394.488 31.316 395.192 31.5122C396.253 31.7661 397.366 31.6825 398.376 31.2731C399.387 30.8637 400.244 30.149 400.829 29.2287C401.327 28.4654 401.633 27.593 401.721 26.6859C401.81 25.7788 401.677 24.8639 401.335 24.019C401.33 24.0053 401.322 23.9928 401.312 23.9819L401.978 23.5905C402.413 23.3332 402.841 23.095 403.208 22.8988C402.959 23.6174 402.813 24.3676 402.774 25.1272C402.689 26.2915 403.046 27.4449 403.772 28.3586C403.883 28.4538 404.011 28.5261 404.15 28.5713C404.288 28.6165 404.435 28.6337 404.58 28.6219C405.298 28.6219 405.627 28.0235 405.987 27.3126C406.428 26.4437 406.825 25.4336 406.825 25.4336C406.825 25.4336 406.33 28.1636 407.676 28.1636C408.166 28.1636 408.661 27.5268 408.883 27.2061V27.2121C408.883 27.2121 408.895 27.1941 408.92 27.151L408.999 27.023V27.011C409.195 26.6687 409.635 25.8908 410.29 24.5994C411.135 22.9347 411.949 20.8534 411.949 20.8534C412.027 21.3108 412.136 21.7626 412.273 22.2058C412.47 22.7431 412.703 23.2665 412.971 23.7724C412.775 24.0477 412.653 24.2009 412.653 24.2009L412.659 24.2069C412.499 24.4151 412.328 24.6413 412.138 24.8615C411.572 25.484 411.046 26.1424 410.565 26.8327C410.494 26.9486 410.469 27.0875 410.497 27.2209C410.524 27.3543 410.601 27.4723 410.713 27.5508C410.964 27.6819 411.252 27.7293 411.532 27.686C411.955 27.6621 412.371 27.5671 412.763 27.4048C413.141 27.2717 413.498 27.0842 413.822 26.8483C414.156 26.6167 414.425 26.3031 414.603 25.9376C414.781 25.572 414.862 25.1669 414.838 24.761C414.8 24.2498 414.67 23.7497 414.453 23.2853C414.514 23.1992 414.572 23.1142 414.63 23.028C415.31 22.0124 415.923 20.9533 416.466 19.8576C416.544 20.315 416.652 20.7668 416.79 21.2101C416.953 21.6744 417.153 22.1247 417.388 22.5565C416.606 23.1587 415.989 23.9503 415.597 24.8567C415.211 25.971 415.511 26.4725 416.075 26.5885C416.385 26.6098 416.694 26.5465 416.969 26.4054C417.375 26.2721 417.757 26.0759 418.102 25.8238C418.465 25.6094 418.769 25.308 418.987 24.9468C419.205 24.5856 419.33 24.1758 419.35 23.7545C419.323 23.3339 419.228 22.9204 419.069 22.5301C420.102 22.1266 421.222 21.9979 422.319 22.1567C425.232 22.499 425.808 24.317 425.698 25.0829C425.646 25.3545 425.537 25.6118 425.378 25.8377C425.218 26.0635 425.012 26.2526 424.774 26.3923C424.572 26.5203 424.505 26.5634 424.523 26.6556C424.547 26.7908 424.642 26.7836 424.816 26.7597C425.255 26.6232 425.642 26.3569 425.927 25.9958C426.211 25.6347 426.38 25.1958 426.41 24.7371C426.502 22.9418 424.788 20.9731 421.758 20.991L421.754 20.9934ZM399.278 28.5669C398.311 29.6201 396.965 30.0174 396.383 29.6811C395.758 29.3221 396.004 27.7662 397.191 26.6508C397.895 26.0168 398.656 25.4491 399.465 24.9549C399.606 24.8687 399.814 24.7466 400.063 24.5958L400.13 24.5587L400.277 24.4666C400.49 25.1773 400.509 25.9315 400.333 26.6521C400.158 27.3726 399.793 28.0335 399.278 28.5669ZM406.317 23.7796C405.98 24.5994 405.277 26.6998 404.848 26.5826C404.481 26.4844 404.25 24.8927 404.775 23.32C405.04 22.563 405.427 21.854 405.919 21.2208C406.446 20.6332 407.028 20.4369 407.168 20.6763C407.04 21.7473 406.753 22.7932 406.317 23.7796ZM412.125 26.5586C411.984 26.6316 411.85 26.6783 411.788 26.6448C411.745 26.6209 411.85 26.5251 411.85 26.5251C411.85 26.5251 412.578 25.7412 412.866 25.3869C413.031 25.1787 413.225 24.9345 413.435 24.6581V24.7371C413.435 25.673 412.529 26.3037 412.126 26.561L412.125 26.5586ZM416.606 25.5365C416.502 25.4635 416.519 25.2182 416.869 24.4534C417.112 23.9623 417.451 23.5251 417.867 23.168C417.931 23.3492 417.964 23.5397 417.965 23.7317C417.97 24.1405 417.839 24.5393 417.594 24.866C417.348 25.1927 417.001 25.4289 416.607 25.5377L416.606 25.5365Z" fill="#CD6799"/>
</g>
<g filter="url(#filter9_d_97_4001)">
<rect x="434.995" y="1" width="42" height="41" fill="#F0DB4F" stroke="#151515" stroke-opacity="0.2" stroke-width="0.8"/>
<path d="M473.519 31.9296C473.212 30.0135 471.962 28.4041 468.261 26.9034C466.976 26.3126 465.542 25.8895 465.115 24.9152C464.964 24.3482 464.944 24.0288 465.039 23.6856C465.315 22.5717 466.645 22.2244 467.698 22.5438C468.377 22.7713 469.02 23.2944 469.407 24.1288C471.22 22.9552 471.216 22.9629 472.481 22.1563C472.018 21.438 471.771 21.1065 471.467 20.7992C470.377 19.5816 468.892 18.9546 466.517 19.0026L465.279 19.1626C464.094 19.4622 462.964 20.0846 462.301 20.919C460.313 23.1749 460.88 27.1231 463.299 28.748C465.683 30.5369 469.184 30.9439 469.631 32.6167C470.066 34.6647 468.126 35.3276 466.198 35.0921C464.776 34.7965 463.986 34.0742 463.131 32.7607C461.559 33.6709 461.559 33.6709 459.941 34.6009C460.325 35.4393 460.728 35.8188 461.371 36.5452C464.413 39.6312 472.026 39.4795 473.392 34.8086C473.447 34.6482 473.815 33.5786 473.519 31.9296ZM457.789 19.2498H453.861L453.845 29.4063C453.845 31.5663 453.956 33.5464 453.605 34.1533C453.03 35.3471 451.541 35.1991 450.862 34.9676C450.172 34.6281 449.82 34.1453 449.413 33.4629C449.302 33.2669 449.218 33.1153 449.19 33.1035L445.995 35.0595C446.527 36.1496 447.309 37.0957 448.311 37.7104C449.808 38.6089 451.82 38.8843 453.924 38.4012C455.294 38.0023 456.476 37.1759 457.094 35.9181C457.989 34.2691 457.797 32.2732 457.789 30.0655C457.809 26.4639 457.789 22.8629 457.789 19.2498Z" fill="#323330"/>
</g>
<g filter="url(#filter10_d_97_4001)">
<path d="M490.433 1H517.558C518.535 0.999081 519.503 1.19106 520.405 1.56496C521.308 1.93886 522.128 2.48734 522.819 3.17899C523.51 3.87067 524.058 4.69193 524.431 5.5958C524.805 6.49969 524.996 7.46843 524.995 8.44658V34.5534C524.996 35.5316 524.805 36.5004 524.431 37.4041C524.058 38.3081 523.51 39.1293 522.819 39.821C522.128 40.5126 521.308 41.0612 520.405 41.4351C519.503 41.809 518.535 42.0009 517.558 42H490.433C489.456 42.0009 488.488 41.809 487.586 41.4351C486.683 41.0612 485.863 40.5126 485.172 39.821C484.481 39.1293 483.933 38.3081 483.56 37.4041C483.186 36.5004 482.995 35.5316 482.995 34.5534V8.44658C482.995 7.46843 483.186 6.49969 483.56 5.5958C483.933 4.69193 484.481 3.87067 485.172 3.17899C485.863 2.48734 486.683 1.93886 487.586 1.56496C488.488 1.19106 489.456 0.999081 490.433 1Z" fill="#FAFAFA" stroke="#151515" stroke-opacity="0.2" stroke-width="0.8"/>
<path d="M503.879 20.7749C505.079 20.7749 506.051 19.8025 506.051 18.6029C506.051 17.4034 505.079 16.4309 503.879 16.4309C502.68 16.4309 501.707 17.4034 501.707 18.6029C501.707 19.8025 502.68 20.7749 503.879 20.7749Z" fill="#25CEFC"/>
<path d="M503.883 26.5906C505.588 28.2488 507.27 29.2297 508.624 29.2297C509.068 29.2297 509.488 29.1363 509.839 28.9261C511.053 28.2255 511.497 26.4738 511.077 23.9748C511.006 23.5311 510.913 23.0873 510.796 22.6202C511.263 22.4801 511.684 22.34 512.104 22.1999C514.463 21.289 515.771 20.0278 515.771 18.6499C515.771 17.2486 514.463 15.9874 512.104 15.0999C511.684 14.9364 511.263 14.7963 510.796 14.6795C510.913 14.2124 511.006 13.7687 511.077 13.3249C511.474 10.7792 511.03 9.00427 509.815 8.30362C509.465 8.09342 509.045 8 508.601 8C507.27 8 505.565 8.98091 503.86 10.6391C502.178 8.98091 500.497 8 499.142 8C498.698 8 498.278 8.09342 497.928 8.30362C496.713 9.00427 496.269 10.7559 496.69 13.2549C496.76 13.6986 496.853 14.1424 496.97 14.6095C496.503 14.7496 496.083 14.8897 495.662 15.0299C493.303 15.9407 491.995 17.2019 491.995 18.5798C491.995 19.9811 493.303 21.2423 495.662 22.1298C496.083 22.2933 496.503 22.4334 496.97 22.5502C496.853 23.0173 496.76 23.461 496.69 23.9048C496.293 26.4038 496.737 28.1787 497.928 28.856C498.278 29.0662 498.698 29.1597 499.142 29.1597C500.497 29.2064 502.178 28.2255 503.883 26.5906ZM502.575 23.4377C502.996 23.461 503.439 23.461 503.883 23.461C504.327 23.461 504.771 23.461 505.191 23.4377C504.771 23.9982 504.327 24.512 503.883 25.0025C503.439 24.512 502.996 23.9982 502.575 23.4377ZM499.679 21.0321C499.913 21.4291 500.123 21.8028 500.38 22.1765C499.656 22.0831 498.979 21.9663 498.325 21.8262C498.535 21.1956 498.768 20.5417 499.049 19.8877C499.236 20.2614 499.446 20.6584 499.679 21.0321ZM498.325 15.4035C498.979 15.2634 499.656 15.1466 500.38 15.0532C500.146 15.4269 499.913 15.8006 499.679 16.1976C499.446 16.5947 499.236 16.9683 499.049 17.3654C498.745 16.6881 498.512 16.0341 498.325 15.4035ZM499.609 18.6032C499.913 17.9726 500.24 17.342 500.613 16.7114C500.964 16.1042 501.361 15.497 501.758 14.8897C502.459 14.843 503.159 14.8197 503.883 14.8197C504.631 14.8197 505.331 14.843 506.008 14.8897C506.429 15.497 506.803 16.1042 507.153 16.7114C507.527 17.342 507.854 17.9726 508.157 18.6032C507.854 19.2338 507.527 19.8644 507.153 20.4949C506.803 21.1022 506.406 21.7094 506.008 22.3166C505.308 22.3633 504.607 22.3867 503.883 22.3867C503.136 22.3867 502.435 22.3633 501.758 22.3166C501.337 21.7094 500.964 21.1022 500.613 20.4949C500.24 19.8644 499.913 19.2338 499.609 18.6032ZM508.741 17.342L508.11 16.1743C507.877 15.7772 507.667 15.4035 507.41 15.0299C508.134 15.1233 508.811 15.2401 509.465 15.3802C509.255 16.0341 509.021 16.6881 508.741 17.342ZM508.741 19.8644C509.021 20.5183 509.255 21.1722 509.465 21.8028C508.811 21.943 508.134 22.0597 507.41 22.1531C507.643 21.7795 507.877 21.4058 508.11 21.0088C508.321 20.6584 508.531 20.2614 508.741 19.8644ZM509.278 27.9685C509.091 28.0853 508.858 28.132 508.601 28.132C507.457 28.132 506.032 27.1978 504.631 25.7965C505.308 25.0725 505.962 24.2551 506.616 23.3443C507.713 23.2508 508.764 23.0873 509.745 22.8538C509.862 23.2742 509.932 23.6946 510.002 24.115C510.329 26.1001 510.072 27.5248 509.278 27.9685ZM510.493 15.6605C513.108 16.4078 514.673 17.5522 514.673 18.6032C514.673 19.514 513.599 20.4249 511.707 21.1489C511.333 21.289 510.913 21.4291 510.493 21.5459C510.189 20.5884 509.815 19.6074 509.348 18.6032C509.815 17.5989 510.212 16.618 510.493 15.6605ZM508.624 9.07433C508.881 9.07433 509.091 9.12104 509.302 9.23782C510.072 9.68156 510.353 11.0829 510.026 13.0914C509.955 13.4884 509.862 13.9088 509.769 14.3526C508.788 14.1424 507.737 13.9789 506.639 13.8621C506.009 12.9513 505.331 12.1338 504.654 11.4098C506.055 10.0319 507.48 9.07433 508.624 9.07433ZM505.191 13.7687C504.771 13.7453 504.327 13.7453 503.883 13.7453C503.439 13.7453 502.996 13.7453 502.575 13.7687C502.996 13.2082 503.439 12.6944 503.883 12.2039C504.327 12.6944 504.771 13.2315 505.191 13.7687ZM498.488 9.23782C498.675 9.12104 498.909 9.07433 499.165 9.07433C500.31 9.07433 501.735 10.0085 503.136 11.4098C502.459 12.1338 501.805 12.9513 501.151 13.8621C500.053 13.9555 499.002 14.119 498.021 14.3526C497.904 13.9322 497.834 13.5118 497.764 13.0914C497.437 11.1062 497.694 9.70492 498.488 9.23782ZM497.274 21.5459C494.658 20.7986 493.093 19.6542 493.093 18.6032C493.093 17.6923 494.168 16.7815 496.059 16.0575C496.433 15.9174 496.853 15.7772 497.274 15.6605C497.577 16.618 497.951 17.5989 498.418 18.6032C497.951 19.6074 497.554 20.6117 497.274 21.5459ZM497.764 24.115C497.834 23.7179 497.928 23.2975 498.021 22.8538C499.002 23.064 500.053 23.2275 501.151 23.3443C501.781 24.2551 502.459 25.0725 503.136 25.7965C501.735 27.1745 500.31 28.132 499.165 28.132C498.909 28.132 498.698 28.0853 498.488 27.9685C497.694 27.5248 497.437 26.1001 497.764 24.115ZM496.783 33.7372C497.297 33.1067 497.32 32.406 497.04 31.7054C496.76 31.0047 496.176 30.6777 495.452 30.6544C494.588 30.631 493.7 30.6544 492.836 30.6544H492.673V36.7033H493.373V34.4145H494.471C494.611 34.4145 494.728 34.4612 494.798 34.578L496.199 36.75C496.223 36.7968 496.293 36.8668 496.34 36.8668H497.25C496.69 36.0027 496.153 35.1853 495.592 34.3445C496.083 34.2744 496.503 34.1109 496.783 33.7372ZM493.373 33.6905V31.3784H493.63C494.168 31.3784 494.728 31.355 495.265 31.4017C495.896 31.4251 496.34 31.9155 496.34 32.5461C496.34 33.1767 495.826 33.6672 495.195 33.6905C494.635 33.7139 494.074 33.6905 493.373 33.6905ZM502.412 33.9941C502.038 32.3593 500.543 31.9389 499.399 32.4527C498.512 32.8498 498.115 33.6205 498.091 34.578C498.068 35.302 498.278 35.956 498.839 36.4464C499.469 37.0069 500.24 37.077 501.034 36.9369C501.478 36.8435 501.875 36.6333 502.178 36.3063C502.061 36.1428 501.945 35.9793 501.828 35.8392C501.174 36.3997 500.45 36.5866 499.656 36.2129C499.142 35.956 498.885 35.3254 498.839 34.8583H502.459V34.5547C502.482 34.3445 502.459 34.1576 502.412 33.9941ZM498.885 34.3678C498.815 33.6672 499.516 32.9198 500.287 32.9198C501.174 32.8965 501.735 33.4336 501.758 34.3678H498.885ZM506.055 32.3359C505.705 32.2659 505.331 32.2425 504.981 32.2659C504.42 32.3126 503.93 32.5695 503.533 32.9899C503.65 33.1534 503.743 33.3169 503.883 33.5037C503.93 33.457 503.977 33.4103 504.023 33.3869C504.397 33.0366 504.841 32.8497 505.378 32.8965C505.798 32.9198 506.195 33.0599 506.312 33.4803C506.406 33.8073 506.382 34.1576 506.406 34.508C506.335 34.508 506.312 34.4846 506.289 34.4612C505.728 33.9941 505.098 33.9007 504.42 34.0642C503.79 34.2277 503.393 34.7182 503.346 35.3487C503.299 36.0727 503.626 36.6099 504.257 36.8668C504.654 37.0303 505.098 37.0303 505.518 36.9369C505.845 36.8668 505.985 36.68 506.452 36.4231V36.7267H507.106C507.106 35.7925 507.13 34.6481 507.106 33.5738C507.106 32.8965 506.709 32.4761 506.055 32.3359ZM506.382 35.2787C506.359 35.3487 506.382 35.4188 506.382 35.4889C506.382 35.9793 506.265 36.1428 505.798 36.3297C505.471 36.4464 505.121 36.4931 504.771 36.3764C504.374 36.2596 504.093 35.9093 504.093 35.5122C504.07 35.1152 504.327 34.7182 504.724 34.6014C505.261 34.4145 505.752 34.5313 506.195 34.8583C506.335 34.9751 506.429 35.0918 506.382 35.2787ZM510.026 32.9665C510.633 32.7797 511.193 32.8965 511.614 33.4103L511.684 33.457C511.847 33.3169 511.987 33.1767 512.174 33.0132C512.104 32.9432 512.081 32.8965 512.034 32.8264C511.357 32.1024 510.026 32.009 509.208 32.5928C508.064 33.4336 508.087 35.0685 508.648 35.9326C509.185 36.75 509.955 37.0303 510.866 36.9135C511.404 36.8435 511.847 36.5866 512.198 36.1428C512.034 36.0027 511.871 35.8625 511.707 35.6991C511.66 35.7458 511.637 35.7691 511.614 35.8158C510.983 36.5165 509.932 36.4464 509.372 35.6991C509.045 35.2553 508.975 34.7415 509.068 34.2277C509.115 33.6438 509.418 33.1767 510.026 32.9665ZM514.883 36.1428C514.837 36.1662 514.813 36.1895 514.813 36.1895C514.627 36.3297 514.44 36.353 514.229 36.2829C514.019 36.1895 513.996 36.0027 513.973 35.8158V33.1534C513.973 33.1067 513.973 33.2001 513.996 32.9665H514.883V32.2659H513.949V31.0981H513.249V32.3593H512.641C512.595 32.3593 512.525 32.406 512.525 32.4527C512.501 32.6162 512.525 32.733 512.525 32.9665H513.272V35.956C513.272 36.3296 513.365 36.6566 513.692 36.8435C514.043 37.0537 514.72 37.0069 515.024 36.75C515.07 36.7267 515.094 36.6333 515.094 36.6099C515.024 36.4698 514.953 36.3063 514.883 36.1428Z" fill="#25CEFC"/>
</g>
<g filter="url(#filter11_d_97_4001)">
<path d="M538.433 1H565.558C566.535 0.999081 567.503 1.19106 568.405 1.56496C569.308 1.93886 570.128 2.48734 570.819 3.17899C571.51 3.87067 572.058 4.69193 572.431 5.5958C572.805 6.49969 572.996 7.46843 572.996 8.44658V34.5534C572.996 35.5316 572.805 36.5004 572.431 37.4041C572.058 38.3081 571.51 39.1293 570.819 39.821C570.128 40.5126 569.308 41.0612 568.405 41.4351C567.503 41.809 566.535 42.0009 565.558 42H538.433C537.456 42.0009 536.489 41.809 535.586 41.4351C534.683 41.0612 533.863 40.5126 533.172 39.821C532.481 39.1293 531.933 38.3081 531.56 37.4041C531.186 36.5004 530.995 35.5316 530.996 34.5534V8.44658C530.995 7.46843 531.186 6.49969 531.56 5.5958C531.933 4.69193 532.481 3.87067 533.172 3.17899C533.863 2.48734 534.683 1.93886 535.586 1.56496C536.489 1.19106 537.456 0.999081 538.433 1Z" fill="#FAFAFA" stroke="#151515" stroke-opacity="0.2" stroke-width="0.8"/>
<path fill-rule="evenodd" clip-rule="evenodd" d="M552.5 8C547.15 8 542.811 12.3669 542.811 17.7544C542.811 22.064 545.587 25.7204 549.437 27.01C549.921 27.1004 550.099 26.7984 550.099 26.5407C550.099 26.3082 550.09 25.5397 550.086 24.7249C547.39 25.3148 546.822 23.574 546.822 23.574C546.381 22.4464 545.746 22.1465 545.746 22.1465C544.867 21.5412 545.812 21.5536 545.812 21.5536C546.785 21.6224 547.297 22.559 547.297 22.559C548.161 24.0502 549.564 23.6189 550.117 23.3697C550.204 22.7392 550.455 22.3086 550.732 22.0651C548.58 21.8187 546.318 20.982 546.318 17.2445C546.318 16.1795 546.696 15.3094 547.316 14.6262C547.215 14.3804 546.884 13.3881 547.41 12.0446C547.41 12.0446 548.223 11.7828 550.074 13.0449C550.847 12.8287 551.676 12.7202 552.5 12.7166C553.323 12.7205 554.153 12.8289 554.927 13.0449C556.776 11.783 557.589 12.0448 557.589 12.0448C558.116 13.3883 557.784 14.3804 557.684 14.6264C558.305 15.3092 558.681 16.1795 558.681 17.2447C558.681 20.991 556.414 21.8159 554.257 22.0571C554.604 22.3597 554.914 22.9535 554.914 23.8638C554.914 25.1688 554.903 26.2191 554.903 26.5403C554.903 26.7993 555.077 27.1038 555.568 27.008C559.416 25.7167 562.188 22.0617 562.188 17.7534C562.189 12.3672 557.851 8 552.5 8Z" fill="#151515"/>
<path d="M546.481 22.0048C546.46 22.0534 546.384 22.0679 546.315 22.0346C546.244 22.0025 546.205 21.9367 546.228 21.8879C546.248 21.8384 546.325 21.8244 546.395 21.8576C546.465 21.8897 546.505 21.9562 546.481 22.0048ZM546.874 22.4459C546.827 22.4888 546.737 22.4689 546.675 22.4005C546.612 22.3324 546.6 22.2414 546.647 22.1979C546.695 22.1548 546.782 22.1749 546.845 22.243C546.909 22.3118 546.922 22.4021 546.874 22.4459ZM547.255 23.0072C547.196 23.0489 547.099 23.0099 547.039 22.923C546.979 22.8366 546.979 22.7328 547.04 22.6908C547.1 22.6491 547.196 22.6867 547.257 22.7726C547.316 22.8609 547.316 22.965 547.255 23.0072ZM547.779 23.5501C547.726 23.609 547.613 23.5932 547.53 23.5127C547.445 23.4341 547.422 23.3224 547.475 23.2635C547.529 23.2046 547.642 23.2211 547.726 23.3009C547.81 23.3793 547.836 23.4914 547.779 23.5501ZM548.501 23.8651C548.477 23.9417 548.369 23.9763 548.259 23.944C548.149 23.9105 548.078 23.8211 548.099 23.7441C548.122 23.667 548.232 23.631 548.342 23.6657C548.452 23.6987 548.524 23.7872 548.501 23.8651ZM549.294 23.9236C549.297 24.0038 549.203 24.0708 549.088 24.0722C548.973 24.0749 548.879 24.0098 548.877 23.9305C548.877 23.8493 548.968 23.7833 549.084 23.7814C549.199 23.7792 549.294 23.8438 549.294 23.9236ZM550.032 23.7973C550.045 23.8757 549.965 23.9564 549.851 23.9777C549.738 23.9988 549.635 23.9502 549.62 23.8722C549.606 23.792 549.688 23.7117 549.8 23.6907C549.914 23.6705 550.017 23.7175 550.032 23.7973Z" fill="#151515"/>
<path d="M543.586 32.484H541.149C541.119 32.484 541.09 32.4961 541.068 32.5176C541.047 32.5391 541.035 32.5683 541.035 32.5987V33.7982C541.035 33.8286 541.047 33.8578 541.068 33.8793C541.09 33.9008 541.119 33.9129 541.149 33.9129H542.099V35.4031C542.099 35.4031 541.886 35.4765 541.295 35.4765C540.599 35.4765 539.627 35.2206 539.627 33.0673C539.627 30.9138 540.64 30.6302 541.591 30.6302C542.414 30.6302 542.768 30.776 542.994 30.8464C543.065 30.8679 543.131 30.7968 543.131 30.7336L543.402 29.5746C543.403 29.5572 543.399 29.54 543.391 29.5245C543.384 29.5089 543.372 29.4954 543.359 29.4852C543.267 29.4191 542.708 29.1046 541.296 29.1046C539.669 29.1046 538 29.8011 538 33.1512C538 36.5009 539.911 37 541.521 37C542.854 37 543.663 36.4264 543.663 36.4264C543.696 36.408 543.699 36.361 543.699 36.3392V32.5984C543.699 32.568 543.687 32.5389 543.666 32.5174C543.645 32.4959 543.616 32.484 543.586 32.484ZM556.031 29.3907H554.659C554.644 29.3908 554.629 29.3938 554.615 29.3996C554.602 29.4055 554.589 29.414 554.579 29.4247C554.568 29.4354 554.56 29.4481 554.554 29.4621C554.548 29.476 554.546 29.491 554.546 29.506L554.546 32.1757H552.407V29.506C552.407 29.491 552.404 29.4761 552.399 29.4621C552.393 29.4482 552.385 29.4355 552.374 29.4248C552.364 29.4141 552.351 29.4055 552.338 29.3997C552.324 29.3939 552.309 29.3908 552.294 29.3907H550.922C550.907 29.3908 550.892 29.3938 550.878 29.3996C550.865 29.4055 550.852 29.414 550.841 29.4247C550.831 29.4354 550.823 29.4481 550.817 29.4621C550.811 29.476 550.808 29.491 550.809 29.506V36.735C550.809 36.7985 550.86 36.8503 550.922 36.8503H552.294C552.309 36.8502 552.324 36.8471 552.338 36.8413C552.351 36.8354 552.364 36.8269 552.374 36.8161C552.385 36.8054 552.393 36.7927 552.399 36.7787C552.404 36.7648 552.407 36.7498 552.407 36.7347V33.6428H554.546L554.542 36.7347C554.542 36.7985 554.593 36.8503 554.656 36.8503H556.031C556.046 36.8502 556.061 36.8471 556.075 36.8413C556.089 36.8354 556.101 36.8269 556.112 36.8161C556.122 36.8054 556.131 36.7927 556.136 36.7787C556.142 36.7648 556.145 36.7498 556.144 36.7347V29.5058C556.145 29.4907 556.142 29.4758 556.136 29.4618C556.131 29.4479 556.122 29.4352 556.112 29.4245C556.101 29.4138 556.089 29.4053 556.075 29.3995C556.061 29.3937 556.046 29.3907 556.031 29.3907ZM545.29 29.5551C544.802 29.5551 544.406 29.957 544.406 30.4545C544.406 30.9514 544.802 31.3544 545.29 31.3544C545.779 31.3544 546.175 30.9514 546.175 30.4545C546.175 29.957 545.779 29.5551 545.29 29.5551ZM545.963 31.7579H544.596C544.533 31.7579 544.477 31.823 544.477 31.8863V36.6671C544.477 36.8076 544.564 36.8494 544.676 36.8494H545.908C546.044 36.8494 546.077 36.7824 546.077 36.6648V31.8733C546.077 31.8582 546.074 31.8433 546.068 31.8294C546.063 31.8154 546.054 31.8028 546.044 31.7921C546.033 31.7814 546.021 31.7729 546.007 31.7671C545.993 31.7612 545.978 31.758 545.963 31.7579ZM561.359 31.7687H559.997C559.983 31.7688 559.968 31.7719 559.954 31.7778C559.94 31.7837 559.928 31.7922 559.917 31.8029C559.907 31.8137 559.898 31.8264 559.893 31.8403C559.887 31.8543 559.884 31.8692 559.885 31.8843V35.4288C559.885 35.4288 559.538 35.6833 559.048 35.6833C558.557 35.6833 558.427 35.4593 558.427 34.9753V31.8843C558.427 31.8692 558.424 31.8542 558.418 31.8403C558.413 31.8263 558.404 31.8136 558.394 31.8029C558.383 31.7921 558.371 31.7836 558.357 31.7777C558.343 31.7719 558.328 31.7688 558.313 31.7687H556.932C556.901 31.769 556.872 31.7812 556.851 31.8029C556.83 31.8246 556.818 31.8538 556.818 31.8843V35.2092C556.818 36.6467 557.614 36.9984 558.709 36.9984C559.607 36.9984 560.331 36.4986 560.331 36.4986C560.331 36.4986 560.365 36.7622 560.381 36.7932C560.397 36.8244 560.437 36.8558 560.481 36.8558L561.36 36.8519C561.375 36.8518 561.39 36.8488 561.404 36.843C561.418 36.8371 561.431 36.8286 561.441 36.8179C561.452 36.8071 561.46 36.7944 561.466 36.7804C561.471 36.7664 561.474 36.7515 561.474 36.7363L561.474 31.8836C561.474 31.8532 561.462 31.824 561.44 31.8025C561.419 31.7809 561.39 31.769 561.359 31.7687ZM565.081 31.6064C564.308 31.6064 563.781 31.9537 563.781 31.9537V29.5058C563.782 29.4907 563.779 29.4758 563.773 29.4619C563.767 29.4479 563.759 29.4352 563.749 29.4245C563.738 29.4138 563.726 29.4053 563.712 29.3995C563.698 29.3936 563.683 29.3906 563.668 29.3905H562.293C562.278 29.3905 562.263 29.3935 562.249 29.3993C562.235 29.4051 562.222 29.4136 562.212 29.4243C562.201 29.435 562.193 29.4477 562.187 29.4617C562.181 29.4757 562.179 29.4907 562.179 29.5058V36.7347C562.179 36.7498 562.181 36.7648 562.187 36.7788C562.193 36.7928 562.201 36.8055 562.212 36.8162C562.222 36.827 562.235 36.8355 562.249 36.8413C562.263 36.8471 562.278 36.8501 562.293 36.8501H563.247C563.29 36.8501 563.323 36.8278 563.347 36.7886C563.37 36.7496 563.405 36.4553 563.405 36.4553C563.405 36.4553 563.967 36.9917 565.032 36.9917C566.283 36.9917 567 36.3535 567 34.1254C567 31.8973 565.855 31.6064 565.081 31.6064ZM564.543 35.6792C564.071 35.6647 563.751 35.449 563.751 35.449V33.1597C563.751 33.1597 564.067 32.9648 564.455 32.9295C564.945 32.8853 565.417 33.0345 565.417 34.2121C565.417 35.454 565.204 35.6993 564.543 35.6792ZM550.039 35.6521C549.98 35.6521 549.826 35.6766 549.668 35.6766C549.163 35.6766 548.991 35.44 548.991 35.1337V33.101H550.021C550.036 33.101 550.05 33.098 550.064 33.0922C550.078 33.0864 550.091 33.0779 550.101 33.0671C550.112 33.0564 550.12 33.0436 550.126 33.0296C550.132 33.0156 550.135 33.0006 550.134 32.9855V31.8721C550.135 31.857 550.132 31.8421 550.126 31.8281C550.12 31.8141 550.112 31.8014 550.101 31.7908C550.091 31.7801 550.078 31.7716 550.064 31.7658C550.05 31.76 550.036 31.757 550.021 31.757H548.991L548.99 30.3883C548.99 30.3362 548.963 30.3103 548.904 30.3103H547.501C547.447 30.3103 547.417 30.3346 547.417 30.3871V31.8017C547.417 31.8017 546.714 31.9725 546.667 31.9863C546.643 31.9932 546.622 32.0077 546.608 32.0276C546.593 32.0474 546.585 32.0715 546.585 32.0963V32.9852C546.585 33.0003 546.588 33.0152 546.593 33.0291C546.599 33.0431 546.607 33.0558 546.618 33.0665C546.628 33.0772 546.641 33.0857 546.654 33.0916C546.668 33.0974 546.683 33.1005 546.698 33.1005H547.417V35.2392C547.417 36.828 548.524 36.984 549.271 36.984C549.612 36.984 550.02 36.8739 550.088 36.8487C550.129 36.8333 550.152 36.7909 550.152 36.7448L550.153 35.767C550.152 35.7367 550.14 35.7077 550.119 35.6863C550.098 35.6648 550.07 35.6527 550.039 35.6521Z" fill="#151515"/>
</g>
<defs>
<filter id="filter0_d_97_4001" x="0.650024" y="0.649902" width="50.7" height="49.7002" filterUnits="userSpaceOnUse" color-interpolation-filters="sRGB">
<feFlood flood-opacity="0" result="BackgroundImageFix"/>
<feColorMatrix in="SourceAlpha" type="matrix" values="0 0 0 0 0 0 0 0 0 0 0 0 0 0 0 0 0 0 127 0" result="hardAlpha"/>
<feOffset dy="4"/>
<feGaussianBlur stdDeviation="2"/>
<feComposite in2="hardAlpha" operator="out"/>
<feColorMatrix type="matrix" values="0 0 0 0 0 0 0 0 0 0 0 0 0 0 0 0 0 0 0.25 0"/>
<feBlend mode="normal" in2="BackgroundImageFix" result="effect1_dropShadow_97_4001"/>
<feBlend mode="normal" in="SourceGraphic" in2="effect1_dropShadow_97_4001" result="shape"/>
</filter>
<filter id="filter1_d_97_4001" x="48.65" y="0.649902" width="50.7" height="49.7002" filterUnits="userSpaceOnUse" color-interpolation-filters="sRGB">
<feFlood flood-opacity="0" result="BackgroundImageFix"/>
<feColorMatrix in="SourceAlpha" type="matrix" values="0 0 0 0 0 0 0 0 0 0 0 0 0 0 0 0 0 0 127 0" result="hardAlpha"/>
<feOffset dy="4"/>
<feGaussianBlur stdDeviation="2"/>
<feComposite in2="hardAlpha" operator="out"/>
<feColorMatrix type="matrix" values="0 0 0 0 0 0 0 0 0 0 0 0 0 0 0 0 0 0 0.25 0"/>
<feBlend mode="normal" in2="BackgroundImageFix" result="effect1_dropShadow_97_4001"/>
<feBlend mode="normal" in="SourceGraphic" in2="effect1_dropShadow_97_4001" result="shape"/>
</filter>
<filter id="filter2_d_97_4001" x="96.65" y="0.649902" width="50.7" height="49.7002" filterUnits="userSpaceOnUse" color-interpolation-filters="sRGB">
<feFlood flood-opacity="0" result="BackgroundImageFix"/>
<feColorMatrix in="SourceAlpha" type="matrix" values="0 0 0 0 0 0 0 0 0 0 0 0 0 0 0 0 0 0 127 0" result="hardAlpha"/>
<feOffset dy="4"/>
<feGaussianBlur stdDeviation="2"/>
<feComposite in2="hardAlpha" operator="out"/>
<feColorMatrix type="matrix" values="0 0 0 0 0 0 0 0 0 0 0 0 0 0 0 0 0 0 0.25 0"/>
<feBlend mode="normal" in2="BackgroundImageFix" result="effect1_dropShadow_97_4001"/>
<feBlend mode="normal" in="SourceGraphic" in2="effect1_dropShadow_97_4001" result="shape"/>
</filter>
<filter id="filter3_d_97_4001" x="144.65" y="0.649902" width="50.7" height="49.7002" filterUnits="userSpaceOnUse" color-interpolation-filters="sRGB">
<feFlood flood-opacity="0" result="BackgroundImageFix"/>
<feColorMatrix in="SourceAlpha" type="matrix" values="0 0 0 0 0 0 0 0 0 0 0 0 0 0 0 0 0 0 127 0" result="hardAlpha"/>
<feOffset dy="4"/>
<feGaussianBlur stdDeviation="2"/>
<feComposite in2="hardAlpha" operator="out"/>
<feColorMatrix type="matrix" values="0 0 0 0 0 0 0 0 0 0 0 0 0 0 0 0 0 0 0.25 0"/>
<feBlend mode="normal" in2="BackgroundImageFix" result="effect1_dropShadow_97_4001"/>
<feBlend mode="normal" in="SourceGraphic" in2="effect1_dropShadow_97_4001" result="shape"/>
</filter>
<filter id="filter4_d_97_4001" x="192.65" y="0.649902" width="49.6954" height="49.7002" filterUnits="userSpaceOnUse" color-interpolation-filters="sRGB">
<feFlood flood-opacity="0" result="BackgroundImageFix"/>
<feColorMatrix in="SourceAlpha" type="matrix" values="0 0 0 0 0 0 0 0 0 0 0 0 0 0 0 0 0 0 127 0" result="hardAlpha"/>
<feOffset dy="4"/>
<feGaussianBlur stdDeviation="2"/>
<feComposite in2="hardAlpha" operator="out"/>
<feColorMatrix type="matrix" values="0 0 0 0 0 0 0 0 0 0 0 0 0 0 0 0 0 0 0.25 0"/>
<feBlend mode="normal" in2="BackgroundImageFix" result="effect1_dropShadow_97_4001"/>
<feBlend mode="normal" in="SourceGraphic" in2="effect1_dropShadow_97_4001" result="shape"/>
</filter>
<filter id="filter5_d_97_4001" x="239.646" y="0.649902" width="50.7" height="49.7002" filterUnits="userSpaceOnUse" color-interpolation-filters="sRGB">
<feFlood flood-opacity="0" result="BackgroundImageFix"/>
<feColorMatrix in="SourceAlpha" type="matrix" values="0 0 0 0 0 0 0 0 0 0 0 0 0 0 0 0 0 0 127 0" result="hardAlpha"/>
<feOffset dy="4"/>
<feGaussianBlur stdDeviation="2"/>
<feComposite in2="hardAlpha" operator="out"/>
<feColorMatrix type="matrix" values="0 0 0 0 0 0 0 0 0 0 0 0 0 0 0 0 0 0 0.25 0"/>
<feBlend mode="normal" in2="BackgroundImageFix" result="effect1_dropShadow_97_4001"/>
<feBlend mode="normal" in="SourceGraphic" in2="effect1_dropShadow_97_4001" result="shape"/>
</filter>
<filter id="filter6_d_97_4001" x="287.596" y="0.600098" width="50.8" height="49.7998" filterUnits="userSpaceOnUse" color-interpolation-filters="sRGB">
<feFlood flood-opacity="0" result="BackgroundImageFix"/>
<feColorMatrix in="SourceAlpha" type="matrix" values="0 0 0 0 0 0 0 0 0 0 0 0 0 0 0 0 0 0 127 0" result="hardAlpha"/>
<feOffset dy="4"/>
<feGaussianBlur stdDeviation="2"/>
<feComposite in2="hardAlpha" operator="out"/>
<feColorMatrix type="matrix" values="0 0 0 0 0 0 0 0 0 0 0 0 0 0 0 0 0 0 0.25 0"/>
<feBlend mode="normal" in2="BackgroundImageFix" result="effect1_dropShadow_97_4001"/>
<feBlend mode="normal" in="SourceGraphic" in2="effect1_dropShadow_97_4001" result="shape"/>
</filter>
<filter id="filter7_d_97_4001" x="335.596" y="0.600098" width="50.8" height="49.7998" filterUnits="userSpaceOnUse" color-interpolation-filters="sRGB">
<feFlood flood-opacity="0" result="BackgroundImageFix"/>
<feColorMatrix in="SourceAlpha" type="matrix" values="0 0 0 0 0 0 0 0 0 0 0 0 0 0 0 0 0 0 127 0" result="hardAlpha"/>
<feOffset dy="4"/>
<feGaussianBlur stdDeviation="2"/>
<feComposite in2="hardAlpha" operator="out"/>
<feColorMatrix type="matrix" values="0 0 0 0 0 0 0 0 0 0 0 0 0 0 0 0 0 0 0.25 0"/>
<feBlend mode="normal" in2="BackgroundImageFix" result="effect1_dropShadow_97_4001"/>
<feBlend mode="normal" in="SourceGraphic" in2="effect1_dropShadow_97_4001" result="shape"/>
</filter>
<filter id="filter8_d_97_4001" x="383.596" y="0.600098" width="49.8" height="49.7998" filterUnits="userSpaceOnUse" color-interpolation-filters="sRGB">
<feFlood flood-opacity="0" result="BackgroundImageFix"/>
<feColorMatrix in="SourceAlpha" type="matrix" values="0 0 0 0 0 0 0 0 0 0 0 0 0 0 0 0 0 0 127 0" result="hardAlpha"/>
<feOffset dy="4"/>
<feGaussianBlur stdDeviation="2"/>
<feComposite in2="hardAlpha" operator="out"/>
<feColorMatrix type="matrix" values="0 0 0 0 0 0 0 0 0 0 0 0 0 0 0 0 0 0 0.25 0"/>
<feBlend mode="normal" in2="BackgroundImageFix" result="effect1_dropShadow_97_4001"/>
<feBlend mode="normal" in="SourceGraphic" in2="effect1_dropShadow_97_4001" result="shape"/>
</filter>
<filter id="filter9_d_97_4001" x="430.595" y="0.600098" width="50.8" height="49.7998" filterUnits="userSpaceOnUse" color-interpolation-filters="sRGB">
<feFlood flood-opacity="0" result="BackgroundImageFix"/>
<feColorMatrix in="SourceAlpha" type="matrix" values="0 0 0 0 0 0 0 0 0 0 0 0 0 0 0 0 0 0 127 0" result="hardAlpha"/>
<feOffset dy="4"/>
<feGaussianBlur stdDeviation="2"/>
<feComposite in2="hardAlpha" operator="out"/>
<feColorMatrix type="matrix" values="0 0 0 0 0 0 0 0 0 0 0 0 0 0 0 0 0 0 0.25 0"/>
<feBlend mode="normal" in2="BackgroundImageFix" result="effect1_dropShadow_97_4001"/>
<feBlend mode="normal" in="SourceGraphic" in2="effect1_dropShadow_97_4001" result="shape"/>
</filter>
<filter id="filter10_d_97_4001" x="478.595" y="0.600098" width="50.8" height="49.7998" filterUnits="userSpaceOnUse" color-interpolation-filters="sRGB">
<feFlood flood-opacity="0" result="BackgroundImageFix"/>
<feColorMatrix in="SourceAlpha" type="matrix" values="0 0 0 0 0 0 0 0 0 0 0 0 0 0 0 0 0 0 127 0" result="hardAlpha"/>
<feOffset dy="4"/>
<feGaussianBlur stdDeviation="2"/>
<feComposite in2="hardAlpha" operator="out"/>
<feColorMatrix type="matrix" values="0 0 0 0 0 0 0 0 0 0 0 0 0 0 0 0 0 0 0.25 0"/>
<feBlend mode="normal" in2="BackgroundImageFix" result="effect1_dropShadow_97_4001"/>
<feBlend mode="normal" in="SourceGraphic" in2="effect1_dropShadow_97_4001" result="shape"/>
</filter>
<filter id="filter11_d_97_4001" x="526.596" y="0.600098" width="50.8" height="49.7998" filterUnits="userSpaceOnUse" color-interpolation-filters="sRGB">
<feFlood flood-opacity="0" result="BackgroundImageFix"/>
<feColorMatrix in="SourceAlpha" type="matrix" values="0 0 0 0 0 0 0 0 0 0 0 0 0 0 0 0 0 0 127 0" result="hardAlpha"/>
<feOffset dy="4"/>
<feGaussianBlur stdDeviation="2"/>
<feComposite in2="hardAlpha" operator="out"/>
<feColorMatrix type="matrix" values="0 0 0 0 0 0 0 0 0 0 0 0 0 0 0 0 0 0 0.25 0"/>
<feBlend mode="normal" in2="BackgroundImageFix" result="effect1_dropShadow_97_4001"/>
<feBlend mode="normal" in="SourceGraphic" in2="effect1_dropShadow_97_4001" result="shape"/>
</filter>
<linearGradient id="paint0_linear_97_4001" x1="217.278" y1="26.636" x2="216.507" y2="38.0952" gradientUnits="userSpaceOnUse">
<stop stop-color="#FD5200"/>
<stop offset="0.2722" stop-color="#FFDC38"/>
<stop offset="0.9626" stop-color="#F3FEAB"/>
</linearGradient>
<linearGradient id="paint1_linear_97_4001" x1="210.115" y1="3.21575" x2="202.398" y2="32.9963" gradientUnits="userSpaceOnUse">
<stop offset="0.4072" stop-color="#9E010A"/>
<stop offset="0.6244" stop-color="#FC56A4"/>
<stop offset="0.689" stop-color="#F2A780"/>
<stop offset="0.7431" stop-color="#FFC78A"/>
</linearGradient>
<linearGradient id="paint2_linear_97_4001" x1="218.837" y1="12.2661" x2="215.981" y2="32.7959" gradientUnits="userSpaceOnUse">
<stop offset="0.4072" stop-color="#9E010A"/>
<stop offset="0.6244" stop-color="#FC56A4"/>
<stop offset="0.689" stop-color="#F2A780"/>
<stop offset="0.7431" stop-color="#FFC78A"/>
</linearGradient>
<linearGradient id="paint3_linear_97_4001" x1="224.681" y1="16.6564" x2="202.975" y2="32.3025" gradientUnits="userSpaceOnUse">
<stop offset="0.0753769" stop-color="#0C64CC"/>
<stop offset="0.3348" stop-color="#1F9FE3"/>
<stop offset="0.4851" stop-color="#1B9DEB"/>
<stop offset="0.7569" stop-color="#72F07F"/>
<stop offset="0.8584" stop-color="#DBFEC8"/>
<stop offset="0.9913" stop-color="#F6F9B1"/>
</linearGradient>
<linearGradient id="paint4_linear_97_4001" x1="224.043" y1="25.4648" x2="214.699" y2="19.9028" gradientUnits="userSpaceOnUse">
<stop offset="0.0251256" stop-color="#4226A2"/>
<stop offset="0.2769" stop-color="#7357CB"/>
<stop offset="0.4721" stop-color="#4783DF"/>
<stop offset="0.5228" stop-color="#3B8FE4"/>
<stop offset="0.5797" stop-color="#3B9DE4"/>
<stop offset="0.6561" stop-color="#3BA7E4"/>
<stop offset="0.7412" stop-color="#3BABE4"/>
</linearGradient>
<linearGradient id="paint5_linear_97_4001" x1="212.854" y1="44.275" x2="203.599" y2="38.7658" gradientUnits="userSpaceOnUse">
<stop stop-color="#4226A2"/>
<stop offset="0.3221" stop-color="#7357CB"/>
<stop offset="0.6283" stop-color="#3B8FE4"/>
</linearGradient>
<linearGradient id="paint6_linear_97_4001" x1="234.278" y1="9.7845" x2="201.995" y2="35.0165" gradientUnits="userSpaceOnUse">
<stop stop-color="#7C4ADF"/>
<stop offset="0.3459" stop-color="#E251D8"/>
<stop offset="0.7297" stop-color="#FCDFBC"/>
<stop offset="0.8312" stop-color="#F6F8B0"/>
<stop offset="0.9186" stop-color="#FFFFF2"/>
<stop offset="0.9894" stop-color="#F6F8B0"/>
</linearGradient>
</defs>
</svg>
