<svg width="283" height="95" viewBox="0 0 283 95" fill="none" xmlns="http://www.w3.org/2000/svg">
<path d="M132.717 42.0046H109.287C104.159 42.0046 100 37.8459 100 32.7172V9.28743C100 4.15869 104.159 0 109.287 0H132.713C137.841 0 142 4.15869 142 9.28743V32.7126C142.005 37.8459 137.846 42.0046 132.717 42.0046Z" fill="#242424"/>
<path d="M119.466 17.9527C114.161 19.5308 104.79 23.1465 104.34 37.8179C106.034 29.9183 110.211 28.7858 117.888 26.9803C125.565 25.1794 129.737 23.1465 134.37 17.6139C138.997 12.0814 137.419 4.18171 137.419 4.18171C137.419 8.47036 134.37 11.2923 131.436 13.3253C128.503 15.3582 124.771 16.3747 119.466 17.9527Z" fill="url(#paint0_linear_33_7434)"/>
<path d="M104.34 37.8228C104.354 37.4422 104.372 37.0755 104.395 36.7135C104.354 37.1034 104.33 37.4747 104.34 37.8228Z" fill="url(#paint1_linear_33_7434)"/>
<path d="M124.084 25.1701C120.097 25.922 116.036 25.8339 113.372 26.5347C108.633 27.774 104.683 33.4179 104.34 37.8179C104.354 37.442 104.372 37.0753 104.395 36.7087C104.92 31.9187 109.334 24.0609 119.016 19.7583C122.098 18.3891 124.873 16.9363 127.287 15.4511C128.846 14.843 130.211 14.17 131.432 13.3253C134.365 11.2924 137.414 8.4704 137.414 4.18175C137.414 4.18175 137.665 10.624 135.576 16.138C135.289 16.6625 134.964 17.1684 134.592 17.6464C131.78 21.2992 128.461 23.5364 124.084 25.1701Z" fill="url(#paint2_linear_33_7434)"/>
<path d="M104.405 36.5229C104.377 36.9453 104.354 37.377 104.34 37.8179C104.312 37.4187 104.335 36.9824 104.405 36.5229C105.352 22.9283 114.319 19.4844 119.466 17.9527C124.771 16.3747 128.498 15.3582 131.432 13.3253C134.365 11.2924 137.414 8.4704 137.414 4.18175C137.414 4.18175 138.997 12.0813 134.365 17.6139C129.737 23.1464 125.899 20.8861 118.222 22.6916C111.218 24.3439 105.152 31.7284 104.405 36.5229Z" fill="url(#paint3_linear_33_7434)"/>
<path d="M116.305 23.4853C123.532 22.13 128.043 22.2414 133.014 16.9363C137.981 11.6312 137.414 4.18175 137.414 4.18175C137.414 8.4704 134.365 11.2924 131.432 13.3253C130.206 14.1747 128.842 14.843 127.287 15.4511C124.873 16.9363 121.536 18.454 118.454 19.8233C108.772 24.1258 104.92 31.9187 104.395 36.7087C104.372 37.0707 104.354 37.4373 104.34 37.8179C104.683 33.4132 109.083 24.8406 116.305 23.4853Z" fill="url(#paint4_linear_33_7434)"/>
<path d="M104.34 37.8228C104.354 37.4422 104.372 37.0755 104.395 36.7135C104.354 37.1034 104.33 37.4747 104.34 37.8228Z" fill="url(#paint5_linear_33_7434)"/>
<path d="M121.388 19.0852C108.178 21.5684 104.228 33.2325 104.34 37.8228C104.678 33.4228 108.517 28.3402 113.483 25.6296C120.821 21.9026 128.498 23.9355 133.803 18.519C139.108 13.1025 137.414 4.18175 137.414 4.18175C137.414 8.4704 135.832 12.5362 133.01 14.908C130.192 17.2751 124.548 18.4819 121.388 19.0852Z" fill="url(#paint6_linear_33_7434)"/>
<path d="M57.4375 52.7998H84.5625C85.5395 52.7989 86.5071 52.9909 87.4098 53.3648C88.3126 53.7387 89.1328 54.2871 89.8237 54.9788C90.5144 55.6705 91.0623 56.4917 91.4358 57.3956C91.8092 58.2995 92.0009 59.2682 92 60.2464V86.3532C92.0009 87.3314 91.8092 88.3002 91.4358 89.2039C91.0623 90.1079 90.5144 90.9291 89.8237 91.6208C89.1328 92.3124 88.3126 92.861 87.4098 93.2349C86.5071 93.6088 85.5395 93.8007 84.5625 93.7998H57.4375C56.4605 93.8007 55.493 93.6088 54.5902 93.2349C53.6874 92.861 52.8672 92.3124 52.1763 91.6208C51.4855 90.9291 50.9377 90.1079 50.5643 89.2039C50.1908 88.3002 49.9991 87.3314 50 86.3532V60.2464C49.9991 59.2682 50.1908 58.2995 50.5643 57.3956C50.9377 56.4917 51.4855 55.6705 52.1763 54.9788C52.8672 54.2871 53.6874 53.7387 54.5902 53.3648C55.493 52.9909 56.4605 52.7989 57.4375 52.7998Z" fill="#49021F"/>
<path d="M65.26 63.5226V81.4995C65.26 81.6923 65.1725 81.7799 65.015 81.7799H61.585C61.4275 81.7799 61.3575 81.6923 61.3575 81.4995V63.5226C61.3575 63.3649 61.445 63.2948 61.6025 63.2948H65.015C65.0415 63.2907 65.0686 63.2919 65.0947 63.2986C65.1207 63.3052 65.1451 63.3171 65.1664 63.3335C65.1877 63.3499 65.2054 63.3704 65.2185 63.3939C65.2316 63.4174 65.2397 63.4433 65.2425 63.4701C65.2491 63.477 65.2541 63.4853 65.2572 63.4944C65.2602 63.5035 65.2611 63.5131 65.26 63.5226Z" fill="#FF3366"/>
<path d="M75.34 82.0603C74.0427 82.0817 72.7573 81.8122 71.5775 81.2719C70.4799 80.7579 69.5599 79.9283 68.935 78.8889C68.2875 77.8201 67.9725 76.4885 67.9725 74.8941C67.9548 73.5975 68.2873 72.32 68.935 71.1971C69.5991 70.0557 70.5609 69.1169 71.7175 68.4813C72.9425 67.7979 74.4125 67.465 76.145 67.465C76.2677 67.4636 76.3905 67.4695 76.5125 67.4825C76.67 67.5001 76.845 67.5001 77.055 67.5176V61.9808C77.055 61.8582 77.1075 61.7881 77.23 61.7881H80.7825C80.8217 61.7828 80.8614 61.7925 80.894 61.8152C80.9263 61.8379 80.9491 61.872 80.9575 61.9107V78.6261C80.9575 78.9415 80.975 79.2919 80.9925 79.6774C81.01 80.0629 81.045 80.3958 81.0625 80.6936C81.0662 80.7529 81.0513 80.8117 81.02 80.862C80.9886 80.9123 80.9423 80.9514 80.8875 80.974C79.9708 81.3596 79.0141 81.6417 78.035 81.815C77.1456 81.9764 76.2439 82.0586 75.34 82.0603ZM77.055 78.556V70.8466C76.8992 70.809 76.7414 70.7797 76.5825 70.759C76.39 70.7415 76.1975 70.724 76.005 70.724C75.319 70.7163 74.641 70.8724 74.0275 71.1795C73.4295 71.4779 72.9175 71.9242 72.54 72.4761C72.155 73.0368 71.9625 73.7902 71.9625 74.7013C71.9473 75.3163 72.0482 75.9285 72.26 76.506C72.4292 76.973 72.698 77.3975 73.0475 77.7501C73.3849 78.0724 73.7921 78.3123 74.2375 78.4509C74.7063 78.6046 75.1967 78.6815 75.69 78.6787C75.9525 78.6787 76.1975 78.6612 76.425 78.6436C76.6388 78.6601 76.8537 78.6303 77.055 78.556Z" fill="#FF3366"/>
<path d="M57.4375 1H84.5625C85.5395 0.999081 86.5071 1.19106 87.4097 1.56496C88.3126 1.93886 89.1328 2.48734 89.8237 3.179C90.5144 3.87067 91.0623 4.69193 91.4358 5.59581C91.8092 6.49968 92.0009 7.46842 92 8.44659V34.5534C92.0009 35.5316 91.8092 36.5004 91.4358 37.4042C91.0623 38.3081 90.5144 39.1293 89.8237 39.821C89.1328 40.5126 88.3126 41.0612 87.4097 41.4351C86.5071 41.809 85.5395 42.0009 84.5625 42H57.4375C56.4605 42.0009 55.493 41.809 54.5902 41.4351C53.6874 41.0612 52.8672 40.5126 52.1763 39.821C51.4855 39.1293 50.9377 38.3081 50.5643 37.4042C50.1908 36.5004 49.9991 35.5316 50 34.5534V8.44659C49.9991 7.46842 50.1908 6.49968 50.5643 5.59581C50.9377 4.69193 51.4855 3.87067 52.1763 3.179C52.8672 2.48734 53.6874 1.93886 54.5902 1.56496C55.493 1.19106 56.4605 0.999081 57.4375 1Z" fill="#001E36"/>
<path d="M72.0501 29.9804H60.9551C60.7626 29.9804 60.6751 29.8753 60.6751 29.6651V11.7582C60.6712 11.7294 60.6731 11.7001 60.6808 11.672C60.6884 11.6439 60.7016 11.6177 60.7195 11.5948C60.7375 11.5719 60.7598 11.5529 60.7853 11.5388C60.8107 11.5247 60.8387 11.5159 60.8676 11.5129H64.3676C64.3895 11.5089 64.412 11.5094 64.4337 11.5144C64.4554 11.5193 64.4758 11.5287 64.4938 11.5418C64.5118 11.5549 64.527 11.5715 64.5384 11.5906C64.5498 11.6098 64.5572 11.631 64.5601 11.6531V26.4236H72.6451C72.8201 26.4236 72.8726 26.5112 72.8376 26.6689L72.3301 29.7176C72.3273 29.7579 72.3166 29.7972 72.2986 29.8333C72.2806 29.8694 72.2556 29.9016 72.2251 29.9279C72.1738 29.9634 72.1126 29.9818 72.0501 29.9804Z" fill="#31A8FF"/>
<path d="M74.85 15.9633H77.9125C77.9954 15.9653 78.0756 15.9935 78.1416 16.0438C78.2075 16.0942 78.256 16.1641 78.28 16.2436C78.3524 16.3676 78.3999 16.5045 78.42 16.6466C78.455 16.8219 78.49 17.0146 78.5075 17.1898C78.525 17.365 78.5425 17.5928 78.5425 17.8206C79.068 17.2064 79.7029 16.6954 80.415 16.3137C81.2146 15.8798 82.1134 15.6624 83.0225 15.683C83.0514 15.6791 83.0806 15.681 83.1086 15.6886C83.1366 15.6962 83.1628 15.7094 83.1858 15.7274C83.2085 15.7454 83.2276 15.7678 83.2416 15.7933C83.2558 15.8187 83.2645 15.8468 83.2675 15.8757V19.3625C83.2675 19.5026 83.18 19.5552 82.9875 19.5552C81.8533 19.4872 80.7193 19.6915 79.68 20.1509C79.3254 20.3028 79.0045 20.5231 78.735 20.7992V29.7351C78.735 29.9103 78.665 29.9804 78.5075 29.9804H75.095C75.0628 29.9858 75.0297 29.9846 74.9979 29.9769C74.966 29.9692 74.9361 29.955 74.91 29.9354C74.8838 29.9157 74.8619 29.8909 74.8454 29.8625C74.8292 29.8341 74.8188 29.8027 74.815 29.7701V19.9932C74.815 19.5727 74.815 19.1347 74.7975 18.6791C74.78 18.2236 74.78 17.768 74.7625 17.3125C74.745 16.927 74.71 16.5415 74.6575 16.156C74.6528 16.1353 74.6524 16.1139 74.6559 16.093C74.6596 16.0721 74.6673 16.0521 74.6788 16.0342C74.6902 16.0163 74.7049 16.0008 74.7222 15.9886C74.7397 15.9765 74.7593 15.9679 74.78 15.9633C74.7975 15.9458 74.815 15.9458 74.85 15.9633Z" fill="#31A8FF"/>
<path d="M107.438 52.7998H134.562C135.54 52.7989 136.507 52.9909 137.41 53.3648C138.313 53.7387 139.133 54.2871 139.824 54.9788C140.514 55.6705 141.062 56.4917 141.436 57.3956C141.809 58.2995 142.001 59.2682 142 60.2464V86.3532C142.001 87.3315 141.809 88.3002 141.436 89.204C141.062 90.1079 140.514 90.9291 139.824 91.6208C139.133 92.3124 138.313 92.861 137.41 93.2349C136.507 93.6088 135.54 93.8007 134.562 93.7998H107.438C106.461 93.8007 105.493 93.6088 104.59 93.2349C103.687 92.861 102.867 92.3124 102.176 91.6208C101.486 90.9291 100.938 90.1079 100.564 89.204C100.191 88.3002 99.9991 87.3315 100 86.3532V60.2464C99.9991 59.2682 100.191 58.2995 100.564 57.3956C100.938 56.4917 101.486 55.6705 102.176 54.9788C102.867 54.2871 103.687 53.7387 104.59 53.3648C105.493 52.9909 106.461 52.7989 107.438 52.7998Z" fill="#000B1D"/>
<path d="M116.625 86.441C119.041 86.441 121 84.4798 121 82.0606V77.6803H116.625C114.209 77.6803 112.25 79.6414 112.25 82.0606C112.25 84.4798 114.209 86.441 116.625 86.441Z" fill="#0ACF83"/>
<path d="M112.25 73.2997C112.25 70.8805 114.209 68.9193 116.625 68.9193H121V77.6803H116.625C114.209 77.6803 112.25 75.7189 112.25 73.2997Z" fill="#A259FF"/>
<path d="M112.25 64.5392C112.25 62.12 114.209 60.1589 116.625 60.1589H121V68.9193H116.625C114.209 68.9193 112.25 66.9584 112.25 64.5392Z" fill="#F24E1E"/>
<path d="M121 60.1589H125.375C127.791 60.1589 129.75 62.12 129.75 64.5392C129.75 66.9584 127.791 68.9196 125.375 68.9196L121 68.9193V60.1589Z" fill="#FF7262"/>
<path d="M129.75 73.2997C129.75 75.7189 127.791 77.68 125.375 77.68C122.959 77.68 121 75.7189 121 73.2997C121 70.8805 122.959 68.9196 125.375 68.9196C127.791 68.9196 129.75 70.8805 129.75 73.2997Z" fill="#1ABCFE"/>
<path d="M7.4375 1H34.5625C35.5395 0.999081 36.5071 1.19106 37.4097 1.56496C38.3126 1.93886 39.1328 2.48734 39.8237 3.179C40.5144 3.87067 41.0623 4.69193 41.4358 5.59581C41.8092 6.49968 42.0009 7.46842 42 8.44659V34.5534C42.0009 35.5316 41.8092 36.5004 41.4358 37.4042C41.0623 38.3081 40.5144 39.1293 39.8237 39.821C39.1328 40.5126 38.3126 41.0612 37.4097 41.4351C36.5071 41.809 35.5395 42.0009 34.5625 42H7.4375C6.46053 42.0009 5.49297 41.809 4.5902 41.4351C3.68743 41.0612 2.86717 40.5126 2.17634 39.821C1.48552 39.1293 0.937716 38.3081 0.564273 37.4042C0.19083 36.5004 -0.000917496 35.5316 3.30064e-06 34.5534V8.44659C-0.000917496 7.46842 0.19083 6.49968 0.564273 5.59581C0.937716 4.69193 1.48552 3.87067 2.17634 3.179C2.86717 2.48734 3.68743 1.93886 4.5902 1.56496C5.49297 1.19106 6.46053 0.999081 7.4375 1Z" fill="#001E36"/>
<path d="M9.44993 29.7528V11.7233C9.44993 11.6006 9.50243 11.5305 9.62493 11.5305C9.92243 11.5305 10.2024 11.5305 10.6049 11.513C11.0074 11.4955 11.4624 11.4955 11.9349 11.478C12.4074 11.4605 12.9149 11.4605 13.4574 11.4429C13.9999 11.4254 14.5249 11.4254 15.0499 11.4254C16.4849 11.4254 17.6749 11.6006 18.6549 11.9686C19.5334 12.2673 20.3344 12.7581 20.9999 13.4053C21.5638 13.9718 21.9995 14.653 22.2774 15.4028C22.5424 16.1329 22.6785 16.9037 22.6799 17.6805C22.6799 19.1874 22.3299 20.4314 21.6299 21.4126C20.9266 22.3924 19.9449 23.1374 18.8124 23.5502C17.6224 23.9882 16.3099 24.1459 14.8749 24.1459C14.4549 24.1459 14.1749 24.1459 13.9999 24.1284C13.8249 24.1109 13.5799 24.1109 13.2474 24.1109V29.7352C13.2513 29.7641 13.2494 29.7934 13.2418 29.8214C13.2342 29.8495 13.221 29.8758 13.203 29.8987C13.1851 29.9215 13.1627 29.9406 13.1373 29.9546C13.1118 29.9688 13.0838 29.9776 13.0549 29.9805H9.65993C9.51993 29.9805 9.44993 29.9105 9.44993 29.7528ZM13.2649 14.9122V20.7993C13.5099 20.8169 13.7374 20.8344 13.9474 20.8344H14.8749C15.5581 20.8353 16.2372 20.7287 16.8874 20.519C17.4453 20.3548 17.9437 20.0323 18.3224 19.5904C18.6899 19.1523 18.8649 18.5566 18.8649 17.7857C18.8814 17.2381 18.7417 16.6972 18.4624 16.2263C18.1707 15.7713 17.7414 15.4215 17.2374 15.2275C16.5805 14.9699 15.8775 14.8506 15.1724 14.8771C14.7174 14.8771 14.3149 14.8771 13.9824 14.8946C13.7432 14.879 13.5031 14.8848 13.2649 14.9122Z" fill="#31A8FF"/>
<path d="M33.6001 19.7304C33.0718 19.4518 32.5058 19.2512 31.9201 19.1347C31.2768 18.9888 30.6197 18.9125 29.9601 18.9069C29.6059 18.8947 29.2519 18.936 28.9101 19.0296C28.6921 19.075 28.4989 19.1999 28.3676 19.38C28.2792 19.5221 28.2308 19.6856 28.2276 19.8531C28.2357 20.0197 28.2971 20.1795 28.4026 20.3086C28.5685 20.5035 28.7706 20.6641 28.9976 20.7817C29.4001 20.992 29.8201 21.1847 30.2401 21.3599C31.1856 21.6786 32.0902 22.1079 32.9351 22.639C33.5098 23.0008 33.9851 23.5007 34.3176 24.0933C34.5988 24.6522 34.7371 25.2723 34.7201 25.898C34.7343 26.7262 34.4963 27.539 34.0376 28.2283C33.5495 28.9277 32.8684 29.4697 32.0776 29.7877C31.2201 30.1556 30.1701 30.3484 28.9101 30.3484C28.1112 30.3515 27.3139 30.2753 26.5301 30.1206C25.9129 30.0139 25.3126 29.8252 24.7451 29.5599C24.684 29.5293 24.6333 29.4814 24.5992 29.4222C24.565 29.3632 24.5488 29.2952 24.5526 29.227V26.1783C24.551 26.1483 24.5566 26.1185 24.5689 26.091C24.581 26.0637 24.5993 26.0395 24.6226 26.0206C24.6473 26.0062 24.6758 26.0001 24.7043 26.0033C24.7327 26.0064 24.7593 26.0187 24.7801 26.0381C25.4542 26.436 26.1864 26.7257 26.9501 26.8967C27.6244 27.0724 28.3184 27.1607 29.0151 27.1595C29.6801 27.1595 30.1526 27.0719 30.4676 26.9142C30.6081 26.8492 30.7271 26.7455 30.811 26.6151C30.8946 26.4847 30.9394 26.3332 30.9401 26.1783C30.9401 25.933 30.8001 25.7052 30.5201 25.4774C30.2401 25.2497 29.6626 24.9868 28.8051 24.6539C27.9254 24.3436 27.0901 23.9194 26.3201 23.3924C25.7717 23.0011 25.3174 22.4923 24.9901 21.9031C24.7108 21.3498 24.5726 20.7358 24.5876 20.1159C24.5902 19.3683 24.7959 18.6353 25.1826 17.9958C25.6271 17.2924 26.2653 16.7327 27.0201 16.3839C27.8426 15.9633 28.8751 15.7706 30.1176 15.7706C30.8439 15.7708 31.5691 15.8235 32.2876 15.9283C32.8042 15.9983 33.31 16.1337 33.7926 16.3313C33.8694 16.3586 33.9324 16.4153 33.9676 16.489C33.9877 16.5574 33.9995 16.628 34.0026 16.6992V19.5552C34.003 19.5892 33.9951 19.6229 33.9799 19.6533C33.9646 19.6838 33.9424 19.7103 33.9151 19.7304C33.8133 19.7671 33.702 19.7671 33.6001 19.7304Z" fill="#31A8FF"/>
<path d="M7.4375 52.7998H34.5625C35.5395 52.7989 36.5071 52.9909 37.4098 53.3648C38.3126 53.7387 39.1328 54.2871 39.8237 54.9788C40.5144 55.6705 41.0624 56.4917 41.4358 57.3956C41.8093 58.2995 42.0009 59.2682 42 60.2464V86.3532C42.0009 87.3314 41.8093 88.3002 41.4358 89.2039C41.0624 90.1079 40.5144 90.9291 39.8237 91.6208C39.1328 92.3124 38.3126 92.861 37.4098 93.2349C36.5071 93.6088 35.5395 93.8007 34.5625 93.7998H7.4375C6.46053 93.8007 5.49297 93.6088 4.5902 93.2349C3.68743 92.861 2.86717 92.3124 2.17634 91.6208C1.48552 90.9291 0.937716 90.1079 0.564273 89.2039C0.19083 88.3002 -0.000917496 87.3314 3.30064e-06 86.3532V60.2464C-0.000917496 59.2682 0.19083 58.2995 0.564273 57.3956C0.937716 56.4917 1.48552 55.6705 2.17634 54.9788C2.86717 54.2871 3.68743 53.7387 4.5902 53.3648C5.49297 52.9909 6.46053 52.7989 7.4375 52.7998Z" fill="#330000"/>
<path d="M20.3525 77.3995H13.8425L12.5125 81.517C12.4977 81.592 12.4553 81.6588 12.3938 81.7043C12.3323 81.7497 12.256 81.7704 12.18 81.7623H8.89002C8.69752 81.7623 8.64502 81.6572 8.69752 81.4469L14.3325 65.2046C14.385 65.0294 14.4375 64.8367 14.5075 64.6264C14.578 64.2509 14.6131 63.8696 14.6125 63.4875C14.6073 63.4437 14.6188 63.3994 14.6448 63.3637C14.6707 63.3279 14.7092 63.3033 14.7525 63.2948H19.285C19.425 63.2948 19.495 63.3474 19.5125 63.435L25.9 81.482C25.9525 81.6747 25.9 81.7623 25.725 81.7623H22.0675C22.0057 81.7683 21.9436 81.7522 21.8925 81.7169C21.8412 81.6817 21.8041 81.6295 21.7875 81.5696L20.3525 77.3995ZM14.8575 73.8427H19.3025C19.1975 73.4747 19.0575 73.0367 18.9 72.5811C18.7425 72.1256 18.585 71.5999 18.4275 71.0743C18.27 70.5487 18.095 70.0055 17.92 69.4623C17.745 68.9192 17.5875 68.411 17.4475 67.9029C17.3075 67.3948 17.185 66.9568 17.0625 66.5363H17.0275C16.8702 67.2999 16.6716 68.0545 16.4325 68.7965C16.17 69.6375 15.9075 70.5136 15.6275 71.3897C15.3825 72.2833 15.12 73.1068 14.8575 73.8427Z" fill="#FF9A00"/>
<path d="M29.715 66.2914C29.4278 66.2977 29.142 66.2467 28.8746 66.1414C28.6072 66.0361 28.3635 65.8786 28.1575 65.6781C27.7566 65.2392 27.5431 64.6607 27.5625 64.0662C27.5522 63.7765 27.6029 63.4879 27.7114 63.2192C27.8201 62.9505 27.9839 62.7078 28.1925 62.5068C28.6132 62.1087 29.1713 61.889 29.75 61.8935C30.4325 61.8935 30.9575 62.1038 31.3425 62.5068C31.7301 62.9316 31.9373 63.491 31.92 64.0662C31.9307 64.3622 31.882 64.6574 31.7768 64.9342C31.6715 65.2111 31.5121 65.464 31.3075 65.6781C31.1013 65.8884 30.8525 66.052 30.5777 66.1578C30.303 66.2636 30.0088 66.3091 29.715 66.2914ZM27.755 81.4999V68.0085C27.755 67.8333 27.825 67.7632 27.9825 67.7632H31.4475C31.605 67.7632 31.675 67.8508 31.675 68.0085V81.4999C31.675 81.6927 31.605 81.7803 31.4475 81.7803H28.0175C27.9807 81.7832 27.9436 81.778 27.9093 81.7647C27.8749 81.7513 27.8439 81.7305 27.8187 81.7035C27.7933 81.6765 27.7746 81.6443 27.7636 81.6091C27.7525 81.5737 27.7496 81.5365 27.755 81.4999Z" fill="#FF9A00"/>
<path d="M174.416 53.5548H171.947L174.515 56.3416V57.6683H169.225V56.1149H171.793L169.225 53.328V52H174.416V53.5548ZM168.177 53.5548H165.707L168.275 56.3416V57.6683H162.985V56.1149H165.554L162.985 53.328V52H168.177V53.5548ZM161.998 53.6183H159.333V56.05H161.998V57.6683H157.439V52H161.998V53.6183Z" fill="#131313"/>
<path d="M153.808 90.6266L151.1 60.2558H180.854L178.143 90.6216L165.959 94L153.808 90.6266Z" fill="#1572B6"/>
<path d="M165.977 91.4177L175.823 88.6881L178.139 62.7392H165.977V91.4177Z" fill="#33A9DC"/>
<path d="M165.977 73.7425H170.906L171.247 69.9283H165.977V66.2034H175.317L174.313 77.4671H165.977V73.7425Z" fill="white"/>
<path d="M165.999 83.4163L165.983 83.421L161.835 82.3006L161.569 79.3299H157.831L158.353 85.1784L165.982 87.2964L166 87.2914L165.999 83.4163Z" fill="#EBEBEB"/>
<path d="M170.589 77.3093L170.141 82.2977L165.986 83.4191V87.2945L173.622 85.1782L174.327 77.3093H170.589Z" fill="white"/>
<path d="M165.99 66.2034V69.928H156.993L156.659 66.2034H165.99ZM165.977 73.7425V77.4671L161.881 77.4678L161.547 73.7429L165.977 73.7425Z" fill="#EBEBEB"/>
<path fill-rule="evenodd" clip-rule="evenodd" d="M261.836 53C254.221 53 248.045 59.174 248.045 66.7907C248.045 72.8836 251.997 78.0531 257.476 79.8764C258.165 80.0041 258.419 79.5772 258.419 79.2128C258.419 78.8842 258.406 77.7976 258.4 76.6456C254.563 77.4796 253.754 75.0184 253.754 75.0184C253.126 73.4243 252.222 73.0003 252.222 73.0003C250.971 72.1446 252.316 72.1621 252.316 72.1621C253.701 72.2593 254.431 73.5834 254.431 73.5834C255.66 75.6917 257.657 75.082 258.444 74.7296C258.568 73.8382 258.925 73.2295 259.319 72.8852C256.256 72.5368 253.036 71.354 253.036 66.0698C253.036 64.5641 253.575 63.334 254.457 62.3681C254.314 62.0206 253.842 60.6177 254.591 58.7182C254.591 58.7182 255.749 58.348 258.383 60.1325C259.484 59.8268 260.664 59.6735 261.835 59.6683C263.008 59.6738 264.188 59.8271 265.29 60.1325C267.922 58.3484 269.079 58.7185 269.079 58.7185C269.829 60.618 269.357 62.0206 269.214 62.3684C270.098 63.3337 270.633 64.5641 270.633 66.0701C270.633 71.3666 267.407 72.5329 264.336 72.8739C264.831 73.3018 265.272 74.1413 265.272 75.4281C265.272 77.2732 265.256 78.7581 265.256 79.2122C265.256 79.5785 265.504 80.0089 266.203 79.8734C271.68 78.0479 275.626 72.8804 275.626 66.7894C275.627 59.1743 269.452 53 261.836 53Z" fill="#181616"/>
<path d="M253.269 72.8C253.238 72.8687 253.13 72.8891 253.032 72.8421C252.932 72.7967 252.876 72.7037 252.909 72.6347C252.938 72.5647 253.046 72.5449 253.146 72.5919C253.247 72.6373 253.303 72.7313 253.269 72.8ZM253.828 73.4236C253.762 73.4842 253.633 73.456 253.546 73.3595C253.455 73.2632 253.439 73.1345 253.505 73.0729C253.573 73.012 253.698 73.0405 253.787 73.1368C253.878 73.234 253.896 73.3617 253.828 73.4236ZM254.371 74.2171C254.287 74.2761 254.148 74.221 254.063 74.0982C253.978 73.976 253.978 73.8291 254.065 73.7698C254.15 73.7108 254.287 73.764 254.373 73.8855C254.458 74.0103 254.458 74.1575 254.371 74.2171ZM255.116 74.9847C255.04 75.068 254.879 75.0456 254.762 74.9319C254.641 74.8207 254.608 74.6628 254.683 74.5795C254.76 74.4962 254.922 74.5196 255.04 74.6324C255.16 74.7432 255.197 74.9017 255.116 74.9847ZM256.144 75.4301C256.11 75.5383 255.956 75.5873 255.799 75.5416C255.643 75.4943 255.541 75.3678 255.572 75.2589C255.605 75.15 255.761 75.0991 255.918 75.1481C256.074 75.1947 256.176 75.3199 256.144 75.4301ZM257.272 75.5127C257.276 75.6262 257.144 75.7208 256.98 75.7228C256.815 75.7267 256.682 75.6346 256.68 75.5225C256.68 75.4077 256.809 75.3144 256.974 75.3118C257.138 75.3085 257.272 75.3999 257.272 75.5127ZM258.322 75.3341C258.342 75.445 258.228 75.5591 258.065 75.5892C257.905 75.6191 257.757 75.5503 257.737 75.4401C257.717 75.3267 257.833 75.2132 257.993 75.1834C258.156 75.1549 258.302 75.2213 258.322 75.3341Z" fill="#181616"/>
<path d="M249.148 87.6155H245.679C245.636 87.6155 245.595 87.6326 245.565 87.6629C245.534 87.6933 245.517 87.7346 245.517 87.7775V89.4735C245.517 89.5164 245.534 89.5577 245.565 89.5881C245.595 89.6185 245.636 89.6355 245.679 89.6355H247.032V91.7425C247.032 91.7425 246.728 91.8462 245.888 91.8462C244.897 91.8462 243.513 91.4845 243.513 88.4401C243.513 85.3954 244.954 84.9945 246.308 84.9945C247.479 84.9945 247.984 85.2006 248.305 85.3001C248.406 85.3306 248.5 85.2301 248.5 85.1406L248.887 83.5021C248.887 83.4776 248.882 83.4532 248.871 83.4312C248.86 83.4092 248.844 83.3901 248.824 83.3757C248.694 83.2823 247.898 82.8376 245.888 82.8376C243.573 82.8376 241.197 83.8223 241.197 88.5587C241.197 93.2945 243.917 94.0001 246.209 94.0001C248.106 94.0001 249.257 93.1891 249.257 93.1891C249.304 93.1632 249.31 93.0967 249.31 93.0659V87.7772C249.31 87.7342 249.293 87.693 249.262 87.6626C249.232 87.6322 249.191 87.6155 249.148 87.6155ZM266.862 83.2421H264.909C264.888 83.2422 264.867 83.2465 264.847 83.2547C264.827 83.263 264.809 83.275 264.794 83.2902C264.779 83.3053 264.768 83.3233 264.76 83.343C264.752 83.3627 264.747 83.3839 264.748 83.4052L264.748 87.1795H261.704V83.4052C261.704 83.3839 261.7 83.3628 261.692 83.3431C261.684 83.3234 261.672 83.3054 261.657 83.2903C261.642 83.2752 261.624 83.2631 261.605 83.2548C261.585 83.2466 261.564 83.2423 261.543 83.2421H259.59C259.568 83.2422 259.547 83.2465 259.528 83.2547C259.508 83.263 259.49 83.275 259.475 83.2902C259.46 83.3053 259.448 83.3233 259.44 83.343C259.432 83.3627 259.428 83.3839 259.428 83.4052V93.6254C259.428 93.7152 259.501 93.7885 259.59 93.7885H261.543C261.564 93.7883 261.585 93.784 261.605 93.7757C261.624 93.7674 261.642 93.7554 261.657 93.7402C261.672 93.725 261.684 93.707 261.692 93.6873C261.7 93.6675 261.704 93.6464 261.704 93.6251V89.2537H264.748L264.743 93.6251C264.743 93.7152 264.816 93.7885 264.905 93.7885H266.862C266.884 93.7883 266.905 93.784 266.924 93.7757C266.944 93.7674 266.962 93.7554 266.977 93.7402C266.992 93.725 267.003 93.707 267.011 93.6873C267.019 93.6675 267.024 93.6464 267.023 93.6251V83.4049C267.024 83.3836 267.02 83.3624 267.012 83.3427C267.004 83.323 266.992 83.305 266.977 83.2899C266.962 83.2748 266.944 83.2627 266.924 83.2545C266.905 83.2463 266.884 83.2421 266.862 83.2421ZM251.574 83.4745C250.879 83.4745 250.315 84.0428 250.315 84.7462C250.315 85.4486 250.879 86.0184 251.574 86.0184C252.269 86.0184 252.833 85.4486 252.833 84.7462C252.833 84.0428 252.269 83.4745 251.574 83.4745ZM252.532 86.5889H250.585C250.496 86.5889 250.416 86.681 250.416 86.7704V93.5295C250.416 93.7282 250.54 93.7872 250.7 93.7872H252.453C252.646 93.7872 252.693 93.6925 252.693 93.5262V86.752C252.693 86.7307 252.689 86.7096 252.681 86.6899C252.673 86.6702 252.661 86.6523 252.646 86.6372C252.631 86.6221 252.614 86.61 252.594 86.6018C252.574 86.5936 252.553 86.589 252.532 86.5889ZM274.446 86.6041H272.508C272.486 86.6043 272.465 86.6087 272.446 86.617C272.426 86.6253 272.408 86.6374 272.393 86.6525C272.378 86.6677 272.367 86.6857 272.359 86.7054C272.351 86.7251 272.347 86.7462 272.347 86.7675V91.7788C272.347 91.7788 271.854 92.1386 271.156 92.1386C270.457 92.1386 270.272 91.8219 270.272 91.1376V86.7675C270.272 86.7462 270.268 86.7251 270.26 86.7053C270.252 86.6856 270.24 86.6676 270.225 86.6524C270.21 86.6372 270.192 86.6252 270.173 86.6169C270.153 86.6086 270.132 86.6043 270.111 86.6041H268.144C268.101 86.6045 268.059 86.6219 268.029 86.6525C267.999 86.6831 267.982 86.7245 267.982 86.7675V91.4682C267.982 93.5006 269.115 93.9979 270.673 93.9979C271.952 93.9979 272.982 93.2912 272.982 93.2912C272.982 93.2912 273.031 93.664 273.054 93.7078C273.076 93.7518 273.134 93.7962 273.196 93.7962L274.448 93.7907C274.469 93.7906 274.49 93.7864 274.51 93.7781C274.529 93.7698 274.547 93.7578 274.562 93.7426C274.577 93.7274 274.589 93.7095 274.597 93.6897C274.606 93.6699 274.61 93.6487 274.61 93.6274L274.609 86.7665C274.608 86.7235 274.591 86.6824 274.561 86.6519C274.531 86.6214 274.489 86.6045 274.446 86.6041ZM279.743 86.3747C278.642 86.3747 277.893 86.8657 277.893 86.8657V83.4049C277.894 83.3836 277.89 83.3625 277.882 83.3428C277.874 83.323 277.862 83.3051 277.847 83.29C277.832 83.2748 277.814 83.2628 277.794 83.2545C277.775 83.2463 277.754 83.2419 277.732 83.2418H275.774C275.753 83.2418 275.732 83.246 275.712 83.2542C275.692 83.2624 275.674 83.2745 275.659 83.2896C275.644 83.3048 275.632 83.3228 275.624 83.3425C275.616 83.3623 275.612 83.3835 275.612 83.4049V93.6251C275.612 93.6465 275.616 93.6676 275.624 93.6874C275.632 93.7072 275.644 93.7252 275.659 93.7403C275.674 93.7555 275.692 93.7675 275.712 93.7757C275.732 93.7839 275.753 93.7881 275.774 93.7881H277.133C277.195 93.7881 277.241 93.7567 277.275 93.7013C277.308 93.6462 277.357 93.23 277.357 93.23C277.357 93.23 278.158 93.9885 279.674 93.9885C281.454 93.9885 282.475 93.086 282.475 89.936C282.475 86.786 280.844 86.3747 279.743 86.3747ZM278.978 92.1327C278.306 92.1123 277.85 91.8073 277.85 91.8073V88.5707C277.85 88.5707 278.3 88.2952 278.852 88.2453C279.55 88.1827 280.222 88.3937 280.222 90.0585C280.222 91.8144 279.919 92.1613 278.978 92.1327ZM258.334 92.0945C258.248 92.0945 258.03 92.1292 257.805 92.1292C257.086 92.1292 256.842 91.7947 256.842 91.3616V88.4877H258.307C258.328 88.4877 258.349 88.4835 258.369 88.4753C258.389 88.4671 258.407 88.455 258.422 88.4398C258.437 88.4246 258.449 88.4066 258.457 88.3868C258.465 88.367 258.469 88.3458 258.469 88.3244V86.7503C258.469 86.729 258.465 86.7079 258.457 86.6881C258.449 86.6684 258.437 86.6504 258.422 86.6353C258.407 86.6202 258.389 86.6082 258.369 86.6C258.349 86.5918 258.328 86.5876 258.307 86.5876H256.842L256.839 84.6525C256.839 84.5789 256.802 84.5423 256.717 84.5423H254.72C254.643 84.5423 254.601 84.5766 254.601 84.6509V86.6508C254.601 86.6508 253.601 86.8923 253.533 86.9118C253.5 86.9216 253.47 86.9421 253.449 86.9701C253.428 86.9982 253.416 87.0323 253.416 87.0674V88.3241C253.416 88.3453 253.42 88.3664 253.428 88.3862C253.436 88.4059 253.448 88.4238 253.463 88.4389C253.478 88.4541 253.496 88.4661 253.516 88.4744C253.535 88.4827 253.556 88.487 253.578 88.4871H254.601V91.5107C254.601 93.757 256.177 93.9774 257.24 93.9774C257.725 93.9774 258.306 93.8218 258.402 93.7862C258.46 93.7645 258.494 93.7045 258.494 93.6394L258.495 92.2569C258.494 92.2141 258.477 92.1731 258.447 92.1428C258.417 92.1124 258.377 92.0953 258.334 92.0945Z" fill="#100E0F"/>
<path d="M154.175 38.67L151.501 8.68839H180.874L178.198 38.6654L166.17 41.9998L154.175 38.67Z" fill="#E44D26"/>
<path d="M166.188 39.4508L175.907 36.7561L178.194 11.1399H166.188V39.4508Z" fill="#F16529"/>
<path d="M166.188 22.26H161.322L160.986 18.4941H166.188V14.817H156.967L157.959 25.9368H166.188V22.26ZM166.188 31.8094L166.171 31.8137L162.077 30.7077L161.815 27.7753H158.123L158.638 33.5489L166.171 35.6401L166.188 35.6351V31.8094Z" fill="#EBEBEB"/>
<path d="M154.234 0H156.103V1.84654H157.812V0H159.681V5.59079H157.812V3.71866H156.103V5.59079H154.234V0ZM162.138 1.85418H160.493V0H165.653V1.85418H164.007V5.59079H162.138V1.85418ZM166.472 0H168.42L169.619 1.96452L170.816 0H172.765V5.59079H170.904V2.81966L169.619 4.80744H169.586L168.3 2.81966V5.59079H166.471L166.472 0ZM173.696 0H175.565V3.74292H178.193V5.59112H173.696V0Z" fill="black"/>
<path d="M166.175 22.26V25.9368H170.703L170.276 30.7057L166.175 31.8127V35.6381L173.713 33.5489L174.633 23.2471L174.722 22.26H166.175ZM166.175 14.817V18.4941H175.057L175.131 17.6676L175.386 14.817H166.175Z" fill="white"/>
<path d="M191 1H233V43.0003H191V1Z" fill="#F0DB4F"/>
<path d="M229.563 32.9831C229.255 31.067 228.006 29.4576 224.305 27.9568C223.019 27.366 221.586 26.9429 221.159 25.9686C221.007 25.4016 220.987 25.0822 221.083 24.739C221.358 23.6251 222.688 23.2779 223.742 23.5973C224.42 23.8248 225.063 24.3478 225.45 25.1822C227.263 24.0086 227.259 24.0163 228.525 23.2098C228.061 22.4915 227.814 22.16 227.511 21.8526C226.421 20.6351 224.935 20.008 222.56 20.056L221.323 20.2161C220.137 20.5157 219.007 21.138 218.344 21.9724C216.356 24.2284 216.923 28.1766 219.342 29.8015C221.726 31.5904 225.227 31.9973 225.674 33.6702C226.11 35.7181 224.169 36.3811 222.241 36.1455C220.82 35.85 220.029 35.1276 219.175 33.8141C217.602 34.7243 217.602 34.7243 215.985 35.6544C216.368 36.4928 216.771 36.8723 217.414 37.5986C220.456 40.6846 228.07 40.533 229.435 35.862C229.491 35.7017 229.858 34.6321 229.563 32.9831ZM213.832 20.3033H209.904L209.888 30.4597C209.888 32.6197 210 34.5999 209.648 35.2068C209.074 36.4005 207.584 36.2526 206.906 36.0211C206.215 35.6815 205.864 35.1987 205.457 34.5163C205.345 34.3204 205.261 34.1687 205.233 34.157L202.039 36.113C202.57 37.2031 203.352 38.1492 204.354 38.7638C205.851 39.6623 207.863 39.9378 209.968 39.4546C211.337 39.0557 212.519 38.2294 213.138 36.9716C214.032 35.3225 213.84 33.3266 213.832 31.119C213.852 27.5173 213.832 23.9163 213.832 20.3033Z" fill="#323330"/>
<path d="M260.414 19.5019C262.151 19.5019 263.56 18.0935 263.56 16.3562C263.56 14.6189 262.151 13.2106 260.414 13.2106C258.677 13.2106 257.268 14.6189 257.268 16.3562C257.268 18.0935 258.677 19.5019 260.414 19.5019Z" fill="#61DAFB"/>
<path d="M260.414 27.9243C262.883 30.3259 265.319 31.7465 267.28 31.7465C267.923 31.7465 268.532 31.6112 269.039 31.3068C270.798 30.292 271.441 27.7552 270.832 24.136C270.73 23.4933 270.595 22.8506 270.426 22.1742C271.102 21.9712 271.711 21.7683 272.32 21.5653C275.736 20.2462 277.631 18.4196 277.631 16.424C277.631 14.3945 275.736 12.568 272.32 11.2827C271.711 11.0459 271.102 10.8429 270.426 10.6738C270.595 9.99732 270.73 9.35466 270.832 8.71199C271.407 5.02512 270.764 2.45445 269.005 1.43972C268.498 1.1353 267.889 1 267.246 1C265.318 1 262.849 2.42063 260.38 4.82217C257.945 2.42063 255.509 1 253.548 1C252.905 1 252.296 1.1353 251.789 1.43972C250.03 2.45445 249.387 4.99129 249.996 8.61052C250.097 9.25318 250.233 9.89585 250.402 10.5723C249.725 10.7753 249.117 10.9782 248.508 11.1812C245.091 12.5003 243.197 14.3269 243.197 16.3225C243.197 18.352 245.091 20.1785 248.508 21.4638C249.117 21.7006 249.725 21.9036 250.402 22.0727C250.233 22.7492 250.097 23.3918 249.996 24.0345C249.421 27.6537 250.064 30.2244 251.789 31.2053C252.296 31.5097 252.905 31.645 253.548 31.645C255.509 31.7127 257.945 30.292 260.414 27.9243ZM258.52 23.358C259.129 23.3918 259.771 23.3918 260.414 23.3918C261.057 23.3918 261.699 23.3918 262.308 23.358C261.699 24.1698 261.057 24.9139 260.414 25.6243C259.771 24.9139 259.129 24.1698 258.52 23.358ZM254.326 19.8741C254.664 20.4491 254.968 20.9903 255.34 21.5315C254.292 21.3962 253.311 21.2271 252.364 21.0241C252.668 20.1109 253.006 19.1638 253.412 18.2167C253.683 18.7579 253.987 19.3329 254.326 19.8741ZM252.364 11.7224C253.311 11.5194 254.292 11.3503 255.34 11.215C255.002 11.7562 254.664 12.2974 254.326 12.8724C253.987 13.4474 253.683 13.9886 253.412 14.5636C252.973 13.5827 252.634 12.6356 252.364 11.7224ZM254.224 16.3563C254.664 15.4431 255.137 14.5298 255.679 13.6165C256.186 12.7371 256.761 11.8577 257.336 10.9782C258.351 10.9106 259.365 10.8768 260.414 10.8768C261.496 10.8768 262.511 10.9106 263.492 10.9782C264.101 11.8577 264.642 12.7371 265.149 13.6165C265.691 14.5298 266.164 15.4431 266.604 16.3563C266.164 17.2696 265.691 18.1829 265.149 19.0961C264.642 19.9756 264.067 20.855 263.492 21.7344C262.477 21.8021 261.463 21.8359 260.414 21.8359C259.332 21.8359 258.317 21.8021 257.336 21.7344C256.727 20.855 256.186 19.9756 255.679 19.0961C255.137 18.1829 254.664 17.2696 254.224 16.3563ZM267.449 14.5298L266.536 12.8386C266.198 12.2636 265.894 11.7224 265.521 11.1812C266.57 11.3165 267.551 11.4856 268.498 11.6885C268.194 12.6356 267.855 13.5827 267.449 14.5298ZM267.449 18.1829C267.855 19.1299 268.194 20.077 268.498 20.9903C267.551 21.1932 266.57 21.3624 265.521 21.4977C265.86 20.9565 266.198 20.4153 266.536 19.8403C266.841 19.3329 267.145 18.7579 267.449 18.1829ZM268.227 29.92C267.957 30.0891 267.619 30.1567 267.246 30.1567C265.589 30.1567 263.526 28.8038 261.496 26.7743C262.477 25.7257 263.424 24.5419 264.371 23.2227C265.961 23.0874 267.483 22.8506 268.904 22.5124C269.073 23.1212 269.174 23.7301 269.276 24.3389C269.75 27.214 269.377 29.2773 268.227 29.92ZM269.986 12.0944C273.775 13.1768 276.041 14.8342 276.041 16.3563C276.041 17.6755 274.485 18.9946 271.745 20.0432C271.204 20.2462 270.595 20.4491 269.986 20.6182C269.547 19.2314 269.005 17.8108 268.329 16.3563C269.005 14.9019 269.58 13.4813 269.986 12.0944ZM267.28 2.55593C267.652 2.55593 267.957 2.62358 268.261 2.7927C269.377 3.43537 269.783 5.46484 269.31 8.37375C269.208 8.94876 269.073 9.5576 268.938 10.2003C267.517 9.89585 265.995 9.65908 264.405 9.48996C263.492 8.1708 262.511 6.98694 261.53 5.93838C263.56 3.94273 265.623 2.55593 267.28 2.55593ZM262.308 9.35466C261.699 9.32083 261.057 9.32083 260.414 9.32083C259.771 9.32083 259.129 9.32083 258.52 9.35466C259.129 8.54287 259.771 7.79873 260.414 7.08841C261.057 7.79873 261.699 8.57669 262.308 9.35466ZM252.6 2.7927C252.871 2.62358 253.209 2.55593 253.581 2.55593C255.239 2.55593 257.302 3.90891 259.332 5.93838C258.351 6.98694 257.404 8.1708 256.456 9.48996C254.867 9.62525 253.345 9.86203 251.924 10.2003C251.755 9.59143 251.653 8.98259 251.552 8.37375C251.078 5.49866 251.45 3.46919 252.6 2.7927ZM250.842 20.6182C247.053 19.5358 244.787 17.8784 244.787 16.3563C244.787 15.0372 246.343 13.718 249.083 12.6695C249.624 12.4665 250.233 12.2636 250.842 12.0944C251.281 13.4813 251.823 14.9019 252.499 16.3563C251.823 17.8108 251.248 19.2652 250.842 20.6182ZM251.552 24.3389C251.653 23.7639 251.789 23.1551 251.924 22.5124C253.345 22.8168 254.867 23.0536 256.456 23.2227C257.37 24.5419 258.351 25.7257 259.332 26.7743C257.302 28.7699 255.239 30.1567 253.581 30.1567C253.209 30.1567 252.905 30.0891 252.6 29.92C251.45 29.2773 251.078 27.214 251.552 24.3389ZM250.131 38.2746C250.875 37.3614 250.909 36.3466 250.503 35.3319C250.097 34.3172 249.252 33.8436 248.203 33.8098C246.952 33.776 245.666 33.8098 244.415 33.8098H244.178V42.5703H245.193V39.2555H246.783C246.986 39.2555 247.155 39.3232 247.256 39.4923L249.286 42.638C249.319 42.7056 249.421 42.8071 249.489 42.8071H250.808C249.996 41.5556 249.218 40.3717 248.406 39.1541C249.117 39.0526 249.725 38.8158 250.131 38.2746ZM245.193 38.207V34.8583H245.565C246.343 34.8583 247.155 34.8245 247.933 34.8922C248.846 34.926 249.489 35.6363 249.489 36.5496C249.489 37.4628 248.744 38.1732 247.831 38.207C247.019 38.2408 246.208 38.207 245.193 38.207ZM258.283 38.6467C257.742 36.279 255.577 35.6701 253.92 36.4143C252.634 36.9893 252.059 38.1055 252.025 39.4923C251.992 40.5409 252.296 41.488 253.108 42.1983C254.021 43.0101 255.137 43.1115 256.287 42.9086C256.93 42.7733 257.505 42.4689 257.945 41.9953C257.776 41.7586 257.607 41.5218 257.437 41.3188C256.49 42.1306 255.442 42.4012 254.292 41.86C253.548 41.488 253.175 40.5747 253.108 39.8982H258.351V39.4585C258.384 39.1541 258.351 38.8835 258.283 38.6467ZM253.175 39.1879C253.074 38.1732 254.089 37.0908 255.205 37.0908C256.49 37.0569 257.302 37.8349 257.336 39.1879H253.175ZM263.56 36.2452C263.052 36.1437 262.511 36.1099 262.004 36.1437C261.192 36.2113 260.482 36.5834 259.907 37.1922C260.076 37.429 260.211 37.6658 260.414 37.9364C260.482 37.8687 260.549 37.8011 260.617 37.7673C261.158 37.2599 261.801 36.9893 262.579 37.0569C263.188 37.0908 263.763 37.2937 263.932 37.9026C264.067 38.3761 264.033 38.8835 264.067 39.3908C263.966 39.3908 263.932 39.357 263.898 39.3232C263.086 38.6467 262.173 38.5114 261.192 38.7482C260.279 38.9849 259.704 39.6953 259.636 40.6085C259.568 41.6571 260.042 42.435 260.955 42.8071C261.53 43.0439 262.173 43.0439 262.782 42.9086C263.255 42.8071 263.458 42.5365 264.135 42.1644V42.6042H265.082C265.082 41.2512 265.116 39.5938 265.082 38.0379C265.082 37.0569 264.507 36.4481 263.56 36.2452ZM264.033 40.507C263.999 40.6085 264.033 40.71 264.033 40.8115C264.033 41.5218 263.864 41.7586 263.188 42.0291C262.714 42.1983 262.207 42.2659 261.699 42.0968C261.124 41.9277 260.718 41.4203 260.718 40.8453C260.685 40.2703 261.057 39.6953 261.632 39.5261C262.41 39.2555 263.12 39.4247 263.763 39.8982C263.966 40.0673 264.101 40.2364 264.033 40.507ZM269.31 37.1584C270.189 36.8878 271.001 37.0569 271.61 37.8011L271.711 37.8687C271.948 37.6658 272.151 37.4628 272.422 37.2261C272.32 37.1246 272.286 37.0569 272.219 36.9555C271.238 35.9069 269.31 35.7716 268.126 36.6172C266.469 37.8349 266.502 40.2026 267.314 41.4541C268.092 42.638 269.208 43.0439 270.527 42.8748C271.305 42.7733 271.948 42.4012 272.455 41.7586C272.219 41.5556 271.982 41.3527 271.745 41.1159C271.677 41.1835 271.644 41.2174 271.61 41.285C270.697 42.2997 269.174 42.1983 268.363 41.1159C267.889 40.4732 267.788 39.7291 267.923 38.9849C267.991 38.1393 268.43 37.4628 269.31 37.1584ZM276.345 41.7586C276.278 41.7924 276.244 41.8262 276.244 41.8262C275.973 42.0291 275.703 42.063 275.398 41.9615C275.094 41.8262 275.06 41.5556 275.026 41.285V37.429C275.026 37.3614 275.026 37.4967 275.06 37.1584H276.345V36.1437H274.992V34.4525H273.978V36.279H273.098C273.03 36.279 272.929 36.3466 272.929 36.4143C272.895 36.6511 272.929 36.8202 272.929 37.1584H274.011V41.488C274.011 42.0291 274.147 42.5027 274.62 42.7733C275.128 43.0777 276.109 43.0101 276.548 42.638C276.616 42.6042 276.65 42.4689 276.65 42.435C276.548 42.2321 276.447 41.9953 276.345 41.7586Z" fill="#61DAFB"/>
<path d="M233 73.8C233 85.1218 223.822 94.3 212.5 94.3C201.178 94.3 192 85.1218 192 73.8C192 62.4782 201.178 53.3 212.5 53.3C223.822 53.3 233 62.4782 233 73.8Z" fill="#F1F1F1"/>
<path d="M225.759 73.2934C224.706 73.2948 223.668 73.5355 222.722 73.9972C222.426 73.5058 222.198 72.9769 222.043 72.4245C221.954 71.9916 221.933 71.5474 221.982 71.108C222.084 70.6246 222.217 70.1481 222.379 69.6814C222.373 69.6204 222.306 69.332 221.632 69.3224C220.958 69.3128 220.378 69.4505 220.316 69.6288C220.199 69.9545 220.105 70.288 220.034 70.6269C219.477 72.0027 218.79 73.3227 217.984 74.5692C217.533 73.8289 217.347 72.9567 217.458 72.0966C217.56 71.6132 217.693 71.1367 217.855 70.67C217.849 70.609 217.782 70.3205 217.108 70.311C216.434 70.3014 215.854 70.439 215.792 70.6173C215.729 70.7957 215.65 71.2158 215.51 71.6155C215.37 72.0152 213.736 75.6679 213.307 76.6098C213.087 77.0885 212.897 77.4787 212.763 77.742C212.756 77.7591 212.748 77.7755 212.739 77.7911C212.619 78.0173 212.555 78.1405 212.555 78.1405V78.1465C212.463 78.3117 212.365 78.4649 212.316 78.4649C212.231 78.1229 212.235 77.7647 212.328 77.4248C212.567 76.1574 213.154 74.1875 213.148 74.1192C213.148 74.0821 213.258 73.7398 212.769 73.5627C212.655 73.5087 212.527 73.4912 212.404 73.5126C212.28 73.5341 212.166 73.5934 212.077 73.6824C212.034 73.6824 212.004 73.7865 212.004 73.7865C212.004 73.7865 212.536 71.5712 210.988 71.5712C210.385 71.6925 209.812 71.9332 209.303 72.2791C208.794 72.625 208.36 73.0692 208.026 73.5854C207.609 73.8116 206.722 74.2952 205.773 74.8158C205.414 75.018 205.038 75.2203 204.69 75.4142C204.666 75.3902 204.641 75.3591 204.617 75.3352C202.732 73.3269 199.267 71.9099 199.417 69.2231C199.472 68.2441 199.808 65.6733 206.07 62.5508C211.223 60.0112 215.325 60.7149 216.035 62.2755C217.051 64.504 213.837 68.6414 208.513 69.241C207.924 69.3605 207.315 69.3461 206.732 69.1988C206.15 69.0515 205.608 68.7751 205.146 68.3901C204.865 68.0837 204.822 68.0657 204.718 68.1268C204.546 68.2189 204.656 68.4942 204.718 68.6534C204.921 69.021 205.195 69.3441 205.526 69.6038C205.856 69.8634 206.234 70.0542 206.64 70.165C208.734 70.6176 210.918 70.4012 212.883 69.5462C216.115 68.2979 218.628 64.8272 217.891 61.9201C217.15 58.9699 212.254 57.9969 207.62 59.6461C204.717 60.6228 202.035 62.1612 199.727 64.1737C197.174 66.5613 196.771 68.6354 196.936 69.5055C197.534 72.5909 201.784 74.598 203.485 76.088C203.399 76.1371 203.32 76.1802 203.253 76.2161C202.402 76.6385 199.158 78.3344 198.346 80.1273C197.428 82.1618 198.493 83.616 199.197 83.8122C200.257 84.0661 201.37 83.9825 202.381 83.5731C203.391 83.1637 204.249 82.449 204.834 81.5287C205.332 80.7654 205.638 79.893 205.726 78.9859C205.814 78.0788 205.682 77.1639 205.34 76.319C205.334 76.3053 205.326 76.2928 205.316 76.2819L205.983 75.8905C206.417 75.6332 206.845 75.395 207.213 75.1988C206.964 75.9174 206.817 76.6676 206.778 77.4272C206.694 78.5915 207.05 79.7449 207.777 80.6586C207.887 80.7538 208.015 80.8261 208.154 80.8713C208.293 80.9165 208.439 80.9337 208.584 80.9219C209.303 80.9219 209.632 80.3235 209.992 79.6126C210.432 78.7437 210.83 77.7336 210.83 77.7336C210.83 77.7336 210.334 80.4636 211.681 80.4636C212.17 80.4636 212.666 79.8269 212.887 79.5061V79.5121C212.887 79.5121 212.899 79.4941 212.924 79.451L213.003 79.323V79.311C213.199 78.9687 213.64 78.1908 214.294 76.8994C215.139 75.2347 215.953 73.1534 215.953 73.1534C216.032 73.6108 216.14 74.0626 216.278 74.5058C216.475 75.0431 216.708 75.5665 216.975 76.0724C216.779 76.3477 216.657 76.5009 216.657 76.5009L216.663 76.5069C216.504 76.7151 216.333 76.9413 216.142 77.1615C215.576 77.784 215.051 78.4424 214.57 79.1327C214.498 79.2486 214.474 79.3875 214.501 79.5209C214.528 79.6543 214.606 79.7723 214.717 79.8508C214.969 79.9819 215.256 80.0293 215.537 79.986C215.96 79.9621 216.376 79.8671 216.767 79.7048C217.145 79.5717 217.502 79.3842 217.826 79.1483C218.16 78.9167 218.429 78.6031 218.607 78.2376C218.785 77.872 218.866 77.4669 218.842 77.061C218.805 76.5498 218.674 76.0497 218.457 75.5853C218.518 75.4992 218.577 75.4142 218.634 75.328C219.315 74.3124 219.928 73.2533 220.47 72.1577C220.549 72.615 220.657 73.0668 220.794 73.5101C220.957 73.9744 221.157 74.4247 221.393 74.8565C220.61 75.4587 219.993 76.2503 219.601 77.1568C219.216 78.271 219.515 78.7725 220.08 78.8885C220.389 78.9098 220.698 78.8465 220.974 78.7054C221.379 78.5721 221.762 78.3759 222.106 78.1238C222.469 77.9094 222.774 77.608 222.992 77.2468C223.209 76.8856 223.334 76.4758 223.354 76.0545C223.327 75.6339 223.232 75.2204 223.073 74.8301C224.106 74.4266 225.226 74.2979 226.324 74.4567C229.237 74.799 229.812 76.617 229.702 77.3829C229.651 77.6545 229.541 77.9118 229.382 78.1377C229.223 78.3635 229.017 78.5526 228.778 78.6923C228.576 78.8203 228.509 78.8634 228.527 78.9556C228.551 79.0908 228.647 79.0836 228.82 79.0597C229.259 78.9232 229.647 78.6569 229.931 78.2958C230.216 77.9347 230.384 77.4958 230.414 77.0371C230.507 75.2418 228.793 73.2731 225.762 73.291L225.759 73.2934ZM203.283 80.8669C202.316 81.9201 200.969 82.3174 200.387 81.9811C199.763 81.6221 200.008 80.0662 201.195 78.9508C201.9 78.3168 202.661 77.7491 203.469 77.2549C203.61 77.1687 203.819 77.0466 204.068 76.8958L204.135 76.8587L204.282 76.7666C204.494 77.4773 204.513 78.2315 204.338 78.9521C204.162 79.6726 203.798 80.3335 203.283 80.8669ZM210.321 76.0796C209.985 76.8994 209.281 78.9998 208.853 78.8826C208.485 78.7844 208.254 77.1927 208.78 75.62C209.045 74.863 209.431 74.154 209.924 73.5208C210.45 72.9332 211.032 72.7369 211.172 72.9763C211.044 74.0473 210.757 75.0932 210.321 76.0796ZM216.129 78.8586C215.988 78.9316 215.854 78.9783 215.793 78.9448C215.75 78.9209 215.854 78.8251 215.854 78.8251C215.854 78.8251 216.583 78.0412 216.87 77.6869C217.035 77.4787 217.229 77.2345 217.44 76.9581V77.0371C217.44 77.973 216.534 78.6037 216.13 78.861L216.129 78.8586ZM220.61 77.8365C220.506 77.7635 220.524 77.5182 220.873 76.7534C221.116 76.2623 221.456 75.8251 221.871 75.468C221.935 75.6492 221.968 75.8397 221.97 76.0317C221.974 76.4405 221.844 76.8393 221.598 77.166C221.352 77.4927 221.005 77.7289 220.611 77.8377L220.61 77.8365Z" fill="#CD6799"/>
<defs>
<linearGradient id="paint0_linear_33_7434" x1="139.255" y1="61.9093" x2="138.519" y2="94.9554" gradientUnits="userSpaceOnUse">
<stop stop-color="#FD5200"/>
<stop offset="0.2722" stop-color="#FFDC38"/>
<stop offset="0.9626" stop-color="#F3FEAB"/>
</linearGradient>
<linearGradient id="paint1_linear_33_7434" x1="44523.1" y1="-2927.98" x2="44510.6" y2="-160.226" gradientUnits="userSpaceOnUse">
<stop offset="0.4072" stop-color="#9E010A"/>
<stop offset="0.6244" stop-color="#FC56A4"/>
<stop offset="0.689" stop-color="#F2A780"/>
<stop offset="0.7431" stop-color="#FFC78A"/>
</linearGradient>
<linearGradient id="paint2_linear_33_7434" x1="153.968" y1="20.6357" x2="151.228" y2="80.6179" gradientUnits="userSpaceOnUse">
<stop offset="0.4072" stop-color="#9E010A"/>
<stop offset="0.6244" stop-color="#FC56A4"/>
<stop offset="0.689" stop-color="#F2A780"/>
<stop offset="0.7431" stop-color="#FFC78A"/>
</linearGradient>
<linearGradient id="paint3_linear_33_7434" x1="203.565" y1="33.2455" x2="153.724" y2="141.794" gradientUnits="userSpaceOnUse">
<stop offset="0.0753769" stop-color="#0C64CC"/>
<stop offset="0.3348" stop-color="#1F9FE3"/>
<stop offset="0.4851" stop-color="#1B9DEB"/>
<stop offset="0.7569" stop-color="#72F07F"/>
<stop offset="0.8584" stop-color="#DBFEC8"/>
<stop offset="0.9913" stop-color="#F6F9B1"/>
</linearGradient>
<linearGradient id="paint4_linear_33_7434" x1="199.443" y1="58.5452" x2="173.613" y2="11.7345" gradientUnits="userSpaceOnUse">
<stop offset="0.0251256" stop-color="#4226A2"/>
<stop offset="0.2769" stop-color="#7357CB"/>
<stop offset="0.4721" stop-color="#4783DF"/>
<stop offset="0.5228" stop-color="#3B8FE4"/>
<stop offset="0.5797" stop-color="#3B9DE4"/>
<stop offset="0.6561" stop-color="#3BA7E4"/>
<stop offset="0.7412" stop-color="#3BABE4"/>
</linearGradient>
<linearGradient id="paint5_linear_33_7434" x1="58257.2" y1="647.942" x2="58203.7" y2="-1184.51" gradientUnits="userSpaceOnUse">
<stop stop-color="#4226A2"/>
<stop offset="0.3221" stop-color="#7357CB"/>
<stop offset="0.6283" stop-color="#3B8FE4"/>
</linearGradient>
<linearGradient id="paint6_linear_33_7434" x1="286.881" y1="13.5061" x2="218.292" y2="175.563" gradientUnits="userSpaceOnUse">
<stop stop-color="#7C4ADF"/>
<stop offset="0.3459" stop-color="#E251D8"/>
<stop offset="0.7297" stop-color="#FCDFBC"/>
<stop offset="0.8312" stop-color="#F6F8B0"/>
<stop offset="0.9186" stop-color="#FFFFF2"/>
<stop offset="0.9894" stop-color="#F6F8B0"/>
</linearGradient>
</defs>
</svg>
