<svg width="725" height="141" viewBox="0 0 725 141" fill="none" xmlns="http://www.w3.org/2000/svg">
<rect width="725" height="141" rx="22" fill="white"/>
<path d="M318.437 50H345.562C346.54 49.9991 347.507 50.1911 348.41 50.565C349.313 50.9389 350.133 51.4873 350.824 52.179C351.514 52.8707 352.062 53.6919 352.436 54.5958C352.809 55.4997 353.001 56.4684 353 57.4466V83.5534C353.001 84.5316 352.809 85.5004 352.436 86.4042C352.062 87.3081 351.514 88.1293 350.824 88.821C350.133 89.5126 349.313 90.0612 348.41 90.4351C347.507 90.809 346.54 91.0009 345.562 91H318.437C317.461 91.0009 316.493 90.809 315.59 90.4351C314.687 90.0612 313.867 89.5126 313.176 88.821C312.486 88.1293 311.938 87.3081 311.564 86.4042C311.191 85.5004 310.999 84.5316 311 83.5534V57.4466C310.999 56.4684 311.191 55.4997 311.564 54.5958C311.938 53.6919 312.486 52.8707 313.176 52.179C313.867 51.4873 314.687 50.9389 315.59 50.565C316.493 50.1911 317.461 49.9991 318.437 50Z" fill="#000B1D"/>
<path d="M327.625 83.6411C330.041 83.6411 332 81.6799 332 79.2607V74.8804H327.625C325.209 74.8804 323.25 76.8415 323.25 79.2607C323.25 81.6799 325.209 83.6411 327.625 83.6411Z" fill="#0ACF83"/>
<path d="M323.25 70.5C323.25 68.0808 325.209 66.1196 327.625 66.1196H332V74.8803H327.625C325.209 74.8803 323.25 72.9191 323.25 70.5Z" fill="#A259FF"/>
<path d="M323.25 61.7395C323.25 59.3203 325.209 57.3591 327.625 57.3591H332V66.1198H327.625C325.209 66.1198 323.25 64.1587 323.25 61.7395Z" fill="#F24E1E"/>
<path d="M332 57.3591H336.375C338.791 57.3591 340.75 59.3203 340.75 61.7395C340.75 64.1587 338.791 66.1198 336.375 66.1198H332V57.3591Z" fill="#FF7262"/>
<path d="M340.75 70.5C340.75 72.9191 338.791 74.8803 336.375 74.8803C333.959 74.8803 332 72.9191 332 70.5C332 68.0808 333.959 66.1196 336.375 66.1196C338.791 66.1196 340.75 68.0808 340.75 70.5Z" fill="#1ABCFE"/>
<g clip-path="url(#clip0_37_12400)">
<path d="M665.765 68.2688C664.867 68.2688 664.199 68.7098 664.199 69.7713C664.199 70.5709 664.639 71.1261 665.717 71.1261C666.631 71.1261 667.252 70.5877 667.252 69.7381C667.252 68.7754 666.696 68.2688 665.765 68.2688ZM663.97 75.7632C663.758 76.024 663.546 76.3013 663.546 76.6284C663.546 77.2811 664.378 77.4773 665.521 77.4773C666.468 77.4773 667.758 77.411 667.758 76.5307C667.758 76.0073 667.137 75.9751 666.353 75.9259L663.97 75.7632ZM668.802 68.318C669.096 68.6937 669.406 69.2161 669.406 69.9672C669.406 71.7791 667.986 72.8402 665.929 72.8402C665.406 72.8402 664.933 72.7753 664.639 72.6936L664.1 73.5588L665.7 73.6563C668.524 73.8364 670.189 73.9181 670.189 76.0887C670.189 77.9665 668.541 79.027 665.7 79.027C662.745 79.027 661.619 78.2759 661.619 76.9867C661.619 76.2517 661.945 75.8609 662.517 75.3212C661.978 75.0935 661.798 74.6856 661.798 74.2446C661.798 73.8853 661.978 73.5588 662.272 73.2484C662.566 72.9387 662.892 72.6279 663.284 72.269C662.484 71.8772 661.88 71.0283 661.88 69.8198C661.88 67.9426 663.121 66.6534 665.618 66.6534C666.321 66.6534 666.746 66.7181 667.121 66.8168H670.304V68.2042L668.802 68.318ZM673.177 65.3518C672.246 65.3518 671.707 64.8127 671.707 63.8818C671.707 62.9522 672.246 62.4456 673.177 62.4456C674.123 62.4456 674.662 62.9519 674.662 63.8818C674.662 64.8127 674.123 65.3518 673.177 65.3518ZM671.07 75.1627V73.8735L671.903 73.7593C672.131 73.7265 672.164 73.6776 672.164 73.4322V68.6327C672.164 68.4535 672.115 68.3387 671.952 68.2901L671.07 67.9797L671.249 66.658H674.629V73.4325C674.629 73.6943 674.645 73.7265 674.891 73.7596L675.723 73.8738V75.163L671.07 75.1627ZM682.179 74.5294C681.477 74.8717 680.449 75.1824 679.518 75.1824C677.575 75.1824 676.841 74.3995 676.841 72.5538V68.2767C676.841 68.1792 676.841 68.1136 676.71 68.1136H675.567V66.6607C677.004 66.4969 677.575 65.7787 677.755 63.9992H679.306V66.3181C679.306 66.4319 679.306 66.4815 679.437 66.4815H681.739V68.1139H679.306V72.0153C679.306 72.9784 679.535 73.3537 680.416 73.3537C680.874 73.3537 681.347 73.2399 681.739 73.0929L682.179 74.5294Z" fill="#31251C"/>
<path d="M657.99 70.2453L650.525 62.7811C650.319 62.5747 650.039 62.4587 649.747 62.4587C649.455 62.4587 649.175 62.5747 648.969 62.7811L647.418 64.3311L649.384 66.2972C649.615 66.2187 649.864 66.2064 650.102 66.2618C650.34 66.3173 650.557 66.4382 650.73 66.6109C650.903 66.7847 651.024 67.0037 651.079 67.2431C651.134 67.4824 651.121 67.7324 651.04 67.9645L652.935 69.8594C653.215 69.7618 653.52 69.7622 653.8 69.8606C654.08 69.9591 654.318 70.1496 654.475 70.401C654.632 70.6524 654.7 70.9498 654.666 71.2445C654.632 71.5391 654.499 71.8135 654.289 72.0227C654.075 72.2372 653.793 72.3708 653.492 72.4008C653.19 72.4308 652.887 72.3554 652.635 72.1874C652.383 72.0194 652.197 71.7692 652.109 71.4794C652.02 71.1896 652.035 70.8781 652.151 70.598L650.383 68.8307L650.383 73.4815C650.57 73.5737 650.732 73.7089 650.855 73.8761C650.979 74.0432 651.062 74.2375 651.095 74.4428C651.129 74.6481 651.114 74.8584 651.05 75.0565C650.987 75.2546 650.877 75.4347 650.73 75.5819C650.592 75.719 650.427 75.8239 650.244 75.8891C650.061 75.9543 649.867 75.9782 649.674 75.959C649.481 75.9398 649.294 75.8781 649.128 75.7782C648.962 75.6782 648.82 75.5427 648.713 75.3813C648.605 75.2199 648.535 75.0366 648.507 74.8448C648.479 74.6529 648.494 74.4572 648.55 74.2718C648.607 74.0864 648.704 73.9159 648.835 73.7726C648.966 73.6293 649.126 73.5168 649.306 73.4432V68.7493C649.146 68.6838 649 68.5873 648.878 68.4652C648.756 68.3432 648.658 68.1982 648.592 68.0384C648.526 67.8787 648.492 67.7075 648.493 67.5346C648.493 67.3617 648.528 67.1907 648.595 67.0313L646.657 65.0927L641.538 70.2108C641.436 70.3131 641.355 70.4345 641.3 70.5681C641.244 70.7017 641.216 70.845 641.216 70.9896C641.216 71.1342 641.244 71.2775 641.3 71.4111C641.355 71.5447 641.436 71.6661 641.538 71.7684L649.003 79.2326C649.21 79.439 649.49 79.555 649.782 79.555C650.074 79.555 650.354 79.439 650.56 79.2326L657.99 71.8025C658.092 71.7003 658.173 71.5789 658.228 71.4453C658.284 71.3117 658.312 71.1685 658.312 71.0239C658.312 70.8793 658.284 70.7361 658.228 70.6025C658.173 70.4689 658.092 70.3475 657.99 70.2453Z" fill="#F34F29"/>
</g>
<path d="M288.935 91H266.065C261.059 91 257 86.9408 257 81.9347V59.0653C257 54.0592 261.059 50 266.065 50H288.93C293.936 50 297.995 54.0592 297.995 59.0653V81.9302C298 86.9408 293.941 91 288.935 91Z" fill="#242424"/>
<path d="M276 67.5232C270.822 69.0635 261.675 72.5927 261.235 86.9133C262.889 79.2025 266.966 78.0971 274.46 76.3348C281.953 74.577 286.026 72.5927 290.547 67.1925C295.064 61.7923 293.523 54.0815 293.523 54.0815C293.523 58.2676 290.547 61.0221 287.684 63.0064C284.821 64.9907 281.178 65.9829 276 67.5232Z" fill="url(#paint0_linear_37_12400)"/>
<path d="M261.236 86.918C261.249 86.5465 261.268 86.1886 261.29 85.8352C261.249 86.2158 261.227 86.5782 261.236 86.918Z" fill="url(#paint1_linear_37_12400)"/>
<path d="M280.508 74.568C276.616 75.3019 272.652 75.2158 270.051 75.8999C265.426 77.1095 261.571 82.6184 261.235 86.9133C261.249 86.5463 261.267 86.1884 261.29 85.8305C261.802 81.1551 266.11 73.4852 275.56 69.2855C278.569 67.9491 281.278 66.531 283.634 65.0813C285.156 64.4878 286.488 63.8309 287.679 63.0064C290.542 61.0221 293.519 58.2676 293.519 54.0815C293.519 54.0815 293.764 60.3697 291.725 65.7518C291.444 66.2638 291.127 66.7576 290.764 67.2242C288.019 70.7896 284.78 72.9733 280.508 74.568Z" fill="url(#paint2_linear_37_12400)"/>
<path d="M261.299 85.6493C261.272 86.0615 261.249 86.4829 261.236 86.9133C261.209 86.5236 261.231 86.0978 261.299 85.6493C262.223 72.3798 270.976 69.0182 276 67.5232C281.179 65.9829 284.816 64.9907 287.68 63.0064C290.543 61.0221 293.519 58.2676 293.519 54.0815C293.519 54.0815 295.064 61.7923 290.543 67.1925C286.026 72.5927 282.279 70.3864 274.786 72.1487C267.95 73.7615 262.029 80.9694 261.299 85.6493Z" fill="url(#paint3_linear_37_12400)"/>
<path d="M272.915 72.9234C279.969 71.6005 284.372 71.7093 289.224 66.531C294.072 61.3528 293.519 54.0815 293.519 54.0815C293.519 58.2676 290.542 61.0221 287.679 63.0064C286.483 63.8355 285.151 64.4878 283.634 65.0813C281.278 66.531 278.02 68.0125 275.012 69.3489C265.562 73.5486 261.802 81.1551 261.29 85.8305C261.267 86.1839 261.249 86.5418 261.235 86.9133C261.571 82.6139 265.865 74.2463 272.915 72.9234Z" fill="url(#paint4_linear_37_12400)"/>
<path d="M261.236 86.918C261.249 86.5465 261.268 86.1886 261.29 85.8352C261.249 86.2158 261.227 86.5782 261.236 86.918Z" fill="url(#paint5_linear_37_12400)"/>
<path d="M277.876 68.6286C264.983 71.0524 261.127 82.4372 261.236 86.9178C261.567 82.623 265.313 77.6622 270.161 75.0165C277.324 71.3786 284.817 73.3629 289.995 68.0759C295.173 62.7889 293.52 54.0815 293.52 54.0815C293.52 58.2676 291.975 62.2362 289.22 64.5513C286.47 66.8618 280.961 68.0397 277.876 68.6286Z" fill="url(#paint6_linear_37_12400)"/>
<path d="M210.438 50H237.563C238.54 49.9991 239.507 50.1911 240.41 50.565C241.313 50.9389 242.133 51.4873 242.824 52.179C243.514 52.8707 244.062 53.6919 244.436 54.5958C244.809 55.4997 245.001 56.4684 245 57.4466V83.5534C245.001 84.5316 244.809 85.5004 244.436 86.4041C244.062 87.3081 243.514 88.1293 242.824 88.821C242.133 89.5126 241.313 90.0612 240.41 90.4351C239.507 90.809 238.54 91.0009 237.563 91H210.438C209.461 91.0009 208.493 90.809 207.59 90.4351C206.687 90.0612 205.867 89.5126 205.176 88.821C204.486 88.1293 203.938 87.3081 203.564 86.4041C203.191 85.5004 202.999 84.5316 203 83.5534V57.4466C202.999 56.4684 203.191 55.4997 203.564 54.5958C203.938 53.6919 204.486 52.8707 205.176 52.179C205.867 51.4873 206.687 50.9389 207.59 50.565C208.493 50.1911 209.461 49.9991 210.438 50Z" fill="#49021F"/>
<path d="M218.26 60.7229V78.6998C218.26 78.8925 218.172 78.9801 218.015 78.9801H214.585C214.427 78.9801 214.357 78.8925 214.357 78.6998V60.7229C214.357 60.5652 214.445 60.4951 214.602 60.4951H218.015C218.041 60.4909 218.069 60.4922 218.095 60.4988C218.121 60.5055 218.145 60.5173 218.166 60.5337C218.188 60.5501 218.205 60.5707 218.218 60.5942C218.231 60.6177 218.24 60.6436 218.242 60.6703C218.249 60.6772 218.254 60.6855 218.257 60.6946C218.26 60.7037 218.261 60.7134 218.26 60.7229Z" fill="#FF3366"/>
<path d="M228.34 79.2605C227.043 79.2818 225.757 79.0124 224.577 78.472C223.48 77.9581 222.56 77.1285 221.935 76.0891C221.287 75.0203 220.972 73.6887 220.972 72.0942C220.955 70.7976 221.287 69.5202 221.935 68.3972C222.599 67.2559 223.561 66.317 224.717 65.6814C225.942 64.9981 227.412 64.6652 229.145 64.6652C229.268 64.6638 229.39 64.6696 229.512 64.6827C229.67 64.7002 229.845 64.7002 230.055 64.7177V59.181C230.055 59.0583 230.107 58.9882 230.23 58.9882H233.782C233.822 58.9829 233.861 58.9926 233.894 59.0153C233.926 59.0381 233.949 59.0722 233.957 59.1109V75.8263C233.957 76.1417 233.975 76.4921 233.992 76.8776C234.01 77.263 234.045 77.5959 234.062 77.8938C234.066 77.953 234.051 78.0119 234.02 78.0622C233.988 78.1125 233.942 78.1515 233.887 78.1741C232.971 78.5598 232.014 78.8419 231.035 79.0152C230.145 79.1765 229.244 79.2587 228.34 79.2605ZM230.055 75.7562V68.0468C229.899 68.0091 229.741 67.9799 229.582 67.9592C229.39 67.9417 229.197 67.9241 229.005 67.9241C228.319 67.9164 227.641 68.0725 227.027 68.3797C226.429 68.6781 225.917 69.1243 225.54 69.6763C225.155 70.237 224.962 70.9904 224.962 71.9015C224.947 72.5165 225.048 73.1287 225.26 73.7062C225.429 74.1731 225.698 74.5977 226.047 74.9502C226.385 75.2726 226.792 75.5125 227.237 75.6511C227.706 75.8047 228.197 75.8816 228.69 75.8788C228.952 75.8788 229.197 75.8613 229.425 75.8438C229.639 75.8603 229.854 75.8305 230.055 75.7562Z" fill="#FF3366"/>
<path d="M102.437 50H129.562C130.54 49.9991 131.507 50.1911 132.41 50.565C133.313 50.9389 134.133 51.4873 134.824 52.179C135.514 52.8707 136.062 53.6919 136.436 54.5958C136.809 55.4997 137.001 56.4684 137 57.4466V83.5534C137.001 84.5316 136.809 85.5004 136.436 86.4042C136.062 87.3081 135.514 88.1293 134.824 88.821C134.133 89.5126 133.313 90.0612 132.41 90.4351C131.507 90.809 130.54 91.0009 129.562 91H102.437C101.461 91.0009 100.493 90.809 99.5902 90.4351C98.6874 90.0612 97.8672 89.5126 97.1763 88.821C96.4855 88.1293 95.9377 87.3081 95.5643 86.4042C95.1908 85.5004 94.9991 84.5316 95 83.5534V57.4466C94.9991 56.4684 95.1908 55.4997 95.5643 54.5958C95.9377 53.6919 96.4855 52.8707 97.1763 52.179C97.8672 51.4873 98.6874 50.9389 99.5902 50.565C100.493 50.1911 101.461 49.9991 102.437 50Z" fill="#001E36"/>
<path d="M117.05 78.9804H105.955C105.763 78.9804 105.675 78.8753 105.675 78.6651V60.7582C105.671 60.7294 105.673 60.7001 105.681 60.672C105.689 60.6439 105.702 60.6177 105.72 60.5948C105.738 60.5719 105.76 60.5529 105.785 60.5388C105.811 60.5247 105.839 60.5159 105.868 60.5129H109.368C109.39 60.5089 109.412 60.5094 109.434 60.5144C109.456 60.5193 109.476 60.5287 109.494 60.5418C109.512 60.5549 109.527 60.5715 109.539 60.5906C109.55 60.6098 109.557 60.631 109.56 60.6531V75.4236H117.645C117.82 75.4236 117.873 75.5112 117.838 75.6689L117.33 78.7176C117.328 78.7579 117.317 78.7972 117.299 78.8333C117.281 78.8694 117.256 78.9016 117.225 78.9279C117.174 78.9634 117.113 78.9818 117.05 78.9804Z" fill="#31A8FF"/>
<path d="M119.85 64.9632H122.913C122.996 64.9652 123.076 64.9934 123.142 65.0437C123.208 65.0941 123.256 65.164 123.28 65.2436C123.353 65.3675 123.4 65.5044 123.42 65.6466C123.455 65.8218 123.49 66.0145 123.508 66.1897C123.525 66.3649 123.543 66.5927 123.543 66.8205C124.068 66.2063 124.703 65.6954 125.415 65.3136C126.215 64.8797 127.114 64.6623 128.023 64.6829C128.052 64.679 128.081 64.6809 128.109 64.6885C128.137 64.6962 128.163 64.7094 128.186 64.7273C128.209 64.7453 128.228 64.7677 128.242 64.7932C128.256 64.8186 128.265 64.8467 128.268 64.8756V68.3624C128.268 68.5025 128.18 68.5551 127.988 68.5551C126.854 68.4871 125.72 68.6914 124.68 69.1508C124.326 69.3027 124.005 69.523 123.735 69.7991V78.735C123.735 78.9102 123.665 78.9803 123.508 78.9803H120.095C120.063 78.9857 120.03 78.9845 119.998 78.9768C119.966 78.9691 119.936 78.9549 119.91 78.9353C119.884 78.9157 119.862 78.8908 119.846 78.8624C119.829 78.834 119.819 78.8026 119.815 78.7701V68.9931C119.815 68.5726 119.815 68.1346 119.798 67.679C119.78 67.2235 119.78 66.7679 119.763 66.3124C119.745 65.9269 119.71 65.5414 119.658 65.156C119.653 65.1352 119.653 65.1138 119.656 65.0929C119.66 65.072 119.668 65.052 119.679 65.0341C119.69 65.0162 119.705 65.0007 119.722 64.9886C119.74 64.9764 119.76 64.9678 119.78 64.9632C119.798 64.9457 119.815 64.9457 119.85 64.9632Z" fill="#31A8FF"/>
<path d="M48.4375 50H75.5625C76.5395 49.9991 77.5071 50.1911 78.4097 50.565C79.3126 50.9389 80.1328 51.4873 80.8237 52.179C81.5144 52.8707 82.0623 53.6919 82.4358 54.5958C82.8092 55.4997 83.0009 56.4684 83 57.4466V83.5534C83.0009 84.5316 82.8092 85.5004 82.4358 86.4042C82.0623 87.3081 81.5144 88.1293 80.8237 88.821C80.1328 89.5126 79.3126 90.0612 78.4097 90.4351C77.5071 90.809 76.5395 91.0009 75.5625 91H48.4375C47.4605 91.0009 46.493 90.809 45.5902 90.4351C44.6874 90.0612 43.8672 89.5126 43.1763 88.821C42.4855 88.1293 41.9377 87.3081 41.5643 86.4042C41.1908 85.5004 40.9991 84.5316 41 83.5534V57.4466C40.9991 56.4684 41.1908 55.4997 41.5643 54.5958C41.9377 53.6919 42.4855 52.8707 43.1763 52.179C43.8672 51.4873 44.6874 50.9389 45.5902 50.565C46.493 50.1911 47.4605 49.9991 48.4375 50Z" fill="#001E36"/>
<path d="M50.4497 78.7526V60.7232C50.4497 60.6005 50.5022 60.5304 50.6247 60.5304C50.9222 60.5304 51.2022 60.5304 51.6047 60.5129C52.0072 60.4954 52.4622 60.4954 52.9347 60.4779C53.4072 60.4603 53.9147 60.4603 54.4572 60.4428C54.9997 60.4253 55.5247 60.4253 56.0497 60.4253C57.4847 60.4253 58.6747 60.6005 59.6547 60.9685C60.5332 61.2672 61.3342 61.758 61.9997 62.4052C62.5636 62.9716 62.9993 63.6529 63.2772 64.4026C63.5422 65.1328 63.6783 65.9036 63.6797 66.6804C63.6797 68.1873 63.3297 69.4313 62.6297 70.4125C61.9264 71.3923 60.9446 72.1373 59.8122 72.5501C58.6222 72.9881 57.3097 73.1458 55.8747 73.1458C55.4547 73.1458 55.1747 73.1458 54.9997 73.1283C54.8247 73.1108 54.5797 73.1108 54.2472 73.1108V78.7351C54.2511 78.764 54.2492 78.7933 54.2416 78.8213C54.2339 78.8494 54.2208 78.8756 54.2028 78.8986C54.1849 78.9214 54.1625 78.9405 54.137 78.9545C54.1116 78.9687 54.0836 78.9774 54.0547 78.9804H50.6597C50.5197 78.9804 50.4497 78.9103 50.4497 78.7526ZM54.2647 63.912V69.7992C54.5097 69.8167 54.7372 69.8343 54.9472 69.8343H55.8747C56.5579 69.8351 57.237 69.7286 57.8872 69.5189C58.4451 69.3547 58.9435 69.0321 59.3222 68.5902C59.6897 68.1522 59.8647 67.5565 59.8647 66.7855C59.8812 66.238 59.7415 65.6971 59.4622 65.2261C59.1705 64.7712 58.7412 64.4214 58.2372 64.2274C57.5802 63.9698 56.8773 63.8505 56.1722 63.877C55.7172 63.877 55.3147 63.877 54.9822 63.8945C54.743 63.8789 54.5029 63.8847 54.2647 63.912Z" fill="#31A8FF"/>
<path d="M74.6003 68.7303C74.072 68.4517 73.506 68.2511 72.9203 68.1346C72.277 67.9887 71.6199 67.9124 70.9603 67.9068C70.6061 67.8946 70.2521 67.9359 69.9103 68.0295C69.6922 68.0749 69.4991 68.1998 69.3678 68.3799C69.2794 68.522 69.231 68.6855 69.2278 68.853C69.2359 69.0196 69.2973 69.1794 69.4028 69.3085C69.5687 69.5034 69.7708 69.664 69.9978 69.7816C70.4003 69.9919 70.8203 70.1846 71.2403 70.3598C72.1858 70.6785 73.0904 71.1078 73.9353 71.6389C74.51 72.0007 74.9853 72.5006 75.3178 73.0932C75.599 73.6521 75.7373 74.2722 75.7203 74.8979C75.7345 75.7261 75.4965 76.5389 75.0378 77.2282C74.5497 77.9277 73.8686 78.4696 73.0778 78.7876C72.2203 79.1555 71.1703 79.3483 69.9103 79.3483C69.1114 79.3514 68.3141 79.2752 67.5303 79.1205C66.9131 79.0138 66.3128 78.8251 65.7453 78.5598C65.6842 78.5292 65.6335 78.4813 65.5993 78.4221C65.5652 78.3631 65.549 78.2951 65.5528 78.2269V75.1782C65.5512 75.1482 65.5568 75.1185 65.5691 75.0909C65.5812 75.0636 65.5995 75.0394 65.6228 75.0205C65.6475 75.0061 65.676 75 65.7045 75.0032C65.7329 75.0063 65.7595 75.0186 65.7803 75.038C66.4544 75.4359 67.1866 75.7256 67.9503 75.8966C68.6246 76.0723 69.3186 76.1606 70.0153 76.1594C70.6803 76.1594 71.1528 76.0718 71.4678 75.9141C71.6083 75.8491 71.7273 75.7454 71.8111 75.615C71.8948 75.4846 71.9396 75.3331 71.9403 75.1782C71.9403 74.9329 71.8003 74.7051 71.5203 74.4773C71.2403 74.2496 70.6628 73.9867 69.8053 73.6538C68.9256 73.3435 68.0903 72.9193 67.3203 72.3923C66.7718 72.0011 66.3176 71.4922 65.9903 70.903C65.711 70.3497 65.5727 69.7357 65.5878 69.1158C65.5904 68.3682 65.796 67.6353 66.1828 66.9957C66.6273 66.2923 67.2655 65.7326 68.0203 65.3838C68.8428 64.9632 69.8753 64.7705 71.1178 64.7705C71.8441 64.7707 72.5692 64.8234 73.2878 64.9282C73.8044 64.9982 74.3102 65.1336 74.7928 65.3312C74.8696 65.3585 74.9326 65.4152 74.9678 65.4889C74.9879 65.5573 74.9996 65.6279 75.0028 65.6991V68.5551C75.0031 68.5891 74.9953 68.6228 74.98 68.6532C74.9648 68.6837 74.9426 68.7102 74.9153 68.7303C74.8134 68.767 74.7021 68.767 74.6003 68.7303Z" fill="#31A8FF"/>
<path d="M156.438 50H183.563C184.54 49.9991 185.507 50.1911 186.41 50.565C187.313 50.9389 188.133 51.4873 188.824 52.179C189.514 52.8707 190.062 53.6919 190.436 54.5958C190.809 55.4997 191.001 56.4684 191 57.4466V83.5534C191.001 84.5316 190.809 85.5004 190.436 86.4041C190.062 87.3081 189.514 88.1293 188.824 88.821C188.133 89.5126 187.313 90.0612 186.41 90.4351C185.507 90.809 184.54 91.0009 183.563 91H156.438C155.461 91.0009 154.493 90.809 153.59 90.4351C152.687 90.0612 151.867 89.5126 151.176 88.821C150.486 88.1293 149.938 87.3081 149.564 86.4041C149.191 85.5004 148.999 84.5316 149 83.5534V57.4466C148.999 56.4684 149.191 55.4997 149.564 54.5958C149.938 53.6919 150.486 52.8707 151.176 52.179C151.867 51.4873 152.687 50.9389 153.59 50.565C154.493 50.1911 155.461 49.9991 156.438 50Z" fill="#330000"/>
<path d="M169.352 74.5998H162.842L161.512 78.7173C161.498 78.7923 161.455 78.8591 161.394 78.9046C161.332 78.95 161.256 78.9707 161.18 78.9626H157.89C157.697 78.9626 157.645 78.8575 157.697 78.6473L163.332 62.4049C163.385 62.2297 163.437 62.037 163.507 61.8267C163.578 61.4512 163.613 61.0699 163.612 60.6879C163.607 60.644 163.619 60.5997 163.645 60.564C163.671 60.5282 163.709 60.5037 163.752 60.4951H168.285C168.425 60.4951 168.495 60.5477 168.512 60.6353L174.9 78.6823C174.952 78.875 174.9 78.9626 174.725 78.9626H171.067C171.006 78.9686 170.943 78.9525 170.892 78.9173C170.841 78.882 170.804 78.8298 170.787 78.7699L169.352 74.5998ZM163.857 71.043H168.302C168.197 70.675 168.057 70.237 167.9 69.7814C167.742 69.3259 167.585 68.8002 167.427 68.2746C167.27 67.749 167.095 67.2058 166.92 66.6626C166.745 66.1195 166.587 65.6114 166.447 65.1032C166.307 64.5951 166.185 64.1571 166.062 63.7366H166.027C165.87 64.5002 165.671 65.2548 165.432 65.9968C165.17 66.8379 164.907 67.7139 164.627 68.59C164.382 69.4836 164.12 70.3071 163.857 71.043Z" fill="#FF9A00"/>
<path d="M178.715 63.4917C178.428 63.498 178.142 63.447 177.874 63.3417C177.607 63.2364 177.363 63.0789 177.157 62.8784C176.756 62.4395 176.543 61.861 176.562 61.2665C176.552 60.9768 176.603 60.6882 176.711 60.4195C176.82 60.1508 176.984 59.9081 177.192 59.7071C177.613 59.309 178.171 59.0893 178.75 59.0938C179.432 59.0938 179.957 59.3041 180.342 59.7071C180.73 60.1319 180.937 60.6913 180.92 61.2665C180.931 61.5625 180.882 61.8577 180.777 62.1345C180.671 62.4114 180.512 62.6644 180.307 62.8784C180.101 63.0887 179.852 63.2523 179.578 63.3581C179.303 63.4639 179.009 63.5094 178.715 63.4917ZM176.755 78.7002V65.2088C176.755 65.0336 176.825 64.9635 176.982 64.9635H180.447C180.605 64.9635 180.675 65.0511 180.675 65.2088V78.7002C180.675 78.893 180.605 78.9806 180.447 78.9806H177.017C176.981 78.9835 176.943 78.9783 176.909 78.965C176.875 78.9517 176.844 78.9308 176.819 78.9038C176.793 78.8768 176.774 78.8446 176.763 78.8094C176.752 78.774 176.749 78.7368 176.755 78.7002Z" fill="#FF9A00"/>
<path d="M425.416 51.5548H422.947L425.515 54.3416V55.6683H420.226V54.1149H422.793L420.226 51.328V50H425.416V51.5548ZM419.177 51.5548H416.707L419.275 54.3416V55.6683H413.986V54.1149H416.554L413.986 51.328V50H419.177V51.5548ZM412.998 51.6183H410.334V54.05H412.998V55.6683H408.439V50H412.998V51.6183Z" fill="#131313"/>
<path d="M404.808 88.6266L402.1 58.2559H431.854L429.143 88.6216L416.959 92.0001L404.808 88.6266Z" fill="#1572B6"/>
<path d="M416.978 89.4178L426.823 86.6882L429.139 60.7393H416.978V89.4178Z" fill="#33A9DC"/>
<path d="M416.977 71.7425H421.906L422.247 67.9283H416.977V64.2034H426.317L426.228 65.2027L425.313 75.467H416.977V71.7425Z" fill="white"/>
<path d="M416.999 81.4163L416.983 81.4209L412.835 80.3006L412.569 77.3298H408.831L409.353 83.1784L416.982 85.2963L417 85.2913L416.999 81.4163Z" fill="#EBEBEB"/>
<path d="M421.589 75.3093L421.141 80.2977L416.986 81.4191V85.2945L424.622 83.1782L424.679 82.5488L425.327 75.3093H421.589Z" fill="white"/>
<path d="M416.99 64.2034V67.9279H407.993L407.918 67.0909L407.748 65.2027L407.659 64.2034H416.99ZM416.977 71.7428V75.4677H412.881L412.807 74.6306L412.637 72.7421L412.548 71.7428H416.977Z" fill="#EBEBEB"/>
<path fill-rule="evenodd" clip-rule="evenodd" d="M613.738 50C606.123 50 599.947 56.174 599.947 63.7907C599.947 69.8836 603.899 75.0531 609.378 76.8764C610.067 77.0041 610.32 76.5772 610.32 76.2128C610.32 75.8842 610.308 74.7976 610.302 73.6456C606.465 74.4796 605.655 72.0184 605.655 72.0184C605.028 70.4243 604.124 70.0003 604.124 70.0003C602.873 69.1446 604.218 69.1621 604.218 69.1621C605.603 69.2593 606.333 70.5834 606.333 70.5834C607.562 72.6917 609.559 72.082 610.345 71.7296C610.47 70.8382 610.827 70.2295 611.221 69.8852C608.158 69.5368 604.938 68.354 604.938 63.0698C604.938 61.5641 605.477 60.334 606.359 59.3681C606.216 59.0206 605.744 57.6177 606.493 55.7182C606.493 55.7182 607.651 55.348 610.285 57.1325C611.386 56.8268 612.566 56.6735 613.737 56.6683C614.909 56.6738 616.09 56.8271 617.192 57.1325C619.824 55.3484 620.981 55.7185 620.981 55.7185C621.731 57.618 621.259 59.0206 621.116 59.3684C622 60.3337 622.535 61.5641 622.535 63.0701C622.535 68.3666 619.309 69.5329 616.238 69.8739C616.733 70.3018 617.174 71.1413 617.174 72.4281C617.174 74.2732 617.158 75.7581 617.158 76.2122C617.158 76.5785 617.406 77.0089 618.105 76.8734C623.582 75.0479 627.528 69.8804 627.528 63.7894C627.529 56.1743 621.354 50 613.738 50Z" fill="#181616"/>
<path d="M605.171 69.8001C605.14 69.8688 605.032 69.8892 604.934 69.8422C604.834 69.7969 604.778 69.7038 604.81 69.6348C604.84 69.5648 604.948 69.545 605.048 69.592C605.149 69.6374 605.205 69.7314 605.171 69.8001ZM605.729 70.4237C605.664 70.4844 605.535 70.4562 605.447 70.3596C605.357 70.2633 605.34 70.1346 605.407 70.073C605.475 70.0121 605.599 70.0406 605.689 70.1369C605.78 70.2341 605.798 70.3615 605.729 70.4234L605.729 70.4237ZM606.273 71.2172C606.189 71.2762 606.05 71.2211 605.965 71.0983C605.88 70.9761 605.88 70.8292 605.967 70.7699C606.052 70.7109 606.188 70.7641 606.275 70.8856C606.36 71.0104 606.36 71.1576 606.273 71.2172ZM607.018 71.9848C606.942 72.0681 606.781 72.0458 606.664 71.932C606.543 71.8208 606.51 71.6629 606.585 71.5796C606.662 71.4963 606.824 71.5197 606.942 71.6325C607.062 71.7433 607.099 71.9018 607.018 71.9848ZM608.046 72.4302C608.012 72.5385 607.857 72.5874 607.701 72.5417C607.545 72.4944 607.443 72.368 607.474 72.259C607.507 72.1501 607.663 72.0992 607.82 72.1482C607.976 72.1949 608.078 72.32 608.046 72.4302ZM609.174 72.5128C609.178 72.6263 609.046 72.7209 608.882 72.7229C608.717 72.7268 608.584 72.6347 608.582 72.5226C608.582 72.4078 608.711 72.3145 608.876 72.3119C609.04 72.3086 609.174 72.4 609.174 72.5128ZM610.224 72.3342C610.244 72.4451 610.13 72.5592 609.967 72.5893C609.807 72.6192 609.659 72.5504 609.639 72.4402C609.619 72.3268 609.735 72.2133 609.895 72.1835C610.058 72.155 610.204 72.2214 610.224 72.3342Z" fill="#181616"/>
<path d="M601.049 84.6155H597.581C597.538 84.6155 597.497 84.6326 597.466 84.663C597.436 84.6934 597.419 84.7346 597.419 84.7776V86.4735C597.419 86.5165 597.436 86.5577 597.466 86.5881C597.497 86.6185 597.538 86.6356 597.581 86.6356H598.934V88.7425C598.934 88.7425 598.63 88.8462 597.789 88.8462C596.799 88.8462 595.414 88.4845 595.414 85.4401C595.414 82.3955 596.856 81.9945 598.21 81.9945C599.381 81.9945 599.886 82.2007 600.207 82.3002C600.308 82.3306 600.402 82.2302 600.402 82.1407L600.788 80.5021C600.789 80.4776 600.784 80.4533 600.773 80.4313C600.762 80.4093 600.746 80.3902 600.726 80.3757C600.596 80.2824 599.8 79.8376 597.79 79.8376C595.474 79.8376 593.099 80.8224 593.099 85.5588C593.099 90.2945 595.819 91.0002 598.11 91.0002C600.008 91.0002 601.159 90.1892 601.159 90.1892C601.206 90.1632 601.211 90.0968 601.211 90.066V84.7773C601.211 84.7343 601.194 84.6931 601.164 84.6627C601.134 84.6323 601.092 84.6155 601.049 84.6155ZM618.764 80.2422H616.811C616.79 80.2423 616.768 80.2466 616.749 80.2548C616.729 80.263 616.711 80.2751 616.696 80.2902C616.681 80.3054 616.669 80.3233 616.661 80.3431C616.653 80.3628 616.649 80.3839 616.649 80.4052L616.65 84.1796H613.606V80.4052C613.606 80.3839 613.602 80.3628 613.594 80.3431C613.586 80.3234 613.574 80.3055 613.559 80.2903C613.544 80.2752 613.526 80.2631 613.507 80.2549C613.487 80.2466 613.466 80.2423 613.445 80.2422H611.492C611.47 80.2423 611.449 80.2466 611.43 80.2548C611.41 80.263 611.392 80.2751 611.377 80.2902C611.362 80.3054 611.35 80.3233 611.342 80.3431C611.334 80.3628 611.33 80.3839 611.33 80.4052V90.6255C611.33 90.7153 611.403 90.7885 611.492 90.7885H613.445C613.466 90.7884 613.487 90.7841 613.507 90.7758C613.526 90.7675 613.544 90.7554 613.559 90.7402C613.574 90.7251 613.586 90.7071 613.594 90.6873C613.602 90.6676 613.606 90.6465 613.606 90.6251V86.2537H616.65L616.645 90.6251C616.645 90.7153 616.717 90.7885 616.807 90.7885H618.764C618.785 90.7884 618.807 90.7841 618.826 90.7758C618.846 90.7675 618.864 90.7554 618.879 90.7402C618.894 90.7251 618.905 90.7071 618.913 90.6873C618.921 90.6676 618.925 90.6465 618.925 90.6251V80.4049C618.925 80.3836 618.921 80.3625 618.913 80.3428C618.905 80.323 618.894 80.3051 618.879 80.2899C618.864 80.2748 618.846 80.2628 618.826 80.2546C618.806 80.2464 618.785 80.2422 618.764 80.2422ZM603.476 80.4746C602.781 80.4746 602.217 81.0428 602.217 81.7462C602.217 82.4486 602.781 83.0185 603.476 83.0185C604.171 83.0185 604.735 82.4486 604.735 81.7462C604.735 81.0428 604.171 80.4746 603.476 80.4746ZM604.434 83.589H602.487C602.397 83.589 602.318 83.681 602.318 83.7705V90.5295C602.318 90.7282 602.442 90.7872 602.602 90.7872H604.355C604.548 90.7872 604.595 90.6926 604.595 90.5263V83.752C604.595 83.7307 604.591 83.7096 604.583 83.6899C604.575 83.6702 604.563 83.6523 604.548 83.6372C604.533 83.6221 604.515 83.6101 604.496 83.6019C604.476 83.5936 604.455 83.589 604.434 83.589ZM626.348 83.6042H624.409C624.388 83.6044 624.367 83.6087 624.347 83.617C624.328 83.6253 624.31 83.6374 624.295 83.6526C624.28 83.6678 624.268 83.6857 624.26 83.7054C624.252 83.7252 624.248 83.7463 624.249 83.7676V88.7788C624.249 88.7788 623.756 89.1386 623.057 89.1386C622.359 89.1386 622.173 88.8219 622.173 88.1377V83.7676C622.174 83.7463 622.17 83.7251 622.162 83.7054C622.154 83.6856 622.142 83.6676 622.127 83.6525C622.112 83.6373 622.094 83.6252 622.074 83.6169C622.055 83.6087 622.034 83.6043 622.012 83.6042H620.045C620.002 83.6045 619.961 83.6219 619.931 83.6525C619.901 83.6832 619.884 83.7245 619.884 83.7676V88.4683C619.884 90.5007 621.017 90.9979 622.575 90.9979C623.853 90.9979 624.884 90.2913 624.884 90.2913C624.884 90.2913 624.933 90.664 624.956 90.7078C624.978 90.7519 625.036 90.7963 625.098 90.7963L626.349 90.7908C626.371 90.7907 626.392 90.7864 626.412 90.7782C626.431 90.7699 626.449 90.7578 626.464 90.7427C626.479 90.7275 626.491 90.7095 626.499 90.6897C626.507 90.67 626.512 90.6488 626.511 90.6274L626.51 83.7666C626.51 83.7236 626.493 83.6824 626.463 83.6519C626.433 83.6215 626.391 83.6042 626.348 83.6039L626.348 83.6042ZM631.645 83.3747C630.544 83.3747 629.795 83.8658 629.795 83.8658V80.4049C629.795 80.3836 629.791 80.3625 629.783 80.3428C629.775 80.3231 629.764 80.3052 629.749 80.29C629.734 80.2749 629.716 80.2628 629.696 80.2546C629.677 80.2463 629.656 80.242 629.634 80.2419H627.676C627.655 80.2419 627.634 80.2461 627.614 80.2543C627.594 80.2625 627.576 80.2745 627.561 80.2897C627.546 80.3048 627.534 80.3228 627.526 80.3426C627.518 80.3624 627.514 80.3835 627.514 80.4049V90.6251C627.514 90.6465 627.518 90.6677 627.526 90.6875C627.534 90.7072 627.546 90.7252 627.561 90.7404C627.576 90.7555 627.594 90.7676 627.614 90.7758C627.634 90.784 627.655 90.7882 627.676 90.7882H629.035C629.096 90.7882 629.143 90.7567 629.177 90.7013C629.21 90.6462 629.259 90.23 629.259 90.23C629.259 90.23 630.06 90.9885 631.576 90.9885C633.355 90.9885 634.376 90.0861 634.376 86.9361C634.376 83.786 632.746 83.3744 631.645 83.3744L631.645 83.3747ZM630.88 89.1328C630.208 89.1124 629.752 88.8073 629.752 88.8073V85.5708C629.752 85.5708 630.202 85.2953 630.754 85.2453C631.451 85.1828 632.124 85.3938 632.124 87.0586C632.124 88.8145 631.821 89.161 630.88 89.1325L630.88 89.1328ZM610.236 89.0945C610.15 89.0945 609.932 89.1292 609.707 89.1292C608.988 89.1292 608.744 88.7947 608.744 88.3617V85.4878H610.209C610.23 85.4878 610.251 85.4836 610.271 85.4753C610.291 85.4671 610.309 85.4551 610.324 85.4399C610.339 85.4247 610.351 85.4067 610.359 85.3868C610.367 85.367 610.371 85.3458 610.371 85.3244V83.7504C610.371 83.729 610.367 83.7079 610.359 83.6882C610.35 83.6684 610.339 83.6505 610.324 83.6354C610.308 83.6202 610.291 83.6082 610.271 83.6001C610.251 83.5919 610.23 83.5877 610.209 83.5877H608.744L608.741 81.6525C608.741 81.5789 608.704 81.5423 608.619 81.5423H606.622C606.545 81.5423 606.503 81.5767 606.503 81.6509V83.6509C606.503 83.6509 605.502 83.8924 605.435 83.9118C605.401 83.9216 605.372 83.9421 605.351 83.9702C605.33 83.9982 605.318 84.0323 605.318 84.0674V85.3241C605.318 85.3454 605.322 85.3665 605.33 85.3862C605.338 85.4059 605.35 85.4239 605.365 85.439C605.38 85.4541 605.398 85.4662 605.417 85.4744C605.437 85.4827 605.458 85.487 605.479 85.4871H606.503V88.5108C606.503 90.7571 608.078 90.9775 609.142 90.9775C609.627 90.9775 610.208 90.8219 610.304 90.7862C610.362 90.7645 610.396 90.7046 610.396 90.6394L610.397 89.2569C610.396 89.2141 610.379 89.1732 610.349 89.1428C610.319 89.1125 610.278 89.0951 610.235 89.0942L610.236 89.0945Z" fill="#100E0F"/>
<path d="M367.273 88.6701L364.6 58.6885H393.972L391.296 88.6654L379.268 91.9999L367.273 88.6701Z" fill="#E44D26"/>
<path d="M379.286 89.4508L389.005 86.7561L391.292 61.1399H379.286V89.4508Z" fill="#F16529"/>
<path d="M379.286 72.2601H374.42L374.084 68.4943H379.286V64.8171H370.065L370.153 65.8039L371.057 75.9369H379.286V72.2601ZM379.286 81.8095L379.27 81.8138L375.175 80.7078L374.913 77.7755H371.221L371.736 83.549L379.269 85.6402L379.286 85.6352V81.8095Z" fill="#EBEBEB"/>
<path d="M367.333 50H369.201V51.8465H370.911V50H372.779V55.5908H370.911V53.7187H369.201V55.5908H367.333V50ZM375.236 51.8542H373.591V50H378.751V51.8542H377.105V55.5908H375.236V51.8542ZM379.57 50H381.518L382.717 51.9645L383.914 50H385.864V55.5908H384.002V52.8197L382.717 54.8074H382.684L381.398 52.8197V55.5908H379.57V50H379.57ZM386.794 50H388.663V53.7429H391.291V55.5911H386.794V50Z" fill="black"/>
<path d="M379.273 72.2601V75.9369H383.801L383.375 80.7058L379.273 81.8128V85.6382L386.812 83.549L386.867 82.9275L387.731 73.2472L387.821 72.2601H386.83H379.273ZM379.273 64.8171V68.4943H388.155L388.229 67.6677L388.397 65.8039L388.485 64.8171H379.273Z" fill="white"/>
<path d="M566.418 68.5018C568.155 68.5018 569.563 67.0934 569.563 65.3561C569.563 63.6188 568.155 62.2104 566.418 62.2104C564.68 62.2104 563.272 63.6188 563.272 65.3561C563.272 67.0934 564.68 68.5018 566.418 68.5018Z" fill="#61DAFB"/>
<path d="M566.418 76.9243C568.887 79.3259 571.322 80.7465 573.284 80.7465C573.927 80.7465 574.536 80.6112 575.043 80.3068C576.802 79.292 577.445 76.7552 576.836 73.136C576.734 72.4933 576.599 71.8506 576.43 71.1742C577.106 70.9712 577.715 70.7683 578.324 70.5653C581.74 69.2462 583.635 67.4196 583.635 65.424C583.635 63.3945 581.74 61.568 578.324 60.2827C577.715 60.0459 577.106 59.8429 576.43 59.6738C576.599 58.9973 576.734 58.3547 576.836 57.712C577.411 54.0251 576.768 51.4545 575.009 50.4397C574.502 50.1353 573.893 50 573.25 50C571.322 50 568.853 51.4206 566.384 53.8222C563.949 51.4206 561.513 50 559.551 50C558.909 50 558.3 50.1353 557.793 50.4397C556.034 51.4545 555.391 53.9913 556 57.6105C556.101 58.2532 556.237 58.8958 556.406 59.5723C555.729 59.7753 555.12 59.9782 554.512 60.1812C551.095 61.5003 549.201 63.3269 549.201 65.3225C549.201 67.352 551.095 69.1785 554.512 70.4638C555.12 70.7006 555.729 70.9036 556.406 71.0727C556.237 71.7492 556.101 72.3918 556 73.0345C555.425 76.6537 556.068 79.2244 557.793 80.2053C558.3 80.5097 558.909 80.645 559.551 80.645C561.513 80.7127 563.949 79.292 566.418 76.9243ZM564.524 72.358C565.133 72.3918 565.775 72.3918 566.418 72.3918C567.061 72.3918 567.703 72.3918 568.312 72.358C567.703 73.1698 567.061 73.9139 566.418 74.6243C565.775 73.9139 565.133 73.1698 564.524 72.358ZM560.329 68.8741C560.668 69.4491 560.972 69.9903 561.344 70.5315C560.296 70.3962 559.315 70.2271 558.368 70.0241C558.672 69.1109 559.01 68.1638 559.416 67.2167C559.687 67.7579 559.991 68.3329 560.329 68.8741ZM558.368 60.7224C559.315 60.5194 560.296 60.3503 561.344 60.215C561.006 60.7562 560.668 61.2974 560.329 61.8724C559.991 62.4474 559.687 62.9886 559.416 63.5636C558.976 62.5827 558.638 61.6356 558.368 60.7224ZM560.228 65.3563C560.668 64.4431 561.141 63.5298 561.682 62.6165C562.19 61.7371 562.765 60.8577 563.34 59.9782C564.355 59.9106 565.369 59.8768 566.418 59.8768C567.5 59.8768 568.515 59.9106 569.496 59.9782C570.105 60.8577 570.646 61.7371 571.153 62.6165C571.694 63.5298 572.168 64.4431 572.608 65.3563C572.168 66.2696 571.694 67.1829 571.153 68.0961C570.646 68.9756 570.071 69.855 569.496 70.7344C568.481 70.8021 567.466 70.8359 566.418 70.8359C565.335 70.8359 564.321 70.8021 563.34 70.7344C562.731 69.855 562.19 68.9756 561.682 68.0961C561.141 67.1829 560.668 66.2696 560.228 65.3563ZM573.453 63.5298L572.54 61.8386C572.202 61.2636 571.897 60.7224 571.525 60.1812C572.574 60.3165 573.555 60.4856 574.502 60.6885C574.197 61.6356 573.859 62.5827 573.453 63.5298ZM573.453 67.1829C573.859 68.1299 574.197 69.077 574.502 69.9903C573.555 70.1932 572.574 70.3624 571.525 70.4977C571.864 69.9565 572.202 69.4153 572.54 68.8403C572.845 68.3329 573.149 67.7579 573.453 67.1829ZM574.231 78.92C573.961 79.0891 573.622 79.1567 573.25 79.1567C571.593 79.1567 569.53 77.8038 567.5 75.7743C568.481 74.7257 569.428 73.5419 570.375 72.2227C571.965 72.0874 573.487 71.8506 574.908 71.5124C575.077 72.1212 575.178 72.7301 575.28 73.3389C575.753 76.214 575.381 78.2773 574.231 78.92ZM575.99 61.0944C579.779 62.1768 582.045 63.8342 582.045 65.3563C582.045 66.6755 580.489 67.9946 577.749 69.0432C577.208 69.2462 576.599 69.4491 575.99 69.6182C575.55 68.2314 575.009 66.8108 574.333 65.3563C575.009 63.9019 575.584 62.4813 575.99 61.0944ZM573.284 51.5559C573.656 51.5559 573.961 51.6236 574.265 51.7927C575.381 52.4354 575.787 54.4648 575.314 57.3737C575.212 57.9488 575.077 58.5576 574.942 59.2003C573.521 58.8958 571.999 58.6591 570.409 58.49C569.496 57.1708 568.515 55.9869 567.534 54.9384C569.564 52.9427 571.627 51.5559 573.284 51.5559ZM568.312 58.3547C567.703 58.3208 567.061 58.3208 566.418 58.3208C565.775 58.3208 565.133 58.3208 564.524 58.3547C565.133 57.5429 565.775 56.7987 566.418 56.0884C567.061 56.7987 567.703 57.5767 568.312 58.3547ZM558.604 51.7927C558.875 51.6236 559.213 51.5559 559.585 51.5559C561.243 51.5559 563.306 52.9089 565.335 54.9384C564.355 55.9869 563.407 57.1708 562.46 58.49C560.871 58.6253 559.349 58.862 557.928 59.2003C557.759 58.5914 557.657 57.9826 557.556 57.3737C557.082 54.4987 557.454 52.4692 558.604 51.7927ZM556.846 69.6182C553.057 68.5358 550.791 66.8784 550.791 65.3563C550.791 64.0372 552.347 62.718 555.087 61.6695C555.628 61.4665 556.237 61.2636 556.846 61.0944C557.285 62.4813 557.826 63.9019 558.503 65.3563C557.826 66.8108 557.251 68.2652 556.846 69.6182ZM557.556 73.3389C557.657 72.7639 557.793 72.1551 557.928 71.5124C559.349 71.8168 560.871 72.0536 562.46 72.2227C563.374 73.5419 564.355 74.7257 565.335 75.7743C563.306 77.7699 561.243 79.1567 559.585 79.1567C559.213 79.1567 558.909 79.0891 558.604 78.92C557.454 78.2773 557.082 76.214 557.556 73.3389ZM556.135 87.2746C556.879 86.3614 556.913 85.3466 556.507 84.3319C556.101 83.3172 555.256 82.8436 554.207 82.8098C552.956 82.776 551.67 82.8098 550.419 82.8098H550.182V91.5703H551.197V88.2555H552.787C552.99 88.2555 553.159 88.3232 553.26 88.4923L555.29 91.638C555.323 91.7056 555.425 91.8071 555.493 91.8071H556.812C556 90.5556 555.222 89.3717 554.41 88.1541C555.12 88.0526 555.729 87.8158 556.135 87.2746ZM551.197 87.207V83.8583H551.569C552.347 83.8583 553.159 83.8245 553.937 83.8922C554.85 83.926 555.493 84.6363 555.493 85.5496C555.493 86.4628 554.748 87.1732 553.835 87.207C553.023 87.2408 552.212 87.207 551.197 87.207ZM564.287 87.6467C563.746 85.279 561.581 84.6701 559.924 85.4143C558.638 85.9893 558.063 87.1055 558.029 88.4923C557.996 89.5409 558.3 90.488 559.112 91.1983C560.025 92.0101 561.141 92.1115 562.291 91.9086C562.934 91.7733 563.509 91.4689 563.949 90.9953C563.78 90.7586 563.61 90.5218 563.441 90.3188C562.494 91.1306 561.446 91.4012 560.296 90.86C559.551 90.488 559.179 89.5747 559.112 88.8982H564.355V88.4585C564.388 88.1541 564.355 87.8835 564.287 87.6467ZM559.179 88.1879C559.078 87.1732 560.093 86.0908 561.209 86.0908C562.494 86.0569 563.306 86.8349 563.34 88.1879H559.179ZM569.564 85.2452C569.056 85.1437 568.515 85.1099 568.008 85.1437C567.196 85.2113 566.486 85.5834 565.91 86.1922C566.08 86.429 566.215 86.6658 566.418 86.9364C566.486 86.8687 566.553 86.8011 566.621 86.7673C567.162 86.2599 567.805 85.9893 568.583 86.0569C569.191 86.0908 569.766 86.2937 569.936 86.9026C570.071 87.3761 570.037 87.8835 570.071 88.3908C569.969 88.3908 569.936 88.357 569.902 88.3232C569.09 87.6467 568.177 87.5114 567.196 87.7482C566.283 87.9849 565.708 88.6953 565.64 89.6085C565.572 90.6571 566.046 91.435 566.959 91.8071C567.534 92.0439 568.177 92.0439 568.786 91.9086C569.259 91.8071 569.462 91.5365 570.139 91.1644V91.6042H571.086C571.086 90.2512 571.119 88.5938 571.086 87.0379C571.086 86.0569 570.511 85.4481 569.564 85.2452ZM570.037 89.507C570.003 89.6085 570.037 89.71 570.037 89.8115C570.037 90.5218 569.868 90.7586 569.191 91.0291C568.718 91.1983 568.211 91.2659 567.703 91.0968C567.128 90.9277 566.722 90.4203 566.722 89.8453C566.688 89.2703 567.061 88.6953 567.636 88.5261C568.413 88.2555 569.124 88.4247 569.766 88.8982C569.969 89.0673 570.105 89.2364 570.037 89.507ZM575.314 86.1584C576.193 85.8878 577.005 86.0569 577.614 86.8011L577.715 86.8687C577.952 86.6658 578.155 86.4628 578.426 86.2261C578.324 86.1246 578.29 86.0569 578.223 85.9555C577.242 84.9069 575.314 84.7716 574.13 85.6172C572.472 86.8349 572.506 89.2026 573.318 90.4541C574.096 91.638 575.212 92.0439 576.531 91.8748C577.309 91.7733 577.952 91.4012 578.459 90.7586C578.223 90.5556 577.986 90.3527 577.749 90.1159C577.681 90.1835 577.648 90.2174 577.614 90.285C576.701 91.2997 575.178 91.1983 574.367 90.1159C573.893 89.4732 573.792 88.7291 573.927 87.9849C573.995 87.1393 574.434 86.4628 575.314 86.1584ZM582.349 90.7586C582.282 90.7924 582.248 90.8262 582.248 90.8262C581.977 91.0291 581.707 91.063 581.402 90.9615C581.098 90.8262 581.064 90.5556 581.03 90.285V86.429C581.03 86.3614 581.03 86.4967 581.064 86.1584H582.349V85.1437H580.996V83.4525H579.981V85.279H579.102C579.034 85.279 578.933 85.3466 578.933 85.4143C578.899 85.6511 578.933 85.8202 578.933 86.1584H580.015V90.488C580.015 91.0291 580.151 91.5027 580.624 91.7733C581.132 92.0777 582.112 92.0101 582.552 91.638C582.62 91.6042 582.654 91.4689 582.654 91.435C582.552 91.2321 582.451 90.9953 582.349 90.7586Z" fill="#61DAFB"/>
<circle cx="464.2" cy="70.5" r="20.5" fill="#F1F1F1"/>
<path d="M477.459 69.9934C476.406 69.9948 475.368 70.2355 474.422 70.6972C474.126 70.2058 473.898 69.6769 473.743 69.1245C473.653 68.6916 473.633 68.2474 473.681 67.808C473.784 67.3246 473.916 66.8481 474.079 66.3814C474.073 66.3204 474.006 66.032 473.332 66.0224C472.658 66.0128 472.078 66.1505 472.016 66.3288C471.898 66.6545 471.805 66.988 471.734 67.3269C471.177 68.7027 470.49 70.0227 469.684 71.2692C469.233 70.5289 469.047 69.6567 469.158 68.7966C469.26 68.3132 469.393 67.8367 469.555 67.37C469.549 67.309 469.482 67.0205 468.808 67.011C468.134 67.0014 467.554 67.139 467.492 67.3173C467.429 67.4957 467.35 67.9158 467.21 68.3155C467.07 68.7152 465.435 72.3679 465.007 73.3098C464.787 73.7885 464.596 74.1787 464.462 74.442C464.456 74.4591 464.448 74.4755 464.438 74.4911C464.319 74.7173 464.255 74.8405 464.255 74.8405V74.8465C464.163 75.0117 464.065 75.1649 464.016 75.1649C463.93 74.8229 463.935 74.4647 464.028 74.1248C464.267 72.8574 464.854 70.8874 464.848 70.8192C464.848 70.7821 464.958 70.4398 464.468 70.2627C464.355 70.2087 464.227 70.1912 464.103 70.2126C463.98 70.2341 463.865 70.2934 463.777 70.3824C463.734 70.3824 463.704 70.4865 463.704 70.4865C463.704 70.4865 464.236 68.2712 462.688 68.2712C462.084 68.3925 461.512 68.6332 461.003 68.9791C460.494 69.325 460.06 69.7692 459.725 70.2855C459.309 70.5117 458.422 70.9952 457.473 71.5158C457.114 71.718 456.738 71.9203 456.39 72.1142C456.366 72.0903 456.341 72.0591 456.317 72.0352C454.432 70.0269 450.967 68.6099 451.117 65.9231C451.172 64.9441 451.508 62.3733 457.77 59.2508C462.923 56.7112 467.025 57.4149 467.735 58.9755C468.751 61.204 465.537 65.3414 460.213 65.941C459.623 66.0605 459.015 66.0461 458.432 65.8988C457.85 65.7515 457.307 65.4751 456.846 65.0901C456.565 64.7837 456.522 64.7657 456.417 64.8268C456.246 64.9189 456.356 65.1942 456.417 65.3534C456.621 65.721 456.895 66.0441 457.225 66.3038C457.556 66.5634 457.934 66.7542 458.34 66.865C460.434 67.3176 462.618 67.1012 464.583 66.2462C467.815 64.9979 470.328 61.5272 469.591 58.6201C468.85 55.6699 463.954 54.6969 459.32 56.3461C456.417 57.3228 453.735 58.8612 451.427 60.8737C448.874 63.2613 448.471 65.3354 448.636 66.2055C449.234 69.2909 453.484 71.298 455.185 72.788C455.099 72.8371 455.02 72.8801 454.953 72.9161C454.102 73.3385 450.858 75.0344 450.046 76.8272C449.128 78.8618 450.193 80.316 450.897 80.5122C451.957 80.7661 453.07 80.6825 454.081 80.2731C455.091 79.8637 455.949 79.149 456.534 78.2287C457.031 77.4654 457.338 76.593 457.426 75.6859C457.514 74.7788 457.381 73.8639 457.04 73.019C457.034 73.0053 457.026 72.9928 457.016 72.9819L457.682 72.5905C458.117 72.3332 458.545 72.095 458.913 71.8988C458.664 72.6174 458.517 73.3676 458.478 74.1272C458.394 75.2915 458.75 76.4449 459.476 77.3586C459.587 77.4538 459.715 77.5261 459.854 77.5713C459.993 77.6165 460.139 77.6337 460.284 77.6219C461.002 77.6219 461.332 77.0235 461.692 76.3126C462.132 75.4437 462.53 74.4336 462.53 74.4336C462.53 74.4336 462.034 77.1636 463.38 77.1636C463.87 77.1636 464.365 76.5268 464.587 76.2061V76.2121C464.587 76.2121 464.599 76.1941 464.624 76.151L464.703 76.023V76.011C464.899 75.6687 465.34 74.8908 465.994 73.5994C466.839 71.9347 467.653 69.8534 467.653 69.8534C467.732 70.3108 467.84 70.7626 467.977 71.2058C468.175 71.7431 468.408 72.2665 468.675 72.7724C468.479 73.0477 468.357 73.2009 468.357 73.2009L468.363 73.2069C468.204 73.4151 468.033 73.6413 467.842 73.8615C467.276 74.484 466.751 75.1424 466.27 75.8327C466.198 75.9486 466.174 76.0875 466.201 76.2209C466.228 76.3543 466.305 76.4723 466.417 76.5508C466.669 76.6819 466.956 76.7293 467.237 76.686C467.66 76.6621 468.076 76.5671 468.467 76.4048C468.845 76.2717 469.202 76.0842 469.526 75.8483C469.86 75.6167 470.129 75.3031 470.307 74.9376C470.485 74.572 470.566 74.1669 470.542 73.761C470.505 73.2498 470.374 72.7497 470.157 72.2853C470.218 72.1992 470.277 72.1142 470.334 72.028C471.014 71.0124 471.628 69.9533 472.17 68.8576C472.248 69.315 472.357 69.7668 472.494 70.2101C472.657 70.6744 472.857 71.1247 473.093 71.5565C472.31 72.1587 471.693 72.9503 471.301 73.8567C470.916 74.971 471.215 75.4725 471.78 75.5885C472.089 75.6098 472.398 75.5465 472.674 75.4054C473.079 75.2721 473.461 75.0759 473.806 74.8238C474.169 74.6094 474.474 74.308 474.691 73.9468C474.909 73.5856 475.034 73.1758 475.054 72.7545C475.027 72.3339 474.932 71.9204 474.773 71.5301C475.806 71.1266 476.926 70.9979 478.024 71.1567C480.937 71.499 481.512 73.317 481.402 74.0829C481.351 74.3545 481.241 74.6118 481.082 74.8377C480.923 75.0635 480.717 75.2526 480.478 75.3923C480.276 75.5203 480.209 75.5634 480.227 75.6556C480.251 75.7908 480.347 75.7836 480.52 75.7597C480.959 75.6232 481.347 75.3569 481.631 74.9958C481.916 74.6347 482.084 74.1958 482.114 73.7371C482.206 71.9418 480.493 69.9731 477.462 69.991L477.459 69.9934ZM454.982 77.5669C454.015 78.6201 452.669 79.0174 452.087 78.6811C451.463 78.3221 451.708 76.7662 452.895 75.6508C453.599 75.0168 454.361 74.4491 455.169 73.9549C455.31 73.8687 455.519 73.7466 455.768 73.5958L455.835 73.5587L455.982 73.4666C456.194 74.1773 456.213 74.9315 456.037 75.6521C455.862 76.3726 455.498 77.0335 454.982 77.5669ZM462.021 72.7796C461.685 73.5994 460.981 75.6998 460.552 75.5826C460.185 75.4844 459.954 73.8927 460.479 72.32C460.745 71.563 461.131 70.854 461.624 70.2208C462.15 69.6332 462.732 69.4369 462.872 69.6763C462.744 70.7473 462.457 71.7932 462.021 72.7796ZM467.829 75.5586C467.688 75.6316 467.554 75.6783 467.493 75.6448C467.45 75.6209 467.554 75.5251 467.554 75.5251C467.554 75.5251 468.283 74.7412 468.57 74.3869C468.735 74.1787 468.929 73.9345 469.14 73.6581V73.7371C469.14 74.673 468.234 75.3037 467.83 75.561L467.829 75.5586ZM472.31 74.5365C472.206 74.4635 472.224 74.2182 472.573 73.4534C472.816 72.9623 473.156 72.5251 473.571 72.168C473.635 72.3492 473.668 72.5397 473.67 72.7317C473.674 73.1405 473.544 73.5393 473.298 73.866C473.052 74.1927 472.705 74.4289 472.311 74.5377L472.31 74.5365Z" fill="#CD6799"/>
<rect x="496" y="49" width="42" height="41" fill="#F0DB4F"/>
<path d="M534.524 79.9296C534.216 78.0135 532.967 76.4041 529.266 74.9034C527.98 74.3126 526.547 73.8895 526.12 72.9152C525.968 72.3482 525.948 72.0288 526.044 71.6856C526.319 70.5717 527.649 70.2244 528.703 70.5438C529.382 70.7713 530.024 71.2944 530.412 72.1288C532.224 70.9552 532.22 70.9629 533.486 70.1563C533.023 69.438 532.775 69.1065 532.472 68.7992C531.382 67.5816 529.897 66.9546 527.521 67.0026L526.284 67.1626C525.098 67.4622 523.968 68.0846 523.306 68.919C521.317 71.1749 521.884 75.1231 524.304 76.748C526.687 78.5369 530.189 78.9439 530.636 80.6167C531.071 82.6647 529.131 83.3276 527.202 83.0921C525.781 82.7965 524.991 82.0742 524.136 80.7607C522.563 81.6709 522.563 81.6709 520.946 82.6009C521.329 83.4393 521.732 83.8188 522.375 84.5452C525.418 87.6312 533.031 87.4795 534.396 82.8086C534.452 82.6482 534.819 81.5786 534.524 79.9296ZM518.794 67.2498H514.865L514.849 77.4063C514.849 79.5663 514.961 81.5464 514.61 82.1533C514.035 83.3471 512.546 83.1991 511.867 82.9676C511.176 82.6281 510.825 82.1453 510.418 81.4629C510.306 81.2669 510.222 81.1153 510.194 81.1035L507 83.0595C507.531 84.1496 508.314 85.0957 509.316 85.7104C510.813 86.6089 512.825 86.8843 514.929 86.4012C516.299 86.0023 517.48 85.1759 518.099 83.9181C518.993 82.2691 518.801 80.2732 518.793 78.0655C518.814 74.4639 518.794 70.8629 518.794 67.2498Z" fill="#323330"/>
<defs>
<linearGradient id="paint0_linear_37_12400" x1="277.278" y1="75.636" x2="276.506" y2="87.0952" gradientUnits="userSpaceOnUse">
<stop stop-color="#FD5200"/>
<stop offset="0.2722" stop-color="#FFDC38"/>
<stop offset="0.9626" stop-color="#F3FEAB"/>
</linearGradient>
<linearGradient id="paint1_linear_37_12400" x1="270.115" y1="52.2158" x2="262.398" y2="81.9963" gradientUnits="userSpaceOnUse">
<stop offset="0.4072" stop-color="#9E010A"/>
<stop offset="0.6244" stop-color="#FC56A4"/>
<stop offset="0.689" stop-color="#F2A780"/>
<stop offset="0.7431" stop-color="#FFC78A"/>
</linearGradient>
<linearGradient id="paint2_linear_37_12400" x1="278.837" y1="61.2661" x2="275.981" y2="81.7959" gradientUnits="userSpaceOnUse">
<stop offset="0.4072" stop-color="#9E010A"/>
<stop offset="0.6244" stop-color="#FC56A4"/>
<stop offset="0.689" stop-color="#F2A780"/>
<stop offset="0.7431" stop-color="#FFC78A"/>
</linearGradient>
<linearGradient id="paint3_linear_37_12400" x1="284.681" y1="65.6564" x2="262.975" y2="81.3025" gradientUnits="userSpaceOnUse">
<stop offset="0.0753769" stop-color="#0C64CC"/>
<stop offset="0.3348" stop-color="#1F9FE3"/>
<stop offset="0.4851" stop-color="#1B9DEB"/>
<stop offset="0.7569" stop-color="#72F07F"/>
<stop offset="0.8584" stop-color="#DBFEC8"/>
<stop offset="0.9913" stop-color="#F6F9B1"/>
</linearGradient>
<linearGradient id="paint4_linear_37_12400" x1="284.043" y1="74.4648" x2="274.699" y2="68.9028" gradientUnits="userSpaceOnUse">
<stop offset="0.0251256" stop-color="#4226A2"/>
<stop offset="0.2769" stop-color="#7357CB"/>
<stop offset="0.4721" stop-color="#4783DF"/>
<stop offset="0.5228" stop-color="#3B8FE4"/>
<stop offset="0.5797" stop-color="#3B9DE4"/>
<stop offset="0.6561" stop-color="#3BA7E4"/>
<stop offset="0.7412" stop-color="#3BABE4"/>
</linearGradient>
<linearGradient id="paint5_linear_37_12400" x1="272.855" y1="93.275" x2="263.6" y2="87.7658" gradientUnits="userSpaceOnUse">
<stop stop-color="#4226A2"/>
<stop offset="0.3221" stop-color="#7357CB"/>
<stop offset="0.6283" stop-color="#3B8FE4"/>
</linearGradient>
<linearGradient id="paint6_linear_37_12400" x1="294.278" y1="58.7845" x2="261.995" y2="84.0165" gradientUnits="userSpaceOnUse">
<stop stop-color="#7C4ADF"/>
<stop offset="0.3459" stop-color="#E251D8"/>
<stop offset="0.7297" stop-color="#FCDFBC"/>
<stop offset="0.8312" stop-color="#F6F8B0"/>
<stop offset="0.9186" stop-color="#FFFFF2"/>
<stop offset="0.9894" stop-color="#F6F8B0"/>
</linearGradient>
<clipPath id="clip0_37_12400">
<rect width="42" height="42" fill="white" transform="translate(640.698 50)"/>
</clipPath>
</defs>
</svg>
