<svg width="292" height="98" viewBox="0 0 292 98" fill="none" xmlns="http://www.w3.org/2000/svg">
<g filter="url(#filter0_d_97_3926)">
<path d="M12.4375 1H39.5625C40.5395 0.999081 41.5071 1.19106 42.4097 1.56496C43.3126 1.93886 44.1328 2.48734 44.8237 3.179C45.5144 3.87067 46.0623 4.69193 46.4358 5.59581C46.8092 6.49968 47.0009 7.46842 47 8.44659V34.5534C47.0009 35.5316 46.8092 36.5004 46.4358 37.4042C46.0623 38.3081 45.5144 39.1293 44.8237 39.821C44.1328 40.5126 43.3126 41.0612 42.4097 41.4351C41.5071 41.809 40.5395 42.0009 39.5625 42H12.4375C11.4605 42.0009 10.493 41.809 9.5902 41.4351C8.68743 41.0612 7.86717 40.5126 7.17634 39.821C6.48552 39.1293 5.93772 38.3081 5.56427 37.4042C5.19083 36.5004 4.99908 35.5316 5 34.5534V8.44659C4.99908 7.46842 5.19083 6.49968 5.56427 5.59581C5.93772 4.69193 6.48552 3.87067 7.17634 3.179C7.86717 2.48734 8.68743 1.93886 9.5902 1.56496C10.493 1.19106 11.4605 0.999081 12.4375 1Z" fill="#001E36" stroke="#151515" stroke-opacity="0.2" stroke-width="0.7"/>
<path d="M14.45 29.7526V11.7232C14.45 11.6005 14.5025 11.5304 14.625 11.5304C14.9225 11.5304 15.2025 11.5304 15.605 11.5129C16.0075 11.4954 16.4625 11.4954 16.935 11.4779C17.4075 11.4603 17.915 11.4603 18.4575 11.4428C19 11.4253 19.525 11.4253 20.05 11.4253C21.485 11.4253 22.675 11.6005 23.655 11.9685C24.5335 12.2672 25.3344 12.758 26 13.4052C26.5638 13.9716 26.9996 14.6529 27.2775 15.4026C27.5424 16.1328 27.6786 16.9036 27.68 17.6804C27.68 19.1873 27.3299 20.4313 26.6299 21.4125C25.9266 22.3923 24.9449 23.1373 23.8125 23.5501C22.6225 23.9881 21.31 24.1458 19.875 24.1458C19.455 24.1458 19.175 24.1458 19 24.1283C18.825 24.1108 18.58 24.1108 18.2475 24.1108V29.7351C18.2514 29.764 18.2494 29.7933 18.2418 29.8213C18.2342 29.8494 18.221 29.8756 18.2031 29.8986C18.1851 29.9214 18.1627 29.9405 18.1373 29.9545C18.1119 29.9687 18.0839 29.9774 18.055 29.9804H14.66C14.52 29.9804 14.45 29.9103 14.45 29.7526ZM18.265 14.912V20.7992C18.51 20.8167 18.7375 20.8343 18.9475 20.8343H19.875C20.5581 20.8351 21.2372 20.7286 21.8875 20.5189C22.4453 20.3547 22.9437 20.0321 23.3224 19.5902C23.6899 19.1522 23.865 18.5565 23.865 17.7855C23.8814 17.238 23.7418 16.6971 23.4625 16.2261C23.1707 15.7712 22.7415 15.4214 22.2375 15.2274C21.5805 14.9698 20.8775 14.8505 20.1725 14.877C19.7175 14.877 19.315 14.877 18.9825 14.8945C18.7432 14.8789 18.5031 14.8847 18.265 14.912Z" fill="#31A8FF"/>
<path d="M38.6001 19.7303C38.0717 19.4517 37.5058 19.2511 36.9201 19.1346C36.2768 18.9887 35.6196 18.9124 34.9601 18.9068C34.6059 18.8946 34.2518 18.9359 33.9101 19.0295C33.692 19.0749 33.4988 19.1998 33.3676 19.3799C33.2792 19.522 33.2307 19.6855 33.2276 19.853C33.2356 20.0196 33.297 20.1794 33.4026 20.3085C33.5685 20.5034 33.7706 20.664 33.9976 20.7816C34.4001 20.9919 34.8201 21.1846 35.2401 21.3598C36.1856 21.6785 37.0902 22.1078 37.9351 22.6389C38.5098 23.0007 38.9851 23.5006 39.3176 24.0932C39.5988 24.6521 39.737 25.2722 39.7201 25.8979C39.7342 26.7261 39.4962 27.5389 39.0376 28.2282C38.5495 28.9277 37.8684 29.4696 37.0776 29.7876C36.2201 30.1555 35.1701 30.3483 33.9101 30.3483C33.1112 30.3514 32.3139 30.2752 31.5301 30.1205C30.9128 30.0138 30.3126 29.8251 29.7451 29.5598C29.684 29.5292 29.6332 29.4813 29.5991 29.4221C29.565 29.3631 29.5487 29.2951 29.5526 29.2269V26.1782C29.551 26.1482 29.5566 26.1185 29.5688 26.0909C29.5809 26.0636 29.5993 26.0394 29.6226 26.0205C29.6472 26.0061 29.6758 26 29.7043 26.0032C29.7326 26.0063 29.7592 26.0186 29.7801 26.038C30.4542 26.4359 31.1864 26.7256 31.9501 26.8966C32.6243 27.0723 33.3184 27.1606 34.0151 27.1594C34.6801 27.1594 35.1526 27.0718 35.4676 26.9141C35.6081 26.8491 35.7271 26.7454 35.8109 26.615C35.8946 26.4846 35.9394 26.3331 35.9401 26.1782C35.9401 25.9329 35.8001 25.7051 35.5201 25.4773C35.2401 25.2496 34.6626 24.9867 33.8051 24.6538C32.9253 24.3435 32.0901 23.9193 31.3201 23.3923C30.7716 23.0011 30.3173 22.4922 29.9901 21.903C29.7108 21.3497 29.5725 20.7357 29.5876 20.1158C29.5902 19.3682 29.7958 18.6353 30.1826 17.9957C30.6271 17.2923 31.2653 16.7326 32.0201 16.3838C32.8426 15.9632 33.8751 15.7705 35.1176 15.7705C35.8438 15.7707 36.569 15.8234 37.2876 15.9282C37.8042 15.9982 38.3099 16.1336 38.7926 16.3312C38.8694 16.3585 38.9324 16.4152 38.9676 16.4889C38.9877 16.5573 38.9994 16.6279 39.0026 16.6991V19.5551C39.0029 19.5891 38.995 19.6228 38.9798 19.6532C38.9646 19.6837 38.9424 19.7102 38.9151 19.7303C38.8132 19.767 38.7019 19.767 38.6001 19.7303Z" fill="#31A8FF"/>
</g>
<g filter="url(#filter1_d_97_3926)">
<path d="M60.4375 1H87.5625C88.5395 0.999081 89.5071 1.19106 90.4097 1.56496C91.3126 1.93886 92.1328 2.48734 92.8237 3.179C93.5144 3.87067 94.0623 4.69193 94.4358 5.59581C94.8092 6.49968 95.0009 7.46842 95 8.44659V34.5534C95.0009 35.5316 94.8092 36.5004 94.4358 37.4042C94.0623 38.3081 93.5144 39.1293 92.8237 39.821C92.1328 40.5126 91.3126 41.0612 90.4097 41.4351C89.5071 41.809 88.5395 42.0009 87.5625 42H60.4375C59.4605 42.0009 58.493 41.809 57.5902 41.4351C56.6874 41.0612 55.8672 40.5126 55.1763 39.821C54.4855 39.1293 53.9377 38.3081 53.5643 37.4042C53.1908 36.5004 52.9991 35.5316 53 34.5534V8.44659C52.9991 7.46842 53.1908 6.49968 53.5643 5.59581C53.9377 4.69193 54.4855 3.87067 55.1763 3.179C55.8672 2.48734 56.6874 1.93886 57.5902 1.56496C58.493 1.19106 59.4605 0.999081 60.4375 1Z" fill="#001E36" stroke="#151515" stroke-opacity="0.2" stroke-width="0.7"/>
<path d="M75.0501 29.9804H63.9551C63.7626 29.9804 63.6751 29.8753 63.6751 29.6651V11.7582C63.6712 11.7294 63.6731 11.7001 63.6807 11.672C63.6883 11.6439 63.7015 11.6177 63.7195 11.5948C63.7374 11.5719 63.7598 11.5529 63.7852 11.5388C63.8107 11.5247 63.8387 11.5159 63.8676 11.5129H67.3676C67.3895 11.5089 67.4119 11.5094 67.4336 11.5144C67.4553 11.5193 67.4758 11.5287 67.4938 11.5418C67.5118 11.5549 67.5269 11.5715 67.5383 11.5906C67.5497 11.6098 67.5571 11.631 67.5601 11.6531V26.4236H75.6451C75.8201 26.4236 75.8726 26.5112 75.8376 26.6689L75.3301 29.7176C75.3273 29.7579 75.3166 29.7972 75.2986 29.8333C75.2805 29.8694 75.2555 29.9016 75.2251 29.9279C75.1738 29.9634 75.1125 29.9818 75.0501 29.9804Z" fill="#31A8FF"/>
<path d="M77.85 15.9632H80.9125C80.9954 15.9652 81.0756 15.9934 81.1416 16.0437C81.2075 16.0941 81.256 16.164 81.28 16.2436C81.3524 16.3675 81.3999 16.5044 81.42 16.6466C81.455 16.8218 81.49 17.0145 81.5075 17.1897C81.525 17.3649 81.5425 17.5927 81.5425 17.8205C82.068 17.2063 82.7029 16.6954 83.415 16.3136C84.2146 15.8797 85.1134 15.6623 86.0225 15.6829C86.0514 15.679 86.0806 15.6809 86.1086 15.6885C86.1366 15.6962 86.1628 15.7094 86.1858 15.7273C86.2085 15.7453 86.2276 15.7677 86.2416 15.7932C86.2558 15.8186 86.2645 15.8467 86.2675 15.8756V19.3624C86.2675 19.5025 86.18 19.5551 85.9875 19.5551C84.8533 19.4871 83.7193 19.6914 82.68 20.1508C82.3254 20.3027 82.0045 20.523 81.735 20.7991V29.735C81.735 29.9102 81.665 29.9803 81.5075 29.9803H78.095C78.0628 29.9857 78.0297 29.9845 77.9979 29.9768C77.966 29.9691 77.9361 29.9549 77.91 29.9353C77.8838 29.9157 77.8619 29.8908 77.8454 29.8624C77.8292 29.834 77.8188 29.8026 77.815 29.7701V19.9931C77.815 19.5726 77.815 19.1346 77.7975 18.679C77.78 18.2235 77.78 17.7679 77.7625 17.3124C77.745 16.9269 77.71 16.5414 77.6575 16.156C77.6528 16.1352 77.6524 16.1138 77.6559 16.0929C77.6596 16.072 77.6673 16.052 77.6788 16.0341C77.6902 16.0162 77.7049 16.0007 77.7222 15.9886C77.7397 15.9764 77.7593 15.9678 77.78 15.9632C77.7975 15.9457 77.815 15.9457 77.85 15.9632Z" fill="#31A8FF"/>
</g>
<g filter="url(#filter2_d_97_3926)">
<path d="M108.438 1H135.563C136.54 0.999081 137.507 1.19106 138.41 1.56496C139.313 1.93886 140.133 2.48734 140.824 3.17899C141.514 3.87067 142.062 4.69193 142.436 5.5958C142.809 6.49969 143.001 7.46843 143 8.44658V34.5534C143.001 35.5316 142.809 36.5004 142.436 37.4041C142.062 38.3081 141.514 39.1293 140.824 39.821C140.133 40.5126 139.313 41.0612 138.41 41.4351C137.507 41.809 136.54 42.0009 135.563 42H108.438C107.461 42.0009 106.493 41.809 105.59 41.4351C104.687 41.0612 103.867 40.5126 103.176 39.821C102.486 39.1293 101.938 38.3081 101.564 37.4041C101.191 36.5004 100.999 35.5316 101 34.5534V8.44658C100.999 7.46843 101.191 6.49969 101.564 5.5958C101.938 4.69193 102.486 3.87067 103.176 3.17899C103.867 2.48734 104.687 1.93886 105.59 1.56496C106.493 1.19106 107.461 0.999081 108.438 1Z" fill="#330000" stroke="#151515" stroke-opacity="0.2" stroke-width="0.7"/>
<path d="M121.353 25.5998H114.843L113.513 29.7173C113.498 29.7923 113.455 29.8591 113.394 29.9046C113.332 29.95 113.256 29.9707 113.18 29.9626H109.89C109.698 29.9626 109.645 29.8575 109.698 29.6473L115.333 13.4049C115.385 13.2297 115.438 13.037 115.508 12.8267C115.578 12.4512 115.613 12.0699 115.613 11.6879C115.607 11.644 115.619 11.5997 115.645 11.564C115.671 11.5282 115.709 11.5037 115.753 11.4951H120.285C120.425 11.4951 120.495 11.5477 120.513 11.6353L126.9 29.6823C126.953 29.875 126.9 29.9626 126.725 29.9626H123.068C123.006 29.9686 122.944 29.9525 122.893 29.9173C122.841 29.882 122.804 29.8298 122.788 29.7699L121.353 25.5998ZM115.858 22.043H120.303C120.198 21.675 120.058 21.237 119.9 20.7814C119.743 20.3259 119.585 19.8002 119.428 19.2746C119.27 18.749 119.095 18.2058 118.92 17.6626C118.745 17.1195 118.588 16.6114 118.448 16.1032C118.308 15.5951 118.185 15.1571 118.063 14.7366H118.028C117.87 15.5002 117.672 16.2548 117.433 16.9968C117.17 17.8379 116.908 18.7139 116.628 19.59C116.383 20.4836 116.12 21.3071 115.858 22.043Z" fill="#FF9A00"/>
<path d="M130.715 14.4917C130.428 14.498 130.142 14.447 129.875 14.3417C129.607 14.2364 129.363 14.0789 129.157 13.8784C128.757 13.4395 128.543 12.861 128.562 12.2665C128.552 11.9768 128.603 11.6882 128.711 11.4195C128.82 11.1508 128.984 10.9081 129.192 10.7071C129.613 10.309 130.171 10.0893 130.75 10.0938C131.432 10.0938 131.957 10.3041 132.342 10.7071C132.73 11.1319 132.937 11.6913 132.92 12.2665C132.931 12.5625 132.882 12.8577 132.777 13.1345C132.671 13.4114 132.512 13.6644 132.307 13.8784C132.101 14.0887 131.852 14.2523 131.578 14.3581C131.303 14.4639 131.009 14.5094 130.715 14.4917ZM128.755 29.7002V16.2088C128.755 16.0336 128.825 15.9635 128.982 15.9635H132.447C132.605 15.9635 132.675 16.0511 132.675 16.2088V29.7002C132.675 29.893 132.605 29.9806 132.447 29.9806H129.017C128.981 29.9835 128.944 29.9783 128.909 29.965C128.875 29.9517 128.844 29.9308 128.819 29.9038C128.793 29.8768 128.775 29.8446 128.764 29.8094C128.753 29.774 128.75 29.7368 128.755 29.7002Z" fill="#FF9A00"/>
</g>
<g filter="url(#filter3_d_97_3926)">
<path d="M156.438 1H183.563C184.54 0.999081 185.507 1.19106 186.41 1.56496C187.313 1.93886 188.133 2.48734 188.824 3.17899C189.514 3.87067 190.062 4.69193 190.436 5.5958C190.809 6.49969 191.001 7.46843 191 8.44658V34.5534C191.001 35.5316 190.809 36.5004 190.436 37.4041C190.062 38.3081 189.514 39.1293 188.824 39.821C188.133 40.5126 187.313 41.0612 186.41 41.4351C185.507 41.809 184.54 42.0009 183.563 42H156.438C155.461 42.0009 154.493 41.809 153.59 41.4351C152.687 41.0612 151.867 40.5126 151.176 39.821C150.486 39.1293 149.938 38.3081 149.564 37.4041C149.191 36.5004 148.999 35.5316 149 34.5534V8.44658C148.999 7.46843 149.191 6.49969 149.564 5.5958C149.938 4.69193 150.486 3.87067 151.176 3.17899C151.867 2.48734 152.687 1.93886 153.59 1.56496C154.493 1.19106 155.461 0.999081 156.438 1Z" fill="#49021F" stroke="#151515" stroke-opacity="0.2" stroke-width="0.7"/>
<path d="M164.26 11.7229V29.6998C164.26 29.8925 164.173 29.9801 164.015 29.9801H160.585C160.428 29.9801 160.358 29.8925 160.358 29.6998V11.7229C160.358 11.5652 160.445 11.4951 160.603 11.4951H164.015C164.042 11.4909 164.069 11.4922 164.095 11.4988C164.121 11.5055 164.145 11.5173 164.166 11.5337C164.188 11.5501 164.205 11.5707 164.219 11.5942C164.232 11.6177 164.24 11.6436 164.243 11.6703C164.249 11.6772 164.254 11.6855 164.257 11.6946C164.26 11.7037 164.261 11.7134 164.26 11.7229Z" fill="#FF3366"/>
<path d="M174.34 30.2605C173.043 30.2818 171.757 30.0124 170.577 29.472C169.48 28.9581 168.56 28.1285 167.935 27.0891C167.287 26.0203 166.972 24.6887 166.972 23.0942C166.955 21.7976 167.287 20.5202 167.935 19.3972C168.599 18.2559 169.561 17.317 170.717 16.6814C171.942 15.9981 173.412 15.6652 175.145 15.6652C175.268 15.6638 175.39 15.6696 175.512 15.6827C175.67 15.7002 175.845 15.7002 176.055 15.7177V10.181C176.055 10.0583 176.107 9.98824 176.23 9.98824H179.782C179.822 9.98293 179.861 9.9926 179.894 10.0153C179.926 10.0381 179.949 10.0722 179.957 10.1109V26.8263C179.957 27.1417 179.975 27.4921 179.992 27.8776C180.01 28.263 180.045 28.5959 180.062 28.8938C180.066 28.953 180.051 29.0119 180.02 29.0622C179.989 29.1125 179.942 29.1515 179.887 29.1741C178.971 29.5598 178.014 29.8419 177.035 30.0152C176.146 30.1765 175.244 30.2587 174.34 30.2605ZM176.055 26.7562V19.0468C175.899 19.0091 175.741 18.9799 175.582 18.9592C175.39 18.9417 175.197 18.9241 175.005 18.9241C174.319 18.9164 173.641 19.0725 173.027 19.3797C172.429 19.6781 171.917 20.1243 171.54 20.6763C171.155 21.237 170.962 21.9904 170.962 22.9015C170.947 23.5165 171.048 24.1287 171.26 24.7062C171.429 25.1731 171.698 25.5977 172.047 25.9502C172.385 26.2726 172.792 26.5125 173.237 26.6511C173.706 26.8047 174.197 26.8816 174.69 26.8788C174.952 26.8788 175.197 26.8613 175.425 26.8438C175.639 26.8603 175.854 26.8305 176.055 26.7562Z" fill="#FF3366"/>
</g>
<g filter="url(#filter4_d_97_3926)">
<path d="M228.935 42H206.065C201.059 42 197 37.9408 197 32.9347V10.0653C197 5.05923 201.059 1 206.065 1H228.93C233.936 1 237.995 5.05923 237.995 10.0653V32.9302C238 37.9408 233.941 42 228.935 42Z" fill="#242424" stroke="#151515" stroke-opacity="0.2" stroke-width="0.7"/>
<path d="M216 18.5232C210.822 20.0635 201.675 23.5927 201.236 37.9133C202.889 30.2025 206.967 29.0971 214.46 27.3348C221.953 25.577 226.026 23.5927 230.547 18.1925C235.064 12.7923 233.524 5.08154 233.524 5.08154C233.524 9.26762 230.547 12.0221 227.684 14.0064C224.821 15.9907 221.178 16.9829 216 18.5232Z" fill="url(#paint0_linear_97_3926)"/>
<path d="M201.235 37.918C201.249 37.5465 201.267 37.1886 201.29 36.8352C201.249 37.2158 201.226 37.5782 201.235 37.918Z" fill="url(#paint1_linear_97_3926)"/>
<path d="M220.508 25.568C216.616 26.3019 212.652 26.2158 210.051 26.8999C205.426 28.1095 201.571 33.6184 201.235 37.9133C201.249 37.5463 201.267 37.1884 201.29 36.8305C201.802 32.1551 206.11 24.4852 215.56 20.2855C218.569 18.9491 221.278 17.531 223.634 16.0813C225.156 15.4878 226.488 14.8309 227.679 14.0064C230.542 12.0221 233.519 9.26762 233.519 5.08154C233.519 5.08154 233.764 11.3697 231.725 16.7518C231.444 17.2638 231.127 17.7576 230.764 18.2242C228.019 21.7896 224.78 23.9733 220.508 25.568Z" fill="url(#paint2_linear_97_3926)"/>
<path d="M201.299 36.6493C201.272 37.0615 201.249 37.4829 201.236 37.9133C201.209 37.5236 201.231 37.0978 201.299 36.6493C202.223 23.3798 210.976 20.0182 216 18.5232C221.179 16.9829 224.816 15.9907 227.68 14.0064C230.543 12.0221 233.519 9.26762 233.519 5.08154C233.519 5.08154 235.064 12.7923 230.543 18.1925C226.026 23.5927 222.279 21.3864 214.786 23.1487C207.95 24.7615 202.029 31.9694 201.299 36.6493Z" fill="url(#paint3_linear_97_3926)"/>
<path d="M212.915 23.9234C219.969 22.6005 224.372 22.7093 229.224 17.531C234.072 12.3528 233.519 5.08154 233.519 5.08154C233.519 9.26762 230.542 12.0221 227.679 14.0064C226.483 14.8355 225.151 15.4878 223.634 16.0813C221.278 17.531 218.02 19.0125 215.012 20.3489C205.562 24.5486 201.802 32.1551 201.29 36.8305C201.267 37.1839 201.249 37.5418 201.235 37.9133C201.571 33.6139 205.865 25.2463 212.915 23.9234Z" fill="url(#paint4_linear_97_3926)"/>
<path d="M201.235 37.918C201.249 37.5465 201.267 37.1886 201.29 36.8352C201.249 37.2158 201.226 37.5782 201.235 37.918Z" fill="url(#paint5_linear_97_3926)"/>
<path d="M217.876 19.6286C204.983 22.0524 201.127 33.4372 201.236 37.9178C201.567 33.623 205.313 28.6622 210.161 26.0165C217.324 22.3786 224.817 24.3629 229.995 19.0759C235.173 13.7889 233.52 5.08154 233.52 5.08154C233.52 9.26762 231.975 13.2362 229.22 15.5513C226.47 17.8618 220.961 19.0397 217.876 19.6286Z" fill="url(#paint6_linear_97_3926)"/>
</g>
<g filter="url(#filter5_d_97_3926)">
<path d="M251.433 1H278.558C279.535 0.999081 280.503 1.19106 281.405 1.56496C282.308 1.93886 283.128 2.48734 283.819 3.179C284.51 3.87067 285.058 4.69193 285.431 5.59581C285.805 6.49968 285.996 7.46842 285.996 8.44659V34.5534C285.996 35.5316 285.805 36.5004 285.431 37.4042C285.058 38.3081 284.51 39.1293 283.819 39.821C283.128 40.5126 282.308 41.0612 281.405 41.4351C280.503 41.809 279.535 42.0009 278.558 42H251.433C250.456 42.0009 249.489 41.809 248.586 41.4351C247.683 41.0612 246.863 40.5126 246.172 39.821C245.481 39.1293 244.933 38.3081 244.56 37.4042C244.186 36.5004 243.995 35.5316 243.996 34.5534V8.44659C243.995 7.46842 244.186 6.49968 244.56 5.59581C244.933 4.69193 245.481 3.87067 246.172 3.179C246.863 2.48734 247.683 1.93886 248.586 1.56496C249.489 1.19106 250.456 0.999081 251.433 1Z" fill="#000B1D" stroke="#151515" stroke-opacity="0.2" stroke-width="0.7"/>
<path d="M260.621 34.6411C263.037 34.6411 264.996 32.6799 264.996 30.2607V25.8804H260.621C258.204 25.8804 256.246 27.8415 256.246 30.2607C256.246 32.6799 258.204 34.6411 260.621 34.6411Z" fill="#0ACF83"/>
<path d="M256.246 21.5C256.246 19.0808 258.204 17.1196 260.621 17.1196H264.996V25.8803H260.621C258.204 25.8803 256.246 23.9191 256.246 21.5Z" fill="#A259FF"/>
<path d="M256.246 12.7395C256.246 10.3203 258.204 8.35913 260.621 8.35913H264.996V17.1198H260.621C258.204 17.1198 256.246 15.1587 256.246 12.7395Z" fill="#F24E1E"/>
<path d="M264.996 8.35913H269.371C271.787 8.35913 273.746 10.3203 273.746 12.7395C273.746 15.1587 271.787 17.1198 269.371 17.1198H264.996V8.35913Z" fill="#FF7262"/>
<path d="M273.746 21.5C273.746 23.9191 271.787 25.8803 269.371 25.8803C266.954 25.8803 264.996 23.9191 264.996 21.5C264.996 19.0808 266.954 17.1196 269.371 17.1196C271.787 17.1196 273.746 19.0808 273.746 21.5Z" fill="#1ABCFE"/>
</g>
<g filter="url(#filter6_d_97_3926)">
<path d="M12.4375 48H39.5625C40.5395 47.9991 41.5071 48.1911 42.4098 48.565C43.3126 48.9389 44.1328 49.4873 44.8237 50.179C45.5144 50.8707 46.0624 51.6919 46.4358 52.5958C46.8093 53.4997 47.0009 54.4684 47 55.4466V81.5534C47.0009 82.5316 46.8093 83.5004 46.4358 84.4041C46.0624 85.3081 45.5144 86.1293 44.8237 86.821C44.1328 87.5126 43.3126 88.0612 42.4098 88.4351C41.5071 88.809 40.5395 89.0009 39.5625 89H12.4375C11.4605 89.0009 10.493 88.809 9.5902 88.4351C8.68743 88.0612 7.86717 87.5126 7.17634 86.821C6.48552 86.1293 5.93772 85.3081 5.56427 84.4041C5.19083 83.5004 4.99908 82.5316 5 81.5534V55.4466C4.99908 54.4684 5.19083 53.4997 5.56427 52.5958C5.93772 51.6919 6.48552 50.8707 7.17634 50.179C7.86717 49.4873 8.68743 48.9389 9.5902 48.565C10.493 48.1911 11.4605 47.9991 12.4375 48Z" fill="#FAFAFA" stroke="#151515" stroke-opacity="0.2" stroke-width="0.8"/>
<path d="M15.2912 83.146L13 57.4475H38.1764L35.8829 83.142L25.5728 86.0001L15.2912 83.146Z" fill="#E44D26"/>
<path d="M25.5883 83.8148L33.919 81.505L35.8792 59.5483H25.5883V83.8148Z" fill="#F16529"/>
<path d="M25.588 69.0801H21.4172L21.1295 65.8522H25.588V62.7004H17.6848L17.76 63.5462L18.5349 72.2316H25.588V69.0801ZM25.588 77.2653L25.574 77.269L22.0641 76.321L21.8397 73.8076H18.6756L19.1171 78.7563L25.5735 80.5487L25.588 80.5445V77.2653Z" fill="#EBEBEB"/>
<path d="M15.3427 50H16.9442V51.5827H18.4096V50H20.0114V54.7921H18.4096V53.1874H16.9445V54.7921H15.3427V50ZM22.1175 51.5893H20.7073V50H25.13V51.5893H23.7193V54.7921H22.1175V51.5893ZM25.8319 50H27.5018L28.5293 51.6839L29.5557 50H31.2265V54.7921H29.6309V52.4168L28.5293 54.1207H28.5014L27.399 52.4168V54.7921H25.8316V50H25.8319ZM32.0239 50H33.626V53.2082H35.8784V54.7924H32.0239V50Z" fill="black"/>
<path d="M25.5774 69.0801V72.2316H29.4585L29.0927 76.3193L25.5774 77.2682V80.547L32.0388 78.7563L32.0861 78.2236L32.8268 69.9262L32.9037 69.0801H32.0542H25.5774ZM25.5774 62.7004V65.8522H33.1906L33.2535 65.1438L33.3974 63.5462L33.4729 62.7004H25.5774Z" fill="white"/>
</g>
<g filter="url(#filter7_d_97_3926)">
<path d="M60.4375 48H87.5625C88.5395 47.9991 89.5071 48.1911 90.4098 48.565C91.3126 48.9389 92.1328 49.4873 92.8237 50.179C93.5144 50.8707 94.0624 51.6919 94.4358 52.5958C94.8093 53.4997 95.0009 54.4684 95 55.4466V81.5534C95.0009 82.5316 94.8093 83.5004 94.4358 84.4041C94.0624 85.3081 93.5144 86.1293 92.8237 86.821C92.1328 87.5126 91.3126 88.0612 90.4098 88.4351C89.5071 88.809 88.5395 89.0009 87.5625 89H60.4375C59.4605 89.0009 58.493 88.809 57.5902 88.4351C56.6874 88.0612 55.8672 87.5126 55.1763 86.821C54.4855 86.1293 53.9377 85.3081 53.5643 84.4041C53.1908 83.5004 52.9991 82.5316 53 81.5534V55.4466C52.9991 54.4684 53.1908 53.4997 53.5643 52.5958C53.9377 51.6919 54.4855 50.8707 55.1763 50.179C55.8672 49.4873 56.6874 48.9389 57.5902 48.565C58.493 48.1911 59.4605 47.9991 60.4375 48Z" fill="#FAFAFA" stroke="#151515" stroke-opacity="0.2" stroke-width="0.8"/>
<path d="M80.9851 51.3327H78.8684L81.0697 53.7214V54.8585H76.5359V53.527H78.7369L76.5359 51.1383V50H80.9851V51.3327ZM75.637 51.3327H73.5203L75.7215 53.7214V54.8585H71.1875V53.527H73.3887L71.1875 51.1383V50H75.637V51.3327ZM70.3413 51.3871H68.0572V53.4714H70.3413V54.8585H66.4336V50H70.3413V51.3871Z" fill="black"/>
<path d="M63.3211 83.1085L61 57.0764H86.5029L84.1799 83.1042L73.7358 86L63.3211 83.1085Z" fill="#1572B6"/>
<path d="M73.7522 83.7867L82.1911 81.447L84.1764 59.2051H73.7522V83.7867Z" fill="#33A9DC"/>
<path d="M73.7517 68.6364H77.9764L78.2686 65.3671H73.7517V62.1743H81.7577L81.6812 63.0308L80.8966 71.8289H73.7517V68.6364Z" fill="white"/>
<path d="M73.7708 76.9282L73.7567 76.9322L70.2011 75.9719L69.9734 73.4255H66.7689L67.2164 78.4386L73.7562 80.254L73.7711 80.2497L73.7708 76.9282Z" fill="#EBEBEB"/>
<path d="M77.7053 71.6938L77.3206 75.9696L73.7598 76.9308V80.2525L80.305 78.4386L80.3531 77.8991L80.9087 71.6938H77.7053Z" fill="white"/>
<path d="M73.7631 62.1743V65.3668H66.0512L65.987 64.6493L65.8417 63.0308L65.7651 62.1743H73.7631ZM73.7519 68.6367V71.8295H70.2413L70.1773 71.112L70.0317 69.4932L69.9552 68.6367H73.7519Z" fill="#EBEBEB"/>
</g>
<g filter="url(#filter8_d_97_3926)">
<circle cx="121.5" cy="68.5" r="20.5" fill="#F1F1F1" stroke="#151515" stroke-opacity="0.2" stroke-width="0.8"/>
<path d="M134.759 67.9934C133.706 67.9948 132.668 68.2355 131.722 68.6972C131.426 68.2058 131.198 67.6769 131.043 67.1245C130.954 66.6916 130.933 66.2474 130.982 65.808C131.084 65.3246 131.217 64.8481 131.379 64.3814C131.373 64.3204 131.306 64.032 130.632 64.0224C129.958 64.0128 129.378 64.1505 129.316 64.3288C129.199 64.6545 129.105 64.988 129.034 65.3269C128.477 66.7027 127.79 68.0227 126.984 69.2692C126.533 68.5289 126.347 67.6567 126.458 66.7966C126.56 66.3132 126.693 65.8367 126.855 65.37C126.849 65.309 126.782 65.0205 126.108 65.011C125.434 65.0014 124.854 65.139 124.792 65.3173C124.729 65.4957 124.651 65.9158 124.51 66.3155C124.37 66.7152 122.736 70.3679 122.307 71.3098C122.087 71.7885 121.897 72.1787 121.763 72.442C121.756 72.4591 121.748 72.4755 121.739 72.4911C121.619 72.7173 121.556 72.8405 121.556 72.8405V72.8465C121.463 73.0117 121.365 73.1649 121.316 73.1649C121.231 72.8229 121.235 72.4647 121.328 72.1248C121.568 70.8574 122.154 68.8874 122.148 68.8192C122.148 68.7821 122.258 68.4398 121.769 68.2627C121.655 68.2087 121.528 68.1912 121.404 68.2126C121.28 68.2341 121.166 68.2934 121.077 68.3824C121.034 68.3824 121.004 68.4865 121.004 68.4865C121.004 68.4865 121.536 66.2712 119.988 66.2712C119.385 66.3925 118.812 66.6332 118.303 66.9791C117.794 67.325 117.36 67.7692 117.026 68.2855C116.609 68.5117 115.722 68.9952 114.773 69.5158C114.414 69.718 114.038 69.9203 113.69 70.1142C113.666 70.0903 113.641 70.0591 113.617 70.0352C111.732 68.0269 108.267 66.6099 108.417 63.9231C108.472 62.9441 108.808 60.3733 115.07 57.2508C120.223 54.7112 124.325 55.4149 125.035 56.9755C126.051 59.204 122.837 63.3414 117.513 63.941C116.924 64.0605 116.315 64.0461 115.732 63.8988C115.15 63.7515 114.608 63.4751 114.146 63.0901C113.865 62.7837 113.822 62.7657 113.718 62.8268C113.546 62.9189 113.657 63.1942 113.718 63.3534C113.921 63.721 114.195 64.0441 114.526 64.3038C114.856 64.5634 115.235 64.7542 115.64 64.865C117.734 65.3176 119.918 65.1012 121.883 64.2462C125.115 62.9979 127.628 59.5272 126.891 56.6201C126.15 53.6699 121.254 52.6969 116.62 54.3461C113.717 55.3228 111.035 56.8612 108.727 58.8737C106.174 61.2613 105.771 63.3354 105.936 64.2055C106.534 67.2909 110.784 69.298 112.485 70.788C112.399 70.8371 112.32 70.8801 112.253 70.9161C111.402 71.3385 108.158 73.0344 107.346 74.8272C106.428 76.8618 107.493 78.316 108.197 78.5122C109.257 78.7661 110.37 78.6825 111.381 78.2731C112.391 77.8637 113.249 77.149 113.834 76.2287C114.332 75.4654 114.638 74.593 114.726 73.6859C114.814 72.7788 114.682 71.8639 114.34 71.019C114.334 71.0053 114.326 70.9928 114.316 70.9819L114.983 70.5905C115.417 70.3332 115.846 70.095 116.213 69.8988C115.964 70.6174 115.818 71.3676 115.779 72.1272C115.694 73.2915 116.05 74.4449 116.777 75.3586C116.887 75.4538 117.016 75.5261 117.154 75.5713C117.293 75.6165 117.439 75.6337 117.584 75.6219C118.303 75.6219 118.632 75.0235 118.992 74.3126C119.432 73.4437 119.83 72.4336 119.83 72.4336C119.83 72.4336 119.334 75.1636 120.681 75.1636C121.17 75.1636 121.666 74.5268 121.887 74.2061V74.2121C121.887 74.2121 121.899 74.1941 121.924 74.151L122.003 74.023V74.011C122.199 73.6687 122.64 72.8908 123.295 71.5994C124.139 69.9347 124.953 67.8534 124.953 67.8534C125.032 68.3108 125.14 68.7626 125.278 69.2058C125.475 69.7431 125.708 70.2665 125.975 70.7724C125.779 71.0477 125.657 71.2009 125.657 71.2009L125.663 71.2069C125.504 71.4151 125.333 71.6413 125.142 71.8615C124.576 72.484 124.051 73.1424 123.57 73.8327C123.498 73.9486 123.474 74.0875 123.501 74.2209C123.528 74.3543 123.606 74.4723 123.717 74.5508C123.969 74.6819 124.256 74.7293 124.537 74.686C124.96 74.6621 125.376 74.5671 125.767 74.4048C126.145 74.2717 126.502 74.0842 126.826 73.8483C127.161 73.6167 127.43 73.3031 127.607 72.9376C127.785 72.572 127.866 72.1669 127.842 71.761C127.805 71.2498 127.674 70.7497 127.457 70.2853C127.518 70.1992 127.577 70.1142 127.634 70.028C128.315 69.0124 128.928 67.9533 129.47 66.8576C129.549 67.315 129.657 67.7668 129.794 68.2101C129.957 68.6744 130.157 69.1247 130.393 69.5565C129.61 70.1587 128.993 70.9503 128.601 71.8567C128.216 72.971 128.515 73.4725 129.08 73.5885C129.389 73.6098 129.698 73.5465 129.974 73.4054C130.38 73.2721 130.762 73.0759 131.106 72.8238C131.469 72.6094 131.774 72.308 131.992 71.9468C132.21 71.5856 132.334 71.1758 132.354 70.7545C132.327 70.3339 132.232 69.9204 132.073 69.5301C133.106 69.1266 134.226 68.9979 135.324 69.1567C138.237 69.499 138.812 71.317 138.702 72.0829C138.651 72.3545 138.542 72.6118 138.382 72.8377C138.223 73.0635 138.017 73.2526 137.778 73.3923C137.576 73.5203 137.509 73.5634 137.527 73.6556C137.551 73.7908 137.647 73.7836 137.82 73.7597C138.259 73.6232 138.647 73.3569 138.931 72.9958C139.216 72.6347 139.384 72.1958 139.414 71.7371C139.507 69.9418 137.793 67.9731 134.762 67.991L134.759 67.9934ZM112.283 75.5669C111.316 76.6201 109.969 77.0174 109.388 76.6811C108.763 76.3221 109.008 74.7662 110.195 73.6508C110.9 73.0168 111.661 72.4491 112.469 71.9549C112.611 71.8687 112.819 71.7466 113.068 71.5958L113.135 71.5587L113.282 71.4666C113.494 72.1773 113.513 72.9315 113.338 73.6521C113.162 74.3726 112.798 75.0335 112.283 75.5669ZM119.321 70.7796C118.985 71.5994 118.281 73.6998 117.853 73.5826C117.485 73.4844 117.254 71.8927 117.78 70.32C118.045 69.563 118.431 68.854 118.924 68.2208C119.45 67.6332 120.032 67.4369 120.172 67.6763C120.044 68.7473 119.757 69.7932 119.321 70.7796ZM125.129 73.5586C124.988 73.6316 124.854 73.6783 124.793 73.6448C124.75 73.6209 124.854 73.5251 124.854 73.5251C124.854 73.5251 125.583 72.7412 125.87 72.3869C126.035 72.1787 126.229 71.9345 126.44 71.6581V71.7371C126.44 72.673 125.534 73.3037 125.13 73.561L125.129 73.5586ZM129.61 72.5365C129.506 72.4635 129.524 72.2182 129.873 71.4534C130.116 70.9623 130.456 70.5251 130.872 70.168C130.935 70.3492 130.968 70.5397 130.97 70.7317C130.974 71.1405 130.844 71.5393 130.598 71.866C130.352 72.1927 130.005 72.4289 129.611 72.5377L129.61 72.5365Z" fill="#CD6799"/>
</g>
<g filter="url(#filter9_d_97_3926)">
<rect x="148" y="48" width="42" height="41" fill="#F0DB4F" stroke="#151515" stroke-opacity="0.2" stroke-width="0.8"/>
<path d="M186.524 78.9296C186.216 77.0135 184.967 75.4041 181.266 73.9034C179.98 73.3126 178.547 72.8895 178.12 71.9152C177.968 71.3482 177.948 71.0288 178.044 70.6856C178.319 69.5717 179.649 69.2244 180.703 69.5438C181.382 69.7713 182.024 70.2944 182.412 71.1288C184.224 69.9552 184.22 69.9629 185.486 69.1563C185.023 68.438 184.775 68.1065 184.472 67.7992C183.382 66.5816 181.897 65.9546 179.521 66.0026L178.284 66.1626C177.098 66.4622 175.968 67.0846 175.306 67.919C173.317 70.1749 173.884 74.1231 176.304 75.748C178.687 77.5369 182.189 77.9439 182.636 79.6167C183.071 81.6647 181.131 82.3276 179.202 82.0921C177.781 81.7965 176.991 81.0742 176.136 79.7607C174.563 80.6709 174.563 80.6709 172.946 81.6009C173.329 82.4393 173.732 82.8188 174.375 83.5452C177.418 86.6312 185.031 86.4795 186.396 81.8086C186.452 81.6482 186.819 80.5786 186.524 78.9296ZM170.794 66.2498H166.865L166.849 76.4063C166.849 78.5663 166.961 80.5464 166.61 81.1533C166.035 82.3471 164.546 82.1991 163.867 81.9676C163.176 81.6281 162.825 81.1453 162.418 80.4629C162.306 80.2669 162.222 80.1153 162.194 80.1035L159 82.0595C159.531 83.1496 160.314 84.0957 161.316 84.7104C162.813 85.6089 164.825 85.8843 166.929 85.4012C168.299 85.0023 169.48 84.1759 170.099 82.9181C170.993 81.2691 170.801 79.2732 170.793 77.0655C170.814 73.4639 170.794 69.8629 170.794 66.2498Z" fill="#323330"/>
</g>
<g filter="url(#filter10_d_97_3926)">
<path d="M203.438 48H230.563C231.54 47.9991 232.507 48.1911 233.41 48.565C234.313 48.9389 235.133 49.4873 235.824 50.179C236.514 50.8707 237.062 51.6919 237.436 52.5958C237.809 53.4997 238.001 54.4684 238 55.4466V81.5534C238.001 82.5316 237.809 83.5004 237.436 84.4041C237.062 85.3081 236.514 86.1293 235.824 86.821C235.133 87.5126 234.313 88.0612 233.41 88.4351C232.507 88.809 231.54 89.0009 230.563 89H203.438C202.461 89.0009 201.493 88.809 200.59 88.4351C199.687 88.0612 198.867 87.5126 198.176 86.821C197.486 86.1293 196.938 85.3081 196.564 84.4041C196.191 83.5004 195.999 82.5316 196 81.5534V55.4466C195.999 54.4684 196.191 53.4997 196.564 52.5958C196.938 51.6919 197.486 50.8707 198.176 50.179C198.867 49.4873 199.687 48.9389 200.59 48.565C201.493 48.1911 202.461 47.9991 203.438 48Z" fill="#FAFAFA" stroke="#151515" stroke-opacity="0.2" stroke-width="0.8"/>
<path d="M216.884 67.7749C218.083 67.7749 219.056 66.8025 219.056 65.6029C219.056 64.4034 218.083 63.4309 216.884 63.4309C215.684 63.4309 214.712 64.4034 214.712 65.6029C214.712 66.8025 215.684 67.7749 216.884 67.7749Z" fill="#25CEFC"/>
<path d="M216.888 73.5906C218.593 75.2488 220.274 76.2297 221.629 76.2297C222.073 76.2297 222.493 76.1363 222.843 75.9261C224.058 75.2255 224.501 73.4738 224.081 70.9748C224.011 70.5311 223.918 70.0873 223.801 69.6202C224.268 69.4801 224.688 69.34 225.109 69.1999C227.468 68.289 228.775 67.0278 228.775 65.6499C228.775 64.2486 227.468 62.9874 225.109 62.0999C224.688 61.9364 224.268 61.7963 223.801 61.6795C223.918 61.2124 224.011 60.7687 224.081 60.3249C224.478 57.7792 224.034 56.0043 222.82 55.3036C222.47 55.0934 222.049 55 221.605 55C220.274 55 218.569 55.9809 216.864 57.6391C215.183 55.9809 213.501 55 212.147 55C211.703 55 211.283 55.0934 210.932 55.3036C209.718 56.0043 209.274 57.7559 209.694 60.2549C209.764 60.6986 209.858 61.1424 209.975 61.6095C209.508 61.7496 209.087 61.8897 208.667 62.0299C206.308 62.9407 205 64.2019 205 65.5798C205 66.9811 206.308 68.2423 208.667 69.1298C209.087 69.2933 209.508 69.4334 209.975 69.5502C209.858 70.0173 209.764 70.461 209.694 70.9048C209.297 73.4038 209.741 75.1787 210.932 75.856C211.283 76.0662 211.703 76.1597 212.147 76.1597C213.501 76.2064 215.183 75.2255 216.888 73.5906ZM215.58 70.4377C216 70.461 216.444 70.461 216.888 70.461C217.331 70.461 217.775 70.461 218.196 70.4377C217.775 70.9982 217.331 71.512 216.888 72.0025C216.444 71.512 216 70.9982 215.58 70.4377ZM212.684 68.0321C212.917 68.4291 213.128 68.8028 213.384 69.1765C212.66 69.0831 211.983 68.9663 211.329 68.8262C211.539 68.1956 211.773 67.5417 212.053 66.8877C212.24 67.2614 212.45 67.6584 212.684 68.0321ZM211.329 62.4035C211.983 62.2634 212.66 62.1466 213.384 62.0532C213.151 62.4269 212.917 62.8006 212.684 63.1976C212.45 63.5947 212.24 63.9683 212.053 64.3654C211.75 63.6881 211.516 63.0341 211.329 62.4035ZM212.614 65.6032C212.917 64.9726 213.244 64.342 213.618 63.7114C213.968 63.1042 214.365 62.497 214.762 61.8897C215.463 61.843 216.164 61.8197 216.888 61.8197C217.635 61.8197 218.336 61.843 219.013 61.8897C219.433 62.497 219.807 63.1042 220.157 63.7114C220.531 64.342 220.858 64.9726 221.162 65.6032C220.858 66.2338 220.531 66.8644 220.157 67.4949C219.807 68.1022 219.41 68.7094 219.013 69.3166C218.312 69.3633 217.612 69.3867 216.888 69.3867C216.14 69.3867 215.44 69.3633 214.762 69.3166C214.342 68.7094 213.968 68.1022 213.618 67.4949C213.244 66.8644 212.917 66.2338 212.614 65.6032ZM221.746 64.342L221.115 63.1743C220.881 62.7772 220.671 62.4035 220.414 62.0299C221.138 62.1233 221.816 62.2401 222.47 62.3802C222.259 63.0341 222.026 63.6881 221.746 64.342ZM221.746 66.8644C222.026 67.5183 222.259 68.1722 222.47 68.8028C221.816 68.943 221.138 69.0597 220.414 69.1531C220.648 68.7795 220.881 68.4058 221.115 68.0088C221.325 67.6584 221.535 67.2614 221.746 66.8644ZM222.283 74.9685C222.096 75.0853 221.862 75.132 221.605 75.132C220.461 75.132 219.036 74.1978 217.635 72.7965C218.312 72.0725 218.966 71.2551 219.62 70.3443C220.718 70.2508 221.769 70.0873 222.75 69.8538C222.867 70.2742 222.937 70.6946 223.007 71.115C223.334 73.1001 223.077 74.5248 222.283 74.9685ZM223.497 62.6605C226.113 63.4078 227.678 64.5522 227.678 65.6032C227.678 66.514 226.603 67.4249 224.712 68.1489C224.338 68.289 223.918 68.4291 223.497 68.5459C223.194 67.5884 222.82 66.6074 222.353 65.6032C222.82 64.5989 223.217 63.618 223.497 62.6605ZM221.629 56.0743C221.886 56.0743 222.096 56.121 222.306 56.2378C223.077 56.6816 223.357 58.0829 223.03 60.0914C222.96 60.4884 222.867 60.9088 222.773 61.3526C221.792 61.1424 220.741 60.9789 219.644 60.8621C219.013 59.9513 218.336 59.1338 217.658 58.4098C219.06 57.0319 220.484 56.0743 221.629 56.0743ZM218.196 60.7687C217.775 60.7453 217.331 60.7453 216.888 60.7453C216.444 60.7453 216 60.7453 215.58 60.7687C216 60.2082 216.444 59.6944 216.888 59.2039C217.331 59.6944 217.775 60.2315 218.196 60.7687ZM211.493 56.2378C211.68 56.121 211.913 56.0743 212.17 56.0743C213.314 56.0743 214.739 57.0085 216.14 58.4098C215.463 59.1338 214.809 59.9513 214.155 60.8621C213.057 60.9555 212.007 61.119 211.026 61.3526C210.909 60.9322 210.839 60.5118 210.769 60.0914C210.442 58.1062 210.699 56.7049 211.493 56.2378ZM210.278 68.5459C207.662 67.7986 206.098 66.6542 206.098 65.6032C206.098 64.6923 207.172 63.7815 209.064 63.0575C209.437 62.9174 209.858 62.7772 210.278 62.6605C210.582 63.618 210.956 64.5989 211.423 65.6032C210.956 66.6074 210.558 67.6117 210.278 68.5459ZM210.769 71.115C210.839 70.7179 210.932 70.2975 211.026 69.8538C212.007 70.064 213.057 70.2275 214.155 70.3443C214.786 71.2551 215.463 72.0725 216.14 72.7965C214.739 74.1745 213.314 75.132 212.17 75.132C211.913 75.132 211.703 75.0853 211.493 74.9685C210.699 74.5248 210.442 73.1001 210.769 71.115ZM209.788 80.7372C210.302 80.1067 210.325 79.406 210.045 78.7054C209.764 78.0047 209.181 77.6777 208.457 77.6544C207.592 77.631 206.705 77.6544 205.841 77.6544H205.677V83.7033H206.378V81.4145H207.476C207.616 81.4145 207.733 81.4612 207.803 81.578L209.204 83.75C209.227 83.7968 209.297 83.8668 209.344 83.8668H210.255C209.694 83.0027 209.157 82.1853 208.597 81.3445C209.087 81.2744 209.508 81.1109 209.788 80.7372ZM206.378 80.6905V78.3784H206.635C207.172 78.3784 207.733 78.355 208.27 78.4017C208.9 78.4251 209.344 78.9155 209.344 79.5461C209.344 80.1767 208.83 80.6672 208.2 80.6905C207.639 80.7139 207.079 80.6905 206.378 80.6905ZM215.416 80.9941C215.043 79.3593 213.548 78.9389 212.404 79.4527C211.516 79.8498 211.119 80.6205 211.096 81.578C211.072 82.302 211.283 82.956 211.843 83.4464C212.474 84.0069 213.244 84.077 214.038 83.9369C214.482 83.8435 214.879 83.6333 215.183 83.3063C215.066 83.1428 214.949 82.9793 214.832 82.8392C214.179 83.3997 213.455 83.5866 212.66 83.2129C212.147 82.956 211.89 82.3254 211.843 81.8583H215.463V81.5547C215.486 81.3445 215.463 81.1576 215.416 80.9941ZM211.89 81.3678C211.82 80.6672 212.52 79.9198 213.291 79.9198C214.179 79.8965 214.739 80.4336 214.762 81.3678H211.89ZM219.06 79.3359C218.709 79.2659 218.336 79.2425 217.985 79.2659C217.425 79.3126 216.934 79.5695 216.537 79.9899C216.654 80.1534 216.748 80.3169 216.888 80.5037C216.934 80.457 216.981 80.4103 217.028 80.3869C217.402 80.0366 217.845 79.8497 218.382 79.8965C218.803 79.9198 219.2 80.0599 219.317 80.4803C219.41 80.8073 219.387 81.1576 219.41 81.508C219.34 81.508 219.317 81.4846 219.293 81.4612C218.733 80.9941 218.102 80.9007 217.425 81.0642C216.794 81.2277 216.397 81.7182 216.351 82.3487C216.304 83.0727 216.631 83.6099 217.261 83.8668C217.658 84.0303 218.102 84.0303 218.523 83.9369C218.85 83.8668 218.99 83.68 219.457 83.4231V83.7267H220.111C220.111 82.7925 220.134 81.6481 220.111 80.5738C220.111 79.8965 219.714 79.4761 219.06 79.3359ZM219.387 82.2787C219.363 82.3487 219.387 82.4188 219.387 82.4889C219.387 82.9793 219.27 83.1428 218.803 83.3297C218.476 83.4464 218.126 83.4931 217.775 83.3764C217.378 83.2596 217.098 82.9093 217.098 82.5122C217.075 82.1152 217.331 81.7182 217.728 81.6014C218.266 81.4145 218.756 81.5313 219.2 81.8583C219.34 81.9751 219.433 82.0918 219.387 82.2787ZM223.03 79.9665C223.637 79.7797 224.198 79.8965 224.618 80.4103L224.688 80.457C224.852 80.3169 224.992 80.1767 225.179 80.0132C225.109 79.9432 225.085 79.8965 225.039 79.8264C224.361 79.1024 223.03 79.009 222.213 79.5928C221.068 80.4336 221.092 82.0685 221.652 82.9326C222.189 83.75 222.96 84.0303 223.871 83.9135C224.408 83.8435 224.852 83.5866 225.202 83.1428C225.039 83.0027 224.875 82.8625 224.712 82.6991C224.665 82.7458 224.642 82.7691 224.618 82.8158C223.988 83.5165 222.937 83.4464 222.376 82.6991C222.049 82.2553 221.979 81.7415 222.073 81.2277C222.119 80.6438 222.423 80.1767 223.03 79.9665ZM227.888 83.1428C227.841 83.1662 227.818 83.1895 227.818 83.1895C227.631 83.3297 227.444 83.353 227.234 83.2829C227.024 83.1895 227 83.0027 226.977 82.8158V80.1534C226.977 80.1067 226.977 80.2001 227 79.9665H227.888V79.2659H226.954V78.0981H226.253V79.3593H225.646C225.599 79.3593 225.529 79.406 225.529 79.4527C225.506 79.6162 225.529 79.733 225.529 79.9665H226.276V82.956C226.276 83.3296 226.37 83.6566 226.697 83.8435C227.047 84.0537 227.724 84.0069 228.028 83.75C228.075 83.7267 228.098 83.6333 228.098 83.6099C228.028 83.4698 227.958 83.3063 227.888 83.1428Z" fill="#25CEFC"/>
</g>
<g filter="url(#filter11_d_97_3926)">
<path d="M251.438 48H278.563C279.54 47.9991 280.507 48.1911 281.41 48.565C282.313 48.9389 283.133 49.4873 283.824 50.179C284.514 50.8707 285.062 51.6919 285.436 52.5958C285.809 53.4997 286.001 54.4684 286 55.4466V81.5534C286.001 82.5316 285.809 83.5004 285.436 84.4041C285.062 85.3081 284.514 86.1293 283.824 86.821C283.133 87.5126 282.313 88.0612 281.41 88.4351C280.507 88.809 279.54 89.0009 278.563 89H251.438C250.461 89.0009 249.493 88.809 248.59 88.4351C247.687 88.0612 246.867 87.5126 246.176 86.821C245.486 86.1293 244.938 85.3081 244.564 84.4041C244.191 83.5004 243.999 82.5316 244 81.5534V55.4466C243.999 54.4684 244.191 53.4997 244.564 52.5958C244.938 51.6919 245.486 50.8707 246.176 50.179C246.867 49.4873 247.687 48.9389 248.59 48.565C249.493 48.1911 250.461 47.9991 251.438 48Z" fill="#FAFAFA" stroke="#151515" stroke-opacity="0.2" stroke-width="0.8"/>
<path fill-rule="evenodd" clip-rule="evenodd" d="M265.504 55C260.154 55 255.816 59.3669 255.816 64.7544C255.816 69.064 258.592 72.7204 262.441 74.01C262.926 74.1004 263.104 73.7984 263.104 73.5407C263.104 73.3082 263.094 72.5397 263.09 71.7249C260.395 72.3148 259.826 70.574 259.826 70.574C259.385 69.4464 258.75 69.1465 258.75 69.1465C257.871 68.5412 258.816 68.5536 258.816 68.5536C259.789 68.6224 260.302 69.559 260.302 69.559C261.166 71.0502 262.568 70.6189 263.121 70.3697C263.208 69.7392 263.459 69.3086 263.736 69.0651C261.584 68.8187 259.322 67.982 259.322 64.2445C259.322 63.1795 259.701 62.3094 260.32 61.6262C260.22 61.3804 259.888 60.3881 260.414 59.0446C260.414 59.0446 261.228 58.7828 263.079 60.0449C263.852 59.8287 264.681 59.7202 265.504 59.7166C266.327 59.7205 267.157 59.8289 267.931 60.0449C269.78 58.783 270.593 59.0448 270.593 59.0448C271.12 60.3883 270.789 61.3804 270.688 61.6264C271.309 62.3092 271.685 63.1795 271.685 64.2447C271.685 67.991 269.418 68.8159 267.261 69.0571C267.608 69.3597 267.918 69.9535 267.918 70.8638C267.918 72.1688 267.907 73.2191 267.907 73.5403C267.907 73.7993 268.082 74.1038 268.573 74.008C272.42 72.7167 275.193 69.0617 275.193 64.7534C275.193 59.3672 270.855 55 265.504 55Z" fill="#151515"/>
<path d="M259.486 69.0048C259.464 69.0534 259.388 69.0679 259.319 69.0346C259.249 69.0025 259.21 68.9367 259.232 68.8879C259.253 68.8384 259.329 68.8244 259.399 68.8576C259.47 68.8897 259.51 68.9562 259.486 69.0048ZM259.878 69.4459C259.832 69.4888 259.741 69.4689 259.68 69.4005C259.617 69.3324 259.605 69.2414 259.652 69.1979C259.699 69.1548 259.787 69.1749 259.85 69.243C259.913 69.3118 259.926 69.4021 259.878 69.4459ZM260.26 70.0072C260.201 70.0489 260.103 70.0099 260.044 69.923C259.984 69.8366 259.984 69.7328 260.045 69.6908C260.105 69.6491 260.2 69.6867 260.261 69.7726C260.321 69.8609 260.321 69.965 260.26 70.0072ZM260.783 70.5501C260.73 70.609 260.617 70.5932 260.534 70.5127C260.45 70.4341 260.426 70.3224 260.479 70.2635C260.533 70.2046 260.647 70.2211 260.73 70.3009C260.814 70.3793 260.84 70.4914 260.783 70.5501ZM261.506 70.8651C261.482 70.9417 261.373 70.9763 261.263 70.944C261.153 70.9105 261.082 70.8211 261.104 70.7441C261.127 70.667 261.236 70.631 261.347 70.6657C261.456 70.6987 261.528 70.7872 261.506 70.8651ZM262.298 70.9236C262.301 71.0038 262.208 71.0708 262.093 71.0722C261.977 71.0749 261.883 71.0098 261.882 70.9305C261.882 70.8493 261.973 70.7833 262.089 70.7814C262.204 70.7792 262.298 70.8438 262.298 70.9236ZM263.036 70.7973C263.05 70.8757 262.97 70.9564 262.855 70.9777C262.743 70.9988 262.639 70.9502 262.624 70.8722C262.611 70.792 262.692 70.7117 262.804 70.6907C262.919 70.6705 263.021 70.7175 263.036 70.7973Z" fill="#151515"/>
<path d="M256.59 79.484H254.153C254.123 79.484 254.094 79.4961 254.073 79.5176C254.051 79.5391 254.039 79.5683 254.039 79.5987V80.7982C254.039 80.8286 254.051 80.8578 254.073 80.8793C254.094 80.9008 254.123 80.9129 254.153 80.9129H255.104V82.4031C255.104 82.4031 254.89 82.4765 254.3 82.4765C253.604 82.4765 252.631 82.2206 252.631 80.0673C252.631 77.9138 253.644 77.6302 254.595 77.6302C255.418 77.6302 255.772 77.776 255.998 77.8464C256.069 77.8679 256.135 77.7968 256.135 77.7336L256.407 76.5746C256.407 76.5572 256.403 76.54 256.396 76.5245C256.388 76.5089 256.377 76.4954 256.363 76.4852C256.271 76.4191 255.712 76.1046 254.3 76.1046C252.673 76.1046 251.004 76.8011 251.004 80.1512C251.004 83.5009 252.915 84 254.525 84C255.858 84 256.667 83.4264 256.667 83.4264C256.7 83.408 256.704 83.361 256.704 83.3392V79.5984C256.704 79.568 256.692 79.5389 256.67 79.5174C256.649 79.4959 256.62 79.484 256.59 79.484ZM269.036 76.3907H267.663C267.648 76.3908 267.634 76.3938 267.62 76.3996C267.606 76.4055 267.593 76.414 267.583 76.4247C267.572 76.4354 267.564 76.4481 267.558 76.4621C267.553 76.476 267.55 76.491 267.55 76.506L267.55 79.1757H265.412V76.506C265.412 76.491 265.409 76.4761 265.403 76.4621C265.398 76.4482 265.389 76.4355 265.379 76.4248C265.368 76.4141 265.356 76.4055 265.342 76.3997C265.328 76.3939 265.313 76.3908 265.298 76.3907H263.926C263.911 76.3908 263.897 76.3938 263.883 76.3996C263.869 76.4055 263.856 76.414 263.846 76.4247C263.835 76.4354 263.827 76.4481 263.821 76.4621C263.816 76.476 263.813 76.491 263.813 76.506V83.735C263.813 83.7985 263.864 83.8503 263.926 83.8503H265.298C265.313 83.8502 265.328 83.8471 265.342 83.8413C265.356 83.8354 265.368 83.8269 265.379 83.8161C265.389 83.8054 265.398 83.7927 265.403 83.7787C265.409 83.7648 265.412 83.7498 265.412 83.7347V80.6428H267.55L267.547 83.7347C267.547 83.7985 267.598 83.8503 267.661 83.8503H269.036C269.051 83.8502 269.065 83.8471 269.079 83.8413C269.093 83.8354 269.106 83.8269 269.116 83.8161C269.127 83.8054 269.135 83.7927 269.141 83.7787C269.146 83.7648 269.149 83.7498 269.149 83.7347V76.5058C269.149 76.4907 269.146 76.4758 269.141 76.4618C269.135 76.4479 269.127 76.4352 269.116 76.4245C269.106 76.4138 269.093 76.4053 269.079 76.3995C269.065 76.3937 269.051 76.3907 269.036 76.3907ZM258.295 76.5551C257.806 76.5551 257.41 76.957 257.41 77.4545C257.41 77.9514 257.806 78.3544 258.295 78.3544C258.783 78.3544 259.179 77.9514 259.179 77.4545C259.179 76.957 258.783 76.5551 258.295 76.5551ZM258.968 78.7579H257.6C257.537 78.7579 257.481 78.823 257.481 78.8863V83.6671C257.481 83.8076 257.568 83.8494 257.681 83.8494H258.913C259.048 83.8494 259.081 83.7824 259.081 83.6648V78.8733C259.081 78.8582 259.078 78.8433 259.073 78.8294C259.067 78.8154 259.059 78.8028 259.048 78.7921C259.038 78.7814 259.025 78.7729 259.011 78.7671C258.997 78.7612 258.983 78.758 258.968 78.7579ZM274.364 78.7687H273.002C272.987 78.7688 272.972 78.7719 272.958 78.7778C272.945 78.7837 272.932 78.7922 272.922 78.8029C272.911 78.8137 272.903 78.8264 272.897 78.8403C272.892 78.8543 272.889 78.8692 272.889 78.8843V82.4288C272.889 82.4288 272.543 82.6833 272.052 82.6833C271.561 82.6833 271.431 82.4593 271.431 81.9753V78.8843C271.431 78.8692 271.428 78.8542 271.423 78.8403C271.417 78.8263 271.409 78.8136 271.398 78.8029C271.388 78.7921 271.375 78.7836 271.361 78.7777C271.348 78.7719 271.333 78.7688 271.318 78.7687H269.936C269.906 78.769 269.877 78.7812 269.856 78.8029C269.834 78.8246 269.822 78.8538 269.823 78.8843V82.2092C269.823 83.6467 270.618 83.9984 271.713 83.9984C272.611 83.9984 273.336 83.4986 273.336 83.4986C273.336 83.4986 273.37 83.7622 273.386 83.7932C273.402 83.8244 273.442 83.8558 273.486 83.8558L274.365 83.8519C274.38 83.8518 274.395 83.8488 274.409 83.843C274.422 83.8371 274.435 83.8286 274.446 83.8179C274.456 83.8071 274.465 83.7944 274.47 83.7804C274.476 83.7664 274.479 83.7515 274.479 83.7363L274.478 78.8836C274.478 78.8532 274.466 78.824 274.445 78.8025C274.423 78.7809 274.394 78.769 274.364 78.7687ZM278.085 78.6064C277.312 78.6064 276.786 78.9537 276.786 78.9537V76.5058C276.786 76.4907 276.783 76.4758 276.777 76.4619C276.772 76.4479 276.764 76.4352 276.753 76.4245C276.742 76.4138 276.73 76.4053 276.716 76.3995C276.702 76.3936 276.688 76.3906 276.673 76.3905H275.297C275.282 76.3905 275.267 76.3935 275.253 76.3993C275.239 76.4051 275.227 76.4136 275.216 76.4243C275.206 76.435 275.197 76.4477 275.192 76.4617C275.186 76.4757 275.183 76.4907 275.183 76.5058V83.7347C275.183 83.7498 275.186 83.7648 275.192 83.7788C275.197 83.7928 275.206 83.8055 275.216 83.8162C275.227 83.827 275.239 83.8355 275.253 83.8413C275.267 83.8471 275.282 83.8501 275.297 83.8501H276.252C276.295 83.8501 276.327 83.8278 276.351 83.7886C276.375 83.7496 276.409 83.4553 276.409 83.4553C276.409 83.4553 276.971 83.9917 278.037 83.9917C279.287 83.9917 280.004 83.3535 280.004 81.1254C280.004 78.8973 278.859 78.6064 278.085 78.6064ZM277.548 82.6792C277.076 82.6647 276.755 82.449 276.755 82.449V80.1597C276.755 80.1597 277.071 79.9648 277.459 79.9295C277.949 79.8853 278.422 80.0345 278.422 81.2121C278.422 82.454 278.209 82.6993 277.548 82.6792ZM263.044 82.6521C262.984 82.6521 262.83 82.6766 262.673 82.6766C262.167 82.6766 261.996 82.44 261.996 82.1337V80.101H263.025C263.04 80.101 263.055 80.098 263.069 80.0922C263.083 80.0864 263.095 80.0779 263.106 80.0671C263.116 80.0564 263.125 80.0436 263.13 80.0296C263.136 80.0156 263.139 80.0006 263.139 79.9855V78.8721C263.139 78.857 263.136 78.8421 263.13 78.8281C263.125 78.8141 263.116 78.8014 263.106 78.7908C263.095 78.7801 263.082 78.7716 263.069 78.7658C263.055 78.76 263.04 78.757 263.025 78.757H261.996L261.994 77.3883C261.994 77.3362 261.968 77.3103 261.908 77.3103H260.505C260.451 77.3103 260.422 77.3346 260.422 77.3871V78.8017C260.422 78.8017 259.719 78.9725 259.671 78.9863C259.648 78.9932 259.627 79.0077 259.612 79.0276C259.597 79.0474 259.589 79.0715 259.589 79.0963V79.9852C259.589 80.0003 259.592 80.0152 259.598 80.0291C259.603 80.0431 259.612 80.0558 259.622 80.0665C259.633 80.0772 259.645 80.0857 259.659 80.0916C259.673 80.0974 259.687 80.1005 259.702 80.1005H260.422V82.2392C260.422 83.828 261.528 83.984 262.275 83.984C262.616 83.984 263.025 83.8739 263.092 83.8487C263.133 83.8333 263.156 83.7909 263.156 83.7448L263.157 82.767C263.157 82.7367 263.145 82.7077 263.123 82.6863C263.102 82.6648 263.074 82.6527 263.044 82.6521Z" fill="#151515"/>
</g>
<defs>
<filter id="filter0_d_97_3926" x="0.650024" y="0.649902" width="50.7" height="49.7002" filterUnits="userSpaceOnUse" color-interpolation-filters="sRGB">
<feFlood flood-opacity="0" result="BackgroundImageFix"/>
<feColorMatrix in="SourceAlpha" type="matrix" values="0 0 0 0 0 0 0 0 0 0 0 0 0 0 0 0 0 0 127 0" result="hardAlpha"/>
<feOffset dy="4"/>
<feGaussianBlur stdDeviation="2"/>
<feComposite in2="hardAlpha" operator="out"/>
<feColorMatrix type="matrix" values="0 0 0 0 0 0 0 0 0 0 0 0 0 0 0 0 0 0 0.25 0"/>
<feBlend mode="normal" in2="BackgroundImageFix" result="effect1_dropShadow_97_3926"/>
<feBlend mode="normal" in="SourceGraphic" in2="effect1_dropShadow_97_3926" result="shape"/>
</filter>
<filter id="filter1_d_97_3926" x="48.65" y="0.649902" width="50.7" height="49.7002" filterUnits="userSpaceOnUse" color-interpolation-filters="sRGB">
<feFlood flood-opacity="0" result="BackgroundImageFix"/>
<feColorMatrix in="SourceAlpha" type="matrix" values="0 0 0 0 0 0 0 0 0 0 0 0 0 0 0 0 0 0 127 0" result="hardAlpha"/>
<feOffset dy="4"/>
<feGaussianBlur stdDeviation="2"/>
<feComposite in2="hardAlpha" operator="out"/>
<feColorMatrix type="matrix" values="0 0 0 0 0 0 0 0 0 0 0 0 0 0 0 0 0 0 0.25 0"/>
<feBlend mode="normal" in2="BackgroundImageFix" result="effect1_dropShadow_97_3926"/>
<feBlend mode="normal" in="SourceGraphic" in2="effect1_dropShadow_97_3926" result="shape"/>
</filter>
<filter id="filter2_d_97_3926" x="96.65" y="0.649902" width="50.7" height="49.7002" filterUnits="userSpaceOnUse" color-interpolation-filters="sRGB">
<feFlood flood-opacity="0" result="BackgroundImageFix"/>
<feColorMatrix in="SourceAlpha" type="matrix" values="0 0 0 0 0 0 0 0 0 0 0 0 0 0 0 0 0 0 127 0" result="hardAlpha"/>
<feOffset dy="4"/>
<feGaussianBlur stdDeviation="2"/>
<feComposite in2="hardAlpha" operator="out"/>
<feColorMatrix type="matrix" values="0 0 0 0 0 0 0 0 0 0 0 0 0 0 0 0 0 0 0.25 0"/>
<feBlend mode="normal" in2="BackgroundImageFix" result="effect1_dropShadow_97_3926"/>
<feBlend mode="normal" in="SourceGraphic" in2="effect1_dropShadow_97_3926" result="shape"/>
</filter>
<filter id="filter3_d_97_3926" x="144.65" y="0.649902" width="50.7" height="49.7002" filterUnits="userSpaceOnUse" color-interpolation-filters="sRGB">
<feFlood flood-opacity="0" result="BackgroundImageFix"/>
<feColorMatrix in="SourceAlpha" type="matrix" values="0 0 0 0 0 0 0 0 0 0 0 0 0 0 0 0 0 0 127 0" result="hardAlpha"/>
<feOffset dy="4"/>
<feGaussianBlur stdDeviation="2"/>
<feComposite in2="hardAlpha" operator="out"/>
<feColorMatrix type="matrix" values="0 0 0 0 0 0 0 0 0 0 0 0 0 0 0 0 0 0 0.25 0"/>
<feBlend mode="normal" in2="BackgroundImageFix" result="effect1_dropShadow_97_3926"/>
<feBlend mode="normal" in="SourceGraphic" in2="effect1_dropShadow_97_3926" result="shape"/>
</filter>
<filter id="filter4_d_97_3926" x="192.65" y="0.649902" width="49.6954" height="49.7002" filterUnits="userSpaceOnUse" color-interpolation-filters="sRGB">
<feFlood flood-opacity="0" result="BackgroundImageFix"/>
<feColorMatrix in="SourceAlpha" type="matrix" values="0 0 0 0 0 0 0 0 0 0 0 0 0 0 0 0 0 0 127 0" result="hardAlpha"/>
<feOffset dy="4"/>
<feGaussianBlur stdDeviation="2"/>
<feComposite in2="hardAlpha" operator="out"/>
<feColorMatrix type="matrix" values="0 0 0 0 0 0 0 0 0 0 0 0 0 0 0 0 0 0 0.25 0"/>
<feBlend mode="normal" in2="BackgroundImageFix" result="effect1_dropShadow_97_3926"/>
<feBlend mode="normal" in="SourceGraphic" in2="effect1_dropShadow_97_3926" result="shape"/>
</filter>
<filter id="filter5_d_97_3926" x="239.646" y="0.649902" width="50.7" height="49.7002" filterUnits="userSpaceOnUse" color-interpolation-filters="sRGB">
<feFlood flood-opacity="0" result="BackgroundImageFix"/>
<feColorMatrix in="SourceAlpha" type="matrix" values="0 0 0 0 0 0 0 0 0 0 0 0 0 0 0 0 0 0 127 0" result="hardAlpha"/>
<feOffset dy="4"/>
<feGaussianBlur stdDeviation="2"/>
<feComposite in2="hardAlpha" operator="out"/>
<feColorMatrix type="matrix" values="0 0 0 0 0 0 0 0 0 0 0 0 0 0 0 0 0 0 0.25 0"/>
<feBlend mode="normal" in2="BackgroundImageFix" result="effect1_dropShadow_97_3926"/>
<feBlend mode="normal" in="SourceGraphic" in2="effect1_dropShadow_97_3926" result="shape"/>
</filter>
<filter id="filter6_d_97_3926" x="0.599976" y="47.6001" width="50.8" height="49.7998" filterUnits="userSpaceOnUse" color-interpolation-filters="sRGB">
<feFlood flood-opacity="0" result="BackgroundImageFix"/>
<feColorMatrix in="SourceAlpha" type="matrix" values="0 0 0 0 0 0 0 0 0 0 0 0 0 0 0 0 0 0 127 0" result="hardAlpha"/>
<feOffset dy="4"/>
<feGaussianBlur stdDeviation="2"/>
<feComposite in2="hardAlpha" operator="out"/>
<feColorMatrix type="matrix" values="0 0 0 0 0 0 0 0 0 0 0 0 0 0 0 0 0 0 0.25 0"/>
<feBlend mode="normal" in2="BackgroundImageFix" result="effect1_dropShadow_97_3926"/>
<feBlend mode="normal" in="SourceGraphic" in2="effect1_dropShadow_97_3926" result="shape"/>
</filter>
<filter id="filter7_d_97_3926" x="48.6" y="47.6001" width="50.8" height="49.7998" filterUnits="userSpaceOnUse" color-interpolation-filters="sRGB">
<feFlood flood-opacity="0" result="BackgroundImageFix"/>
<feColorMatrix in="SourceAlpha" type="matrix" values="0 0 0 0 0 0 0 0 0 0 0 0 0 0 0 0 0 0 127 0" result="hardAlpha"/>
<feOffset dy="4"/>
<feGaussianBlur stdDeviation="2"/>
<feComposite in2="hardAlpha" operator="out"/>
<feColorMatrix type="matrix" values="0 0 0 0 0 0 0 0 0 0 0 0 0 0 0 0 0 0 0.25 0"/>
<feBlend mode="normal" in2="BackgroundImageFix" result="effect1_dropShadow_97_3926"/>
<feBlend mode="normal" in="SourceGraphic" in2="effect1_dropShadow_97_3926" result="shape"/>
</filter>
<filter id="filter8_d_97_3926" x="96.6" y="47.6001" width="49.8" height="49.7998" filterUnits="userSpaceOnUse" color-interpolation-filters="sRGB">
<feFlood flood-opacity="0" result="BackgroundImageFix"/>
<feColorMatrix in="SourceAlpha" type="matrix" values="0 0 0 0 0 0 0 0 0 0 0 0 0 0 0 0 0 0 127 0" result="hardAlpha"/>
<feOffset dy="4"/>
<feGaussianBlur stdDeviation="2"/>
<feComposite in2="hardAlpha" operator="out"/>
<feColorMatrix type="matrix" values="0 0 0 0 0 0 0 0 0 0 0 0 0 0 0 0 0 0 0.25 0"/>
<feBlend mode="normal" in2="BackgroundImageFix" result="effect1_dropShadow_97_3926"/>
<feBlend mode="normal" in="SourceGraphic" in2="effect1_dropShadow_97_3926" result="shape"/>
</filter>
<filter id="filter9_d_97_3926" x="143.6" y="47.6001" width="50.8" height="49.7998" filterUnits="userSpaceOnUse" color-interpolation-filters="sRGB">
<feFlood flood-opacity="0" result="BackgroundImageFix"/>
<feColorMatrix in="SourceAlpha" type="matrix" values="0 0 0 0 0 0 0 0 0 0 0 0 0 0 0 0 0 0 127 0" result="hardAlpha"/>
<feOffset dy="4"/>
<feGaussianBlur stdDeviation="2"/>
<feComposite in2="hardAlpha" operator="out"/>
<feColorMatrix type="matrix" values="0 0 0 0 0 0 0 0 0 0 0 0 0 0 0 0 0 0 0.25 0"/>
<feBlend mode="normal" in2="BackgroundImageFix" result="effect1_dropShadow_97_3926"/>
<feBlend mode="normal" in="SourceGraphic" in2="effect1_dropShadow_97_3926" result="shape"/>
</filter>
<filter id="filter10_d_97_3926" x="191.6" y="47.6001" width="50.8" height="49.7998" filterUnits="userSpaceOnUse" color-interpolation-filters="sRGB">
<feFlood flood-opacity="0" result="BackgroundImageFix"/>
<feColorMatrix in="SourceAlpha" type="matrix" values="0 0 0 0 0 0 0 0 0 0 0 0 0 0 0 0 0 0 127 0" result="hardAlpha"/>
<feOffset dy="4"/>
<feGaussianBlur stdDeviation="2"/>
<feComposite in2="hardAlpha" operator="out"/>
<feColorMatrix type="matrix" values="0 0 0 0 0 0 0 0 0 0 0 0 0 0 0 0 0 0 0.25 0"/>
<feBlend mode="normal" in2="BackgroundImageFix" result="effect1_dropShadow_97_3926"/>
<feBlend mode="normal" in="SourceGraphic" in2="effect1_dropShadow_97_3926" result="shape"/>
</filter>
<filter id="filter11_d_97_3926" x="239.6" y="47.6001" width="50.8" height="49.7998" filterUnits="userSpaceOnUse" color-interpolation-filters="sRGB">
<feFlood flood-opacity="0" result="BackgroundImageFix"/>
<feColorMatrix in="SourceAlpha" type="matrix" values="0 0 0 0 0 0 0 0 0 0 0 0 0 0 0 0 0 0 127 0" result="hardAlpha"/>
<feOffset dy="4"/>
<feGaussianBlur stdDeviation="2"/>
<feComposite in2="hardAlpha" operator="out"/>
<feColorMatrix type="matrix" values="0 0 0 0 0 0 0 0 0 0 0 0 0 0 0 0 0 0 0.25 0"/>
<feBlend mode="normal" in2="BackgroundImageFix" result="effect1_dropShadow_97_3926"/>
<feBlend mode="normal" in="SourceGraphic" in2="effect1_dropShadow_97_3926" result="shape"/>
</filter>
<linearGradient id="paint0_linear_97_3926" x1="217.278" y1="26.636" x2="216.507" y2="38.0952" gradientUnits="userSpaceOnUse">
<stop stop-color="#FD5200"/>
<stop offset="0.2722" stop-color="#FFDC38"/>
<stop offset="0.9626" stop-color="#F3FEAB"/>
</linearGradient>
<linearGradient id="paint1_linear_97_3926" x1="210.115" y1="3.21575" x2="202.398" y2="32.9963" gradientUnits="userSpaceOnUse">
<stop offset="0.4072" stop-color="#9E010A"/>
<stop offset="0.6244" stop-color="#FC56A4"/>
<stop offset="0.689" stop-color="#F2A780"/>
<stop offset="0.7431" stop-color="#FFC78A"/>
</linearGradient>
<linearGradient id="paint2_linear_97_3926" x1="218.837" y1="12.2661" x2="215.981" y2="32.7959" gradientUnits="userSpaceOnUse">
<stop offset="0.4072" stop-color="#9E010A"/>
<stop offset="0.6244" stop-color="#FC56A4"/>
<stop offset="0.689" stop-color="#F2A780"/>
<stop offset="0.7431" stop-color="#FFC78A"/>
</linearGradient>
<linearGradient id="paint3_linear_97_3926" x1="224.681" y1="16.6564" x2="202.975" y2="32.3025" gradientUnits="userSpaceOnUse">
<stop offset="0.0753769" stop-color="#0C64CC"/>
<stop offset="0.3348" stop-color="#1F9FE3"/>
<stop offset="0.4851" stop-color="#1B9DEB"/>
<stop offset="0.7569" stop-color="#72F07F"/>
<stop offset="0.8584" stop-color="#DBFEC8"/>
<stop offset="0.9913" stop-color="#F6F9B1"/>
</linearGradient>
<linearGradient id="paint4_linear_97_3926" x1="224.043" y1="25.4648" x2="214.699" y2="19.9028" gradientUnits="userSpaceOnUse">
<stop offset="0.0251256" stop-color="#4226A2"/>
<stop offset="0.2769" stop-color="#7357CB"/>
<stop offset="0.4721" stop-color="#4783DF"/>
<stop offset="0.5228" stop-color="#3B8FE4"/>
<stop offset="0.5797" stop-color="#3B9DE4"/>
<stop offset="0.6561" stop-color="#3BA7E4"/>
<stop offset="0.7412" stop-color="#3BABE4"/>
</linearGradient>
<linearGradient id="paint5_linear_97_3926" x1="212.854" y1="44.275" x2="203.599" y2="38.7658" gradientUnits="userSpaceOnUse">
<stop stop-color="#4226A2"/>
<stop offset="0.3221" stop-color="#7357CB"/>
<stop offset="0.6283" stop-color="#3B8FE4"/>
</linearGradient>
<linearGradient id="paint6_linear_97_3926" x1="234.278" y1="9.7845" x2="201.995" y2="35.0165" gradientUnits="userSpaceOnUse">
<stop stop-color="#7C4ADF"/>
<stop offset="0.3459" stop-color="#E251D8"/>
<stop offset="0.7297" stop-color="#FCDFBC"/>
<stop offset="0.8312" stop-color="#F6F8B0"/>
<stop offset="0.9186" stop-color="#FFFFF2"/>
<stop offset="0.9894" stop-color="#F6F8B0"/>
</linearGradient>
</defs>
</svg>
