<svg width="623" height="43" viewBox="0 0 623 43" fill="none" xmlns="http://www.w3.org/2000/svg">
<path d="M257.437 3.30467e-06H284.562C285.54 -0.000918618 286.507 0.191064 287.41 0.564963C288.313 0.938862 289.133 1.48734 289.824 2.179C290.514 2.87067 291.062 3.69193 291.436 4.59581C291.809 5.49968 292.001 6.46842 292 7.44659V33.5534C292.001 34.5316 291.809 35.5004 291.436 36.4042C291.062 37.3081 290.514 38.1293 289.824 38.821C289.133 39.5126 288.313 40.0612 287.41 40.4351C286.507 40.809 285.54 41.0009 284.562 41H257.437C256.461 41.0009 255.493 40.809 254.59 40.4351C253.687 40.0612 252.867 39.5126 252.176 38.821C251.486 38.1293 250.938 37.3081 250.564 36.4042C250.191 35.5004 249.999 34.5316 250 33.5534V7.44659C249.999 6.46842 250.191 5.49968 250.564 4.59581C250.938 3.69193 251.486 2.87067 252.176 2.179C252.867 1.48734 253.687 0.938862 254.59 0.564963C255.493 0.191064 256.461 -0.000918618 257.437 3.30467e-06Z" fill="#000B1D"/>
<path d="M266.625 33.6412C269.041 33.6412 271 31.68 271 29.2608V24.8805H266.625C264.209 24.8805 262.25 26.8417 262.25 29.2608C262.25 31.68 264.209 33.6412 266.625 33.6412Z" fill="#0ACF83"/>
<path d="M262.25 20.4998C262.25 18.0807 264.209 16.1195 266.625 16.1195H271V24.8802H266.625C264.209 24.8802 262.25 22.919 262.25 20.4998Z" fill="#A259FF"/>
<path d="M262.25 11.7395C262.25 9.32028 264.209 7.35913 266.625 7.35913H271V16.1198H266.625C264.209 16.1198 262.25 14.1587 262.25 11.7395Z" fill="#F24E1E"/>
<path d="M271 7.35913H275.375C277.791 7.35913 279.75 9.32028 279.75 11.7395C279.75 14.1587 277.791 16.1198 275.375 16.1198H271V7.35913Z" fill="#FF7262"/>
<path d="M279.75 20.4998C279.75 22.919 277.791 24.8802 275.375 24.8802C272.959 24.8802 271 22.919 271 20.4998C271 18.0807 272.959 16.1195 275.375 16.1195C277.791 16.1195 279.75 18.0807 279.75 20.4998Z" fill="#1ABCFE"/>
<g clip-path="url(#clip0_36_10436)">
<path d="M605.666 19.2687C604.768 19.2687 604.1 19.7097 604.1 20.7712C604.1 21.5708 604.54 22.126 605.618 22.126C606.532 22.126 607.152 21.5875 607.152 20.738C607.152 19.7753 606.597 19.2687 605.666 19.2687ZM603.871 26.763C603.659 27.0239 603.447 27.3012 603.447 27.6283C603.447 28.281 604.279 28.4772 605.422 28.4772C606.369 28.4772 607.659 28.4109 607.659 27.5305C607.659 27.0072 607.038 26.975 606.254 26.9258L603.871 26.763ZM608.703 19.3179C608.997 19.6936 609.307 20.216 609.307 20.967C609.307 22.779 607.887 23.8401 605.83 23.8401C605.307 23.8401 604.834 23.7751 604.54 23.6934L604.001 24.5587L605.601 24.6562C608.425 24.8363 610.09 24.918 610.09 27.0885C610.09 28.9664 608.442 30.0269 605.601 30.0269C602.646 30.0269 601.52 29.2758 601.52 27.9866C601.52 27.2516 601.846 26.8608 602.418 26.3211C601.879 26.0933 601.699 25.6855 601.699 25.2445C601.699 24.8852 601.879 24.5587 602.173 24.2483C602.467 23.9385 602.793 23.6278 603.185 23.2688C602.385 22.8771 601.781 22.0282 601.781 20.8197C601.781 18.9425 603.022 17.6533 605.519 17.6533C606.222 17.6533 606.646 17.718 607.022 17.8167H610.205V19.204L608.703 19.3179ZM613.077 16.3516C612.147 16.3516 611.608 15.8125 611.608 14.8816C611.608 13.9521 612.147 13.4454 613.077 13.4454C614.024 13.4454 614.563 13.9517 614.563 14.8816C614.563 15.8125 614.024 16.3516 613.077 16.3516ZM610.971 26.1626V24.8734L611.804 24.7592C612.032 24.7264 612.065 24.6775 612.065 24.432V19.6326C612.065 19.4534 612.016 19.3386 611.853 19.29L610.971 18.9796L611.15 17.6579H614.53V24.4324C614.53 24.6942 614.546 24.7264 614.792 24.7595L615.624 24.8737V26.1629L610.971 26.1626ZM622.08 25.5293C621.378 25.8715 620.35 26.1823 619.418 26.1823C617.476 26.1823 616.742 25.3994 616.742 23.5537V19.2765C616.742 19.1791 616.742 19.1135 616.611 19.1135H615.468V17.6605C616.905 17.4968 617.476 16.7785 617.656 14.9991H619.207V17.318C619.207 17.4318 619.207 17.4814 619.338 17.4814H621.64V19.1138H619.207V23.0152C619.207 23.9782 619.436 24.3536 620.317 24.3536C620.775 24.3536 621.248 24.2398 621.64 24.0928L622.08 25.5293Z" fill="#31251C"/>
<path d="M597.891 21.2454L590.426 13.7812C590.22 13.5748 589.94 13.4589 589.648 13.4589C589.356 13.4589 589.076 13.5748 588.869 13.7812L587.319 15.3312L589.285 17.2974C589.516 17.2188 589.765 17.2065 590.003 17.2619C590.24 17.3174 590.458 17.4383 590.63 17.6111C590.804 17.7848 590.925 18.0038 590.98 18.2432C591.035 18.4826 591.022 18.7325 590.941 18.9646L592.836 20.8595C593.116 20.7619 593.421 20.7624 593.701 20.8608C593.981 20.9592 594.219 21.1497 594.376 21.4011C594.533 21.6526 594.601 21.95 594.567 22.2446C594.533 22.5392 594.4 22.8136 594.19 23.0228C593.976 23.2373 593.694 23.3709 593.392 23.4009C593.091 23.431 592.788 23.3556 592.536 23.1875C592.284 23.0195 592.098 22.7693 592.01 22.4795C591.921 22.1897 591.936 21.8782 592.052 21.5981L590.284 19.8308L590.284 24.4817C590.471 24.5738 590.632 24.709 590.756 24.8762C590.88 25.0434 590.962 25.2376 590.996 25.4429C591.03 25.6482 591.015 25.8586 590.951 26.0567C590.887 26.2547 590.778 26.4348 590.63 26.582C590.493 26.7191 590.328 26.824 590.145 26.8892C589.962 26.9545 589.767 26.9783 589.575 26.9591C589.382 26.94 589.195 26.8782 589.029 26.7783C588.863 26.6784 588.721 26.5428 588.614 26.3814C588.506 26.22 588.436 26.0368 588.408 25.8449C588.38 25.653 588.395 25.4573 588.451 25.2719C588.508 25.0865 588.605 24.916 588.736 24.7727C588.867 24.6294 589.027 24.5169 589.207 24.4433V19.7494C589.047 19.6839 588.901 19.5874 588.779 19.4654C588.656 19.3434 588.559 19.1983 588.493 19.0386C588.427 18.8788 588.393 18.7076 588.394 18.5347C588.394 18.3619 588.429 18.1908 588.496 18.0314L586.558 16.0928L581.439 21.2109C581.337 21.3132 581.256 21.4346 581.201 21.5682C581.145 21.7019 581.117 21.8451 581.117 21.9897C581.117 22.1344 581.145 22.2776 581.201 22.4112C581.256 22.5449 581.337 22.6663 581.439 22.7685L588.904 30.2327C589.11 30.4391 589.391 30.5551 589.683 30.5551C589.975 30.5551 590.255 30.4391 590.461 30.2327L597.891 22.8027C597.993 22.7004 598.074 22.579 598.129 22.4454C598.185 22.3118 598.213 22.1686 598.213 22.024C598.213 21.8794 598.185 21.7362 598.129 21.6026C598.074 21.469 597.993 21.3476 597.891 21.2454Z" fill="#F34F29"/>
</g>
<path d="M232.717 42.0046H209.287C204.159 42.0046 200 37.8459 200 32.7172V9.28743C200 4.15869 204.159 0 209.287 0H232.713C237.841 0 242 4.15869 242 9.28743V32.7126C242.005 37.8459 237.846 42.0046 232.717 42.0046Z" fill="#242424"/>
<path d="M219.466 17.9527C214.161 19.5307 204.79 23.1464 204.339 37.8178C206.033 29.9182 210.211 28.7857 217.888 26.9802C225.564 25.1793 229.737 23.1464 234.369 17.6138C238.997 12.0813 237.419 4.18164 237.419 4.18164C237.419 8.47029 234.369 11.2923 231.436 13.3252C228.502 15.3581 224.771 16.3746 219.466 17.9527Z" fill="url(#paint0_linear_36_10436)"/>
<path d="M204.339 37.8228C204.353 37.4422 204.372 37.0755 204.395 36.7135C204.353 37.1034 204.33 37.4747 204.339 37.8228Z" fill="url(#paint1_linear_36_10436)"/>
<path d="M224.084 25.17C220.097 25.9219 216.036 25.8338 213.372 26.5346C208.633 27.7739 204.683 33.4178 204.339 37.8178C204.353 37.4419 204.372 37.0752 204.395 36.7085C204.92 31.9186 209.333 24.0607 219.015 19.7582C222.097 18.389 224.873 16.9362 227.286 15.4509C228.846 14.8429 230.21 14.1699 231.431 13.3252C234.365 11.2923 237.414 8.47029 237.414 4.18164C237.414 4.18164 237.665 10.6239 235.576 16.1379C235.288 16.6624 234.963 17.1683 234.592 17.6463C231.779 21.2991 228.461 23.5363 224.084 25.17Z" fill="url(#paint2_linear_36_10436)"/>
<path d="M204.405 36.5229C204.377 36.9453 204.354 37.3769 204.34 37.8178C204.312 37.4187 204.335 36.9824 204.405 36.5229C205.351 22.9282 214.319 19.4843 219.466 17.9527C224.771 16.3746 228.498 15.3581 231.431 13.3252C234.365 11.2923 237.414 8.47029 237.414 4.18164C237.414 4.18164 238.997 12.0813 234.365 17.6138C229.737 23.1464 225.899 20.886 218.222 22.6915C211.218 24.3439 205.152 31.7283 204.405 36.5229Z" fill="url(#paint3_linear_36_10436)"/>
<path d="M216.305 23.4852C223.532 22.1299 228.043 22.2413 233.014 16.9362C237.98 11.6311 237.414 4.18164 237.414 4.18164C237.414 8.47029 234.365 11.2923 231.431 13.3252C230.206 14.1746 228.841 14.8429 227.286 15.4509C224.873 16.9362 221.536 18.4539 218.454 19.8231C208.772 24.1257 204.92 31.9186 204.395 36.7085C204.372 37.0706 204.353 37.4372 204.339 37.8178C204.683 33.4132 209.083 24.8405 216.305 23.4852Z" fill="url(#paint4_linear_36_10436)"/>
<path d="M204.339 37.8228C204.353 37.4422 204.372 37.0755 204.395 36.7135C204.353 37.1034 204.33 37.4747 204.339 37.8228Z" fill="url(#paint5_linear_36_10436)"/>
<path d="M221.388 19.0852C208.178 21.5683 204.228 33.2321 204.34 37.8225C204.679 33.4224 208.517 28.3401 213.483 25.6295C220.821 21.9025 228.498 23.9354 233.803 18.5189C239.108 13.1024 237.414 4.18164 237.414 4.18164C237.414 8.47029 235.832 12.5362 233.01 14.9079C230.192 17.275 224.548 18.4818 221.388 19.0852Z" fill="url(#paint6_linear_36_10436)"/>
<path d="M157.438 1H184.563C185.54 0.999081 186.507 1.19106 187.41 1.56496C188.313 1.93886 189.133 2.48734 189.824 3.17899C190.514 3.87067 191.062 4.69193 191.436 5.5958C191.809 6.49969 192.001 7.46843 192 8.44658V34.5534C192.001 35.5316 191.809 36.5004 191.436 37.4041C191.062 38.3081 190.514 39.1293 189.824 39.821C189.133 40.5126 188.313 41.0612 187.41 41.4351C186.507 41.809 185.54 42.0009 184.563 42H157.438C156.461 42.0009 155.493 41.809 154.59 41.4351C153.687 41.0612 152.867 40.5126 152.176 39.821C151.486 39.1293 150.938 38.3081 150.564 37.4041C150.191 36.5004 149.999 35.5316 150 34.5534V8.44658C149.999 7.46843 150.191 6.49969 150.564 5.5958C150.938 4.69193 151.486 3.87067 152.176 3.17899C152.867 2.48734 153.687 1.93886 154.59 1.56496C155.493 1.19106 156.461 0.999081 157.438 1Z" fill="#49021F"/>
<path d="M165.26 11.7229V29.6998C165.26 29.8925 165.172 29.9801 165.015 29.9801H161.585C161.427 29.9801 161.357 29.8925 161.357 29.6998V11.7229C161.357 11.5652 161.445 11.4951 161.602 11.4951H165.015C165.041 11.4909 165.069 11.4922 165.095 11.4988C165.121 11.5055 165.145 11.5173 165.166 11.5337C165.188 11.5501 165.205 11.5707 165.218 11.5942C165.231 11.6177 165.24 11.6436 165.242 11.6703C165.249 11.6772 165.254 11.6855 165.257 11.6946C165.26 11.7037 165.261 11.7134 165.26 11.7229Z" fill="#FF3366"/>
<path d="M175.34 30.2605C174.043 30.2818 172.757 30.0124 171.577 29.472C170.48 28.9581 169.56 28.1285 168.935 27.0891C168.287 26.0203 167.972 24.6887 167.972 23.0942C167.955 21.7976 168.287 20.5202 168.935 19.3972C169.599 18.2559 170.561 17.317 171.717 16.6814C172.942 15.9981 174.412 15.6652 176.145 15.6652C176.268 15.6638 176.39 15.6696 176.512 15.6827C176.67 15.7002 176.845 15.7002 177.055 15.7177V10.181C177.055 10.0583 177.107 9.98824 177.23 9.98824H180.782C180.822 9.98293 180.861 9.9926 180.894 10.0153C180.926 10.0381 180.949 10.0722 180.957 10.1109V26.8263C180.957 27.1417 180.975 27.4921 180.992 27.8776C181.01 28.263 181.045 28.5959 181.062 28.8938C181.066 28.953 181.051 29.0119 181.02 29.0622C180.988 29.1125 180.942 29.1515 180.887 29.1741C179.971 29.5598 179.014 29.8419 178.035 30.0152C177.145 30.1765 176.244 30.2587 175.34 30.2605ZM177.055 26.7562V19.0468C176.899 19.0091 176.741 18.9799 176.582 18.9592C176.39 18.9417 176.197 18.9241 176.005 18.9241C175.319 18.9164 174.641 19.0725 174.027 19.3797C173.429 19.6781 172.917 20.1243 172.54 20.6763C172.155 21.237 171.962 21.9904 171.962 22.9015C171.947 23.5165 172.048 24.1287 172.26 24.7062C172.429 25.1731 172.698 25.5977 173.047 25.9502C173.385 26.2726 173.792 26.5125 174.237 26.6511C174.706 26.8047 175.197 26.8816 175.69 26.8788C175.952 26.8788 176.197 26.8613 176.425 26.8438C176.639 26.8603 176.854 26.8305 177.055 26.7562Z" fill="#FF3366"/>
<path d="M57.4375 1H84.5625C85.5395 0.999081 86.5071 1.19106 87.4097 1.56496C88.3126 1.93886 89.1328 2.48734 89.8237 3.179C90.5144 3.87067 91.0623 4.69193 91.4358 5.59581C91.8092 6.49968 92.0009 7.46842 92 8.44659V34.5534C92.0009 35.5316 91.8092 36.5004 91.4358 37.4042C91.0623 38.3081 90.5144 39.1293 89.8237 39.821C89.1328 40.5126 88.3126 41.0612 87.4097 41.4351C86.5071 41.809 85.5395 42.0009 84.5625 42H57.4375C56.4605 42.0009 55.493 41.809 54.5902 41.4351C53.6874 41.0612 52.8672 40.5126 52.1763 39.821C51.4855 39.1293 50.9377 38.3081 50.5643 37.4042C50.1908 36.5004 49.9991 35.5316 50 34.5534V8.44659C49.9991 7.46842 50.1908 6.49968 50.5643 5.59581C50.9377 4.69193 51.4855 3.87067 52.1763 3.179C52.8672 2.48734 53.6874 1.93886 54.5902 1.56496C55.493 1.19106 56.4605 0.999081 57.4375 1Z" fill="#001E36"/>
<path d="M72.0503 29.9804H60.9553C60.7628 29.9804 60.6753 29.8753 60.6753 29.6651V11.7582C60.6714 11.7294 60.6733 11.7001 60.6809 11.672C60.6886 11.6439 60.7017 11.6177 60.7197 11.5948C60.7377 11.5719 60.76 11.5529 60.7855 11.5388C60.8109 11.5247 60.8389 11.5159 60.8678 11.5129H64.3678C64.3897 11.5089 64.4122 11.5094 64.4339 11.5144C64.4556 11.5193 64.476 11.5287 64.494 11.5418C64.512 11.5549 64.5272 11.5715 64.5386 11.5906C64.55 11.6098 64.5573 11.631 64.5603 11.6531V26.4236H72.6453C72.8203 26.4236 72.8728 26.5112 72.8378 26.6689L72.3303 29.7176C72.3275 29.7579 72.3168 29.7972 72.2988 29.8333C72.2808 29.8694 72.2558 29.9016 72.2253 29.9279C72.174 29.9634 72.1128 29.9818 72.0503 29.9804Z" fill="#31A8FF"/>
<path d="M74.8502 15.9633H77.9127C77.9957 15.9653 78.0758 15.9935 78.1418 16.0439C78.2078 16.0942 78.2562 16.1642 78.2802 16.2437C78.3527 16.3676 78.4001 16.5045 78.4202 16.6467C78.4552 16.8219 78.4902 17.0146 78.5077 17.1898C78.5252 17.3651 78.5427 17.5928 78.5427 17.8206C79.0682 17.2064 79.7031 16.6955 80.4152 16.3138C81.2148 15.8799 82.1136 15.6624 83.0227 15.683C83.0516 15.6791 83.0808 15.681 83.1088 15.6886C83.1368 15.6963 83.1631 15.7095 83.186 15.7275C83.2087 15.7454 83.2278 15.7678 83.2418 15.7933C83.256 15.8188 83.2647 15.8468 83.2677 15.8757V19.3625C83.2677 19.5027 83.1802 19.5552 82.9877 19.5552C81.8535 19.4872 80.7195 19.6915 79.6802 20.151C79.3257 20.3029 79.0047 20.5231 78.7352 20.7992V29.7351C78.7352 29.9104 78.6652 29.9804 78.5077 29.9804H75.0952C75.063 29.9859 75.0299 29.9846 74.9981 29.9769C74.9662 29.9692 74.9363 29.955 74.9102 29.9354C74.884 29.9158 74.8621 29.8909 74.8457 29.8625C74.8294 29.8341 74.8191 29.8028 74.8152 29.7702V19.9933C74.8152 19.5727 74.8152 19.1347 74.7977 18.6792C74.7802 18.2236 74.7802 17.768 74.7627 17.3125C74.7452 16.927 74.7102 16.5415 74.6577 16.1561C74.653 16.1354 74.6526 16.1139 74.6561 16.093C74.6598 16.0721 74.6675 16.0521 74.6791 16.0342C74.6904 16.0163 74.7051 16.0008 74.7225 15.9887C74.74 15.9765 74.7596 15.9679 74.7802 15.9633C74.7977 15.9458 74.8152 15.9458 74.8502 15.9633Z" fill="#31A8FF"/>
<path d="M7.4375 1H34.5625C35.5395 0.999081 36.5071 1.19106 37.4097 1.56496C38.3126 1.93886 39.1328 2.48734 39.8237 3.179C40.5144 3.87067 41.0623 4.69193 41.4358 5.59581C41.8092 6.49968 42.0009 7.46842 42 8.44659V34.5534C42.0009 35.5316 41.8092 36.5004 41.4358 37.4042C41.0623 38.3081 40.5144 39.1293 39.8237 39.821C39.1328 40.5126 38.3126 41.0612 37.4097 41.4351C36.5071 41.809 35.5395 42.0009 34.5625 42H7.4375C6.46053 42.0009 5.49297 41.809 4.5902 41.4351C3.68743 41.0612 2.86717 40.5126 2.17634 39.821C1.48552 39.1293 0.937716 38.3081 0.564273 37.4042C0.19083 36.5004 -0.000917496 35.5316 3.30064e-06 34.5534V8.44659C-0.000917496 7.46842 0.19083 6.49968 0.564273 5.59581C0.937716 4.69193 1.48552 3.87067 2.17634 3.179C2.86717 2.48734 3.68743 1.93886 4.5902 1.56496C5.49297 1.19106 6.46053 0.999081 7.4375 1Z" fill="#001E36"/>
<path d="M9.44971 29.7528V11.7233C9.44971 11.6006 9.50221 11.5305 9.62471 11.5305C9.92221 11.5305 10.2022 11.5305 10.6047 11.513C11.0072 11.4955 11.4622 11.4955 11.9347 11.478C12.4072 11.4605 12.9147 11.4605 13.4572 11.4429C13.9997 11.4254 14.5247 11.4254 15.0497 11.4254C16.4847 11.4254 17.6747 11.6006 18.6547 11.9686C19.5332 12.2673 20.3342 12.7581 20.9997 13.4053C21.5636 13.9718 21.9993 14.653 22.2772 15.4028C22.5422 16.133 22.6783 16.9037 22.6797 17.6805C22.6797 19.1874 22.3297 20.4314 21.6297 21.4126C20.9264 22.3924 19.9446 23.1374 18.8122 23.5502C17.6222 23.9882 16.3097 24.1459 14.8747 24.1459C14.4547 24.1459 14.1747 24.1459 13.9997 24.1284C13.8247 24.1109 13.5797 24.1109 13.2472 24.1109V29.7352C13.2511 29.7642 13.2492 29.7934 13.2416 29.8214C13.2339 29.8495 13.2208 29.8758 13.2028 29.8987C13.1849 29.9215 13.1625 29.9406 13.137 29.9546C13.1116 29.9688 13.0836 29.9776 13.0547 29.9805H9.65971C9.51971 29.9805 9.44971 29.9105 9.44971 29.7528ZM13.2647 14.9122V20.7993C13.5097 20.8169 13.7372 20.8344 13.9472 20.8344H14.8747C15.5579 20.8353 16.237 20.7287 16.8872 20.519C17.4451 20.3548 17.9435 20.0323 18.3222 19.5904C18.6897 19.1523 18.8647 18.5566 18.8647 17.7857C18.8812 17.2381 18.7415 16.6972 18.4622 16.2263C18.1705 15.7713 17.7412 15.4215 17.2372 15.2276C16.5802 14.9699 15.8773 14.8506 15.1722 14.8771C14.7172 14.8771 14.3147 14.8771 13.9822 14.8946C13.743 14.879 13.5029 14.8849 13.2647 14.9122Z" fill="#31A8FF"/>
<path d="M33.6003 19.7305C33.072 19.4519 32.506 19.2512 31.9203 19.1347C31.277 18.9888 30.6199 18.9126 29.9603 18.907C29.6061 18.8947 29.2521 18.936 28.9103 19.0296C28.6922 19.075 28.4991 19.1999 28.3678 19.38C28.2794 19.5221 28.231 19.6856 28.2278 19.8531C28.2359 20.0197 28.2973 20.1795 28.4028 20.3087C28.5687 20.5035 28.7708 20.6642 28.9978 20.7817C29.4003 20.992 29.8203 21.1847 30.2403 21.3599C31.1858 21.6787 32.0904 22.1079 32.9353 22.639C33.51 23.0008 33.9853 23.5007 34.3178 24.0933C34.599 24.6522 34.7373 25.2723 34.7203 25.898C34.7345 26.7262 34.4965 27.539 34.0378 28.2283C33.5497 28.9278 32.8686 29.4697 32.0778 29.7877C31.2203 30.1557 30.1703 30.3484 28.9103 30.3484C28.1114 30.3516 27.3141 30.2753 26.5303 30.1206C25.9131 30.0139 25.3128 29.8252 24.7453 29.5599C24.6842 29.5293 24.6335 29.4814 24.5993 29.4222C24.5652 29.3632 24.549 29.2952 24.5528 29.227V26.1783C24.5512 26.1484 24.5568 26.1186 24.5691 26.0911C24.5812 26.0637 24.5995 26.0396 24.6228 26.0206C24.6475 26.0063 24.676 26.0001 24.7045 26.0033C24.7329 26.0064 24.7595 26.0187 24.7803 26.0381C25.4544 26.4361 26.1866 26.7257 26.9503 26.8967C27.6246 27.0724 28.3186 27.1607 29.0153 27.1595C29.6803 27.1595 30.1528 27.0719 30.4678 26.9142C30.6083 26.8492 30.7273 26.7455 30.8111 26.6151C30.8948 26.4848 30.9396 26.3332 30.9403 26.1783C30.9403 25.933 30.8003 25.7052 30.5203 25.4775C30.2403 25.2497 29.6628 24.9869 28.8053 24.654C27.9256 24.3437 27.0903 23.9195 26.3203 23.3924C25.7718 23.0012 25.3176 22.4924 24.9903 21.9031C24.711 21.3498 24.5727 20.7358 24.5878 20.1159C24.5904 19.3683 24.796 18.6354 25.1828 17.9958C25.6273 17.2925 26.2655 16.7327 27.0203 16.3839C27.8428 15.9634 28.8753 15.7706 30.1178 15.7706C30.8441 15.7708 31.5692 15.8235 32.2878 15.9283C32.8044 15.9983 33.3102 16.1337 33.7928 16.3313C33.8696 16.3586 33.9326 16.4153 33.9678 16.489C33.9879 16.5574 33.9996 16.628 34.0028 16.6993V19.5552C34.0031 19.5892 33.9953 19.6229 33.98 19.6534C33.9648 19.6839 33.9426 19.7103 33.9153 19.7305C33.8134 19.7671 33.7021 19.7671 33.6003 19.7305Z" fill="#31A8FF"/>
<path d="M107.438 1H134.563C135.54 0.999081 136.507 1.19106 137.41 1.56496C138.313 1.93886 139.133 2.48734 139.824 3.17899C140.514 3.87067 141.062 4.69193 141.436 5.5958C141.809 6.49969 142.001 7.46843 142 8.44658V34.5534C142.001 35.5316 141.809 36.5004 141.436 37.4041C141.062 38.3081 140.514 39.1293 139.824 39.821C139.133 40.5126 138.313 41.0612 137.41 41.4351C136.507 41.809 135.54 42.0009 134.563 42H107.438C106.461 42.0009 105.493 41.809 104.59 41.4351C103.687 41.0612 102.867 40.5126 102.176 39.821C101.486 39.1293 100.938 38.3081 100.564 37.4041C100.191 36.5004 99.9991 35.5316 100 34.5534V8.44658C99.9991 7.46843 100.191 6.49969 100.564 5.5958C100.938 4.69193 101.486 3.87067 102.176 3.17899C102.867 2.48734 103.687 1.93886 104.59 1.56496C105.493 1.19106 106.461 0.999081 107.438 1Z" fill="#330000"/>
<path d="M120.352 25.5997H113.842L112.512 29.7172C112.498 29.7922 112.455 29.859 112.394 29.9045C112.332 29.9499 112.256 29.9706 112.18 29.9625H108.89C108.697 29.9625 108.645 29.8574 108.697 29.6471L114.332 13.4048C114.385 13.2296 114.437 13.0369 114.507 12.8266C114.578 12.4511 114.613 12.0698 114.612 11.6877C114.607 11.6439 114.619 11.5996 114.645 11.5639C114.671 11.5281 114.709 11.5035 114.752 11.495H119.285C119.425 11.495 119.495 11.5476 119.512 11.6352L125.9 29.6822C125.952 29.8749 125.9 29.9625 125.725 29.9625H122.067C122.006 29.9685 121.943 29.9524 121.892 29.9171C121.841 29.8819 121.804 29.8297 121.787 29.7698L120.352 25.5997ZM114.857 22.0429H119.302C119.197 21.6749 119.057 21.2369 118.9 20.7813C118.742 20.3258 118.585 19.8001 118.427 19.2745C118.27 18.7488 118.095 18.2057 117.92 17.6625C117.745 17.1194 117.587 16.6112 117.447 16.1031C117.307 15.595 117.185 15.157 117.062 14.7364H117.027C116.87 15.5001 116.671 16.2546 116.432 16.9967C116.17 17.8377 115.907 18.7138 115.627 19.5899C115.382 20.4835 115.12 21.307 114.857 22.0429Z" fill="#FF9A00"/>
<path d="M129.715 14.4916C129.428 14.4978 129.142 14.4469 128.874 14.3416C128.607 14.2363 128.363 14.0788 128.157 13.8783C127.756 13.4394 127.543 12.8608 127.562 12.2663C127.552 11.9767 127.603 11.6881 127.711 11.4194C127.82 11.1507 127.984 10.908 128.192 10.7069C128.613 10.3089 129.171 10.0891 129.75 10.0937C130.432 10.0937 130.957 10.304 131.342 10.7069C131.73 11.1318 131.937 11.6911 131.92 12.2663C131.931 12.5624 131.882 12.8576 131.777 13.1344C131.671 13.4113 131.512 13.6642 131.307 13.8783C131.101 14.0886 130.852 14.2522 130.578 14.358C130.303 14.4638 130.009 14.5093 129.715 14.4916ZM127.755 29.7001V16.2087C127.755 16.0334 127.825 15.9634 127.982 15.9634H131.447C131.605 15.9634 131.675 16.051 131.675 16.2087V29.7001C131.675 29.8928 131.605 29.9804 131.447 29.9804H128.017C127.981 29.9834 127.943 29.9782 127.909 29.9649C127.875 29.9515 127.844 29.9307 127.819 29.9037C127.793 29.8767 127.774 29.8445 127.763 29.8093C127.752 29.7739 127.749 29.7367 127.755 29.7001Z" fill="#FF9A00"/>
<path d="M372.316 1.55478H369.847L372.415 4.3416V5.66829H367.125V4.11485H369.693L367.125 1.32803V0H372.316V1.55478ZM366.077 1.55478H363.607L366.175 4.3416V5.66829H360.886V4.11485H363.454L360.886 1.32803V0H366.077V1.55478ZM359.898 1.61832H357.234V4.04997H359.898V5.66829H355.339V0H359.898V1.61832Z" fill="#131313"/>
<path d="M351.708 38.6265L349 8.25574H378.753L376.043 38.6215L363.858 41.9999L351.708 38.6265Z" fill="#1572B6"/>
<path d="M363.877 39.4177L373.723 36.6881L376.039 10.7391H363.877V39.4177Z" fill="#33A9DC"/>
<path d="M363.877 21.7425H368.806L369.147 17.9283H363.877V14.2034H373.217L373.128 15.2027L372.213 25.467H363.877V21.7425Z" fill="white"/>
<path d="M363.899 31.4163L363.883 31.4209L359.735 30.3006L359.469 27.3298H355.73L356.253 33.1784L363.882 35.2963L363.9 35.2913L363.899 31.4163Z" fill="#EBEBEB"/>
<path d="M368.489 25.3093L368.041 30.2977L363.886 31.4191V35.2945L371.522 33.1782L371.579 32.5488L372.227 25.3093H368.489Z" fill="white"/>
<path d="M363.89 14.2034V17.9279H354.893L354.818 17.0909L354.648 15.2027L354.559 14.2034H363.89ZM363.877 21.7428V25.4677H359.781L359.707 24.6306L359.537 22.7421L359.447 21.7428H363.877Z" fill="#EBEBEB"/>
<path fill-rule="evenodd" clip-rule="evenodd" d="M553.639 1C546.024 1 539.848 7.17396 539.848 14.7907C539.848 20.8836 543.799 26.0531 549.279 27.8764C549.968 28.0041 550.221 27.5772 550.221 27.2128C550.221 26.8842 550.208 25.7976 550.203 24.6456C546.366 25.4796 545.556 23.0184 545.556 23.0184C544.929 21.4243 544.025 21.0003 544.025 21.0003C542.774 20.1446 544.119 20.1621 544.119 20.1621C545.504 20.2593 546.233 21.5834 546.233 21.5834C547.463 23.6917 549.46 23.082 550.246 22.7296C550.37 21.8382 550.728 21.2295 551.122 20.8852C548.059 20.5368 544.839 19.354 544.839 14.0698C544.839 12.5641 545.378 11.334 546.26 10.3681C546.117 10.0206 545.645 8.6177 546.394 6.71822C546.394 6.71822 547.551 6.34805 550.186 8.13246C551.287 7.82679 552.466 7.67347 553.638 7.66828C554.81 7.67379 555.991 7.82711 557.093 8.13246C559.725 6.34837 560.881 6.71854 560.881 6.71854C561.632 8.61802 561.16 10.0206 561.017 10.3684C561.901 11.3337 562.436 12.5641 562.436 14.0701C562.436 19.3666 559.21 20.5329 556.139 20.8739C556.634 21.3018 557.074 22.1413 557.074 23.4281C557.074 25.2732 557.059 26.7581 557.059 27.2122C557.059 27.5785 557.307 28.0089 558.006 27.8734C563.483 26.0479 567.429 20.8804 567.429 14.7894C567.429 7.17429 561.255 1 553.639 1Z" fill="#181616"/>
<path d="M545.072 20.8C545.041 20.8687 544.933 20.8891 544.835 20.8421C544.735 20.7967 544.679 20.7037 544.711 20.6347C544.741 20.5646 544.849 20.5449 544.949 20.5919C545.049 20.6372 545.106 20.7313 545.072 20.8ZM545.63 21.4236C545.565 21.4842 545.436 21.456 545.348 21.3594C545.258 21.2632 545.241 21.1345 545.308 21.0729C545.376 21.012 545.5 21.0405 545.59 21.1368C545.681 21.234 545.699 21.3614 545.63 21.4233L545.63 21.4236ZM546.174 22.2171C546.09 22.2761 545.951 22.221 545.866 22.0982C545.781 21.976 545.781 21.8291 545.868 21.7698C545.953 21.7108 546.089 21.764 546.176 21.8855C546.26 22.0103 546.26 22.1575 546.174 22.2171ZM546.919 22.9847C546.843 23.068 546.682 23.0456 546.565 22.9319C546.444 22.8207 546.411 22.6628 546.486 22.5795C546.563 22.4962 546.725 22.5196 546.843 22.6324C546.963 22.7432 547 22.9017 546.919 22.9847ZM547.947 23.4301C547.913 23.5383 547.758 23.5873 547.602 23.5416C547.446 23.4943 547.344 23.3678 547.375 23.2589C547.408 23.15 547.564 23.0991 547.721 23.1481C547.877 23.1947 547.979 23.3199 547.947 23.4301ZM549.075 23.5127C549.079 23.6262 548.947 23.7208 548.783 23.7228C548.618 23.7267 548.484 23.6346 548.482 23.5225C548.482 23.4077 548.612 23.3144 548.777 23.3118C548.941 23.3085 549.075 23.3999 549.075 23.5127ZM550.125 23.3341C550.145 23.445 550.031 23.5591 549.868 23.5892C549.708 23.619 549.56 23.5503 549.539 23.4401C549.52 23.3267 549.636 23.2132 549.796 23.1834C549.959 23.1549 550.104 23.2213 550.125 23.3341Z" fill="#181616"/>
<path d="M540.95 35.6155H537.482C537.439 35.6155 537.398 35.6326 537.367 35.663C537.337 35.6934 537.32 35.7346 537.32 35.7776V37.4735C537.32 37.5165 537.337 37.5577 537.367 37.5881C537.398 37.6185 537.439 37.6356 537.482 37.6356H538.835V39.7425C538.835 39.7425 538.531 39.8462 537.69 39.8462C536.7 39.8462 535.315 39.4845 535.315 36.4401C535.315 33.3955 536.757 32.9945 538.111 32.9945C539.282 32.9945 539.787 33.2007 540.108 33.3002C540.209 33.3306 540.303 33.2302 540.303 33.1407L540.689 31.5021C540.69 31.4776 540.685 31.4533 540.674 31.4313C540.663 31.4093 540.647 31.3902 540.627 31.3757C540.496 31.2824 539.701 30.8376 537.691 30.8376C535.375 30.8376 533 31.8224 533 36.5588C533 41.2945 535.72 42.0002 538.011 42.0002C539.909 42.0002 541.06 41.1892 541.06 41.1892C541.107 41.1632 541.112 41.0968 541.112 41.066V35.7773C541.112 35.7343 541.095 35.6931 541.065 35.6627C541.034 35.6323 540.993 35.6155 540.95 35.6155ZM558.665 31.2422H556.712C556.69 31.2423 556.669 31.2466 556.65 31.2548C556.63 31.263 556.612 31.2751 556.597 31.2902C556.582 31.3054 556.57 31.3233 556.562 31.3431C556.554 31.3628 556.55 31.3839 556.55 31.4052L556.551 35.1796H553.507V31.4052C553.507 31.3839 553.503 31.3628 553.495 31.3431C553.487 31.3234 553.475 31.3055 553.46 31.2903C553.445 31.2752 553.427 31.2631 553.407 31.2549C553.388 31.2466 553.367 31.2423 553.345 31.2422H551.393C551.371 31.2423 551.35 31.2466 551.33 31.2548C551.311 31.263 551.293 31.2751 551.278 31.2902C551.263 31.3054 551.251 31.3233 551.243 31.3431C551.235 31.3628 551.231 31.3839 551.231 31.4052V41.6255C551.231 41.7153 551.304 41.7885 551.393 41.7885H553.345C553.367 41.7884 553.388 41.7841 553.408 41.7758C553.427 41.7675 553.445 41.7554 553.46 41.7402C553.475 41.7251 553.487 41.7071 553.495 41.6873C553.503 41.6676 553.507 41.6465 553.507 41.6251V37.2537H556.551L556.546 41.6251C556.546 41.7153 556.618 41.7885 556.708 41.7885H558.665C558.686 41.7884 558.707 41.7841 558.727 41.7758C558.747 41.7675 558.764 41.7554 558.779 41.7402C558.794 41.7251 558.806 41.7071 558.814 41.6873C558.822 41.6676 558.826 41.6465 558.826 41.6251V31.4049C558.826 31.3836 558.822 31.3625 558.814 31.3428C558.806 31.323 558.794 31.3051 558.779 31.2899C558.765 31.2748 558.747 31.2628 558.727 31.2546C558.707 31.2464 558.686 31.2422 558.665 31.2422ZM543.376 31.4746C542.682 31.4746 542.117 32.0428 542.117 32.7462C542.117 33.4486 542.682 34.0185 543.376 34.0185C544.072 34.0185 544.636 33.4486 544.636 32.7462C544.636 32.0428 544.072 31.4746 543.376 31.4746ZM544.335 34.589H542.388C542.298 34.589 542.219 34.681 542.219 34.7705V41.5295C542.219 41.7282 542.342 41.7872 542.503 41.7872H544.256C544.449 41.7872 544.496 41.6926 544.496 41.5263V34.752C544.496 34.7307 544.492 34.7096 544.484 34.6899C544.476 34.6702 544.464 34.6523 544.449 34.6372C544.434 34.6221 544.416 34.6101 544.397 34.6019C544.377 34.5936 544.356 34.589 544.335 34.589ZM566.249 34.6042H564.31C564.289 34.6044 564.268 34.6087 564.248 34.617C564.229 34.6253 564.211 34.6374 564.196 34.6526C564.181 34.6678 564.169 34.6857 564.161 34.7054C564.153 34.7252 564.149 34.7463 564.149 34.7676V39.7788C564.149 39.7788 563.657 40.1386 562.958 40.1386C562.26 40.1386 562.074 39.8219 562.074 39.1377V34.7676C562.075 34.7463 562.07 34.7251 562.062 34.7054C562.054 34.6856 562.043 34.6676 562.028 34.6525C562.013 34.6373 561.995 34.6252 561.975 34.6169C561.956 34.6087 561.935 34.6043 561.913 34.6042H559.946C559.903 34.6045 559.862 34.6219 559.832 34.6525C559.802 34.6832 559.785 34.7245 559.785 34.7676V39.4683C559.785 41.5007 560.918 41.9979 562.476 41.9979C563.754 41.9979 564.785 41.2913 564.785 41.2913C564.785 41.2913 564.834 41.664 564.856 41.7078C564.879 41.7519 564.937 41.7963 564.999 41.7963L566.25 41.7908C566.272 41.7907 566.293 41.7864 566.312 41.7782C566.332 41.7699 566.35 41.7578 566.365 41.7427C566.38 41.7275 566.392 41.7095 566.4 41.6897C566.408 41.67 566.412 41.6488 566.412 41.6274L566.411 34.7666C566.411 34.7236 566.394 34.6824 566.364 34.6519C566.333 34.6215 566.292 34.6042 566.249 34.6039L566.249 34.6042ZM571.546 34.3747C570.445 34.3747 569.696 34.8658 569.696 34.8658V31.4049C569.696 31.3836 569.692 31.3625 569.684 31.3428C569.676 31.3231 569.664 31.3052 569.649 31.29C569.634 31.2749 569.617 31.2628 569.597 31.2546C569.577 31.2463 569.556 31.242 569.535 31.2419H567.577C567.556 31.2419 567.534 31.2461 567.515 31.2543C567.495 31.2625 567.477 31.2745 567.462 31.2897C567.447 31.3048 567.435 31.3228 567.427 31.3426C567.419 31.3624 567.415 31.3835 567.415 31.4049V41.6251C567.415 41.6465 567.419 41.6677 567.427 41.6875C567.435 41.7072 567.447 41.7252 567.462 41.7404C567.477 41.7555 567.495 41.7676 567.515 41.7758C567.534 41.784 567.556 41.7882 567.577 41.7882H568.936C568.997 41.7882 569.043 41.7567 569.077 41.7013C569.111 41.6462 569.16 41.23 569.16 41.23C569.16 41.23 569.96 41.9885 571.477 41.9885C573.256 41.9885 574.277 41.0861 574.277 37.9361C574.277 34.786 572.647 34.3744 571.545 34.3744L571.546 34.3747ZM570.781 40.1328C570.109 40.1124 569.653 39.8073 569.653 39.8073V36.5708C569.653 36.5708 570.103 36.2953 570.654 36.2453C571.352 36.1828 572.025 36.3938 572.025 38.0586C572.025 39.8145 571.722 40.161 570.781 40.1325L570.781 40.1328ZM550.136 40.0945C550.051 40.0945 549.833 40.1292 549.608 40.1292C548.889 40.1292 548.644 39.7947 548.644 39.3617V36.4878H550.11C550.131 36.4878 550.152 36.4836 550.172 36.4753C550.192 36.4671 550.21 36.4551 550.225 36.4399C550.24 36.4247 550.252 36.4067 550.26 36.3868C550.268 36.367 550.272 36.3458 550.272 36.3244V34.7504C550.272 34.729 550.268 34.7079 550.259 34.6882C550.251 34.6684 550.239 34.6505 550.224 34.6354C550.209 34.6202 550.191 34.6082 550.172 34.6001C550.152 34.5919 550.131 34.5877 550.11 34.5877H548.644L548.642 32.6525C548.642 32.5789 548.605 32.5423 548.52 32.5423H546.523C546.446 32.5423 546.404 32.5767 546.404 32.6509V34.6509C546.404 34.6509 545.403 34.8924 545.336 34.9118C545.302 34.9216 545.273 34.9421 545.252 34.9702C545.231 34.9982 545.219 35.0323 545.219 35.0674V36.3241C545.219 36.3454 545.223 36.3665 545.231 36.3862C545.239 36.4059 545.251 36.4239 545.266 36.439C545.281 36.4541 545.299 36.4662 545.318 36.4744C545.338 36.4827 545.359 36.487 545.38 36.4871H546.404V39.5108C546.404 41.7571 547.979 41.9775 549.042 41.9775C549.528 41.9775 550.109 41.8219 550.205 41.7862C550.263 41.7645 550.297 41.7046 550.297 41.6394L550.298 40.2569C550.297 40.2141 550.28 40.1732 550.25 40.1428C550.219 40.1125 550.179 40.0951 550.136 40.0942L550.136 40.0945Z" fill="#100E0F"/>
<path d="M305.079 38.67L302.406 8.68835H331.779L329.103 38.6653L317.075 41.9998L305.079 38.67Z" fill="#E44D26"/>
<path d="M317.092 39.4508L326.812 36.7561L329.098 11.1399H317.092V39.4508Z" fill="#F16529"/>
<path d="M317.092 22.26H312.227L311.891 18.4941H317.092V14.817H307.872L307.96 15.8038L308.864 25.9368H317.092V22.26ZM317.092 31.8094L317.076 31.8137L312.981 30.7077L312.719 27.7753H309.028L309.543 33.5489L317.076 35.6401L317.092 35.6351V31.8094Z" fill="#EBEBEB"/>
<path d="M305.139 0H307.008V1.84654H308.717V0H310.586V5.59079H308.717V3.71866H307.008V5.59079H305.139V0ZM313.043 1.85418H311.398V0H316.558V1.85418H314.912V5.59079H313.043V1.85418ZM317.377 0H319.325L320.524 1.96452L321.721 0H323.67V5.59079H321.809V2.81966L320.524 4.80744H320.491L319.205 2.81966V5.59079H317.376V0H317.377ZM324.601 0H326.47V3.74292H329.098V5.59112H324.601V0Z" fill="black"/>
<path d="M317.08 22.26V25.9368H321.608L321.181 30.7057L317.08 31.8127V35.6381L324.618 33.5489L324.674 32.9274L325.538 23.2471L325.627 22.26H324.636H317.08ZM317.08 14.817V18.4941H325.962L326.036 17.6676L326.203 15.8038L326.291 14.817H317.08Z" fill="white"/>
<path d="M436.905 1H478.905V43.0003H436.905V1Z" fill="#F0DB4F"/>
<path d="M475.467 32.9831C475.16 31.067 473.91 29.4576 470.209 27.9569C468.924 27.366 467.49 26.943 467.063 25.9687C466.912 25.4016 466.891 25.0822 466.987 24.739C467.263 23.6251 468.592 23.2779 469.646 23.5973C470.325 23.8248 470.967 24.3478 471.355 25.1822C473.167 24.0086 473.164 24.0163 474.429 23.2098C473.966 22.4915 473.719 22.16 473.415 21.8527C472.325 20.6351 470.84 20.0081 468.465 20.056L467.227 20.2161C466.042 20.5157 464.912 21.138 464.249 21.9724C462.261 24.2284 462.828 28.1766 465.247 29.8015C467.631 31.5904 471.132 31.9974 471.579 33.6702C472.014 35.7181 470.074 36.3811 468.146 36.1456C466.724 35.85 465.934 35.1276 465.079 33.8141C463.506 34.7244 463.506 34.7244 461.889 35.6544C462.273 36.4928 462.676 36.8723 463.319 37.5986C466.361 40.6846 473.974 40.533 475.34 35.8621C475.395 35.7017 475.763 34.6321 475.467 32.9831ZM459.737 20.3033H455.809L455.793 30.4597C455.793 32.6197 455.904 34.5999 455.553 35.2068C454.978 36.4005 453.489 36.2526 452.81 36.0211C452.119 35.6816 451.768 35.1988 451.361 34.5163C451.249 34.3204 451.166 34.1688 451.137 34.157L447.943 36.113C448.474 37.2031 449.257 38.1492 450.259 38.7638C451.756 39.6623 453.768 39.9378 455.872 39.4547C457.242 39.0557 458.424 38.2294 459.042 36.9716C459.937 35.3226 459.745 33.3266 459.737 31.119C459.757 27.5173 459.737 23.9164 459.737 20.3033Z" fill="#323330"/>
<path d="M506.319 19.5019C508.056 19.5019 509.464 18.0936 509.464 16.3563C509.464 14.6189 508.056 13.2106 506.319 13.2106C504.581 13.2106 503.173 14.6189 503.173 16.3563C503.173 18.0936 504.581 19.5019 506.319 19.5019Z" fill="#61DAFB"/>
<path d="M506.319 27.9243C508.788 30.3259 511.223 31.7465 513.185 31.7465C513.828 31.7465 514.437 31.6112 514.944 31.3068C516.703 30.292 517.346 27.7552 516.737 24.136C516.635 23.4933 516.5 22.8506 516.331 22.1742C517.007 21.9712 517.616 21.7683 518.225 21.5653C521.641 20.2462 523.535 18.4196 523.535 16.424C523.535 14.3945 521.641 12.568 518.225 11.2827C517.616 11.0459 517.007 10.8429 516.331 10.6738C516.5 9.99732 516.635 9.35466 516.737 8.71199C517.312 5.02512 516.669 2.45445 514.91 1.43972C514.403 1.1353 513.794 1 513.151 1C511.223 1 508.754 2.42063 506.285 4.82217C503.85 2.42063 501.414 1 499.452 1C498.81 1 498.201 1.1353 497.693 1.43972C495.935 2.45445 495.292 4.99129 495.901 8.61052C496.002 9.25318 496.138 9.89585 496.307 10.5723C495.63 10.7753 495.021 10.9782 494.413 11.1812C490.996 12.5003 489.102 14.3269 489.102 16.3225C489.102 18.352 490.996 20.1785 494.413 21.4638C495.021 21.7006 495.63 21.9036 496.307 22.0727C496.138 22.7492 496.002 23.3918 495.901 24.0345C495.326 27.6537 495.968 30.2244 497.693 31.2053C498.201 31.5097 498.81 31.645 499.452 31.645C501.414 31.7127 503.85 30.292 506.319 27.9243ZM504.425 23.358C505.033 23.3918 505.676 23.3918 506.319 23.3918C506.961 23.3918 507.604 23.3918 508.213 23.358C507.604 24.1698 506.961 24.9139 506.319 25.6243C505.676 24.9139 505.033 24.1698 504.425 23.358ZM500.23 19.8741C500.569 20.4491 500.873 20.9903 501.245 21.5315C500.196 21.3962 499.216 21.2271 498.268 21.0241C498.573 20.1109 498.911 19.1638 499.317 18.2167C499.588 18.7579 499.892 19.3329 500.23 19.8741ZM498.268 11.7224C499.216 11.5194 500.196 11.3503 501.245 11.215C500.907 11.7562 500.569 12.2974 500.23 12.8724C499.892 13.4474 499.588 13.9886 499.317 14.5636C498.877 13.5827 498.539 12.6356 498.268 11.7224ZM500.129 16.3563C500.569 15.4431 501.042 14.5298 501.583 13.6165C502.091 12.7371 502.666 11.8577 503.241 10.9782C504.255 10.9106 505.27 10.8768 506.319 10.8768C507.401 10.8768 508.416 10.9106 509.397 10.9782C510.006 11.8577 510.547 12.7371 511.054 13.6165C511.595 14.5298 512.069 15.4431 512.509 16.3563C512.069 17.2696 511.595 18.1829 511.054 19.0961C510.547 19.9756 509.972 20.855 509.397 21.7344C508.382 21.8021 507.367 21.8359 506.319 21.8359C505.236 21.8359 504.222 21.8021 503.241 21.7344C502.632 20.855 502.091 19.9756 501.583 19.0961C501.042 18.1829 500.569 17.2696 500.129 16.3563ZM513.354 14.5298L512.441 12.8386C512.103 12.2636 511.798 11.7224 511.426 11.1812C512.475 11.3165 513.456 11.4856 514.403 11.6885C514.098 12.6356 513.76 13.5827 513.354 14.5298ZM513.354 18.1829C513.76 19.1299 514.098 20.077 514.403 20.9903C513.456 21.1932 512.475 21.3624 511.426 21.4977C511.764 20.9565 512.103 20.4153 512.441 19.8403C512.745 19.3329 513.05 18.7579 513.354 18.1829ZM514.132 29.92C513.862 30.0891 513.523 30.1567 513.151 30.1567C511.494 30.1567 509.431 28.8038 507.401 26.7743C508.382 25.7257 509.329 24.5419 510.276 23.2227C511.866 23.0874 513.388 22.8506 514.809 22.5124C514.978 23.1212 515.079 23.7301 515.181 24.3389C515.654 27.214 515.282 29.2773 514.132 29.92ZM515.891 12.0944C519.679 13.1768 521.946 14.8342 521.946 16.3563C521.946 17.6755 520.39 18.9946 517.65 20.0432C517.109 20.2462 516.5 20.4491 515.891 20.6182C515.451 19.2314 514.91 17.8108 514.234 16.3563C514.91 14.9019 515.485 13.4813 515.891 12.0944ZM513.185 2.55593C513.557 2.55593 513.862 2.62358 514.166 2.7927C515.282 3.43537 515.688 5.46484 515.215 8.37375C515.113 8.94876 514.978 9.5576 514.843 10.2003C513.422 9.89585 511.9 9.65908 510.31 9.48996C509.397 8.1708 508.416 6.98694 507.435 5.93838C509.464 3.94273 511.528 2.55593 513.185 2.55593ZM508.213 9.35466C507.604 9.32083 506.961 9.32083 506.319 9.32083C505.676 9.32083 505.033 9.32083 504.425 9.35466C505.033 8.54287 505.676 7.79873 506.319 7.08841C506.961 7.79873 507.604 8.57669 508.213 9.35466ZM498.505 2.7927C498.776 2.62358 499.114 2.55593 499.486 2.55593C501.144 2.55593 503.207 3.90891 505.236 5.93838C504.255 6.98694 503.308 8.1708 502.361 9.48996C500.772 9.62525 499.249 9.86202 497.829 10.2003C497.66 9.59143 497.558 8.98259 497.457 8.37375C496.983 5.49866 497.355 3.46919 498.505 2.7927ZM496.746 20.6182C492.958 19.5358 490.692 17.8784 490.692 16.3563C490.692 15.0372 492.248 13.718 494.988 12.6695C495.529 12.4665 496.138 12.2636 496.746 12.0944C497.186 13.4813 497.727 14.9019 498.404 16.3563C497.727 17.8108 497.152 19.2652 496.746 20.6182ZM497.457 24.3389C497.558 23.7639 497.693 23.1551 497.829 22.5124C499.249 22.8168 500.772 23.0536 502.361 23.2227C503.275 24.5419 504.255 25.7257 505.236 26.7743C503.207 28.7699 501.144 30.1567 499.486 30.1567C499.114 30.1567 498.81 30.0891 498.505 29.92C497.355 29.2773 496.983 27.214 497.457 24.3389ZM496.036 38.2746C496.78 37.3614 496.814 36.3466 496.408 35.3319C496.002 34.3172 495.157 33.8436 494.108 33.8098C492.857 33.776 491.571 33.8098 490.32 33.8098H490.083V42.5703H491.098V39.2555H492.687C492.89 39.2555 493.06 39.3232 493.161 39.4923L495.19 42.638C495.224 42.7056 495.326 42.8071 495.393 42.8071H496.713C495.901 41.5556 495.123 40.3717 494.311 39.1541C495.021 39.0526 495.63 38.8158 496.036 38.2746ZM491.098 38.207V34.8583H491.47C492.248 34.8583 493.06 34.8245 493.837 34.8922C494.751 34.926 495.393 35.6363 495.393 36.5496C495.393 37.4628 494.649 38.1732 493.736 38.207C492.924 38.2408 492.112 38.207 491.098 38.207ZM504.188 38.6467C503.647 36.279 501.482 35.6701 499.824 36.4143C498.539 36.9893 497.964 38.1055 497.93 39.4923C497.896 40.5409 498.201 41.488 499.013 42.1983C499.926 43.0101 501.042 43.1115 502.192 42.9086C502.835 42.7733 503.41 42.4689 503.85 41.9953C503.68 41.7586 503.511 41.5218 503.342 41.3188C502.395 42.1306 501.347 42.4012 500.196 41.86C499.452 41.488 499.08 40.5747 499.013 39.8982H504.255V39.4585C504.289 39.1541 504.255 38.8835 504.188 38.6467ZM499.08 39.1879C498.979 38.1732 499.994 37.0908 501.11 37.0908C502.395 37.0569 503.207 37.8349 503.241 39.1879H499.08ZM509.464 36.2452C508.957 36.1437 508.416 36.1099 507.908 36.1437C507.097 36.2113 506.386 36.5834 505.811 37.1922C505.98 37.429 506.116 37.6658 506.319 37.9364C506.386 37.8687 506.454 37.8011 506.522 37.7673C507.063 37.2599 507.706 36.9893 508.484 37.0569C509.092 37.0908 509.667 37.2937 509.836 37.9026C509.972 38.3761 509.938 38.8835 509.972 39.3908C509.87 39.3908 509.836 39.357 509.803 39.3232C508.991 38.6467 508.078 38.5114 507.097 38.7482C506.183 38.9849 505.608 39.6953 505.541 40.6085C505.473 41.6571 505.947 42.435 506.86 42.8071C507.435 43.0439 508.078 43.0439 508.686 42.9086C509.16 42.8071 509.363 42.5365 510.039 42.1644V42.6042H510.987C510.987 41.2512 511.02 39.5938 510.987 38.0379C510.987 37.0569 510.412 36.4481 509.464 36.2452ZM509.938 40.507C509.904 40.6085 509.938 40.71 509.938 40.8115C509.938 41.5218 509.769 41.7586 509.092 42.0291C508.619 42.1983 508.111 42.2659 507.604 42.0968C507.029 41.9277 506.623 41.4203 506.623 40.8453C506.589 40.2703 506.961 39.6953 507.536 39.5261C508.314 39.2555 509.025 39.4247 509.667 39.8982C509.87 40.0673 510.006 40.2364 509.938 40.507ZM515.215 37.1584C516.094 36.8878 516.906 37.0569 517.515 37.8011L517.616 37.8687C517.853 37.6658 518.056 37.4628 518.326 37.2261C518.225 37.1246 518.191 37.0569 518.123 36.9555C517.143 35.9069 515.215 35.7716 514.031 36.6172C512.373 37.8349 512.407 40.2026 513.219 41.4541C513.997 42.638 515.113 43.0439 516.432 42.8748C517.21 42.7733 517.853 42.4012 518.36 41.7586C518.123 41.5556 517.887 41.3527 517.65 41.1159C517.582 41.1835 517.548 41.2174 517.515 41.285C516.601 42.2997 515.079 42.1983 514.267 41.1159C513.794 40.4732 513.692 39.7291 513.828 38.9849C513.895 38.1393 514.335 37.4628 515.215 37.1584ZM522.25 41.7586C522.182 41.7924 522.149 41.8262 522.149 41.8262C521.878 42.0291 521.607 42.063 521.303 41.9615C520.999 41.8262 520.965 41.5556 520.931 41.285V37.429C520.931 37.3614 520.931 37.4967 520.965 37.1584H522.25V36.1437H520.897V34.4525H519.882V36.279H519.003C518.935 36.279 518.834 36.3466 518.834 36.4143C518.8 36.6511 518.834 36.8202 518.834 37.1584H519.916V41.488C519.916 42.0291 520.051 42.5027 520.525 42.7733C521.032 43.0777 522.013 43.0101 522.453 42.638C522.521 42.6042 522.555 42.4689 522.555 42.435C522.453 42.2321 522.352 41.9953 522.25 41.7586Z" fill="#61DAFB"/>
<circle cx="407.5" cy="20.5" r="20.5" fill="#F1F1F1"/>
<path d="M420.759 19.9934C419.707 19.9948 418.668 20.2355 417.723 20.6972C417.427 20.2058 417.198 19.6769 417.043 19.1245C416.954 18.6916 416.933 18.2474 416.982 17.808C417.084 17.3246 417.217 16.8481 417.379 16.3814C417.373 16.3204 417.306 16.032 416.632 16.0224C415.959 16.0128 415.378 16.1505 415.316 16.3288C415.199 16.6545 415.105 16.988 415.035 17.3269C414.477 18.7027 413.79 20.0227 412.984 21.2692C412.533 20.5289 412.347 19.6567 412.458 18.7966C412.56 18.3132 412.693 17.8367 412.855 17.37C412.849 17.309 412.782 17.0205 412.108 17.011C411.435 17.0014 410.854 17.139 410.792 17.3173C410.73 17.4957 410.651 17.9158 410.511 18.3155C410.371 18.7152 408.736 22.3679 408.307 23.3098C408.087 23.7885 407.897 24.1787 407.763 24.442C407.756 24.4591 407.748 24.4755 407.739 24.4911C407.619 24.7173 407.556 24.8405 407.556 24.8405V24.8465C407.464 25.0117 407.365 25.1649 407.316 25.1649C407.231 24.8229 407.235 24.4647 407.328 24.1248C407.568 22.8574 408.154 20.8874 408.148 20.8192C408.148 20.7821 408.258 20.4398 407.769 20.2627C407.655 20.2087 407.528 20.1912 407.404 20.2126C407.28 20.2341 407.166 20.2934 407.077 20.3824C407.034 20.3824 407.004 20.4865 407.004 20.4865C407.004 20.4865 407.537 18.2712 405.988 18.2712C405.385 18.3925 404.812 18.6332 404.303 18.9791C403.795 19.325 403.36 19.7692 403.026 20.2855C402.609 20.5117 401.722 20.9952 400.773 21.5158C400.414 21.718 400.038 21.9203 399.69 22.1142C399.666 22.0903 399.641 22.0591 399.617 22.0352C397.732 20.0269 394.267 18.6099 394.417 15.9231C394.472 14.9441 394.808 12.3733 401.07 9.25081C406.224 6.71116 410.325 7.41489 411.035 8.97554C412.051 11.204 408.837 15.3414 403.513 15.941C402.924 16.0605 402.315 16.0461 401.733 15.8988C401.15 15.7515 400.608 15.4751 400.146 15.0901C399.865 14.7837 399.822 14.7657 399.718 14.8268C399.547 14.9189 399.657 15.1942 399.718 15.3534C399.921 15.721 400.196 16.0441 400.526 16.3038C400.856 16.5634 401.235 16.7542 401.64 16.865C403.735 17.3176 405.918 17.1012 407.884 16.2462C411.115 14.9979 413.628 11.5272 412.891 8.62009C412.15 5.66994 407.254 4.69692 402.62 6.34614C399.717 7.32283 397.035 8.86125 394.727 10.8737C392.174 13.2613 391.771 15.3354 391.936 16.2055C392.534 19.2909 396.784 21.298 398.485 22.788C398.399 22.8371 398.32 22.8801 398.253 22.9161C397.402 23.3385 394.158 25.0344 393.346 26.8272C392.428 28.8618 393.493 30.316 394.197 30.5122C395.257 30.7661 396.37 30.6825 397.381 30.2731C398.392 29.8637 399.249 29.149 399.834 28.2287C400.332 27.4654 400.638 26.593 400.726 25.6859C400.814 24.7788 400.682 23.8639 400.34 23.019C400.334 23.0053 400.326 22.9928 400.316 22.9819L400.983 22.5905C401.417 22.3332 401.846 22.095 402.213 21.8988C401.964 22.6174 401.818 23.3676 401.779 24.1272C401.694 25.2915 402.05 26.4449 402.777 27.3586C402.887 27.4538 403.016 27.5261 403.154 27.5713C403.293 27.6165 403.439 27.6337 403.585 27.6219C404.303 27.6219 404.632 27.0235 404.992 26.3126C405.433 25.4437 405.83 24.4336 405.83 24.4336C405.83 24.4336 405.334 27.1636 406.681 27.1636C407.17 27.1636 407.666 26.5268 407.887 26.2061V26.2121C407.887 26.2121 407.899 26.1941 407.924 26.151L408.003 26.023V26.011C408.2 25.6687 408.64 24.8908 409.295 23.5994C410.14 21.9347 410.953 19.8534 410.953 19.8534C411.032 20.3108 411.14 20.7626 411.278 21.2058C411.475 21.7431 411.708 22.2665 411.975 22.7724C411.779 23.0477 411.657 23.2009 411.657 23.2009L411.663 23.2069C411.504 23.4151 411.333 23.6413 411.143 23.8615C410.576 24.484 410.051 25.1424 409.57 25.8327C409.498 25.9486 409.474 26.0875 409.501 26.2209C409.529 26.3543 409.606 26.4723 409.717 26.5508C409.969 26.6819 410.256 26.7293 410.537 26.686C410.96 26.6621 411.376 26.5671 411.767 26.4048C412.145 26.2717 412.502 26.0842 412.826 25.8483C413.161 25.6167 413.43 25.3031 413.608 24.9376C413.786 24.572 413.866 24.1669 413.843 23.761C413.805 23.2498 413.674 22.7497 413.457 22.2853C413.518 22.1992 413.577 22.1142 413.634 22.028C414.315 21.0124 414.928 19.9533 415.47 18.8576C415.549 19.315 415.657 19.7668 415.795 20.2101C415.957 20.6744 416.157 21.1247 416.393 21.5565C415.61 22.1587 414.994 22.9503 414.601 23.8567C414.216 24.971 414.515 25.4725 415.08 25.5885C415.389 25.6098 415.698 25.5465 415.974 25.4054C416.38 25.2721 416.762 25.0759 417.106 24.8238C417.47 24.6094 417.774 24.308 417.992 23.9468C418.21 23.5856 418.334 23.1758 418.355 22.7545C418.327 22.3339 418.232 21.9204 418.073 21.5301C419.106 21.1266 420.226 20.9979 421.324 21.1567C424.237 21.499 424.813 23.317 424.702 24.0829C424.651 24.3545 424.542 24.6118 424.382 24.8377C424.223 25.0635 424.017 25.2526 423.778 25.3923C423.576 25.5203 423.509 25.5634 423.527 25.6556C423.551 25.7908 423.647 25.7836 423.82 25.7597C424.259 25.6232 424.647 25.3569 424.931 24.9958C425.216 24.6347 425.384 24.1958 425.415 23.7371C425.507 21.9418 423.793 19.9731 420.763 19.991L420.759 19.9934ZM398.283 27.5669C397.316 28.6201 395.969 29.0174 395.388 28.6811C394.763 28.3221 395.008 26.7662 396.195 25.6508C396.9 25.0168 397.661 24.4491 398.469 23.9549C398.611 23.8687 398.819 23.7466 399.068 23.5958L399.135 23.5587L399.282 23.4666C399.494 24.1773 399.513 24.9315 399.338 25.6521C399.162 26.3726 398.798 27.0335 398.283 27.5669ZM405.321 22.7796C404.985 23.5994 404.281 25.6998 403.853 25.5826C403.485 25.4844 403.254 23.8927 403.78 22.32C404.045 21.563 404.431 20.854 404.924 20.2208C405.45 19.6332 406.032 19.4369 406.172 19.6763C406.044 20.7473 405.758 21.7932 405.321 22.7796ZM411.129 25.5586C410.988 25.6316 410.854 25.6783 410.793 25.6448C410.75 25.6209 410.854 25.5251 410.854 25.5251C410.854 25.5251 411.583 24.7412 411.87 24.3869C412.035 24.1787 412.229 23.9345 412.44 23.6581V23.7371C412.44 24.673 411.534 25.3037 411.131 25.561L411.129 25.5586ZM415.61 24.5365C415.506 24.4635 415.524 24.2182 415.874 23.4534C416.117 22.9623 416.456 22.5251 416.872 22.168C416.935 22.3492 416.969 22.5397 416.97 22.7317C416.975 23.1405 416.844 23.5393 416.598 23.866C416.352 24.1927 416.005 24.4289 415.611 24.5377L415.61 24.5365Z" fill="#CD6799"/>
<defs>
<linearGradient id="paint0_linear_36_10436" x1="220.775" y1="26.2643" x2="219.984" y2="38.0043" gradientUnits="userSpaceOnUse">
<stop stop-color="#FD5200"/>
<stop offset="0.2722" stop-color="#FFDC38"/>
<stop offset="0.9626" stop-color="#F3FEAB"/>
</linearGradient>
<linearGradient id="paint1_linear_36_10436" x1="213.436" y1="2.27026" x2="205.53" y2="32.7805" gradientUnits="userSpaceOnUse">
<stop offset="0.4072" stop-color="#9E010A"/>
<stop offset="0.6244" stop-color="#FC56A4"/>
<stop offset="0.689" stop-color="#F2A780"/>
<stop offset="0.7431" stop-color="#FFC78A"/>
</linearGradient>
<linearGradient id="paint2_linear_36_10436" x1="222.372" y1="11.5422" x2="219.446" y2="32.5751" gradientUnits="userSpaceOnUse">
<stop offset="0.4072" stop-color="#9E010A"/>
<stop offset="0.6244" stop-color="#FC56A4"/>
<stop offset="0.689" stop-color="#F2A780"/>
<stop offset="0.7431" stop-color="#FFC78A"/>
</linearGradient>
<linearGradient id="paint3_linear_36_10436" x1="228.36" y1="16.0401" x2="206.121" y2="32.0696" gradientUnits="userSpaceOnUse">
<stop offset="0.0753769" stop-color="#0C64CC"/>
<stop offset="0.3348" stop-color="#1F9FE3"/>
<stop offset="0.4851" stop-color="#1B9DEB"/>
<stop offset="0.7569" stop-color="#72F07F"/>
<stop offset="0.8584" stop-color="#DBFEC8"/>
<stop offset="0.9913" stop-color="#F6F9B1"/>
</linearGradient>
<linearGradient id="paint4_linear_36_10436" x1="227.706" y1="25.0643" x2="218.133" y2="19.3661" gradientUnits="userSpaceOnUse">
<stop offset="0.0251256" stop-color="#4226A2"/>
<stop offset="0.2769" stop-color="#7357CB"/>
<stop offset="0.4721" stop-color="#4783DF"/>
<stop offset="0.5228" stop-color="#3B8FE4"/>
<stop offset="0.5797" stop-color="#3B9DE4"/>
<stop offset="0.6561" stop-color="#3BA7E4"/>
<stop offset="0.7412" stop-color="#3BABE4"/>
</linearGradient>
<linearGradient id="paint5_linear_36_10436" x1="216.243" y1="44.3355" x2="206.761" y2="38.6914" gradientUnits="userSpaceOnUse">
<stop stop-color="#4226A2"/>
<stop offset="0.3221" stop-color="#7357CB"/>
<stop offset="0.6283" stop-color="#3B8FE4"/>
</linearGradient>
<linearGradient id="paint6_linear_36_10436" x1="238.192" y1="8.99984" x2="205.117" y2="34.8501" gradientUnits="userSpaceOnUse">
<stop stop-color="#7C4ADF"/>
<stop offset="0.3459" stop-color="#E251D8"/>
<stop offset="0.7297" stop-color="#FCDFBC"/>
<stop offset="0.8312" stop-color="#F6F8B0"/>
<stop offset="0.9186" stop-color="#FFFFF2"/>
<stop offset="0.9894" stop-color="#F6F8B0"/>
</linearGradient>
<clipPath id="clip0_36_10436">
<rect width="42" height="42" fill="white" transform="translate(580.599 1)"/>
</clipPath>
</defs>
</svg>
