<svg width="282" height="88" viewBox="0 0 282 88" fill="none" xmlns="http://www.w3.org/2000/svg">
<path d="M7.4375 3.30467e-06H34.5625C35.5395 -0.000918618 36.5071 0.191064 37.4097 0.564963C38.3126 0.938862 39.1328 1.48734 39.8237 2.179C40.5144 2.87067 41.0623 3.69193 41.4358 4.59581C41.8092 5.49968 42.0009 6.46842 42 7.44659V33.5534C42.0009 34.5316 41.8092 35.5004 41.4358 36.4042C41.0623 37.3081 40.5144 38.1293 39.8237 38.821C39.1328 39.5126 38.3126 40.0612 37.4097 40.4351C36.5071 40.809 35.5395 41.0009 34.5625 41H7.4375C6.46053 41.0009 5.49297 40.809 4.5902 40.4351C3.68743 40.0612 2.86717 39.5126 2.17634 38.821C1.48552 38.1293 0.937716 37.3081 0.564273 36.4042C0.19083 35.5004 -0.000917496 34.5316 3.30064e-06 33.5534V7.44659C-0.000917496 6.46842 0.19083 5.49968 0.564273 4.59581C0.937716 3.69193 1.48552 2.87067 2.17634 2.179C2.86717 1.48734 3.68743 0.938862 4.5902 0.564963C5.49297 0.191064 6.46053 -0.000918618 7.4375 3.30467e-06Z" fill="#001E36"/>
<path d="M9.44995 28.7526V10.7232C9.44995 10.6005 9.50245 10.5304 9.62495 10.5304C9.92245 10.5304 10.2025 10.5304 10.605 10.5129C11.0075 10.4954 11.4625 10.4954 11.935 10.4779C12.4075 10.4603 12.915 10.4603 13.4575 10.4428C14 10.4253 14.525 10.4253 15.05 10.4253C16.485 10.4253 17.675 10.6005 18.655 10.9685C19.5335 11.2672 20.3344 11.758 21 12.4052C21.5638 12.9716 21.9996 13.6529 22.2775 14.4026C22.5424 15.1328 22.6786 15.9036 22.68 16.6804C22.68 18.1873 22.3299 19.4313 21.6299 20.4125C20.9266 21.3923 19.9449 22.1373 18.8125 22.5501C17.6225 22.9881 16.31 23.1458 14.875 23.1458C14.455 23.1458 14.175 23.1458 14 23.1283C13.825 23.1108 13.58 23.1108 13.2475 23.1108V28.7351C13.2514 28.764 13.2494 28.7933 13.2418 28.8213C13.2342 28.8494 13.221 28.8756 13.2031 28.8986C13.1851 28.9214 13.1627 28.9405 13.1373 28.9545C13.1119 28.9687 13.0839 28.9774 13.055 28.9804H9.65995C9.51995 28.9804 9.44995 28.9103 9.44995 28.7526ZM13.265 13.912V19.7992C13.51 19.8167 13.7375 19.8343 13.9475 19.8343H14.875C15.5581 19.8351 16.2372 19.7286 16.8875 19.5189C17.4453 19.3547 17.9437 19.0321 18.3224 18.5902C18.6899 18.1522 18.865 17.5565 18.865 16.7855C18.8814 16.238 18.7418 15.6971 18.4625 15.2261C18.1707 14.7712 17.7415 14.4214 17.2375 14.2274C16.5805 13.9698 15.8775 13.8505 15.1725 13.877C14.7175 13.877 14.315 13.877 13.9825 13.8945C13.7432 13.8789 13.5031 13.8847 13.265 13.912Z" fill="#31A8FF"/>
<path d="M33.6001 18.7303C33.0718 18.4517 32.5058 18.2511 31.9201 18.1346C31.2768 17.9887 30.6197 17.9124 29.9601 17.9068C29.6059 17.8946 29.2519 17.9359 28.9101 18.0295C28.6921 18.0749 28.4989 18.1998 28.3676 18.3799C28.2792 18.522 28.2308 18.6855 28.2276 18.853C28.2357 19.0196 28.2971 19.1794 28.4026 19.3085C28.5685 19.5034 28.7706 19.664 28.9976 19.7816C29.4001 19.9919 29.8201 20.1846 30.2401 20.3598C31.1856 20.6785 32.0902 21.1078 32.9351 21.6389C33.5098 22.0007 33.9851 22.5006 34.3176 23.0932C34.5988 23.6521 34.7371 24.2722 34.7201 24.8979C34.7343 25.7261 34.4963 26.5389 34.0376 27.2282C33.5495 27.9277 32.8684 28.4696 32.0776 28.7876C31.2201 29.1555 30.1701 29.3483 28.9101 29.3483C28.1112 29.3514 27.3139 29.2752 26.5301 29.1205C25.9129 29.0138 25.3126 28.8251 24.7451 28.5598C24.684 28.5292 24.6333 28.4813 24.5992 28.4221C24.565 28.3631 24.5488 28.2951 24.5526 28.2269V25.1782C24.551 25.1482 24.5566 25.1185 24.5689 25.0909C24.581 25.0636 24.5993 25.0394 24.6226 25.0205C24.6473 25.0061 24.6758 25 24.7043 25.0032C24.7327 25.0063 24.7593 25.0186 24.7801 25.038C25.4542 25.4359 26.1864 25.7256 26.9501 25.8966C27.6244 26.0723 28.3184 26.1606 29.0151 26.1594C29.6801 26.1594 30.1526 26.0718 30.4676 25.9141C30.6081 25.8491 30.7271 25.7454 30.811 25.615C30.8946 25.4846 30.9394 25.3331 30.9401 25.1782C30.9401 24.9329 30.8001 24.7051 30.5201 24.4773C30.2401 24.2496 29.6626 23.9867 28.8051 23.6538C27.9254 23.3435 27.0901 22.9193 26.3201 22.3923C25.7717 22.0011 25.3174 21.4922 24.9901 20.903C24.7108 20.3497 24.5726 19.7357 24.5876 19.1158C24.5902 18.3682 24.7959 17.6353 25.1826 16.9957C25.6271 16.2923 26.2653 15.7326 27.0201 15.3838C27.8426 14.9632 28.8751 14.7705 30.1176 14.7705C30.8439 14.7707 31.5691 14.8234 32.2876 14.9282C32.8042 14.9982 33.31 15.1336 33.7926 15.3312C33.8694 15.3585 33.9324 15.4152 33.9676 15.4889C33.9877 15.5573 33.9995 15.6279 34.0026 15.6991V18.5551C34.003 18.5891 33.9951 18.6228 33.9799 18.6532C33.9646 18.6837 33.9424 18.7102 33.9151 18.7303C33.8133 18.767 33.702 18.767 33.6001 18.7303Z" fill="#31A8FF"/>
<path d="M55.4375 3.30467e-06H82.5625C83.5395 -0.000918618 84.5071 0.191064 85.4097 0.564963C86.3126 0.938862 87.1328 1.48734 87.8237 2.179C88.5144 2.87067 89.0623 3.69193 89.4358 4.59581C89.8092 5.49968 90.0009 6.46842 90 7.44659V33.5534C90.0009 34.5316 89.8092 35.5004 89.4358 36.4042C89.0623 37.3081 88.5144 38.1293 87.8237 38.821C87.1328 39.5126 86.3126 40.0612 85.4097 40.4351C84.5071 40.809 83.5395 41.0009 82.5625 41H55.4375C54.4605 41.0009 53.493 40.809 52.5902 40.4351C51.6874 40.0612 50.8672 39.5126 50.1763 38.821C49.4855 38.1293 48.9377 37.3081 48.5643 36.4042C48.1908 35.5004 47.9991 34.5316 48 33.5534V7.44659C47.9991 6.46842 48.1908 5.49968 48.5643 4.59581C48.9377 3.69193 49.4855 2.87067 50.1763 2.179C50.8672 1.48734 51.6874 0.938862 52.5902 0.564963C53.493 0.191064 54.4605 -0.000918618 55.4375 3.30467e-06Z" fill="#001E36"/>
<path d="M70.0501 28.9804H58.9551C58.7626 28.9804 58.6751 28.8753 58.6751 28.6651V10.7582C58.6712 10.7294 58.6731 10.7001 58.6808 10.672C58.6884 10.6439 58.7016 10.6177 58.7195 10.5948C58.7375 10.5719 58.7598 10.5529 58.7853 10.5388C58.8107 10.5247 58.8387 10.5159 58.8676 10.5129H62.3676C62.3895 10.5089 62.412 10.5094 62.4337 10.5144C62.4554 10.5193 62.4758 10.5287 62.4938 10.5418C62.5118 10.5549 62.527 10.5715 62.5384 10.5906C62.5498 10.6098 62.5572 10.631 62.5601 10.6531V25.4236H70.6451C70.8201 25.4236 70.8726 25.5112 70.8376 25.6689L70.3301 28.7176C70.3273 28.7579 70.3166 28.7972 70.2986 28.8333C70.2806 28.8694 70.2556 28.9016 70.2251 28.9279C70.1738 28.9634 70.1126 28.9818 70.0501 28.9804Z" fill="#31A8FF"/>
<path d="M72.85 14.9632H75.9125C75.9954 14.9652 76.0756 14.9934 76.1416 15.0437C76.2075 15.0941 76.256 15.164 76.28 15.2436C76.3524 15.3675 76.3999 15.5044 76.42 15.6466C76.455 15.8218 76.49 16.0145 76.5075 16.1897C76.525 16.3649 76.5425 16.5927 76.5425 16.8205C77.068 16.2063 77.7029 15.6954 78.415 15.3136C79.2146 14.8797 80.1134 14.6623 81.0225 14.6829C81.0514 14.679 81.0806 14.6809 81.1086 14.6885C81.1366 14.6962 81.1628 14.7094 81.1858 14.7273C81.2085 14.7453 81.2276 14.7677 81.2416 14.7932C81.2558 14.8186 81.2645 14.8467 81.2675 14.8756V18.3624C81.2675 18.5025 81.18 18.5551 80.9875 18.5551C79.8533 18.4871 78.7193 18.6914 77.68 19.1508C77.3254 19.3027 77.0045 19.523 76.735 19.7991V28.735C76.735 28.9102 76.665 28.9803 76.5075 28.9803H73.095C73.0628 28.9857 73.0297 28.9845 72.9979 28.9768C72.966 28.9691 72.9361 28.9549 72.91 28.9353C72.8838 28.9157 72.8619 28.8908 72.8454 28.8624C72.8292 28.834 72.8188 28.8026 72.815 28.7701V18.9931C72.815 18.5726 72.815 18.1346 72.7975 17.679C72.78 17.2235 72.78 16.7679 72.7625 16.3124C72.745 15.9269 72.71 15.5414 72.6575 15.156C72.6528 15.1352 72.6524 15.1138 72.6559 15.0929C72.6596 15.072 72.6673 15.052 72.6788 15.0341C72.6902 15.0162 72.7049 15.0007 72.7222 14.9886C72.7397 14.9764 72.7593 14.9678 72.78 14.9632C72.7975 14.9457 72.815 14.9457 72.85 14.9632Z" fill="#31A8FF"/>
<path d="M103.438 3.30467e-06H130.563C131.54 -0.000918617 132.507 0.191064 133.41 0.564963C134.313 0.938861 135.133 1.48734 135.824 2.17899C136.514 2.87067 137.062 3.69193 137.436 4.5958C137.809 5.49969 138.001 6.46843 138 7.44658V33.5534C138.001 34.5316 137.809 35.5004 137.436 36.4041C137.062 37.3081 136.514 38.1293 135.824 38.821C135.133 39.5126 134.313 40.0612 133.41 40.4351C132.507 40.809 131.54 41.0009 130.563 41H103.438C102.461 41.0009 101.493 40.809 100.59 40.4351C99.6874 40.0612 98.8672 39.5126 98.1763 38.821C97.4855 38.1293 96.9377 37.3081 96.5643 36.4041C96.1908 35.5004 95.9991 34.5316 96 33.5534V7.44658C95.9991 6.46843 96.1908 5.49969 96.5643 4.5958C96.9377 3.69193 97.4855 2.87067 98.1763 2.17899C98.8672 1.48734 99.6874 0.938861 100.59 0.564963C101.493 0.191064 102.461 -0.000918617 103.438 3.30467e-06Z" fill="#330000"/>
<path d="M116.353 24.5998H109.843L108.513 28.7173C108.498 28.7923 108.455 28.8591 108.394 28.9046C108.332 28.95 108.256 28.9707 108.18 28.9626H104.89C104.698 28.9626 104.645 28.8575 104.698 28.6473L110.333 12.4049C110.385 12.2297 110.438 12.037 110.508 11.8267C110.578 11.4512 110.613 11.0699 110.613 10.6879C110.607 10.644 110.619 10.5997 110.645 10.564C110.671 10.5282 110.709 10.5037 110.753 10.4951H115.285C115.425 10.4951 115.495 10.5477 115.513 10.6353L121.9 28.6823C121.953 28.875 121.9 28.9626 121.725 28.9626H118.068C118.006 28.9686 117.944 28.9525 117.893 28.9173C117.841 28.882 117.804 28.8298 117.788 28.7699L116.353 24.5998ZM110.858 21.043H115.303C115.198 20.675 115.058 20.237 114.9 19.7814C114.743 19.3259 114.585 18.8002 114.428 18.2746C114.27 17.749 114.095 17.2058 113.92 16.6626C113.745 16.1195 113.588 15.6114 113.448 15.1032C113.308 14.5951 113.185 14.1571 113.063 13.7366H113.028C112.87 14.5002 112.672 15.2548 112.433 15.9968C112.17 16.8379 111.908 17.7139 111.628 18.59C111.383 19.4836 111.12 20.3071 110.858 21.043Z" fill="#FF9A00"/>
<path d="M125.715 13.4917C125.428 13.498 125.142 13.447 124.875 13.3417C124.607 13.2364 124.363 13.0789 124.157 12.8784C123.757 12.4395 123.543 11.861 123.562 11.2665C123.552 10.9768 123.603 10.6882 123.711 10.4195C123.82 10.1508 123.984 9.90807 124.192 9.70707C124.613 9.309 125.171 9.08926 125.75 9.09382C126.432 9.09382 126.957 9.30408 127.342 9.70707C127.73 10.1319 127.937 10.6913 127.92 11.2665C127.931 11.5625 127.882 11.8577 127.777 12.1345C127.671 12.4114 127.512 12.6644 127.307 12.8784C127.101 13.0887 126.852 13.2523 126.578 13.3581C126.303 13.4639 126.009 13.5094 125.715 13.4917ZM123.755 28.7002V15.2088C123.755 15.0336 123.825 14.9635 123.982 14.9635H127.447C127.605 14.9635 127.675 15.0511 127.675 15.2088V28.7002C127.675 28.893 127.605 28.9806 127.447 28.9806H124.017C123.981 28.9835 123.944 28.9783 123.909 28.965C123.875 28.9517 123.844 28.9308 123.819 28.9038C123.793 28.8768 123.775 28.8446 123.764 28.8094C123.753 28.774 123.75 28.7368 123.755 28.7002Z" fill="#FF9A00"/>
<path d="M151.438 3.30467e-06H178.562C179.54 -0.000918617 180.507 0.191063 181.41 0.564962C182.313 0.938861 183.133 1.48734 183.824 2.17899C184.514 2.87067 185.062 3.69193 185.436 4.5958C185.809 5.49969 186.001 6.46843 186 7.44658V33.5534C186.001 34.5316 185.809 35.5004 185.436 36.4041C185.062 37.3081 184.514 38.1293 183.824 38.821C183.133 39.5126 182.313 40.0612 181.41 40.4351C180.507 40.809 179.54 41.0009 178.562 41H151.438C150.461 41.0009 149.493 40.809 148.59 40.4351C147.687 40.0612 146.867 39.5126 146.176 38.821C145.486 38.1293 144.938 37.3081 144.564 36.4041C144.191 35.5004 143.999 34.5316 144 33.5534V7.44658C143.999 6.46843 144.191 5.49969 144.564 4.5958C144.938 3.69193 145.486 2.87067 146.176 2.17899C146.867 1.48734 147.687 0.938861 148.59 0.564962C149.493 0.191063 150.461 -0.000918617 151.438 3.30467e-06Z" fill="#49021F"/>
<path d="M159.26 10.7229V28.6998C159.26 28.8925 159.172 28.9801 159.015 28.9801H155.585C155.427 28.9801 155.357 28.8925 155.357 28.6998V10.7229C155.357 10.5652 155.445 10.4951 155.602 10.4951H159.015C159.042 10.4909 159.069 10.4922 159.095 10.4988C159.121 10.5055 159.145 10.5173 159.166 10.5337C159.188 10.5501 159.205 10.5707 159.218 10.5942C159.232 10.6177 159.24 10.6436 159.242 10.6703C159.249 10.6772 159.254 10.6855 159.257 10.6946C159.26 10.7037 159.261 10.7134 159.26 10.7229Z" fill="#FF3366"/>
<path d="M169.34 29.2605C168.043 29.2818 166.757 29.0124 165.577 28.472C164.48 27.9581 163.56 27.1285 162.935 26.0891C162.287 25.0203 161.972 23.6887 161.972 22.0942C161.955 20.7976 162.287 19.5202 162.935 18.3972C163.599 17.2559 164.561 16.317 165.717 15.6814C166.942 14.9981 168.412 14.6652 170.145 14.6652C170.268 14.6638 170.39 14.6696 170.512 14.6827C170.67 14.7002 170.845 14.7002 171.055 14.7177V9.18097C171.055 9.05832 171.107 8.98824 171.23 8.98824H174.782C174.822 8.98293 174.861 8.9926 174.894 9.01533C174.926 9.03805 174.949 9.07217 174.957 9.11089V25.8263C174.957 26.1417 174.975 26.4921 174.992 26.8776C175.01 27.263 175.045 27.5959 175.062 27.8938C175.066 27.953 175.051 28.0119 175.02 28.0622C174.989 28.1125 174.942 28.1515 174.887 28.1741C173.971 28.5598 173.014 28.8419 172.035 29.0152C171.146 29.1765 170.244 29.2587 169.34 29.2605ZM171.055 25.7562V18.0468C170.899 18.0091 170.741 17.9799 170.582 17.9592C170.39 17.9417 170.197 17.9241 170.005 17.9241C169.319 17.9164 168.641 18.0725 168.027 18.3797C167.429 18.6781 166.917 19.1243 166.54 19.6763C166.155 20.237 165.962 20.9904 165.962 21.9015C165.947 22.5165 166.048 23.1287 166.26 23.7062C166.429 24.1731 166.698 24.5977 167.047 24.9502C167.385 25.2726 167.792 25.5125 168.237 25.6511C168.706 25.8047 169.197 25.8816 169.69 25.8788C169.952 25.8788 170.197 25.8613 170.425 25.8438C170.639 25.8603 170.854 25.8305 171.055 25.7562Z" fill="#FF3366"/>
<path d="M223.935 41H201.065C196.059 41 192 36.9408 192 31.9347V9.0653C192 4.05923 196.059 0 201.065 0H223.93C228.936 0 232.995 4.05923 232.995 9.0653V31.9302C233 36.9408 228.941 41 223.935 41Z" fill="#242424"/>
<path d="M211 17.5232C205.822 19.0635 196.675 22.5927 196.236 36.9133C197.889 29.2025 201.967 28.0971 209.46 26.3348C216.953 24.577 221.026 22.5927 225.547 17.1925C230.064 11.7923 228.524 4.08154 228.524 4.08154C228.524 8.26762 225.547 11.0221 222.684 13.0064C219.821 14.9907 216.178 15.9829 211 17.5232Z" fill="url(#paint0_linear_98_7164)"/>
<path d="M196.235 36.918C196.249 36.5465 196.267 36.1886 196.29 35.8352C196.249 36.2158 196.226 36.5782 196.235 36.918Z" fill="url(#paint1_linear_98_7164)"/>
<path d="M215.508 24.568C211.616 25.3019 207.652 25.2158 205.051 25.8999C200.426 27.1095 196.571 32.6184 196.235 36.9133C196.249 36.5463 196.267 36.1884 196.29 35.8305C196.802 31.1551 201.11 23.4852 210.56 19.2855C213.569 17.9491 216.278 16.531 218.634 15.0813C220.156 14.4878 221.488 13.8309 222.679 13.0064C225.542 11.0221 228.519 8.26762 228.519 4.08154C228.519 4.08154 228.764 10.3697 226.725 15.7518C226.444 16.2638 226.127 16.7576 225.764 17.2242C223.019 20.7896 219.78 22.9733 215.508 24.568Z" fill="url(#paint2_linear_98_7164)"/>
<path d="M196.299 35.6493C196.272 36.0615 196.249 36.4829 196.236 36.9133C196.209 36.5236 196.231 36.0978 196.299 35.6493C197.223 22.3798 205.976 19.0182 211 17.5232C216.179 15.9829 219.816 14.9907 222.68 13.0064C225.543 11.0221 228.519 8.26762 228.519 4.08154C228.519 4.08154 230.064 11.7923 225.543 17.1925C221.026 22.5927 217.279 20.3864 209.786 22.1487C202.95 23.7615 197.029 30.9694 196.299 35.6493Z" fill="url(#paint3_linear_98_7164)"/>
<path d="M207.915 22.9234C214.969 21.6005 219.372 21.7093 224.224 16.531C229.072 11.3528 228.519 4.08154 228.519 4.08154C228.519 8.26762 225.542 11.0221 222.679 13.0064C221.483 13.8355 220.151 14.4878 218.634 15.0813C216.278 16.531 213.02 18.0125 210.012 19.3489C200.562 23.5486 196.802 31.1551 196.29 35.8305C196.267 36.1839 196.249 36.5418 196.235 36.9133C196.571 32.6139 200.865 24.2463 207.915 22.9234Z" fill="url(#paint4_linear_98_7164)"/>
<path d="M196.235 36.918C196.249 36.5465 196.267 36.1886 196.29 35.8352C196.249 36.2158 196.226 36.5782 196.235 36.918Z" fill="url(#paint5_linear_98_7164)"/>
<path d="M212.876 18.6286C199.983 21.0524 196.127 32.4372 196.236 36.9178C196.567 32.623 200.313 27.6622 205.161 25.0165C212.324 21.3786 219.817 23.3629 224.995 18.0759C230.173 12.7889 228.52 4.08154 228.52 4.08154C228.52 8.26762 226.975 12.2362 224.22 14.5513C221.47 16.8618 215.961 18.0397 212.876 18.6286Z" fill="url(#paint6_linear_98_7164)"/>
<path d="M246.433 3.30467e-06H273.558C274.535 -0.000918618 275.503 0.191064 276.405 0.564963C277.308 0.938862 278.128 1.48734 278.819 2.179C279.51 2.87067 280.058 3.69193 280.431 4.59581C280.805 5.49968 280.996 6.46842 280.996 7.44659V33.5534C280.996 34.5316 280.805 35.5004 280.431 36.4042C280.058 37.3081 279.51 38.1293 278.819 38.821C278.128 39.5126 277.308 40.0612 276.405 40.4351C275.503 40.809 274.535 41.0009 273.558 41H246.433C245.456 41.0009 244.489 40.809 243.586 40.4351C242.683 40.0612 241.863 39.5126 241.172 38.821C240.481 38.1293 239.933 37.3081 239.56 36.4042C239.186 35.5004 238.995 34.5316 238.996 33.5534V7.44659C238.995 6.46842 239.186 5.49968 239.56 4.59581C239.933 3.69193 240.481 2.87067 241.172 2.179C241.863 1.48734 242.683 0.938862 243.586 0.564963C244.489 0.191064 245.456 -0.000918618 246.433 3.30467e-06Z" fill="#000B1D"/>
<path d="M255.621 33.6411C258.037 33.6411 259.996 31.6799 259.996 29.2607V24.8804H255.621C253.204 24.8804 251.246 26.8415 251.246 29.2607C251.246 31.6799 253.204 33.6411 255.621 33.6411Z" fill="#0ACF83"/>
<path d="M251.246 20.5C251.246 18.0808 253.204 16.1196 255.621 16.1196H259.996V24.8803H255.621C253.204 24.8803 251.246 22.9191 251.246 20.5Z" fill="#A259FF"/>
<path d="M251.246 11.7395C251.246 9.32028 253.204 7.35913 255.621 7.35913H259.996V16.1198H255.621C253.204 16.1198 251.246 14.1587 251.246 11.7395Z" fill="#F24E1E"/>
<path d="M259.996 7.35913H264.371C266.787 7.35913 268.746 9.32028 268.746 11.7395C268.746 14.1587 266.787 16.1198 264.371 16.1198H259.996V7.35913Z" fill="#FF7262"/>
<path d="M268.746 20.5C268.746 22.9191 266.787 24.8803 264.371 24.8803C261.954 24.8803 259.996 22.9191 259.996 20.5C259.996 18.0808 261.954 16.1196 264.371 16.1196C266.787 16.1196 268.746 18.0808 268.746 20.5Z" fill="#1ABCFE"/>
<path d="M7.4375 47H34.5625C35.5395 46.9991 36.5071 47.1911 37.4098 47.565C38.3126 47.9389 39.1328 48.4873 39.8237 49.179C40.5144 49.8707 41.0624 50.6919 41.4358 51.5958C41.8093 52.4997 42.0009 53.4684 42 54.4466V80.5534C42.0009 81.5316 41.8093 82.5004 41.4358 83.4041C41.0624 84.3081 40.5144 85.1293 39.8237 85.821C39.1328 86.5126 38.3126 87.0612 37.4098 87.4351C36.5071 87.809 35.5395 88.0009 34.5625 88H7.4375C6.46053 88.0009 5.49297 87.809 4.5902 87.4351C3.68743 87.0612 2.86717 86.5126 2.17634 85.821C1.48552 85.1293 0.937717 84.3081 0.564274 83.4041C0.190831 82.5004 -0.000917497 81.5316 3.30064e-06 80.5534V54.4466C-0.000917497 53.4684 0.190831 52.4997 0.564274 51.5958C0.937717 50.6919 1.48552 49.8707 2.17634 49.179C2.86717 48.4873 3.68743 47.9389 4.5902 47.565C5.49297 47.1911 6.46053 46.9991 7.4375 47Z" fill="#FAFAFA"/>
<path d="M10.2912 82.146L8 56.4475H33.1764L30.8829 82.142L20.5728 85.0001L10.2912 82.146Z" fill="#E44D26"/>
<path d="M20.5883 82.8148L28.9191 80.505L30.8793 58.5483H20.5883V82.8148Z" fill="#F16529"/>
<path d="M20.588 68.0801H16.4172L16.1295 64.8522H20.588V61.7004H12.6848L12.76 62.5462L13.5349 71.2316H20.588V68.0801ZM20.588 76.2653L20.574 76.269L17.0641 75.321L16.8397 72.8076H13.6756L14.1171 77.7563L20.5735 79.5487L20.588 79.5445V76.2653Z" fill="#EBEBEB"/>
<path d="M10.3427 49H11.9442V50.5827H13.4096V49H15.0114V53.7921H13.4096V52.1874H11.9445V53.7921H10.3427V49ZM17.1175 50.5893H15.7073V49H20.13V50.5893H18.7193V53.7921H17.1175V50.5893ZM20.8319 49H22.5018L23.5293 50.6839L24.5557 49H26.2265V53.7921H24.6309V51.4168L23.5293 53.1207H23.5014L22.399 51.4168V53.7921H20.8316V49H20.8319ZM27.0239 49H28.626V52.2082H30.8784V53.7924H27.0239V49Z" fill="black"/>
<path d="M20.5774 68.0801V71.2316H24.4585L24.0927 75.3193L20.5774 76.2682V79.547L27.0388 77.7563L27.0861 77.2236L27.8268 68.9262L27.9037 68.0801H27.0542H20.5774ZM20.5774 61.7004V64.8522H28.1906L28.2535 64.1438L28.3974 62.5462L28.4729 61.7004H20.5774Z" fill="white"/>
<path d="M55.4375 47H82.5625C83.5395 46.9991 84.5071 47.1911 85.4098 47.565C86.3126 47.9389 87.1328 48.4873 87.8237 49.179C88.5144 49.8707 89.0624 50.6919 89.4358 51.5958C89.8093 52.4997 90.0009 53.4684 90 54.4466V80.5534C90.0009 81.5316 89.8093 82.5004 89.4358 83.4041C89.0624 84.3081 88.5144 85.1293 87.8237 85.821C87.1328 86.5126 86.3126 87.0612 85.4098 87.4351C84.5071 87.809 83.5395 88.0009 82.5625 88H55.4375C54.4605 88.0009 53.493 87.809 52.5902 87.4351C51.6874 87.0612 50.8672 86.5126 50.1763 85.821C49.4855 85.1293 48.9377 84.3081 48.5643 83.4041C48.1908 82.5004 47.9991 81.5316 48 80.5534V54.4466C47.9991 53.4684 48.1908 52.4997 48.5643 51.5958C48.9377 50.6919 49.4855 49.8707 50.1763 49.179C50.8672 48.4873 51.6874 47.9389 52.5902 47.565C53.493 47.1911 54.4605 46.9991 55.4375 47Z" fill="#FAFAFA"/>
<path d="M75.9851 50.3327H73.8684L76.0696 52.7214V53.8585H71.5359V52.527H73.7368L71.5359 50.1383V49H75.9851V50.3327ZM70.6369 50.3327H68.5202L70.7215 52.7214V53.8585H66.1874V52.527H68.3887L66.1874 50.1383V49H70.6369V50.3327ZM65.3412 50.3871H63.0572V52.4714H65.3412V53.8585H61.4335V49H65.3412V50.3871Z" fill="black"/>
<path d="M58.3211 82.1085L56 56.0764H81.5029L79.1799 82.1042L68.7358 85L58.3211 82.1085Z" fill="#1572B6"/>
<path d="M68.7522 82.7867L77.1911 80.447L79.1764 58.2051H68.7522V82.7867Z" fill="#33A9DC"/>
<path d="M68.7518 67.6364H72.9765L73.2686 64.3671H68.7518V61.1743H76.7578L76.6813 62.0308L75.8967 70.8289H68.7518V67.6364Z" fill="white"/>
<path d="M68.7708 75.9282L68.7567 75.9322L65.2011 74.9719L64.9734 72.4255H61.7689L62.2164 77.4386L68.7562 79.254L68.7711 79.2497L68.7708 75.9282Z" fill="#EBEBEB"/>
<path d="M72.7054 70.6938L72.3207 74.9696L68.7598 75.9308V79.2525L75.305 77.4386L75.3532 76.8991L75.9087 70.6938H72.7054Z" fill="white"/>
<path d="M68.7631 61.1743V64.3668H61.0512L60.9869 63.6493L60.8416 62.0308L60.7651 61.1743H68.7631ZM68.7519 67.6367V70.8295H65.2412L65.1773 70.112L65.0317 68.4932L64.9551 67.6367H68.7519Z" fill="#EBEBEB"/>
<rect x="96" y="47" width="42" height="41" rx="5" fill="#FAFAFA"/>
<path d="M130.855 67.4466C129.803 67.4479 128.764 67.6886 127.819 68.1503C127.523 67.6589 127.294 67.13 127.139 66.5777C127.05 66.1447 127.029 65.7005 127.078 65.2612C127.18 64.7777 127.313 64.3013 127.475 63.8346C127.469 63.7735 127.402 63.4851 126.729 63.4755C126.055 63.4659 125.474 63.6036 125.412 63.7819C125.295 64.1076 125.201 64.4412 125.131 64.78C124.573 66.1558 123.887 67.4758 123.081 68.7224C122.629 67.982 122.443 67.1098 122.554 66.2497C122.656 65.7663 122.789 65.2898 122.951 64.8231C122.945 64.7621 122.878 64.4737 122.205 64.4641C121.531 64.4545 120.95 64.5921 120.888 64.7705C120.826 64.9488 120.747 65.3689 120.607 65.7686C120.467 66.1684 118.832 69.821 118.403 70.7629C118.183 71.2417 117.993 71.6318 117.859 71.8951C117.853 71.9122 117.845 71.9287 117.835 71.9442C117.715 72.1704 117.652 72.2937 117.652 72.2937V72.2996C117.56 72.4648 117.462 72.618 117.412 72.618C117.327 72.2761 117.331 71.9178 117.424 71.578C117.664 70.3105 118.25 68.3406 118.244 68.2724C118.244 68.2353 118.354 67.893 117.865 67.7158C117.751 67.6618 117.624 67.6443 117.5 67.6657C117.376 67.6872 117.262 67.7465 117.173 67.8355C117.13 67.8355 117.1 67.9396 117.1 67.9396C117.1 67.9396 117.633 65.7243 116.084 65.7243C115.481 65.8456 114.908 66.0863 114.399 66.4323C113.891 66.7782 113.456 67.2223 113.122 67.7386C112.705 67.9648 111.819 68.4483 110.869 68.9689C110.51 69.1712 110.135 69.3734 109.786 69.5673C109.762 69.5434 109.737 69.5123 109.713 69.4883C107.828 67.4801 104.364 66.063 104.513 63.3762C104.568 62.3972 104.905 59.8264 111.166 56.7039C116.32 54.1643 120.421 54.868 121.131 56.4287C122.147 58.6571 118.934 62.7945 113.609 63.3941C113.02 63.5136 112.412 63.4992 111.829 63.3519C111.246 63.2046 110.704 62.9283 110.242 62.5432C109.961 62.2368 109.918 62.2189 109.814 62.2799C109.643 62.3721 109.753 62.6473 109.814 62.8065C110.017 63.1741 110.292 63.4973 110.622 63.7569C110.952 64.0165 111.331 64.2073 111.736 64.3181C113.831 64.7707 116.015 64.5543 117.98 63.6993C121.211 62.451 123.724 58.9803 122.987 56.0732C122.246 53.1231 117.35 52.15 112.716 53.7993C109.814 54.776 107.132 56.3144 104.823 58.3268C102.27 60.7145 101.867 62.7885 102.032 63.6586C102.631 66.744 106.881 68.7511 108.581 70.2411C108.495 70.2902 108.416 70.3333 108.349 70.3692C107.498 70.7917 104.255 72.4875 103.442 74.2804C102.524 76.315 103.589 77.7691 104.293 77.9654C105.353 78.2192 106.467 78.1356 107.477 77.7262C108.488 77.3168 109.345 76.6021 109.93 75.6818C110.428 74.9185 110.734 74.0462 110.822 73.1391C110.91 72.232 110.778 71.317 110.436 70.4721C110.43 70.4584 110.422 70.4459 110.412 70.435L111.079 70.0436C111.513 69.7863 111.942 69.5482 112.309 69.3519C112.06 70.0705 111.914 70.8208 111.875 71.5804C111.79 72.7446 112.147 73.8981 112.873 74.8118C112.984 74.9069 113.112 74.9792 113.25 75.0244C113.389 75.0696 113.535 75.0868 113.681 75.0751C114.399 75.0751 114.728 74.4767 115.088 73.7657C115.529 72.8969 115.926 71.8867 115.926 71.8867C115.926 71.8867 115.431 74.6167 116.777 74.6167C117.266 74.6167 117.762 73.98 117.983 73.6592V73.6652C117.983 73.6652 117.995 73.6473 118.02 73.6042L118.099 73.4761V73.4641C118.296 73.1219 118.736 72.3439 119.391 71.0526C120.236 69.3878 121.05 67.3065 121.05 67.3065C121.128 67.7639 121.236 68.2157 121.374 68.6589C121.571 69.1962 121.804 69.7196 122.072 70.2256C121.875 70.5008 121.753 70.654 121.753 70.654L121.759 70.66C121.6 70.8683 121.429 71.0944 121.239 71.3147C120.673 71.9371 120.147 72.5955 119.666 73.2858C119.595 73.4018 119.57 73.5406 119.597 73.674C119.625 73.8075 119.702 73.9254 119.813 74.0039C120.065 74.135 120.352 74.1824 120.633 74.1391C121.056 74.1153 121.472 74.0202 121.863 73.8579C122.242 73.7248 122.598 73.5373 122.923 73.3014C123.257 73.0699 123.526 72.7562 123.704 72.3907C123.882 72.0252 123.963 71.62 123.939 71.2141C123.901 70.7029 123.77 70.2028 123.553 69.7385C123.614 69.6523 123.673 69.5673 123.73 69.4811C124.411 68.4655 125.024 67.4065 125.566 66.3108C125.645 66.7682 125.753 67.2199 125.891 67.6632C126.053 68.1275 126.253 68.5778 126.489 69.0096C125.706 69.6118 125.09 70.4035 124.698 71.3099C124.312 72.4241 124.611 72.9256 125.176 73.0417C125.485 73.063 125.794 72.9997 126.07 72.8586C126.476 72.7253 126.858 72.529 127.202 72.2769C127.566 72.0625 127.87 71.7611 128.088 71.3999C128.306 71.0387 128.43 70.629 128.451 70.2076C128.424 69.787 128.329 69.3736 128.169 68.9833C129.202 68.5797 130.322 68.451 131.42 68.6099C134.333 68.9521 134.909 70.7701 134.799 71.5361C134.747 71.8076 134.638 72.065 134.478 72.2908C134.319 72.5166 134.113 72.7057 133.875 72.8454C133.672 72.9735 133.605 73.0165 133.623 73.1087C133.647 73.2439 133.743 73.2367 133.917 73.2128C134.356 73.0764 134.743 72.81 135.028 72.4489C135.312 72.0878 135.481 71.649 135.511 71.1902C135.603 69.395 133.889 67.4262 130.859 67.4442L130.855 67.4466ZM108.379 75.02C107.412 76.0732 106.065 76.4705 105.484 76.1342C104.859 75.7752 105.104 74.2193 106.292 73.1039C106.996 72.4699 107.757 71.9022 108.566 71.408C108.707 71.3218 108.915 71.1998 109.164 71.049L109.231 71.0119L109.378 70.9197C109.59 71.6304 109.61 72.3847 109.434 73.1052C109.258 73.8258 108.894 74.4866 108.379 75.02ZM115.417 70.2327C115.081 71.0526 114.377 73.153 113.949 73.0357C113.581 72.9375 113.35 71.3458 113.876 69.7732C114.141 69.0161 114.528 68.3072 115.02 67.6739C115.547 67.0863 116.128 66.89 116.268 67.1294C116.141 68.2004 115.854 69.2464 115.417 70.2327ZM121.226 73.0117C121.084 73.0848 120.95 73.1314 120.889 73.0979C120.846 73.074 120.95 72.9782 120.95 72.9782C120.95 72.9782 121.679 72.1943 121.966 71.8401C122.132 71.6318 122.325 71.3877 122.536 71.1112V71.1902C122.536 72.1261 121.63 72.7568 121.227 73.0141L121.226 73.0117ZM125.706 71.9897C125.602 71.9167 125.62 71.6713 125.97 70.9065C126.213 70.4154 126.552 69.9782 126.968 69.6212C127.032 69.8023 127.065 69.9928 127.066 70.1849C127.071 70.5936 126.94 70.9925 126.694 71.3191C126.449 71.6458 126.102 71.882 125.708 71.9909L125.706 71.9897Z" fill="#CD6799"/>
<rect x="144" y="47" width="42" height="41" fill="#F0DB4F"/>
<path d="M179.909 78.5351C179.665 76.9739 178.67 75.6625 175.724 74.4397C174.701 73.9583 173.56 73.6136 173.22 72.8197C173.099 72.3577 173.083 72.0975 173.159 71.8178C173.379 70.9102 174.437 70.6273 175.276 70.8875C175.816 71.0729 176.328 71.4991 176.636 72.179C178.079 71.2227 178.076 71.229 179.083 70.5718C178.714 69.9865 178.518 69.7164 178.276 69.466C177.408 68.4739 176.226 67.963 174.335 68.0021L173.35 68.1325C172.406 68.3766 171.507 68.8837 170.98 69.5636C169.397 71.4018 169.848 74.6188 171.774 75.9427C173.671 77.4004 176.458 77.732 176.814 79.095C177.161 80.7637 175.616 81.3039 174.081 81.112C172.95 80.8711 172.321 80.2825 171.641 79.2123C170.389 79.9539 170.389 79.9539 169.101 80.7117C169.406 81.3949 169.727 81.7041 170.239 82.2959C172.661 84.8104 178.721 84.6869 179.808 80.881C179.852 80.7503 180.145 79.8788 179.909 78.5351ZM167.388 68.2036H164.261L164.248 76.4791C164.248 78.2391 164.337 79.8525 164.057 80.3471C163.6 81.3197 162.414 81.1992 161.874 81.0105C161.324 80.7339 161.045 80.3405 160.721 79.7845C160.632 79.6248 160.565 79.5012 160.542 79.4917L158 81.0854C158.423 81.9736 159.046 82.7445 159.843 83.2454C161.035 83.9775 162.637 84.2019 164.312 83.8082C165.402 83.4832 166.342 82.8099 166.835 81.785C167.547 80.4414 167.394 78.8151 167.388 77.0163C167.404 74.0816 167.388 71.1475 167.388 68.2036Z" fill="#323330"/>
<path d="M199.438 47H226.563C227.54 46.9991 228.507 47.1911 229.41 47.565C230.313 47.9389 231.133 48.4873 231.824 49.179C232.514 49.8707 233.062 50.6919 233.436 51.5958C233.809 52.4997 234.001 53.4684 234 54.4466V80.5534C234.001 81.5316 233.809 82.5004 233.436 83.4041C233.062 84.3081 232.514 85.1293 231.824 85.821C231.133 86.5126 230.313 87.0612 229.41 87.4351C228.507 87.809 227.54 88.0009 226.563 88H199.438C198.461 88.0009 197.493 87.809 196.59 87.4351C195.687 87.0612 194.867 86.5126 194.176 85.821C193.486 85.1293 192.938 84.3081 192.564 83.4041C192.191 82.5004 191.999 81.5316 192 80.5534V54.4466C191.999 53.4684 192.191 52.4997 192.564 51.5958C192.938 50.6919 193.486 49.8707 194.176 49.179C194.867 48.4873 195.687 47.9389 196.59 47.565C197.493 47.1911 198.461 46.9991 199.438 47Z" fill="#FAFAFA"/>
<path d="M212.884 66.7749C214.083 66.7749 215.056 65.8025 215.056 64.6029C215.056 63.4034 214.083 62.4309 212.884 62.4309C211.684 62.4309 210.712 63.4034 210.712 64.6029C210.712 65.8025 211.684 66.7749 212.884 66.7749Z" fill="#25CEFC"/>
<path d="M212.888 72.5906C214.593 74.2488 216.274 75.2297 217.629 75.2297C218.073 75.2297 218.493 75.1363 218.843 74.9261C220.058 74.2255 220.501 72.4738 220.081 69.9748C220.011 69.5311 219.918 69.0873 219.801 68.6202C220.268 68.4801 220.688 68.34 221.109 68.1999C223.468 67.289 224.775 66.0278 224.775 64.6499C224.775 63.2486 223.468 61.9874 221.109 61.0999C220.688 60.9364 220.268 60.7963 219.801 60.6795C219.918 60.2124 220.011 59.7687 220.081 59.3249C220.478 56.7792 220.034 55.0043 218.82 54.3036C218.47 54.0934 218.049 54 217.605 54C216.274 54 214.569 54.9809 212.864 56.6391C211.183 54.9809 209.501 54 208.147 54C207.703 54 207.283 54.0934 206.932 54.3036C205.718 55.0043 205.274 56.7559 205.694 59.2549C205.764 59.6986 205.858 60.1424 205.975 60.6095C205.508 60.7496 205.087 60.8897 204.667 61.0299C202.308 61.9407 201 63.2019 201 64.5798C201 65.9811 202.308 67.2423 204.667 68.1298C205.087 68.2933 205.508 68.4334 205.975 68.5502C205.858 69.0173 205.764 69.461 205.694 69.9048C205.297 72.4038 205.741 74.1787 206.932 74.856C207.283 75.0662 207.703 75.1597 208.147 75.1597C209.501 75.2064 211.183 74.2255 212.888 72.5906ZM211.58 69.4377C212 69.461 212.444 69.461 212.888 69.461C213.331 69.461 213.775 69.461 214.196 69.4377C213.775 69.9982 213.331 70.512 212.888 71.0025C212.444 70.512 212 69.9982 211.58 69.4377ZM208.684 67.0321C208.917 67.4291 209.128 67.8028 209.384 68.1765C208.66 68.0831 207.983 67.9663 207.329 67.8262C207.539 67.1956 207.773 66.5417 208.053 65.8877C208.24 66.2614 208.45 66.6584 208.684 67.0321ZM207.329 61.4035C207.983 61.2634 208.66 61.1466 209.384 61.0532C209.151 61.4269 208.917 61.8006 208.684 62.1976C208.45 62.5947 208.24 62.9683 208.053 63.3654C207.75 62.6881 207.516 62.0341 207.329 61.4035ZM208.614 64.6032C208.917 63.9726 209.244 63.342 209.618 62.7114C209.968 62.1042 210.365 61.497 210.762 60.8897C211.463 60.843 212.164 60.8197 212.888 60.8197C213.635 60.8197 214.336 60.843 215.013 60.8897C215.433 61.497 215.807 62.1042 216.157 62.7114C216.531 63.342 216.858 63.9726 217.162 64.6032C216.858 65.2338 216.531 65.8644 216.157 66.4949C215.807 67.1022 215.41 67.7094 215.013 68.3166C214.312 68.3633 213.612 68.3867 212.888 68.3867C212.14 68.3867 211.44 68.3633 210.762 68.3166C210.342 67.7094 209.968 67.1022 209.618 66.4949C209.244 65.8644 208.917 65.2338 208.614 64.6032ZM217.746 63.342L217.115 62.1743C216.881 61.7772 216.671 61.4035 216.414 61.0299C217.138 61.1233 217.816 61.2401 218.47 61.3802C218.259 62.0341 218.026 62.6881 217.746 63.342ZM217.746 65.8644C218.026 66.5183 218.259 67.1722 218.47 67.8028C217.816 67.943 217.138 68.0597 216.414 68.1531C216.648 67.7795 216.881 67.4058 217.115 67.0088C217.325 66.6584 217.535 66.2614 217.746 65.8644ZM218.283 73.9685C218.096 74.0853 217.862 74.132 217.605 74.132C216.461 74.132 215.036 73.1978 213.635 71.7965C214.312 71.0725 214.966 70.2551 215.62 69.3443C216.718 69.2508 217.769 69.0873 218.75 68.8538C218.867 69.2742 218.937 69.6946 219.007 70.115C219.334 72.1001 219.077 73.5248 218.283 73.9685ZM219.497 61.6605C222.113 62.4078 223.678 63.5522 223.678 64.6032C223.678 65.514 222.603 66.4249 220.712 67.1489C220.338 67.289 219.918 67.4291 219.497 67.5459C219.194 66.5884 218.82 65.6074 218.353 64.6032C218.82 63.5989 219.217 62.618 219.497 61.6605ZM217.629 55.0743C217.886 55.0743 218.096 55.121 218.306 55.2378C219.077 55.6816 219.357 57.0829 219.03 59.0914C218.96 59.4884 218.867 59.9088 218.773 60.3526C217.792 60.1424 216.741 59.9789 215.644 59.8621C215.013 58.9513 214.336 58.1338 213.658 57.4098C215.06 56.0319 216.484 55.0743 217.629 55.0743ZM214.196 59.7687C213.775 59.7453 213.331 59.7453 212.888 59.7453C212.444 59.7453 212 59.7453 211.58 59.7687C212 59.2082 212.444 58.6944 212.888 58.2039C213.331 58.6944 213.775 59.2315 214.196 59.7687ZM207.493 55.2378C207.68 55.121 207.913 55.0743 208.17 55.0743C209.314 55.0743 210.739 56.0085 212.14 57.4098C211.463 58.1338 210.809 58.9513 210.155 59.8621C209.057 59.9555 208.007 60.119 207.026 60.3526C206.909 59.9322 206.839 59.5118 206.769 59.0914C206.442 57.1062 206.699 55.7049 207.493 55.2378ZM206.278 67.5459C203.662 66.7986 202.098 65.6542 202.098 64.6032C202.098 63.6923 203.172 62.7815 205.064 62.0575C205.437 61.9174 205.858 61.7772 206.278 61.6605C206.582 62.618 206.956 63.5989 207.423 64.6032C206.956 65.6074 206.558 66.6117 206.278 67.5459ZM206.769 70.115C206.839 69.7179 206.932 69.2975 207.026 68.8538C208.007 69.064 209.057 69.2275 210.155 69.3443C210.786 70.2551 211.463 71.0725 212.14 71.7965C210.739 73.1745 209.314 74.132 208.17 74.132C207.913 74.132 207.703 74.0853 207.493 73.9685C206.699 73.5248 206.442 72.1001 206.769 70.115ZM205.788 79.7372C206.302 79.1067 206.325 78.406 206.045 77.7054C205.764 77.0047 205.181 76.6777 204.457 76.6544C203.592 76.631 202.705 76.6544 201.841 76.6544H201.677V82.7033H202.378V80.4145H203.476C203.616 80.4145 203.733 80.4612 203.803 80.578L205.204 82.75C205.227 82.7968 205.297 82.8668 205.344 82.8668H206.255C205.694 82.0027 205.157 81.1853 204.597 80.3445C205.087 80.2744 205.508 80.1109 205.788 79.7372ZM202.378 79.6905V77.3784H202.635C203.172 77.3784 203.733 77.355 204.27 77.4017C204.9 77.4251 205.344 77.9155 205.344 78.5461C205.344 79.1767 204.83 79.6672 204.2 79.6905C203.639 79.7139 203.079 79.6905 202.378 79.6905ZM211.416 79.9941C211.043 78.3593 209.548 77.9389 208.404 78.4527C207.516 78.8498 207.119 79.6205 207.096 80.578C207.072 81.302 207.283 81.956 207.843 82.4464C208.474 83.0069 209.244 83.077 210.038 82.9369C210.482 82.8435 210.879 82.6333 211.183 82.3063C211.066 82.1428 210.949 81.9793 210.832 81.8392C210.179 82.3997 209.455 82.5866 208.66 82.2129C208.147 81.956 207.89 81.3254 207.843 80.8583H211.463V80.5547C211.486 80.3445 211.463 80.1576 211.416 79.9941ZM207.89 80.3678C207.82 79.6672 208.52 78.9198 209.291 78.9198C210.179 78.8965 210.739 79.4336 210.762 80.3678H207.89ZM215.06 78.3359C214.709 78.2659 214.336 78.2425 213.985 78.2659C213.425 78.3126 212.934 78.5695 212.537 78.9899C212.654 79.1534 212.748 79.3169 212.888 79.5037C212.934 79.457 212.981 79.4103 213.028 79.3869C213.402 79.0366 213.845 78.8497 214.382 78.8965C214.803 78.9198 215.2 79.0599 215.317 79.4803C215.41 79.8073 215.387 80.1576 215.41 80.508C215.34 80.508 215.317 80.4846 215.293 80.4612C214.733 79.9941 214.102 79.9007 213.425 80.0642C212.794 80.2277 212.397 80.7182 212.351 81.3487C212.304 82.0727 212.631 82.6099 213.261 82.8668C213.658 83.0303 214.102 83.0303 214.523 82.9369C214.85 82.8668 214.99 82.68 215.457 82.4231V82.7267H216.111C216.111 81.7925 216.134 80.6481 216.111 79.5738C216.111 78.8965 215.714 78.4761 215.06 78.3359ZM215.387 81.2787C215.363 81.3487 215.387 81.4188 215.387 81.4889C215.387 81.9793 215.27 82.1428 214.803 82.3297C214.476 82.4464 214.126 82.4931 213.775 82.3764C213.378 82.2596 213.098 81.9093 213.098 81.5122C213.075 81.1152 213.331 80.7182 213.728 80.6014C214.266 80.4145 214.756 80.5313 215.2 80.8583C215.34 80.9751 215.433 81.0918 215.387 81.2787ZM219.03 78.9665C219.637 78.7797 220.198 78.8965 220.618 79.4103L220.688 79.457C220.852 79.3169 220.992 79.1767 221.179 79.0132C221.109 78.9432 221.085 78.8965 221.039 78.8264C220.361 78.1024 219.03 78.009 218.213 78.5928C217.068 79.4336 217.092 81.0685 217.652 81.9326C218.189 82.75 218.96 83.0303 219.871 82.9135C220.408 82.8435 220.852 82.5866 221.202 82.1428C221.039 82.0027 220.875 81.8625 220.712 81.6991C220.665 81.7458 220.642 81.7691 220.618 81.8158C219.988 82.5165 218.937 82.4464 218.376 81.6991C218.049 81.2553 217.979 80.7415 218.073 80.2277C218.119 79.6438 218.423 79.1767 219.03 78.9665ZM223.888 82.1428C223.841 82.1662 223.818 82.1895 223.818 82.1895C223.631 82.3297 223.444 82.353 223.234 82.2829C223.024 82.1895 223 82.0027 222.977 81.8158V79.1534C222.977 79.1067 222.977 79.2001 223 78.9665H223.888V78.2659H222.954V77.0981H222.253V78.3593H221.646C221.599 78.3593 221.529 78.406 221.529 78.4527C221.506 78.6162 221.529 78.733 221.529 78.9665H222.276V81.956C222.276 82.3296 222.37 82.6566 222.697 82.8435C223.047 83.0537 223.724 83.0069 224.028 82.75C224.075 82.7267 224.098 82.6333 224.098 82.6099C224.028 82.4698 223.958 82.3063 223.888 82.1428Z" fill="#25CEFC"/>
<path d="M247.438 47H274.563C275.54 46.9991 276.507 47.1911 277.41 47.565C278.313 47.9389 279.133 48.4873 279.824 49.179C280.514 49.8707 281.062 50.6919 281.436 51.5958C281.809 52.4997 282.001 53.4684 282 54.4466V80.5534C282.001 81.5316 281.809 82.5004 281.436 83.4041C281.062 84.3081 280.514 85.1293 279.824 85.821C279.133 86.5126 278.313 87.0612 277.41 87.4351C276.507 87.809 275.54 88.0009 274.563 88H247.438C246.461 88.0009 245.493 87.809 244.59 87.4351C243.687 87.0612 242.867 86.5126 242.176 85.821C241.486 85.1293 240.938 84.3081 240.564 83.4041C240.191 82.5004 239.999 81.5316 240 80.5534V54.4466C239.999 53.4684 240.191 52.4997 240.564 51.5958C240.938 50.6919 241.486 49.8707 242.176 49.179C242.867 48.4873 243.687 47.9389 244.59 47.565C245.493 47.1911 246.461 46.9991 247.438 47Z" fill="#FAFAFA"/>
<path fill-rule="evenodd" clip-rule="evenodd" d="M261.504 54C256.154 54 251.816 58.3669 251.816 63.7544C251.816 68.064 254.592 71.7204 258.441 73.01C258.926 73.1004 259.104 72.7984 259.104 72.5407C259.104 72.3082 259.094 71.5397 259.09 70.7249C256.395 71.3148 255.826 69.574 255.826 69.574C255.385 68.4464 254.75 68.1465 254.75 68.1465C253.871 67.5412 254.816 67.5536 254.816 67.5536C255.789 67.6224 256.302 68.559 256.302 68.559C257.166 70.0502 258.568 69.6189 259.121 69.3697C259.208 68.7392 259.459 68.3086 259.736 68.0651C257.584 67.8187 255.322 66.982 255.322 63.2445C255.322 62.1795 255.701 61.3094 256.32 60.6262C256.22 60.3804 255.888 59.3881 256.414 58.0446C256.414 58.0446 257.228 57.7828 259.079 59.0449C259.852 58.8287 260.681 58.7202 261.504 58.7166C262.327 58.7205 263.157 58.8289 263.931 59.0449C265.78 57.783 266.593 58.0448 266.593 58.0448C267.12 59.3883 266.789 60.3804 266.688 60.6264C267.309 61.3092 267.685 62.1795 267.685 63.2447C267.685 66.991 265.418 67.8159 263.261 68.0571C263.608 68.3597 263.918 68.9535 263.918 69.8638C263.918 71.1688 263.907 72.2191 263.907 72.5403C263.907 72.7993 264.082 73.1038 264.573 73.008C268.42 71.7167 271.193 68.0617 271.193 63.7534C271.193 58.3672 266.855 54 261.504 54Z" fill="#151515"/>
<path d="M255.486 68.0048C255.464 68.0534 255.388 68.0679 255.319 68.0346C255.249 68.0025 255.21 67.9367 255.232 67.8879C255.253 67.8384 255.329 67.8244 255.399 67.8576C255.47 67.8897 255.51 67.9562 255.486 68.0048ZM255.878 68.4459C255.832 68.4888 255.741 68.4689 255.68 68.4005C255.617 68.3324 255.605 68.2414 255.652 68.1979C255.699 68.1548 255.787 68.1749 255.85 68.243C255.913 68.3118 255.926 68.4021 255.878 68.4459ZM256.26 69.0072C256.201 69.0489 256.103 69.0099 256.044 68.923C255.984 68.8366 255.984 68.7328 256.045 68.6908C256.105 68.6491 256.2 68.6867 256.261 68.7726C256.321 68.8609 256.321 68.965 256.26 69.0072ZM256.783 69.5501C256.73 69.609 256.617 69.5932 256.534 69.5127C256.45 69.4341 256.426 69.3224 256.479 69.2635C256.533 69.2046 256.647 69.2211 256.73 69.3009C256.814 69.3793 256.84 69.4914 256.783 69.5501ZM257.506 69.8651C257.482 69.9417 257.373 69.9763 257.263 69.944C257.153 69.9105 257.082 69.8211 257.104 69.7441C257.127 69.667 257.236 69.631 257.347 69.6657C257.456 69.6987 257.528 69.7872 257.506 69.8651ZM258.298 69.9236C258.301 70.0038 258.208 70.0708 258.093 70.0722C257.977 70.0749 257.883 70.0098 257.882 69.9305C257.882 69.8493 257.973 69.7833 258.089 69.7814C258.204 69.7792 258.298 69.8438 258.298 69.9236ZM259.036 69.7973C259.05 69.8757 258.97 69.9564 258.855 69.9777C258.743 69.9988 258.639 69.9502 258.624 69.8722C258.611 69.792 258.692 69.7117 258.804 69.6907C258.919 69.6705 259.021 69.7175 259.036 69.7973Z" fill="#151515"/>
<path d="M252.59 78.484H250.153C250.123 78.484 250.094 78.4961 250.073 78.5176C250.051 78.5391 250.039 78.5683 250.039 78.5987V79.7982C250.039 79.8286 250.051 79.8578 250.073 79.8793C250.094 79.9008 250.123 79.9129 250.153 79.9129H251.104V81.4031C251.104 81.4031 250.89 81.4765 250.3 81.4765C249.604 81.4765 248.631 81.2206 248.631 79.0673C248.631 76.9138 249.644 76.6302 250.595 76.6302C251.418 76.6302 251.772 76.776 251.998 76.8464C252.069 76.8679 252.135 76.7968 252.135 76.7336L252.407 75.5746C252.407 75.5572 252.403 75.54 252.396 75.5245C252.388 75.5089 252.377 75.4954 252.363 75.4852C252.271 75.4191 251.712 75.1046 250.3 75.1046C248.673 75.1046 247.004 75.8011 247.004 79.1512C247.004 82.5009 248.915 83 250.525 83C251.858 83 252.667 82.4264 252.667 82.4264C252.7 82.408 252.704 82.361 252.704 82.3392V78.5984C252.704 78.568 252.692 78.5389 252.67 78.5174C252.649 78.4959 252.62 78.484 252.59 78.484ZM265.036 75.3907H263.663C263.648 75.3908 263.634 75.3938 263.62 75.3996C263.606 75.4055 263.593 75.414 263.583 75.4247C263.572 75.4354 263.564 75.4481 263.558 75.4621C263.553 75.476 263.55 75.491 263.55 75.506L263.55 78.1757H261.412V75.506C261.412 75.491 261.409 75.4761 261.403 75.4621C261.398 75.4482 261.389 75.4355 261.379 75.4248C261.368 75.4141 261.356 75.4055 261.342 75.3997C261.328 75.3939 261.313 75.3908 261.298 75.3907H259.926C259.911 75.3908 259.897 75.3938 259.883 75.3996C259.869 75.4055 259.856 75.414 259.846 75.4247C259.835 75.4354 259.827 75.4481 259.821 75.4621C259.816 75.476 259.813 75.491 259.813 75.506V82.735C259.813 82.7985 259.864 82.8503 259.926 82.8503H261.298C261.313 82.8502 261.328 82.8471 261.342 82.8413C261.356 82.8354 261.368 82.8269 261.379 82.8161C261.389 82.8054 261.398 82.7927 261.403 82.7787C261.409 82.7648 261.412 82.7498 261.412 82.7347V79.6428H263.55L263.547 82.7347C263.547 82.7985 263.598 82.8503 263.661 82.8503H265.036C265.051 82.8502 265.065 82.8471 265.079 82.8413C265.093 82.8354 265.106 82.8269 265.116 82.8161C265.127 82.8054 265.135 82.7927 265.141 82.7787C265.146 82.7648 265.149 82.7498 265.149 82.7347V75.5058C265.149 75.4907 265.146 75.4758 265.141 75.4618C265.135 75.4479 265.127 75.4352 265.116 75.4245C265.106 75.4138 265.093 75.4053 265.079 75.3995C265.065 75.3937 265.051 75.3907 265.036 75.3907ZM254.295 75.5551C253.806 75.5551 253.41 75.957 253.41 76.4545C253.41 76.9514 253.806 77.3544 254.295 77.3544C254.783 77.3544 255.179 76.9514 255.179 76.4545C255.179 75.957 254.783 75.5551 254.295 75.5551ZM254.968 77.7579H253.6C253.537 77.7579 253.481 77.823 253.481 77.8863V82.6671C253.481 82.8076 253.568 82.8494 253.681 82.8494H254.913C255.048 82.8494 255.081 82.7824 255.081 82.6648V77.8733C255.081 77.8582 255.078 77.8433 255.073 77.8294C255.067 77.8154 255.059 77.8028 255.048 77.7921C255.038 77.7814 255.025 77.7729 255.011 77.7671C254.997 77.7612 254.983 77.758 254.968 77.7579ZM270.364 77.7687H269.002C268.987 77.7688 268.972 77.7719 268.958 77.7778C268.945 77.7837 268.932 77.7922 268.922 77.8029C268.911 77.8137 268.903 77.8264 268.897 77.8403C268.892 77.8543 268.889 77.8692 268.889 77.8843V81.4288C268.889 81.4288 268.543 81.6833 268.052 81.6833C267.561 81.6833 267.431 81.4593 267.431 80.9753V77.8843C267.431 77.8692 267.428 77.8542 267.423 77.8403C267.417 77.8263 267.409 77.8136 267.398 77.8029C267.388 77.7921 267.375 77.7836 267.361 77.7777C267.348 77.7719 267.333 77.7688 267.318 77.7687H265.936C265.906 77.769 265.877 77.7812 265.856 77.8029C265.834 77.8246 265.822 77.8538 265.823 77.8843V81.2092C265.823 82.6467 266.618 82.9984 267.713 82.9984C268.611 82.9984 269.336 82.4986 269.336 82.4986C269.336 82.4986 269.37 82.7622 269.386 82.7932C269.402 82.8244 269.442 82.8558 269.486 82.8558L270.365 82.8519C270.38 82.8518 270.395 82.8488 270.409 82.843C270.422 82.8371 270.435 82.8286 270.446 82.8179C270.456 82.8071 270.465 82.7944 270.47 82.7804C270.476 82.7664 270.479 82.7515 270.479 82.7363L270.478 77.8836C270.478 77.8532 270.466 77.824 270.445 77.8025C270.423 77.7809 270.394 77.769 270.364 77.7687ZM274.085 77.6064C273.312 77.6064 272.786 77.9537 272.786 77.9537V75.5058C272.786 75.4907 272.783 75.4758 272.777 75.4619C272.772 75.4479 272.764 75.4352 272.753 75.4245C272.742 75.4138 272.73 75.4053 272.716 75.3995C272.702 75.3936 272.688 75.3906 272.673 75.3905H271.297C271.282 75.3905 271.267 75.3935 271.253 75.3993C271.239 75.4051 271.227 75.4136 271.216 75.4243C271.206 75.435 271.197 75.4477 271.192 75.4617C271.186 75.4757 271.183 75.4907 271.183 75.5058V82.7347C271.183 82.7498 271.186 82.7648 271.192 82.7788C271.197 82.7928 271.206 82.8055 271.216 82.8162C271.227 82.827 271.239 82.8355 271.253 82.8413C271.267 82.8471 271.282 82.8501 271.297 82.8501H272.252C272.295 82.8501 272.327 82.8278 272.351 82.7886C272.375 82.7496 272.409 82.4553 272.409 82.4553C272.409 82.4553 272.971 82.9917 274.037 82.9917C275.287 82.9917 276.004 82.3535 276.004 80.1254C276.004 77.8973 274.859 77.6064 274.085 77.6064ZM273.548 81.6792C273.076 81.6647 272.755 81.449 272.755 81.449V79.1597C272.755 79.1597 273.071 78.9648 273.459 78.9295C273.949 78.8853 274.422 79.0345 274.422 80.2121C274.422 81.454 274.209 81.6993 273.548 81.6792ZM259.044 81.6521C258.984 81.6521 258.83 81.6766 258.673 81.6766C258.167 81.6766 257.996 81.44 257.996 81.1337V79.101H259.025C259.04 79.101 259.055 79.098 259.069 79.0922C259.083 79.0864 259.095 79.0779 259.106 79.0671C259.116 79.0564 259.125 79.0436 259.13 79.0296C259.136 79.0156 259.139 79.0006 259.139 78.9855V77.8721C259.139 77.857 259.136 77.8421 259.13 77.8281C259.125 77.8141 259.116 77.8014 259.106 77.7908C259.095 77.7801 259.082 77.7716 259.069 77.7658C259.055 77.76 259.04 77.757 259.025 77.757H257.996L257.994 76.3883C257.994 76.3362 257.968 76.3103 257.908 76.3103H256.505C256.451 76.3103 256.422 76.3346 256.422 76.3871V77.8017C256.422 77.8017 255.719 77.9725 255.671 77.9863C255.648 77.9932 255.627 78.0077 255.612 78.0276C255.597 78.0474 255.589 78.0715 255.589 78.0963V78.9852C255.589 79.0003 255.592 79.0152 255.598 79.0291C255.603 79.0431 255.612 79.0558 255.622 79.0665C255.633 79.0772 255.645 79.0857 255.659 79.0916C255.673 79.0974 255.687 79.1005 255.702 79.1005H256.422V81.2392C256.422 82.828 257.528 82.984 258.275 82.984C258.616 82.984 259.025 82.8739 259.092 82.8487C259.133 82.8333 259.156 82.7909 259.156 82.7448L259.157 81.767C259.157 81.7367 259.145 81.7077 259.123 81.6863C259.102 81.6648 259.074 81.6527 259.044 81.6521Z" fill="#151515"/>
<defs>
<linearGradient id="paint0_linear_98_7164" x1="212.278" y1="25.636" x2="211.507" y2="37.0952" gradientUnits="userSpaceOnUse">
<stop stop-color="#FD5200"/>
<stop offset="0.2722" stop-color="#FFDC38"/>
<stop offset="0.9626" stop-color="#F3FEAB"/>
</linearGradient>
<linearGradient id="paint1_linear_98_7164" x1="205.115" y1="2.21575" x2="197.398" y2="31.9963" gradientUnits="userSpaceOnUse">
<stop offset="0.4072" stop-color="#9E010A"/>
<stop offset="0.6244" stop-color="#FC56A4"/>
<stop offset="0.689" stop-color="#F2A780"/>
<stop offset="0.7431" stop-color="#FFC78A"/>
</linearGradient>
<linearGradient id="paint2_linear_98_7164" x1="213.837" y1="11.2661" x2="210.981" y2="31.7959" gradientUnits="userSpaceOnUse">
<stop offset="0.4072" stop-color="#9E010A"/>
<stop offset="0.6244" stop-color="#FC56A4"/>
<stop offset="0.689" stop-color="#F2A780"/>
<stop offset="0.7431" stop-color="#FFC78A"/>
</linearGradient>
<linearGradient id="paint3_linear_98_7164" x1="219.681" y1="15.6564" x2="197.975" y2="31.3025" gradientUnits="userSpaceOnUse">
<stop offset="0.0753769" stop-color="#0C64CC"/>
<stop offset="0.3348" stop-color="#1F9FE3"/>
<stop offset="0.4851" stop-color="#1B9DEB"/>
<stop offset="0.7569" stop-color="#72F07F"/>
<stop offset="0.8584" stop-color="#DBFEC8"/>
<stop offset="0.9913" stop-color="#F6F9B1"/>
</linearGradient>
<linearGradient id="paint4_linear_98_7164" x1="219.043" y1="24.4648" x2="209.699" y2="18.9028" gradientUnits="userSpaceOnUse">
<stop offset="0.0251256" stop-color="#4226A2"/>
<stop offset="0.2769" stop-color="#7357CB"/>
<stop offset="0.4721" stop-color="#4783DF"/>
<stop offset="0.5228" stop-color="#3B8FE4"/>
<stop offset="0.5797" stop-color="#3B9DE4"/>
<stop offset="0.6561" stop-color="#3BA7E4"/>
<stop offset="0.7412" stop-color="#3BABE4"/>
</linearGradient>
<linearGradient id="paint5_linear_98_7164" x1="207.854" y1="43.275" x2="198.599" y2="37.7658" gradientUnits="userSpaceOnUse">
<stop stop-color="#4226A2"/>
<stop offset="0.3221" stop-color="#7357CB"/>
<stop offset="0.6283" stop-color="#3B8FE4"/>
</linearGradient>
<linearGradient id="paint6_linear_98_7164" x1="229.278" y1="8.7845" x2="196.995" y2="34.0165" gradientUnits="userSpaceOnUse">
<stop stop-color="#7C4ADF"/>
<stop offset="0.3459" stop-color="#E251D8"/>
<stop offset="0.7297" stop-color="#FCDFBC"/>
<stop offset="0.8312" stop-color="#F6F8B0"/>
<stop offset="0.9186" stop-color="#FFFFF2"/>
<stop offset="0.9894" stop-color="#F6F8B0"/>
</linearGradient>
</defs>
</svg>
