<svg width="420" height="154" viewBox="0 0 420 154" fill="none" xmlns="http://www.w3.org/2000/svg">
<rect width="420" height="154" rx="22" fill="white"/>
<path d="M201.717 72.0046H178.287C173.159 72.0046 169 67.8459 169 62.7172V39.2874C169 34.1587 173.159 30 178.287 30H201.713C206.841 30 211 34.1587 211 39.2874V62.7126C211.005 67.8459 206.846 72.0046 201.717 72.0046Z" fill="#242424"/>
<path d="M188.466 47.9527C183.161 49.5308 173.79 53.1465 173.34 67.8179C175.034 59.9183 179.211 58.7858 186.888 56.9803C194.565 55.1794 198.737 53.1465 203.37 47.6139C207.997 42.0814 206.419 34.1817 206.419 34.1817C206.419 38.4704 203.37 41.2923 200.436 43.3253C197.503 45.3582 193.771 46.3747 188.466 47.9527Z" fill="url(#paint0_linear_37_12295)"/>
<path d="M173.34 67.8228C173.354 67.4422 173.372 67.0755 173.395 66.7135C173.354 67.1034 173.33 67.4747 173.34 67.8228Z" fill="url(#paint1_linear_37_12295)"/>
<path d="M193.084 55.1701C189.097 55.922 185.036 55.8339 182.372 56.5347C177.633 57.774 173.683 63.4179 173.34 67.8179C173.354 67.442 173.372 67.0753 173.395 66.7087C173.92 61.9187 178.334 54.0609 188.016 49.7583C191.098 48.3891 193.873 46.9363 196.287 45.4511C197.846 44.843 199.211 44.17 200.432 43.3253C203.365 41.2924 206.414 38.4704 206.414 34.1817C206.414 34.1817 206.665 40.624 204.576 46.138C204.289 46.6625 203.964 47.1684 203.592 47.6464C200.78 51.2992 197.461 53.5364 193.084 55.1701Z" fill="url(#paint2_linear_37_12295)"/>
<path d="M173.405 66.5229C173.377 66.9453 173.354 67.377 173.34 67.8179C173.312 67.4187 173.335 66.9824 173.405 66.5229C174.352 52.9283 183.319 49.4844 188.466 47.9527C193.771 46.3747 197.498 45.3582 200.432 43.3253C203.365 41.2924 206.414 38.4704 206.414 34.1817C206.414 34.1817 207.997 42.0813 203.365 47.6139C198.737 53.1464 194.899 50.8861 187.222 52.6916C180.218 54.3439 174.152 61.7284 173.405 66.5229Z" fill="url(#paint3_linear_37_12295)"/>
<path d="M185.305 53.4853C192.532 52.13 197.043 52.2414 202.014 46.9363C206.981 41.6312 206.414 34.1817 206.414 34.1817C206.414 38.4704 203.365 41.2924 200.432 43.3253C199.206 44.1747 197.842 44.843 196.287 45.4511C193.873 46.9363 190.536 48.454 187.454 49.8233C177.772 54.1258 173.92 61.9187 173.395 66.7087C173.372 67.0707 173.354 67.4373 173.34 67.8179C173.683 63.4132 178.083 54.8406 185.305 53.4853Z" fill="url(#paint4_linear_37_12295)"/>
<path d="M173.34 67.8228C173.354 67.4422 173.372 67.0755 173.395 66.7135C173.354 67.1034 173.33 67.4747 173.34 67.8228Z" fill="url(#paint5_linear_37_12295)"/>
<path d="M190.388 49.0852C177.178 51.5684 173.228 63.2325 173.34 67.8228C173.678 63.4228 177.517 58.3402 182.483 55.6296C189.821 51.9026 197.498 53.9355 202.803 48.519C208.108 43.1025 206.414 34.1817 206.414 34.1817C206.414 38.4704 204.832 42.5362 202.01 44.908C199.192 47.2751 193.548 48.4819 190.388 49.0852Z" fill="url(#paint6_linear_37_12295)"/>
<path d="M126.438 82.7998H153.562C154.54 82.7989 155.507 82.9909 156.41 83.3648C157.313 83.7387 158.133 84.2871 158.824 84.9788C159.514 85.6705 160.062 86.4917 160.436 87.3956C160.809 88.2995 161.001 89.2682 161 90.2464V116.353C161.001 117.331 160.809 118.3 160.436 119.204C160.062 120.108 159.514 120.929 158.824 121.621C158.133 122.312 157.313 122.861 156.41 123.235C155.507 123.609 154.54 123.801 153.562 123.8H126.438C125.461 123.801 124.493 123.609 123.59 123.235C122.687 122.861 121.867 122.312 121.176 121.621C120.486 120.929 119.938 120.108 119.564 119.204C119.191 118.3 118.999 117.331 119 116.353V90.2464C118.999 89.2682 119.191 88.2995 119.564 87.3956C119.938 86.4917 120.486 85.6705 121.176 84.9788C121.867 84.2871 122.687 83.7387 123.59 83.3648C124.493 82.9909 125.461 82.7989 126.438 82.7998Z" fill="#49021F"/>
<path d="M134.26 93.5226V111.5C134.26 111.692 134.173 111.78 134.015 111.78H130.585C130.428 111.78 130.358 111.692 130.358 111.5V93.5226C130.358 93.3649 130.445 93.2948 130.603 93.2948H134.015C134.042 93.2907 134.069 93.2919 134.095 93.2986C134.121 93.3052 134.145 93.3171 134.166 93.3335C134.188 93.3499 134.205 93.3704 134.218 93.3939C134.232 93.4174 134.24 93.4433 134.243 93.4701C134.249 93.477 134.254 93.4853 134.257 93.4944C134.26 93.5035 134.261 93.5131 134.26 93.5226Z" fill="#FF3366"/>
<path d="M144.34 112.06C143.043 112.082 141.757 111.812 140.577 111.272C139.48 110.758 138.56 109.928 137.935 108.889C137.287 107.82 136.972 106.489 136.972 104.894C136.955 103.597 137.287 102.32 137.935 101.197C138.599 100.056 139.561 99.1169 140.717 98.4813C141.942 97.7979 143.412 97.465 145.145 97.465C145.268 97.4636 145.391 97.4695 145.512 97.4825C145.67 97.5001 145.845 97.5001 146.055 97.5176V91.9808C146.055 91.8582 146.107 91.7881 146.23 91.7881H149.782C149.822 91.7828 149.861 91.7925 149.894 91.8152C149.926 91.8379 149.949 91.872 149.957 91.9107V108.626C149.957 108.942 149.975 109.292 149.992 109.677C150.01 110.063 150.045 110.396 150.062 110.694C150.066 110.753 150.051 110.812 150.02 110.862C149.989 110.912 149.942 110.951 149.887 110.974C148.971 111.36 148.014 111.642 147.035 111.815C146.146 111.976 145.244 112.059 144.34 112.06ZM146.055 108.556V100.847C145.899 100.809 145.741 100.78 145.582 100.759C145.39 100.742 145.197 100.724 145.005 100.724C144.319 100.716 143.641 100.872 143.027 101.18C142.43 101.478 141.917 101.924 141.54 102.476C141.155 103.037 140.962 103.79 140.962 104.701C140.947 105.316 141.048 105.929 141.26 106.506C141.429 106.973 141.698 107.398 142.047 107.75C142.385 108.072 142.792 108.312 143.237 108.451C143.706 108.605 144.197 108.681 144.69 108.679C144.952 108.679 145.197 108.661 145.425 108.644C145.639 108.66 145.854 108.63 146.055 108.556Z" fill="#FF3366"/>
<path d="M126.438 31H153.562C154.54 30.9991 155.507 31.1911 156.41 31.565C157.313 31.9389 158.133 32.4873 158.824 33.179C159.514 33.8707 160.062 34.6919 160.436 35.5958C160.809 36.4997 161.001 37.4684 161 38.4466V64.5534C161.001 65.5316 160.809 66.5004 160.436 67.4042C160.062 68.3081 159.514 69.1293 158.824 69.821C158.133 70.5126 157.313 71.0612 156.41 71.4351C155.507 71.809 154.54 72.0009 153.562 72H126.438C125.461 72.0009 124.493 71.809 123.59 71.4351C122.687 71.0612 121.867 70.5126 121.176 69.821C120.486 69.1293 119.938 68.3081 119.564 67.4042C119.191 66.5004 118.999 65.5316 119 64.5534V38.4466C118.999 37.4684 119.191 36.4997 119.564 35.5958C119.938 34.6919 120.486 33.8707 121.176 33.179C121.867 32.4873 122.687 31.9389 123.59 31.565C124.493 31.1911 125.461 30.9991 126.438 31Z" fill="#001E36"/>
<path d="M141.05 59.9804H129.955C129.763 59.9804 129.675 59.8753 129.675 59.6651V41.7582C129.671 41.7294 129.673 41.7001 129.681 41.672C129.688 41.6439 129.702 41.6177 129.72 41.5948C129.737 41.5719 129.76 41.5529 129.785 41.5388C129.811 41.5247 129.839 41.5159 129.868 41.5129H133.368C133.39 41.5089 133.412 41.5094 133.434 41.5144C133.455 41.5193 133.476 41.5287 133.494 41.5418C133.512 41.5549 133.527 41.5715 133.538 41.5906C133.55 41.6098 133.557 41.631 133.56 41.6531V56.4236H141.645C141.82 56.4236 141.873 56.5112 141.838 56.6689L141.33 59.7176C141.327 59.7579 141.317 59.7972 141.299 59.8333C141.281 59.8694 141.256 59.9016 141.225 59.9279C141.174 59.9634 141.113 59.9818 141.05 59.9804Z" fill="#31A8FF"/>
<path d="M143.85 45.9633H146.912C146.995 45.9653 147.076 45.9935 147.142 46.0438C147.208 46.0942 147.256 46.1641 147.28 46.2436C147.352 46.3676 147.4 46.5045 147.42 46.6466C147.455 46.8219 147.49 47.0146 147.507 47.1898C147.525 47.365 147.542 47.5928 147.542 47.8206C148.068 47.2064 148.703 46.6954 149.415 46.3137C150.215 45.8798 151.113 45.6624 152.022 45.683C152.051 45.6791 152.081 45.681 152.109 45.6886C152.137 45.6962 152.163 45.7094 152.186 45.7274C152.209 45.7454 152.228 45.7678 152.242 45.7933C152.256 45.8187 152.265 45.8468 152.267 45.8757V49.3625C152.267 49.5026 152.18 49.5552 151.987 49.5552C150.853 49.4872 149.719 49.6915 148.68 50.1509C148.325 50.3028 148.004 50.5231 147.735 50.7992V59.7351C147.735 59.9103 147.665 59.9804 147.507 59.9804H144.095C144.063 59.9858 144.03 59.9846 143.998 59.9769C143.966 59.9692 143.936 59.955 143.91 59.9354C143.884 59.9157 143.862 59.8909 143.845 59.8625C143.829 59.8341 143.819 59.8027 143.815 59.7701V49.9932C143.815 49.5727 143.815 49.1347 143.797 48.6791C143.78 48.2236 143.78 47.768 143.762 47.3125C143.745 46.927 143.71 46.5415 143.657 46.156C143.653 46.1353 143.652 46.1139 143.656 46.093C143.66 46.0721 143.667 46.0521 143.679 46.0342C143.69 46.0163 143.705 46.0008 143.722 45.9886C143.74 45.9765 143.759 45.9679 143.78 45.9633C143.797 45.9458 143.815 45.9458 143.85 45.9633Z" fill="#31A8FF"/>
<path d="M176.438 82.7998H203.562C204.54 82.7989 205.507 82.9909 206.41 83.3648C207.313 83.7387 208.133 84.2871 208.824 84.9788C209.514 85.6705 210.062 86.4917 210.436 87.3956C210.809 88.2995 211.001 89.2682 211 90.2464V116.353C211.001 117.331 210.809 118.3 210.436 119.204C210.062 120.108 209.514 120.929 208.824 121.621C208.133 122.312 207.313 122.861 206.41 123.235C205.507 123.609 204.54 123.801 203.562 123.8H176.438C175.461 123.801 174.493 123.609 173.59 123.235C172.687 122.861 171.867 122.312 171.176 121.621C170.486 120.929 169.938 120.108 169.564 119.204C169.191 118.3 168.999 117.331 169 116.353V90.2464C168.999 89.2682 169.191 88.2995 169.564 87.3956C169.938 86.4917 170.486 85.6705 171.176 84.9788C171.867 84.2871 172.687 83.7387 173.59 83.3648C174.493 82.9909 175.461 82.7989 176.438 82.7998Z" fill="#000B1D"/>
<path d="M185.625 116.441C188.041 116.441 190 114.48 190 112.061V107.68H185.625C183.209 107.68 181.25 109.641 181.25 112.061C181.25 114.48 183.209 116.441 185.625 116.441Z" fill="#0ACF83"/>
<path d="M181.25 103.3C181.25 100.881 183.209 98.9193 185.625 98.9193H190V107.68H185.625C183.209 107.68 181.25 105.719 181.25 103.3Z" fill="#A259FF"/>
<path d="M181.25 94.5392C181.25 92.12 183.209 90.1589 185.625 90.1589H190V98.9193H185.625C183.209 98.9193 181.25 96.9584 181.25 94.5392Z" fill="#F24E1E"/>
<path d="M190 90.1589H194.375C196.791 90.1589 198.75 92.12 198.75 94.5392C198.75 96.9584 196.791 98.9196 194.375 98.9196L190 98.9193V90.1589Z" fill="#FF7262"/>
<path d="M198.75 103.3C198.75 105.719 196.791 107.68 194.375 107.68C191.959 107.68 190 105.719 190 103.3C190 100.881 191.959 98.9196 194.375 98.9196C196.791 98.9196 198.75 100.881 198.75 103.3Z" fill="#1ABCFE"/>
<path d="M76.4375 31H103.562C104.54 30.9991 105.507 31.1911 106.41 31.565C107.313 31.9389 108.133 32.4873 108.824 33.179C109.514 33.8707 110.062 34.6919 110.436 35.5958C110.809 36.4997 111.001 37.4684 111 38.4466V64.5534C111.001 65.5316 110.809 66.5004 110.436 67.4042C110.062 68.3081 109.514 69.1293 108.824 69.821C108.133 70.5126 107.313 71.0612 106.41 71.4351C105.507 71.809 104.54 72.0009 103.562 72H76.4375C75.4605 72.0009 74.493 71.809 73.5902 71.4351C72.6874 71.0612 71.8672 70.5126 71.1763 69.821C70.4855 69.1293 69.9377 68.3081 69.5643 67.4042C69.1908 66.5004 68.9991 65.5316 69 64.5534V38.4466C68.9991 37.4684 69.1908 36.4997 69.5643 35.5958C69.9377 34.6919 70.4855 33.8707 71.1763 33.179C71.8672 32.4873 72.6874 31.9389 73.5902 31.565C74.493 31.1911 75.4605 30.9991 76.4375 31Z" fill="#001E36"/>
<path d="M78.4499 59.7528V41.7233C78.4499 41.6006 78.5024 41.5305 78.6249 41.5305C78.9224 41.5305 79.2024 41.5305 79.6049 41.513C80.0074 41.4955 80.4624 41.4955 80.9349 41.478C81.4074 41.4605 81.9149 41.4605 82.4574 41.4429C82.9999 41.4254 83.5249 41.4254 84.0499 41.4254C85.4849 41.4254 86.6749 41.6006 87.6549 41.9686C88.5334 42.2673 89.3344 42.7581 89.9999 43.4053C90.5638 43.9718 90.9995 44.653 91.2774 45.4028C91.5424 46.1329 91.6785 46.9037 91.6799 47.6805C91.6799 49.1874 91.3299 50.4314 90.6299 51.4126C89.9266 52.3924 88.9449 53.1374 87.8124 53.5502C86.6224 53.9882 85.3099 54.1459 83.8749 54.1459C83.4549 54.1459 83.1749 54.1459 82.9999 54.1284C82.8249 54.1109 82.5799 54.1109 82.2474 54.1109V59.7352C82.2513 59.7641 82.2494 59.7934 82.2418 59.8214C82.2342 59.8495 82.221 59.8758 82.203 59.8987C82.1851 59.9215 82.1627 59.9406 82.1373 59.9546C82.1118 59.9688 82.0838 59.9776 82.0549 59.9805H78.6599C78.5199 59.9805 78.4499 59.9105 78.4499 59.7528ZM82.2649 44.9122V50.7993C82.5099 50.8169 82.7374 50.8344 82.9474 50.8344H83.8749C84.5581 50.8353 85.2372 50.7287 85.8874 50.519C86.4453 50.3548 86.9437 50.0323 87.3224 49.5904C87.6899 49.1523 87.8649 48.5566 87.8649 47.7857C87.8814 47.2381 87.7417 46.6972 87.4624 46.2263C87.1707 45.7713 86.7414 45.4215 86.2374 45.2275C85.5805 44.9699 84.8775 44.8506 84.1724 44.8771C83.7174 44.8771 83.3149 44.8771 82.9824 44.8946C82.7432 44.879 82.5031 44.8848 82.2649 44.9122Z" fill="#31A8FF"/>
<path d="M102.6 49.7304C102.072 49.4518 101.506 49.2512 100.92 49.1347C100.277 48.9888 99.6197 48.9125 98.9601 48.9069C98.6059 48.8947 98.2519 48.936 97.9101 49.0296C97.6921 49.075 97.4989 49.1999 97.3676 49.38C97.2792 49.5221 97.2308 49.6856 97.2276 49.8531C97.2357 50.0197 97.2971 50.1795 97.4026 50.3086C97.5685 50.5035 97.7706 50.6641 97.9976 50.7817C98.4001 50.992 98.8201 51.1847 99.2401 51.3599C100.186 51.6786 101.09 52.1079 101.935 52.639C102.51 53.0008 102.985 53.5007 103.318 54.0933C103.599 54.6522 103.737 55.2723 103.72 55.898C103.734 56.7262 103.496 57.539 103.038 58.2283C102.55 58.9277 101.868 59.4697 101.078 59.7877C100.22 60.1556 99.1701 60.3484 97.9101 60.3484C97.1112 60.3515 96.3139 60.2753 95.5301 60.1206C94.9129 60.0139 94.3126 59.8252 93.7451 59.5599C93.684 59.5293 93.6333 59.4814 93.5992 59.4222C93.565 59.3632 93.5488 59.2952 93.5526 59.227V56.1783C93.551 56.1483 93.5566 56.1185 93.5689 56.091C93.581 56.0637 93.5993 56.0395 93.6226 56.0206C93.6473 56.0062 93.6758 56.0001 93.7043 56.0033C93.7327 56.0064 93.7593 56.0187 93.7801 56.0381C94.4542 56.436 95.1864 56.7257 95.9501 56.8967C96.6244 57.0724 97.3184 57.1607 98.0151 57.1595C98.6801 57.1595 99.1526 57.0719 99.4676 56.9142C99.6081 56.8492 99.7271 56.7455 99.811 56.6151C99.8946 56.4847 99.9394 56.3332 99.9401 56.1783C99.9401 55.933 99.8001 55.7052 99.5201 55.4774C99.2401 55.2497 98.6626 54.9868 97.8051 54.6539C96.9254 54.3436 96.0901 53.9194 95.3201 53.3924C94.7717 53.0011 94.3174 52.4923 93.9901 51.9031C93.7108 51.3498 93.5726 50.7358 93.5876 50.1159C93.5902 49.3683 93.7959 48.6353 94.1826 47.9958C94.6271 47.2924 95.2653 46.7327 96.0201 46.3839C96.8426 45.9633 97.8751 45.7706 99.1176 45.7706C99.8439 45.7708 100.569 45.8235 101.288 45.9283C101.804 45.9983 102.31 46.1337 102.793 46.3313C102.869 46.3586 102.932 46.4153 102.968 46.489C102.988 46.5574 102.999 46.628 103.003 46.6992V49.5552C103.003 49.5892 102.995 49.6229 102.98 49.6533C102.965 49.6838 102.942 49.7103 102.915 49.7304C102.813 49.7671 102.702 49.7671 102.6 49.7304Z" fill="#31A8FF"/>
<path d="M76.4375 82.7998H103.563C104.54 82.7989 105.507 82.9909 106.41 83.3648C107.313 83.7387 108.133 84.2871 108.824 84.9788C109.514 85.6705 110.062 86.4917 110.436 87.3956C110.809 88.2995 111.001 89.2682 111 90.2464V116.353C111.001 117.331 110.809 118.3 110.436 119.204C110.062 120.108 109.514 120.929 108.824 121.621C108.133 122.312 107.313 122.861 106.41 123.235C105.507 123.609 104.54 123.801 103.563 123.8H76.4375C75.4605 123.801 74.493 123.609 73.5902 123.235C72.6874 122.861 71.8672 122.312 71.1763 121.621C70.4855 120.929 69.9377 120.108 69.5643 119.204C69.1908 118.3 68.9991 117.331 69 116.353V90.2464C68.9991 89.2682 69.1908 88.2995 69.5643 87.3956C69.9377 86.4917 70.4855 85.6705 71.1763 84.9788C71.8672 84.2871 72.6874 83.7387 73.5902 83.3648C74.493 82.9909 75.4605 82.7989 76.4375 82.7998Z" fill="#330000"/>
<path d="M89.3525 107.4H82.8425L81.5125 111.517C81.4977 111.592 81.4553 111.659 81.3938 111.704C81.3323 111.75 81.256 111.77 81.18 111.762H77.89C77.6975 111.762 77.645 111.657 77.6975 111.447L83.3325 95.2046C83.385 95.0294 83.4375 94.8367 83.5075 94.6264C83.578 94.2509 83.6131 93.8696 83.6125 93.4875C83.6073 93.4437 83.6188 93.3994 83.6448 93.3637C83.6707 93.3279 83.7092 93.3033 83.7525 93.2948H88.285C88.425 93.2948 88.495 93.3474 88.5125 93.435L94.9 111.482C94.9525 111.675 94.9 111.762 94.725 111.762H91.0675C91.0057 111.768 90.9436 111.752 90.8925 111.717C90.8412 111.682 90.8041 111.63 90.7875 111.57L89.3525 107.4ZM83.8575 103.843H88.3025C88.1975 103.475 88.0575 103.037 87.9 102.581C87.7425 102.126 87.585 101.6 87.4275 101.074C87.27 100.549 87.095 100.005 86.92 99.4623C86.745 98.9192 86.5875 98.411 86.4475 97.9029C86.3075 97.3948 86.185 96.9568 86.0625 96.5363H86.0275C85.8702 97.2999 85.6716 98.0545 85.4325 98.7965C85.17 99.6375 84.9075 100.514 84.6275 101.39C84.3825 102.283 84.12 103.107 83.8575 103.843Z" fill="#FF9A00"/>
<path d="M98.715 96.2914C98.4278 96.2977 98.142 96.2467 97.8746 96.1414C97.6072 96.0361 97.3635 95.8786 97.1575 95.6781C96.7566 95.2392 96.5431 94.6607 96.5625 94.0662C96.5522 93.7765 96.6029 93.4879 96.7114 93.2192C96.8201 92.9505 96.9839 92.7078 97.1925 92.5068C97.6132 92.1087 98.1713 91.889 98.75 91.8935C99.4325 91.8935 99.9575 92.1038 100.342 92.5068C100.73 92.9316 100.937 93.491 100.92 94.0662C100.931 94.3622 100.882 94.6574 100.777 94.9342C100.671 95.2111 100.512 95.464 100.307 95.6781C100.101 95.8884 99.8525 96.052 99.5777 96.1578C99.303 96.2636 99.0088 96.3091 98.715 96.2914ZM96.755 111.5V98.0085C96.755 97.8333 96.825 97.7632 96.9825 97.7632H100.447C100.605 97.7632 100.675 97.8508 100.675 98.0085V111.5C100.675 111.693 100.605 111.78 100.447 111.78H97.0175C96.9807 111.783 96.9436 111.778 96.9093 111.765C96.8749 111.751 96.8439 111.73 96.8187 111.704C96.7933 111.677 96.7746 111.644 96.7636 111.609C96.7525 111.574 96.7496 111.537 96.755 111.5Z" fill="#FF9A00"/>
<path d="M243.416 83.5548H240.947L243.515 86.3416V87.6683H238.225V86.1149H240.793L238.225 83.328V82H243.416V83.5548ZM237.177 83.5548H234.707L237.275 86.3416V87.6683H231.985V86.1149H234.554L231.985 83.328V82H237.177V83.5548ZM230.998 83.6183H228.333V86.05H230.998V87.6683H226.439V82H230.998V83.6183Z" fill="#131313"/>
<path d="M222.808 120.627L220.1 90.2558H249.854L247.143 120.622L234.959 124L222.808 120.627Z" fill="#1572B6"/>
<path d="M234.977 121.418L244.823 118.688L247.139 92.7392H234.977V121.418Z" fill="#33A9DC"/>
<path d="M234.977 103.743H239.906L240.247 99.9283H234.977V96.2034H244.317L243.313 107.467H234.977V103.743Z" fill="white"/>
<path d="M234.999 113.416L234.983 113.421L230.835 112.301L230.569 109.33H226.831L227.353 115.178L234.982 117.296L235 117.291L234.999 113.416Z" fill="#EBEBEB"/>
<path d="M239.589 107.309L239.141 112.298L234.986 113.419V117.294L242.622 115.178L243.327 107.309H239.589Z" fill="white"/>
<path d="M234.99 96.2034V99.928H225.993L225.659 96.2034H234.99ZM234.977 103.743V107.467L230.881 107.468L230.547 103.743L234.977 103.743Z" fill="#EBEBEB"/>
<path fill-rule="evenodd" clip-rule="evenodd" d="M330.836 83C323.221 83 317.045 89.174 317.045 96.7907C317.045 102.884 320.997 108.053 326.476 109.876C327.165 110.004 327.419 109.577 327.419 109.213C327.419 108.884 327.406 107.798 327.4 106.646C323.563 107.48 322.754 105.018 322.754 105.018C322.126 103.424 321.222 103 321.222 103C319.971 102.145 321.316 102.162 321.316 102.162C322.701 102.259 323.431 103.583 323.431 103.583C324.66 105.692 326.657 105.082 327.444 104.73C327.568 103.838 327.925 103.229 328.319 102.885C325.256 102.537 322.036 101.354 322.036 96.0698C322.036 94.5641 322.575 93.334 323.457 92.3681C323.314 92.0206 322.842 90.6177 323.591 88.7182C323.591 88.7182 324.749 88.348 327.383 90.1325C328.484 89.8268 329.664 89.6735 330.835 89.6683C332.008 89.6738 333.188 89.8271 334.29 90.1325C336.922 88.3484 338.079 88.7185 338.079 88.7185C338.829 90.618 338.357 92.0206 338.214 92.3684C339.098 93.3337 339.633 94.5641 339.633 96.0701C339.633 101.367 336.407 102.533 333.336 102.874C333.831 103.302 334.272 104.141 334.272 105.428C334.272 107.273 334.256 108.758 334.256 109.212C334.256 109.578 334.504 110.009 335.203 109.873C340.68 108.048 344.626 102.88 344.626 96.7894C344.627 89.1743 338.452 83 330.836 83Z" fill="#181616"/>
<path d="M322.269 102.8C322.238 102.869 322.13 102.889 322.032 102.842C321.932 102.797 321.876 102.704 321.909 102.635C321.938 102.565 322.046 102.545 322.146 102.592C322.247 102.637 322.303 102.731 322.269 102.8ZM322.828 103.424C322.762 103.484 322.633 103.456 322.546 103.359C322.455 103.263 322.439 103.134 322.505 103.073C322.573 103.012 322.698 103.04 322.787 103.137C322.878 103.234 322.896 103.362 322.828 103.424ZM323.371 104.217C323.287 104.276 323.148 104.221 323.063 104.098C322.978 103.976 322.978 103.829 323.065 103.77C323.15 103.711 323.287 103.764 323.373 103.886C323.458 104.01 323.458 104.157 323.371 104.217ZM324.116 104.985C324.04 105.068 323.879 105.046 323.762 104.932C323.641 104.821 323.608 104.663 323.683 104.58C323.76 104.496 323.922 104.52 324.04 104.632C324.16 104.743 324.197 104.902 324.116 104.985ZM325.144 105.43C325.11 105.538 324.956 105.587 324.799 105.542C324.643 105.494 324.541 105.368 324.572 105.259C324.605 105.15 324.761 105.099 324.918 105.148C325.074 105.195 325.176 105.32 325.144 105.43ZM326.272 105.513C326.276 105.626 326.144 105.721 325.98 105.723C325.815 105.727 325.682 105.635 325.68 105.522C325.68 105.408 325.809 105.314 325.974 105.312C326.138 105.309 326.272 105.4 326.272 105.513ZM327.322 105.334C327.342 105.445 327.228 105.559 327.065 105.589C326.905 105.619 326.757 105.55 326.737 105.44C326.717 105.327 326.833 105.213 326.993 105.183C327.156 105.155 327.302 105.221 327.322 105.334Z" fill="#181616"/>
<path d="M318.148 117.615H314.679C314.636 117.615 314.595 117.633 314.565 117.663C314.534 117.693 314.517 117.735 314.517 117.778V119.473C314.517 119.516 314.534 119.558 314.565 119.588C314.595 119.618 314.636 119.636 314.679 119.636H316.032V121.742C316.032 121.742 315.728 121.846 314.888 121.846C313.897 121.846 312.513 121.484 312.513 118.44C312.513 115.395 313.954 114.994 315.308 114.994C316.479 114.994 316.984 115.201 317.305 115.3C317.406 115.331 317.5 115.23 317.5 115.141L317.887 113.502C317.887 113.478 317.882 113.453 317.871 113.431C317.86 113.409 317.844 113.39 317.824 113.376C317.694 113.282 316.898 112.838 314.888 112.838C312.573 112.838 310.197 113.822 310.197 118.559C310.197 123.294 312.917 124 315.209 124C317.106 124 318.257 123.189 318.257 123.189C318.304 123.163 318.31 123.097 318.31 123.066V117.777C318.31 117.734 318.293 117.693 318.262 117.663C318.232 117.632 318.191 117.615 318.148 117.615ZM335.862 113.242H333.909C333.888 113.242 333.867 113.247 333.847 113.255C333.827 113.263 333.809 113.275 333.794 113.29C333.779 113.305 333.768 113.323 333.76 113.343C333.752 113.363 333.747 113.384 333.748 113.405L333.748 117.18H330.704V113.405C330.704 113.384 330.7 113.363 330.692 113.343C330.684 113.323 330.672 113.305 330.657 113.29C330.642 113.275 330.624 113.263 330.605 113.255C330.585 113.247 330.564 113.242 330.543 113.242H328.59C328.568 113.242 328.547 113.247 328.528 113.255C328.508 113.263 328.49 113.275 328.475 113.29C328.46 113.305 328.448 113.323 328.44 113.343C328.432 113.363 328.428 113.384 328.428 113.405V123.625C328.428 123.715 328.501 123.788 328.59 123.788H330.543C330.564 123.788 330.585 123.784 330.605 123.776C330.624 123.767 330.642 123.755 330.657 123.74C330.672 123.725 330.684 123.707 330.692 123.687C330.7 123.668 330.704 123.646 330.704 123.625V119.254H333.748L333.743 123.625C333.743 123.715 333.816 123.788 333.905 123.788H335.862C335.884 123.788 335.905 123.784 335.924 123.776C335.944 123.767 335.962 123.755 335.977 123.74C335.992 123.725 336.003 123.707 336.011 123.687C336.019 123.668 336.024 123.646 336.023 123.625V113.405C336.024 113.384 336.02 113.362 336.012 113.343C336.004 113.323 335.992 113.305 335.977 113.29C335.962 113.275 335.944 113.263 335.924 113.255C335.905 113.246 335.884 113.242 335.862 113.242ZM320.574 113.475C319.879 113.475 319.315 114.043 319.315 114.746C319.315 115.449 319.879 116.018 320.574 116.018C321.269 116.018 321.833 115.449 321.833 114.746C321.833 114.043 321.269 113.475 320.574 113.475ZM321.532 116.589H319.585C319.496 116.589 319.416 116.681 319.416 116.77V123.529C319.416 123.728 319.54 123.787 319.7 123.787H321.453C321.646 123.787 321.693 123.693 321.693 123.526V116.752C321.693 116.731 321.689 116.71 321.681 116.69C321.673 116.67 321.661 116.652 321.646 116.637C321.631 116.622 321.614 116.61 321.594 116.602C321.574 116.594 321.553 116.589 321.532 116.589ZM343.446 116.604H341.508C341.486 116.604 341.465 116.609 341.446 116.617C341.426 116.625 341.408 116.637 341.393 116.653C341.378 116.668 341.367 116.686 341.359 116.705C341.351 116.725 341.347 116.746 341.347 116.768V121.779C341.347 121.779 340.854 122.139 340.156 122.139C339.457 122.139 339.272 121.822 339.272 121.138V116.768C339.272 116.746 339.268 116.725 339.26 116.705C339.252 116.686 339.24 116.668 339.225 116.652C339.21 116.637 339.192 116.625 339.173 116.617C339.153 116.609 339.132 116.604 339.111 116.604H337.144C337.101 116.604 337.059 116.622 337.029 116.652C336.999 116.683 336.982 116.724 336.982 116.768V121.468C336.982 123.501 338.115 123.998 339.673 123.998C340.952 123.998 341.982 123.291 341.982 123.291C341.982 123.291 342.031 123.664 342.054 123.708C342.076 123.752 342.134 123.796 342.196 123.796L343.448 123.791C343.469 123.791 343.49 123.786 343.51 123.778C343.529 123.77 343.547 123.758 343.562 123.743C343.577 123.727 343.589 123.709 343.597 123.69C343.606 123.67 343.61 123.649 343.61 123.627L343.609 116.767C343.608 116.724 343.591 116.682 343.561 116.652C343.531 116.621 343.489 116.604 343.446 116.604ZM348.743 116.375C347.642 116.375 346.893 116.866 346.893 116.866V113.405C346.894 113.384 346.89 113.362 346.882 113.343C346.874 113.323 346.862 113.305 346.847 113.29C346.832 113.275 346.814 113.263 346.794 113.255C346.775 113.246 346.754 113.242 346.732 113.242H344.774C344.753 113.242 344.732 113.246 344.712 113.254C344.692 113.262 344.674 113.274 344.659 113.29C344.644 113.305 344.632 113.323 344.624 113.343C344.616 113.362 344.612 113.383 344.612 113.405V123.625C344.612 123.646 344.616 123.668 344.624 123.687C344.632 123.707 344.644 123.725 344.659 123.74C344.674 123.755 344.692 123.768 344.712 123.776C344.732 123.784 344.753 123.788 344.774 123.788H346.133C346.195 123.788 346.241 123.757 346.275 123.701C346.308 123.646 346.357 123.23 346.357 123.23C346.357 123.23 347.158 123.988 348.674 123.988C350.454 123.988 351.475 123.086 351.475 119.936C351.475 116.786 349.844 116.375 348.743 116.375ZM347.978 122.133C347.306 122.112 346.85 121.807 346.85 121.807V118.571C346.85 118.571 347.3 118.295 347.852 118.245C348.55 118.183 349.222 118.394 349.222 120.059C349.222 121.814 348.919 122.161 347.978 122.133ZM327.334 122.094C327.248 122.094 327.03 122.129 326.805 122.129C326.086 122.129 325.842 121.795 325.842 121.362V118.488H327.307C327.328 118.488 327.349 118.484 327.369 118.475C327.389 118.467 327.407 118.455 327.422 118.44C327.437 118.425 327.449 118.407 327.457 118.387C327.465 118.367 327.469 118.346 327.469 118.324V116.75C327.469 116.729 327.465 116.708 327.457 116.688C327.449 116.668 327.437 116.65 327.422 116.635C327.407 116.62 327.389 116.608 327.369 116.6C327.349 116.592 327.328 116.588 327.307 116.588H325.842L325.839 114.652C325.839 114.579 325.802 114.542 325.717 114.542H323.72C323.643 114.542 323.601 114.577 323.601 114.651V116.651C323.601 116.651 322.601 116.892 322.533 116.912C322.5 116.922 322.47 116.942 322.449 116.97C322.428 116.998 322.416 117.032 322.416 117.067V118.324C322.416 118.345 322.42 118.366 322.428 118.386C322.436 118.406 322.448 118.424 322.463 118.439C322.478 118.454 322.496 118.466 322.516 118.474C322.535 118.483 322.556 118.487 322.578 118.487H323.601V121.511C323.601 123.757 325.177 123.977 326.24 123.977C326.725 123.977 327.306 123.822 327.402 123.786C327.46 123.764 327.494 123.705 327.494 123.639L327.495 122.257C327.494 122.214 327.477 122.173 327.447 122.143C327.417 122.112 327.377 122.095 327.334 122.094Z" fill="#100E0F"/>
<path d="M223.175 68.67L220.501 38.6884H249.874L247.198 68.6654L235.17 71.9998L223.175 68.67Z" fill="#E44D26"/>
<path d="M235.188 69.4508L244.907 66.7561L247.194 41.1399H235.188V69.4508Z" fill="#F16529"/>
<path d="M235.188 52.26H230.322L229.986 48.4941H235.188V44.817H225.967L226.959 55.9368H235.188V52.26ZM235.188 61.8094L235.171 61.8137L231.077 60.7077L230.815 57.7753H227.123L227.638 63.5489L235.171 65.6401L235.188 65.6351V61.8094Z" fill="#EBEBEB"/>
<path d="M223.234 30H225.103V31.8465H226.812V30H228.681V35.5908H226.812V33.7187H225.103V35.5908H223.234V30ZM231.138 31.8542H229.493V30H234.653V31.8542H233.007V35.5908H231.138V31.8542ZM235.472 30H237.42L238.619 31.9645L239.816 30H241.765V35.5908H239.904V32.8197L238.619 34.8074H238.586L237.3 32.8197V35.5908H235.471L235.472 30ZM242.696 30H244.565V33.7429H247.193V35.5911H242.696V30Z" fill="black"/>
<path d="M235.175 52.26V55.9368H239.703L239.276 60.7057L235.175 61.8127V65.6381L242.713 63.5489L243.633 53.2471L243.722 52.26H235.175ZM235.175 44.817V48.4941H244.057L244.131 47.6676L244.386 44.817H235.175Z" fill="white"/>
<path d="M260 31H302V73.0003H260V31Z" fill="#F0DB4F"/>
<path d="M298.563 62.9831C298.255 61.067 297.006 59.4576 293.305 57.9568C292.019 57.366 290.586 56.9429 290.159 55.9686C290.007 55.4016 289.987 55.0822 290.083 54.739C290.358 53.6251 291.688 53.2779 292.742 53.5973C293.42 53.8248 294.063 54.3478 294.45 55.1822C296.263 54.0086 296.259 54.0163 297.525 53.2098C297.061 52.4915 296.814 52.16 296.511 51.8526C295.421 50.6351 293.935 50.008 291.56 50.056L290.323 50.2161C289.137 50.5157 288.007 51.138 287.344 51.9724C285.356 54.2284 285.923 58.1766 288.342 59.8015C290.726 61.5904 294.227 61.9973 294.674 63.6702C295.11 65.7181 293.169 66.3811 291.241 66.1455C289.82 65.85 289.029 65.1276 288.175 63.8141C286.602 64.7243 286.602 64.7243 284.985 65.6544C285.368 66.4928 285.771 66.8723 286.414 67.5986C289.456 70.6846 297.07 70.533 298.435 65.862C298.491 65.7017 298.858 64.6321 298.563 62.9831ZM282.832 50.3033H278.904L278.888 60.4597C278.888 62.6197 279 64.5999 278.648 65.2068C278.074 66.4005 276.584 66.2526 275.906 66.0211C275.215 65.6815 274.864 65.1987 274.457 64.5163C274.345 64.3204 274.261 64.1687 274.233 64.157L271.039 66.113C271.57 67.2031 272.352 68.1492 273.354 68.7638C274.851 69.6623 276.863 69.9378 278.968 69.4546C280.337 69.0557 281.519 68.2294 282.138 66.9716C283.032 65.3225 282.84 63.3266 282.832 61.119C282.852 57.5173 282.832 53.9163 282.832 50.3033Z" fill="#323330"/>
<path d="M329.414 49.5019C331.151 49.5019 332.56 48.0935 332.56 46.3562C332.56 44.6189 331.151 43.2106 329.414 43.2106C327.677 43.2106 326.268 44.6189 326.268 46.3562C326.268 48.0935 327.677 49.5019 329.414 49.5019Z" fill="#61DAFB"/>
<path d="M329.414 57.9243C331.883 60.3259 334.319 61.7465 336.28 61.7465C336.923 61.7465 337.532 61.6112 338.039 61.3068C339.798 60.292 340.441 57.7552 339.832 54.136C339.73 53.4933 339.595 52.8506 339.426 52.1742C340.102 51.9712 340.711 51.7683 341.32 51.5653C344.736 50.2462 346.631 48.4196 346.631 46.424C346.631 44.3945 344.736 42.568 341.32 41.2827C340.711 41.0459 340.102 40.8429 339.426 40.6738C339.595 39.9973 339.73 39.3547 339.832 38.712C340.407 35.0251 339.764 32.4545 338.005 31.4397C337.498 31.1353 336.889 31 336.246 31C334.318 31 331.849 32.4206 329.38 34.8222C326.945 32.4206 324.509 31 322.548 31C321.905 31 321.296 31.1353 320.789 31.4397C319.03 32.4545 318.387 34.9913 318.996 38.6105C319.097 39.2532 319.233 39.8958 319.402 40.5723C318.725 40.7753 318.117 40.9782 317.508 41.1812C314.091 42.5003 312.197 44.3269 312.197 46.3225C312.197 48.352 314.091 50.1785 317.508 51.4638C318.117 51.7006 318.725 51.9036 319.402 52.0727C319.233 52.7492 319.097 53.3918 318.996 54.0345C318.421 57.6537 319.064 60.2244 320.789 61.2053C321.296 61.5097 321.905 61.645 322.548 61.645C324.509 61.7127 326.945 60.292 329.414 57.9243ZM327.52 53.358C328.129 53.3918 328.771 53.3918 329.414 53.3918C330.057 53.3918 330.699 53.3918 331.308 53.358C330.699 54.1698 330.057 54.9139 329.414 55.6243C328.771 54.9139 328.129 54.1698 327.52 53.358ZM323.326 49.8741C323.664 50.4491 323.968 50.9903 324.34 51.5315C323.292 51.3962 322.311 51.2271 321.364 51.0241C321.668 50.1109 322.006 49.1638 322.412 48.2167C322.683 48.7579 322.987 49.3329 323.326 49.8741ZM321.364 41.7224C322.311 41.5194 323.292 41.3503 324.34 41.215C324.002 41.7562 323.664 42.2974 323.326 42.8724C322.987 43.4474 322.683 43.9886 322.412 44.5636C321.973 43.5827 321.634 42.6356 321.364 41.7224ZM323.224 46.3563C323.664 45.4431 324.137 44.5298 324.679 43.6165C325.186 42.7371 325.761 41.8577 326.336 40.9782C327.351 40.9106 328.365 40.8768 329.414 40.8768C330.496 40.8768 331.511 40.9106 332.492 40.9782C333.101 41.8577 333.642 42.7371 334.149 43.6165C334.691 44.5298 335.164 45.4431 335.604 46.3563C335.164 47.2696 334.691 48.1829 334.149 49.0961C333.642 49.9756 333.067 50.855 332.492 51.7344C331.477 51.8021 330.463 51.8359 329.414 51.8359C328.332 51.8359 327.317 51.8021 326.336 51.7344C325.727 50.855 325.186 49.9756 324.679 49.0961C324.137 48.1829 323.664 47.2696 323.224 46.3563ZM336.449 44.5298L335.536 42.8386C335.198 42.2636 334.894 41.7224 334.521 41.1812C335.57 41.3165 336.551 41.4856 337.498 41.6885C337.194 42.6356 336.855 43.5827 336.449 44.5298ZM336.449 48.1829C336.855 49.1299 337.194 50.077 337.498 50.9903C336.551 51.1932 335.57 51.3624 334.521 51.4977C334.86 50.9565 335.198 50.4153 335.536 49.8403C335.841 49.3329 336.145 48.7579 336.449 48.1829ZM337.227 59.92C336.957 60.0891 336.619 60.1567 336.246 60.1567C334.589 60.1567 332.526 58.8038 330.496 56.7743C331.477 55.7257 332.424 54.5419 333.371 53.2227C334.961 53.0874 336.483 52.8506 337.904 52.5124C338.073 53.1212 338.174 53.7301 338.276 54.3389C338.75 57.214 338.377 59.2773 337.227 59.92ZM338.986 42.0944C342.775 43.1768 345.041 44.8342 345.041 46.3563C345.041 47.6755 343.485 48.9946 340.745 50.0432C340.204 50.2462 339.595 50.4491 338.986 50.6182C338.547 49.2314 338.005 47.8108 337.329 46.3563C338.005 44.9019 338.58 43.4813 338.986 42.0944ZM336.28 32.5559C336.652 32.5559 336.957 32.6236 337.261 32.7927C338.377 33.4354 338.783 35.4648 338.31 38.3737C338.208 38.9488 338.073 39.5576 337.938 40.2003C336.517 39.8958 334.995 39.6591 333.405 39.49C332.492 38.1708 331.511 36.9869 330.53 35.9384C332.56 33.9427 334.623 32.5559 336.28 32.5559ZM331.308 39.3547C330.699 39.3208 330.057 39.3208 329.414 39.3208C328.771 39.3208 328.129 39.3208 327.52 39.3547C328.129 38.5429 328.771 37.7987 329.414 37.0884C330.057 37.7987 330.699 38.5767 331.308 39.3547ZM321.6 32.7927C321.871 32.6236 322.209 32.5559 322.581 32.5559C324.239 32.5559 326.302 33.9089 328.332 35.9384C327.351 36.9869 326.404 38.1708 325.456 39.49C323.867 39.6253 322.345 39.862 320.924 40.2003C320.755 39.5914 320.653 38.9826 320.552 38.3737C320.078 35.4987 320.45 33.4692 321.6 32.7927ZM319.842 50.6182C316.053 49.5358 313.787 47.8784 313.787 46.3563C313.787 45.0372 315.343 43.718 318.083 42.6695C318.624 42.4665 319.233 42.2636 319.842 42.0944C320.281 43.4813 320.823 44.9019 321.499 46.3563C320.823 47.8108 320.248 49.2652 319.842 50.6182ZM320.552 54.3389C320.653 53.7639 320.789 53.1551 320.924 52.5124C322.345 52.8168 323.867 53.0536 325.456 53.2227C326.37 54.5419 327.351 55.7257 328.332 56.7743C326.302 58.7699 324.239 60.1567 322.581 60.1567C322.209 60.1567 321.905 60.0891 321.6 59.92C320.45 59.2773 320.078 57.214 320.552 54.3389ZM319.131 68.2746C319.875 67.3614 319.909 66.3466 319.503 65.3319C319.097 64.3172 318.252 63.8436 317.203 63.8098C315.952 63.776 314.666 63.8098 313.415 63.8098H313.178V72.5703H314.193V69.2555H315.783C315.986 69.2555 316.155 69.3232 316.256 69.4923L318.286 72.638C318.319 72.7056 318.421 72.8071 318.489 72.8071H319.808C318.996 71.5556 318.218 70.3717 317.406 69.1541C318.117 69.0526 318.725 68.8158 319.131 68.2746ZM314.193 68.207V64.8583H314.565C315.343 64.8583 316.155 64.8245 316.933 64.8922C317.846 64.926 318.489 65.6363 318.489 66.5496C318.489 67.4628 317.744 68.1732 316.831 68.207C316.019 68.2408 315.208 68.207 314.193 68.207ZM327.283 68.6467C326.742 66.279 324.577 65.6701 322.92 66.4143C321.634 66.9893 321.059 68.1055 321.025 69.4923C320.992 70.5409 321.296 71.488 322.108 72.1983C323.021 73.0101 324.137 73.1115 325.287 72.9086C325.93 72.7733 326.505 72.4689 326.945 71.9953C326.776 71.7586 326.607 71.5218 326.437 71.3188C325.49 72.1306 324.442 72.4012 323.292 71.86C322.548 71.488 322.175 70.5747 322.108 69.8982H327.351V69.4585C327.384 69.1541 327.351 68.8835 327.283 68.6467ZM322.175 69.1879C322.074 68.1732 323.089 67.0908 324.205 67.0908C325.49 67.0569 326.302 67.8349 326.336 69.1879H322.175ZM332.56 66.2452C332.052 66.1437 331.511 66.1099 331.004 66.1437C330.192 66.2113 329.482 66.5834 328.907 67.1922C329.076 67.429 329.211 67.6658 329.414 67.9364C329.482 67.8687 329.549 67.8011 329.617 67.7673C330.158 67.2599 330.801 66.9893 331.579 67.0569C332.188 67.0908 332.763 67.2937 332.932 67.9026C333.067 68.3761 333.033 68.8835 333.067 69.3908C332.966 69.3908 332.932 69.357 332.898 69.3232C332.086 68.6467 331.173 68.5114 330.192 68.7482C329.279 68.9849 328.704 69.6953 328.636 70.6085C328.568 71.6571 329.042 72.435 329.955 72.8071C330.53 73.0439 331.173 73.0439 331.782 72.9086C332.255 72.8071 332.458 72.5365 333.135 72.1644V72.6042H334.082C334.082 71.2512 334.116 69.5938 334.082 68.0379C334.082 67.0569 333.507 66.4481 332.56 66.2452ZM333.033 70.507C332.999 70.6085 333.033 70.71 333.033 70.8115C333.033 71.5218 332.864 71.7586 332.188 72.0291C331.714 72.1983 331.207 72.2659 330.699 72.0968C330.124 71.9277 329.718 71.4203 329.718 70.8453C329.685 70.2703 330.057 69.6953 330.632 69.5261C331.41 69.2555 332.12 69.4247 332.763 69.8982C332.966 70.0673 333.101 70.2364 333.033 70.507ZM338.31 67.1584C339.189 66.8878 340.001 67.0569 340.61 67.8011L340.711 67.8687C340.948 67.6658 341.151 67.4628 341.422 67.2261C341.32 67.1246 341.286 67.0569 341.219 66.9555C340.238 65.9069 338.31 65.7716 337.126 66.6172C335.469 67.8349 335.502 70.2026 336.314 71.4541C337.092 72.638 338.208 73.0439 339.527 72.8748C340.305 72.7733 340.948 72.4012 341.455 71.7586C341.219 71.5556 340.982 71.3527 340.745 71.1159C340.677 71.1835 340.644 71.2174 340.61 71.285C339.697 72.2997 338.174 72.1983 337.363 71.1159C336.889 70.4732 336.788 69.7291 336.923 68.9849C336.991 68.1393 337.43 67.4628 338.31 67.1584ZM345.345 71.7586C345.278 71.7924 345.244 71.8262 345.244 71.8262C344.973 72.0291 344.703 72.063 344.398 71.9615C344.094 71.8262 344.06 71.5556 344.026 71.285V67.429C344.026 67.3614 344.026 67.4967 344.06 67.1584H345.345V66.1437H343.992V64.4525H342.978V66.279H342.098C342.03 66.279 341.929 66.3466 341.929 66.4143C341.895 66.6511 341.929 66.8202 341.929 67.1584H343.011V71.488C343.011 72.0291 343.147 72.5027 343.62 72.7733C344.128 73.0777 345.109 73.0101 345.548 72.638C345.616 72.6042 345.65 72.4689 345.65 72.435C345.548 72.2321 345.447 71.9953 345.345 71.7586Z" fill="#61DAFB"/>
<path d="M302 103.8C302 115.122 292.822 124.3 281.5 124.3C270.178 124.3 261 115.122 261 103.8C261 92.4782 270.178 83.3 281.5 83.3C292.822 83.3 302 92.4782 302 103.8Z" fill="#F1F1F1"/>
<path d="M294.759 103.293C293.706 103.295 292.668 103.535 291.722 103.997C291.426 103.506 291.198 102.977 291.043 102.425C290.954 101.992 290.933 101.547 290.982 101.108C291.084 100.625 291.217 100.148 291.379 99.6814C291.373 99.6204 291.306 99.332 290.632 99.3224C289.958 99.3128 289.378 99.4505 289.316 99.6288C289.199 99.9545 289.105 100.288 289.034 100.627C288.477 102.003 287.79 103.323 286.984 104.569C286.533 103.829 286.347 102.957 286.458 102.097C286.56 101.613 286.693 101.137 286.855 100.67C286.849 100.609 286.782 100.321 286.108 100.311C285.434 100.301 284.854 100.439 284.792 100.617C284.729 100.796 284.65 101.216 284.51 101.615C284.37 102.015 282.736 105.668 282.307 106.61C282.087 107.089 281.897 107.479 281.763 107.742C281.756 107.759 281.748 107.776 281.739 107.791C281.619 108.017 281.555 108.141 281.555 108.141V108.147C281.463 108.312 281.365 108.465 281.316 108.465C281.231 108.123 281.235 107.765 281.328 107.425C281.567 106.157 282.154 104.187 282.148 104.119C282.148 104.082 282.258 103.74 281.769 103.563C281.655 103.509 281.527 103.491 281.404 103.513C281.28 103.534 281.166 103.593 281.077 103.682C281.034 103.682 281.004 103.787 281.004 103.787C281.004 103.787 281.536 101.571 279.988 101.571C279.385 101.693 278.812 101.933 278.303 102.279C277.794 102.625 277.36 103.069 277.026 103.585C276.609 103.812 275.722 104.295 274.773 104.816C274.414 105.018 274.038 105.22 273.69 105.414C273.666 105.39 273.641 105.359 273.617 105.335C271.732 103.327 268.267 101.91 268.417 99.2231C268.472 98.2441 268.808 95.6733 275.07 92.5508C280.223 90.0112 284.325 90.7149 285.035 92.2755C286.051 94.504 282.837 98.6414 277.513 99.241C276.924 99.3605 276.315 99.3461 275.732 99.1988C275.15 99.0515 274.608 98.7751 274.146 98.3901C273.865 98.0837 273.822 98.0657 273.718 98.1268C273.546 98.2189 273.656 98.4942 273.718 98.6534C273.921 99.021 274.195 99.3441 274.526 99.6038C274.856 99.8634 275.234 100.054 275.64 100.165C277.734 100.618 279.918 100.401 281.883 99.5462C285.115 98.2979 287.628 94.8272 286.891 91.9201C286.15 88.9699 281.254 87.9969 276.62 89.6461C273.717 90.6228 271.035 92.1612 268.727 94.1737C266.174 96.5613 265.771 98.6354 265.936 99.5055C266.534 102.591 270.784 104.598 272.485 106.088C272.399 106.137 272.32 106.18 272.253 106.216C271.402 106.639 268.158 108.334 267.346 110.127C266.428 112.162 267.493 113.616 268.197 113.812C269.257 114.066 270.37 113.982 271.381 113.573C272.391 113.164 273.249 112.449 273.834 111.529C274.332 110.765 274.638 109.893 274.726 108.986C274.814 108.079 274.682 107.164 274.34 106.319C274.334 106.305 274.326 106.293 274.316 106.282L274.983 105.891C275.417 105.633 275.845 105.395 276.213 105.199C275.964 105.917 275.817 106.668 275.778 107.427C275.694 108.591 276.05 109.745 276.777 110.659C276.887 110.754 277.015 110.826 277.154 110.871C277.293 110.916 277.439 110.934 277.584 110.922C278.303 110.922 278.632 110.324 278.992 109.613C279.432 108.744 279.83 107.734 279.83 107.734C279.83 107.734 279.334 110.464 280.681 110.464C281.17 110.464 281.666 109.827 281.887 109.506V109.512C281.887 109.512 281.899 109.494 281.924 109.451L282.003 109.323V109.311C282.199 108.969 282.64 108.191 283.294 106.899C284.139 105.235 284.953 103.153 284.953 103.153C285.032 103.611 285.14 104.063 285.278 104.506C285.475 105.043 285.708 105.566 285.975 106.072C285.779 106.348 285.657 106.501 285.657 106.501L285.663 106.507C285.504 106.715 285.333 106.941 285.142 107.162C284.576 107.784 284.051 108.442 283.57 109.133C283.498 109.249 283.474 109.387 283.501 109.521C283.528 109.654 283.606 109.772 283.717 109.851C283.969 109.982 284.256 110.029 284.537 109.986C284.96 109.962 285.376 109.867 285.767 109.705C286.145 109.572 286.502 109.384 286.826 109.148C287.16 108.917 287.429 108.603 287.607 108.238C287.785 107.872 287.866 107.467 287.842 107.061C287.805 106.55 287.674 106.05 287.457 105.585C287.518 105.499 287.577 105.414 287.634 105.328C288.315 104.312 288.928 103.253 289.47 102.158C289.549 102.615 289.657 103.067 289.794 103.51C289.957 103.974 290.157 104.425 290.393 104.856C289.61 105.459 288.993 106.25 288.601 107.157C288.216 108.271 288.515 108.772 289.08 108.889C289.389 108.91 289.698 108.847 289.974 108.705C290.379 108.572 290.762 108.376 291.106 108.124C291.469 107.909 291.774 107.608 291.992 107.247C292.209 106.886 292.334 106.476 292.354 106.054C292.327 105.634 292.232 105.22 292.073 104.83C293.106 104.427 294.226 104.298 295.324 104.457C298.237 104.799 298.812 106.617 298.702 107.383C298.651 107.654 298.541 107.912 298.382 108.138C298.223 108.364 298.017 108.553 297.778 108.692C297.576 108.82 297.509 108.863 297.527 108.956C297.551 109.091 297.647 109.084 297.82 109.06C298.259 108.923 298.647 108.657 298.931 108.296C299.216 107.935 299.384 107.496 299.414 107.037C299.507 105.242 297.793 103.273 294.762 103.291L294.759 103.293ZM272.283 110.867C271.316 111.92 269.969 112.317 269.387 111.981C268.763 111.622 269.008 110.066 270.195 108.951C270.9 108.317 271.661 107.749 272.469 107.255C272.61 107.169 272.819 107.047 273.068 106.896L273.135 106.859L273.282 106.767C273.494 107.477 273.513 108.232 273.338 108.952C273.162 109.673 272.798 110.334 272.283 110.867ZM279.321 106.08C278.985 106.899 278.281 109 277.853 108.883C277.485 108.784 277.254 107.193 277.78 105.62C278.045 104.863 278.431 104.154 278.924 103.521C279.45 102.933 280.032 102.737 280.172 102.976C280.044 104.047 279.757 105.093 279.321 106.08ZM285.129 108.859C284.988 108.932 284.854 108.978 284.793 108.945C284.75 108.921 284.854 108.825 284.854 108.825C284.854 108.825 285.583 108.041 285.87 107.687C286.035 107.479 286.229 107.235 286.44 106.958V107.037C286.44 107.973 285.534 108.604 285.13 108.861L285.129 108.859ZM289.61 107.837C289.506 107.764 289.524 107.518 289.873 106.753C290.116 106.262 290.456 105.825 290.871 105.468C290.935 105.649 290.968 105.84 290.97 106.032C290.974 106.441 290.844 106.839 290.598 107.166C290.352 107.493 290.005 107.729 289.611 107.838L289.61 107.837Z" fill="#CD6799"/>
<defs>
<linearGradient id="paint0_linear_37_12295" x1="208.255" y1="91.9093" x2="207.519" y2="124.955" gradientUnits="userSpaceOnUse">
<stop stop-color="#FD5200"/>
<stop offset="0.2722" stop-color="#FFDC38"/>
<stop offset="0.9626" stop-color="#F3FEAB"/>
</linearGradient>
<linearGradient id="paint1_linear_37_12295" x1="44592.1" y1="-2897.98" x2="44579.6" y2="-130.226" gradientUnits="userSpaceOnUse">
<stop offset="0.4072" stop-color="#9E010A"/>
<stop offset="0.6244" stop-color="#FC56A4"/>
<stop offset="0.689" stop-color="#F2A780"/>
<stop offset="0.7431" stop-color="#FFC78A"/>
</linearGradient>
<linearGradient id="paint2_linear_37_12295" x1="222.968" y1="50.6357" x2="220.228" y2="110.618" gradientUnits="userSpaceOnUse">
<stop offset="0.4072" stop-color="#9E010A"/>
<stop offset="0.6244" stop-color="#FC56A4"/>
<stop offset="0.689" stop-color="#F2A780"/>
<stop offset="0.7431" stop-color="#FFC78A"/>
</linearGradient>
<linearGradient id="paint3_linear_37_12295" x1="272.565" y1="63.2455" x2="222.724" y2="171.794" gradientUnits="userSpaceOnUse">
<stop offset="0.0753769" stop-color="#0C64CC"/>
<stop offset="0.3348" stop-color="#1F9FE3"/>
<stop offset="0.4851" stop-color="#1B9DEB"/>
<stop offset="0.7569" stop-color="#72F07F"/>
<stop offset="0.8584" stop-color="#DBFEC8"/>
<stop offset="0.9913" stop-color="#F6F9B1"/>
</linearGradient>
<linearGradient id="paint4_linear_37_12295" x1="268.443" y1="88.5452" x2="242.613" y2="41.7345" gradientUnits="userSpaceOnUse">
<stop offset="0.0251256" stop-color="#4226A2"/>
<stop offset="0.2769" stop-color="#7357CB"/>
<stop offset="0.4721" stop-color="#4783DF"/>
<stop offset="0.5228" stop-color="#3B8FE4"/>
<stop offset="0.5797" stop-color="#3B9DE4"/>
<stop offset="0.6561" stop-color="#3BA7E4"/>
<stop offset="0.7412" stop-color="#3BABE4"/>
</linearGradient>
<linearGradient id="paint5_linear_37_12295" x1="58326.2" y1="677.942" x2="58272.7" y2="-1154.51" gradientUnits="userSpaceOnUse">
<stop stop-color="#4226A2"/>
<stop offset="0.3221" stop-color="#7357CB"/>
<stop offset="0.6283" stop-color="#3B8FE4"/>
</linearGradient>
<linearGradient id="paint6_linear_37_12295" x1="355.881" y1="43.5061" x2="287.292" y2="205.563" gradientUnits="userSpaceOnUse">
<stop stop-color="#7C4ADF"/>
<stop offset="0.3459" stop-color="#E251D8"/>
<stop offset="0.7297" stop-color="#FCDFBC"/>
<stop offset="0.8312" stop-color="#F6F8B0"/>
<stop offset="0.9186" stop-color="#FFFFF2"/>
<stop offset="0.9894" stop-color="#F6F8B0"/>
</linearGradient>
</defs>
</svg>
