<svg width="568" height="41" viewBox="0 0 568 41" fill="none" xmlns="http://www.w3.org/2000/svg">
<path d="M7.4375 3.30467e-06H34.5625C35.5395 -0.000918618 36.5071 0.191064 37.4097 0.564963C38.3126 0.938862 39.1328 1.48734 39.8237 2.179C40.5144 2.87067 41.0623 3.69193 41.4358 4.59581C41.8092 5.49968 42.0009 6.46842 42 7.44659V33.5534C42.0009 34.5316 41.8092 35.5004 41.4358 36.4042C41.0623 37.3081 40.5144 38.1293 39.8237 38.821C39.1328 39.5126 38.3126 40.0612 37.4097 40.4351C36.5071 40.809 35.5395 41.0009 34.5625 41H7.4375C6.46053 41.0009 5.49297 40.809 4.5902 40.4351C3.68743 40.0612 2.86717 39.5126 2.17634 38.821C1.48552 38.1293 0.937716 37.3081 0.564273 36.4042C0.19083 35.5004 -0.000917496 34.5316 3.30064e-06 33.5534V7.44659C-0.000917496 6.46842 0.19083 5.49968 0.564273 4.59581C0.937716 3.69193 1.48552 2.87067 2.17634 2.179C2.86717 1.48734 3.68743 0.938862 4.5902 0.564963C5.49297 0.191064 6.46053 -0.000918618 7.4375 3.30467e-06Z" fill="#001E36"/>
<path d="M9.44995 28.7526V10.7232C9.44995 10.6005 9.50245 10.5304 9.62495 10.5304C9.92245 10.5304 10.2025 10.5304 10.605 10.5129C11.0075 10.4954 11.4625 10.4954 11.935 10.4779C12.4075 10.4603 12.915 10.4603 13.4575 10.4428C14 10.4253 14.525 10.4253 15.05 10.4253C16.485 10.4253 17.675 10.6005 18.655 10.9685C19.5335 11.2672 20.3344 11.758 21 12.4052C21.5638 12.9716 21.9996 13.6529 22.2775 14.4026C22.5424 15.1328 22.6786 15.9036 22.68 16.6804C22.68 18.1873 22.3299 19.4313 21.6299 20.4125C20.9266 21.3923 19.9449 22.1373 18.8125 22.5501C17.6225 22.9881 16.31 23.1458 14.875 23.1458C14.455 23.1458 14.175 23.1458 14 23.1283C13.825 23.1108 13.58 23.1108 13.2475 23.1108V28.7351C13.2514 28.764 13.2494 28.7933 13.2418 28.8213C13.2342 28.8494 13.221 28.8756 13.2031 28.8986C13.1851 28.9214 13.1627 28.9405 13.1373 28.9545C13.1119 28.9687 13.0839 28.9774 13.055 28.9804H9.65995C9.51995 28.9804 9.44995 28.9103 9.44995 28.7526ZM13.265 13.912V19.7992C13.51 19.8167 13.7375 19.8343 13.9475 19.8343H14.875C15.5581 19.8351 16.2372 19.7286 16.8875 19.5189C17.4453 19.3547 17.9437 19.0321 18.3224 18.5902C18.6899 18.1522 18.865 17.5565 18.865 16.7855C18.8814 16.238 18.7418 15.6971 18.4625 15.2261C18.1707 14.7712 17.7415 14.4214 17.2375 14.2274C16.5805 13.9698 15.8775 13.8505 15.1725 13.877C14.7175 13.877 14.315 13.877 13.9825 13.8945C13.7432 13.8789 13.5031 13.8847 13.265 13.912Z" fill="#31A8FF"/>
<path d="M33.6001 18.7303C33.0717 18.4517 32.5058 18.2511 31.9201 18.1346C31.2768 17.9887 30.6196 17.9124 29.9601 17.9068C29.6059 17.8946 29.2518 17.9359 28.9101 18.0295C28.692 18.0749 28.4988 18.1998 28.3676 18.3799C28.2792 18.522 28.2307 18.6855 28.2276 18.853C28.2356 19.0196 28.297 19.1794 28.4026 19.3085C28.5685 19.5034 28.7706 19.664 28.9976 19.7816C29.4001 19.9919 29.8201 20.1846 30.2401 20.3598C31.1856 20.6785 32.0902 21.1078 32.9351 21.6389C33.5098 22.0007 33.9851 22.5006 34.3176 23.0932C34.5988 23.6521 34.737 24.2722 34.7201 24.8979C34.7342 25.7261 34.4962 26.5389 34.0376 27.2282C33.5495 27.9277 32.8684 28.4696 32.0776 28.7876C31.2201 29.1555 30.1701 29.3483 28.9101 29.3483C28.1112 29.3514 27.3139 29.2752 26.5301 29.1205C25.9128 29.0138 25.3126 28.8251 24.7451 28.5598C24.684 28.5292 24.6332 28.4813 24.5991 28.4221C24.565 28.3631 24.5487 28.2951 24.5526 28.2269V25.1782C24.551 25.1482 24.5566 25.1185 24.5688 25.0909C24.5809 25.0636 24.5993 25.0394 24.6226 25.0205C24.6472 25.0061 24.6758 25 24.7043 25.0032C24.7326 25.0063 24.7592 25.0186 24.7801 25.038C25.4542 25.4359 26.1864 25.7256 26.9501 25.8966C27.6243 26.0723 28.3184 26.1606 29.0151 26.1594C29.6801 26.1594 30.1526 26.0718 30.4676 25.9141C30.6081 25.8491 30.7271 25.7454 30.8109 25.615C30.8946 25.4846 30.9394 25.3331 30.9401 25.1782C30.9401 24.9329 30.8001 24.7051 30.5201 24.4773C30.2401 24.2496 29.6626 23.9867 28.8051 23.6538C27.9253 23.3435 27.0901 22.9193 26.3201 22.3923C25.7716 22.0011 25.3173 21.4922 24.9901 20.903C24.7108 20.3497 24.5725 19.7357 24.5876 19.1158C24.5902 18.3682 24.7958 17.6353 25.1826 16.9957C25.6271 16.2923 26.2653 15.7326 27.0201 15.3838C27.8426 14.9632 28.8751 14.7705 30.1176 14.7705C30.8438 14.7707 31.569 14.8234 32.2876 14.9282C32.8042 14.9982 33.3099 15.1336 33.7926 15.3312C33.8694 15.3585 33.9324 15.4152 33.9676 15.4889C33.9877 15.5573 33.9994 15.6279 34.0026 15.6991V18.5551C34.0029 18.5891 33.995 18.6228 33.9798 18.6532C33.9646 18.6837 33.9424 18.7102 33.9151 18.7303C33.8132 18.767 33.7019 18.767 33.6001 18.7303Z" fill="#31A8FF"/>
<path d="M55.4375 3.30467e-06H82.5625C83.5395 -0.000918618 84.5071 0.191064 85.4097 0.564963C86.3126 0.938862 87.1328 1.48734 87.8237 2.179C88.5144 2.87067 89.0623 3.69193 89.4358 4.59581C89.8092 5.49968 90.0009 6.46842 90 7.44659V33.5534C90.0009 34.5316 89.8092 35.5004 89.4358 36.4042C89.0623 37.3081 88.5144 38.1293 87.8237 38.821C87.1328 39.5126 86.3126 40.0612 85.4097 40.4351C84.5071 40.809 83.5395 41.0009 82.5625 41H55.4375C54.4605 41.0009 53.493 40.809 52.5902 40.4351C51.6874 40.0612 50.8672 39.5126 50.1763 38.821C49.4855 38.1293 48.9377 37.3081 48.5643 36.4042C48.1908 35.5004 47.9991 34.5316 48 33.5534V7.44659C47.9991 6.46842 48.1908 5.49968 48.5643 4.59581C48.9377 3.69193 49.4855 2.87067 50.1763 2.179C50.8672 1.48734 51.6874 0.938862 52.5902 0.564963C53.493 0.191064 54.4605 -0.000918618 55.4375 3.30467e-06Z" fill="#001E36"/>
<path d="M70.0501 28.9804H58.9551C58.7626 28.9804 58.6751 28.8753 58.6751 28.6651V10.7582C58.6712 10.7294 58.6731 10.7001 58.6807 10.672C58.6883 10.6439 58.7015 10.6177 58.7195 10.5948C58.7374 10.5719 58.7598 10.5529 58.7852 10.5388C58.8107 10.5247 58.8387 10.5159 58.8676 10.5129H62.3676C62.3895 10.5089 62.4119 10.5094 62.4336 10.5144C62.4553 10.5193 62.4758 10.5287 62.4938 10.5418C62.5118 10.5549 62.5269 10.5715 62.5383 10.5906C62.5497 10.6098 62.5571 10.631 62.5601 10.6531V25.4236H70.6451C70.8201 25.4236 70.8726 25.5112 70.8376 25.6689L70.3301 28.7176C70.3273 28.7579 70.3166 28.7972 70.2986 28.8333C70.2805 28.8694 70.2555 28.9016 70.2251 28.9279C70.1738 28.9634 70.1125 28.9818 70.0501 28.9804Z" fill="#31A8FF"/>
<path d="M72.85 14.9632H75.9125C75.9954 14.9652 76.0756 14.9934 76.1416 15.0437C76.2075 15.0941 76.256 15.164 76.28 15.2436C76.3524 15.3675 76.3999 15.5044 76.42 15.6466C76.455 15.8218 76.49 16.0145 76.5075 16.1897C76.525 16.3649 76.5425 16.5927 76.5425 16.8205C77.068 16.2063 77.7029 15.6954 78.415 15.3136C79.2146 14.8797 80.1134 14.6623 81.0225 14.6829C81.0514 14.679 81.0806 14.6809 81.1086 14.6885C81.1366 14.6962 81.1628 14.7094 81.1858 14.7273C81.2085 14.7453 81.2276 14.7677 81.2416 14.7932C81.2558 14.8186 81.2645 14.8467 81.2675 14.8756V18.3624C81.2675 18.5025 81.18 18.5551 80.9875 18.5551C79.8533 18.4871 78.7193 18.6914 77.68 19.1508C77.3254 19.3027 77.0045 19.523 76.735 19.7991V28.735C76.735 28.9102 76.665 28.9803 76.5075 28.9803H73.095C73.0628 28.9857 73.0297 28.9845 72.9979 28.9768C72.966 28.9691 72.9361 28.9549 72.91 28.9353C72.8838 28.9157 72.8619 28.8908 72.8454 28.8624C72.8292 28.834 72.8188 28.8026 72.815 28.7701V18.9931C72.815 18.5726 72.815 18.1346 72.7975 17.679C72.78 17.2235 72.78 16.7679 72.7625 16.3124C72.745 15.9269 72.71 15.5414 72.6575 15.156C72.6528 15.1352 72.6524 15.1138 72.6559 15.0929C72.6596 15.072 72.6673 15.052 72.6788 15.0341C72.6902 15.0162 72.7049 15.0007 72.7222 14.9886C72.7397 14.9764 72.7593 14.9678 72.78 14.9632C72.7975 14.9457 72.815 14.9457 72.85 14.9632Z" fill="#31A8FF"/>
<path d="M103.438 3.30467e-06H130.563C131.54 -0.000918617 132.507 0.191064 133.41 0.564963C134.313 0.938861 135.133 1.48734 135.824 2.17899C136.514 2.87067 137.062 3.69193 137.436 4.5958C137.809 5.49969 138.001 6.46843 138 7.44658V33.5534C138.001 34.5316 137.809 35.5004 137.436 36.4041C137.062 37.3081 136.514 38.1293 135.824 38.821C135.133 39.5126 134.313 40.0612 133.41 40.4351C132.507 40.809 131.54 41.0009 130.563 41H103.438C102.461 41.0009 101.493 40.809 100.59 40.4351C99.6874 40.0612 98.8672 39.5126 98.1763 38.821C97.4855 38.1293 96.9377 37.3081 96.5643 36.4041C96.1908 35.5004 95.9991 34.5316 96 33.5534V7.44658C95.9991 6.46843 96.1908 5.49969 96.5643 4.5958C96.9377 3.69193 97.4855 2.87067 98.1763 2.17899C98.8672 1.48734 99.6874 0.938861 100.59 0.564963C101.493 0.191064 102.461 -0.000918617 103.438 3.30467e-06Z" fill="#330000"/>
<path d="M116.353 24.5998H109.843L108.513 28.7173C108.498 28.7923 108.455 28.8591 108.394 28.9046C108.332 28.95 108.256 28.9707 108.18 28.9626H104.89C104.698 28.9626 104.645 28.8575 104.698 28.6473L110.333 12.4049C110.385 12.2297 110.438 12.037 110.508 11.8267C110.578 11.4512 110.613 11.0699 110.613 10.6879C110.607 10.644 110.619 10.5997 110.645 10.564C110.671 10.5282 110.709 10.5037 110.753 10.4951H115.285C115.425 10.4951 115.495 10.5477 115.513 10.6353L121.9 28.6823C121.953 28.875 121.9 28.9626 121.725 28.9626H118.068C118.006 28.9686 117.944 28.9525 117.893 28.9173C117.841 28.882 117.804 28.8298 117.788 28.7699L116.353 24.5998ZM110.858 21.043H115.303C115.198 20.675 115.058 20.237 114.9 19.7814C114.743 19.3259 114.585 18.8002 114.428 18.2746C114.27 17.749 114.095 17.2058 113.92 16.6626C113.745 16.1195 113.588 15.6114 113.448 15.1032C113.308 14.5951 113.185 14.1571 113.063 13.7366H113.028C112.87 14.5002 112.672 15.2548 112.433 15.9968C112.17 16.8379 111.908 17.7139 111.628 18.59C111.383 19.4836 111.12 20.3071 110.858 21.043Z" fill="#FF9A00"/>
<path d="M125.715 13.4917C125.428 13.498 125.142 13.447 124.875 13.3417C124.607 13.2364 124.363 13.0789 124.157 12.8784C123.757 12.4395 123.543 11.861 123.562 11.2665C123.552 10.9768 123.603 10.6882 123.711 10.4195C123.82 10.1508 123.984 9.90807 124.192 9.70707C124.613 9.309 125.171 9.08926 125.75 9.09382C126.432 9.09382 126.957 9.30408 127.342 9.70707C127.73 10.1319 127.937 10.6913 127.92 11.2665C127.931 11.5625 127.882 11.8577 127.777 12.1345C127.671 12.4114 127.512 12.6644 127.307 12.8784C127.101 13.0887 126.852 13.2523 126.578 13.3581C126.303 13.4639 126.009 13.5094 125.715 13.4917ZM123.755 28.7002V15.2088C123.755 15.0336 123.825 14.9635 123.982 14.9635H127.447C127.605 14.9635 127.675 15.0511 127.675 15.2088V28.7002C127.675 28.893 127.605 28.9806 127.447 28.9806H124.017C123.981 28.9835 123.944 28.9783 123.909 28.965C123.875 28.9517 123.844 28.9308 123.819 28.9038C123.793 28.8768 123.775 28.8446 123.764 28.8094C123.753 28.774 123.75 28.7368 123.755 28.7002Z" fill="#FF9A00"/>
<path d="M151.438 3.30467e-06H178.562C179.54 -0.000918617 180.507 0.191063 181.41 0.564962C182.313 0.938861 183.133 1.48734 183.824 2.17899C184.514 2.87067 185.062 3.69193 185.436 4.5958C185.809 5.49969 186.001 6.46843 186 7.44658V33.5534C186.001 34.5316 185.809 35.5004 185.436 36.4041C185.062 37.3081 184.514 38.1293 183.824 38.821C183.133 39.5126 182.313 40.0612 181.41 40.4351C180.507 40.809 179.54 41.0009 178.562 41H151.438C150.461 41.0009 149.493 40.809 148.59 40.4351C147.687 40.0612 146.867 39.5126 146.176 38.821C145.486 38.1293 144.938 37.3081 144.564 36.4041C144.191 35.5004 143.999 34.5316 144 33.5534V7.44658C143.999 6.46843 144.191 5.49969 144.564 4.5958C144.938 3.69193 145.486 2.87067 146.176 2.17899C146.867 1.48734 147.687 0.938861 148.59 0.564962C149.493 0.191063 150.461 -0.000918617 151.438 3.30467e-06Z" fill="#49021F"/>
<path d="M159.26 10.7229V28.6998C159.26 28.8925 159.173 28.9801 159.015 28.9801H155.585C155.428 28.9801 155.358 28.8925 155.358 28.6998V10.7229C155.358 10.5652 155.445 10.4951 155.603 10.4951H159.015C159.042 10.4909 159.069 10.4922 159.095 10.4988C159.121 10.5055 159.145 10.5173 159.166 10.5337C159.188 10.5501 159.205 10.5707 159.219 10.5942C159.232 10.6177 159.24 10.6436 159.243 10.6703C159.249 10.6772 159.254 10.6855 159.257 10.6946C159.26 10.7037 159.261 10.7134 159.26 10.7229Z" fill="#FF3366"/>
<path d="M169.34 29.2605C168.043 29.2818 166.757 29.0124 165.577 28.472C164.48 27.9581 163.56 27.1285 162.935 26.0891C162.287 25.0203 161.972 23.6887 161.972 22.0942C161.955 20.7976 162.287 19.5202 162.935 18.3972C163.599 17.2559 164.561 16.317 165.717 15.6814C166.942 14.9981 168.412 14.6652 170.145 14.6652C170.268 14.6638 170.39 14.6696 170.512 14.6827C170.67 14.7002 170.845 14.7002 171.055 14.7177V9.18097C171.055 9.05832 171.107 8.98824 171.23 8.98824H174.782C174.822 8.98293 174.861 8.9926 174.894 9.01533C174.926 9.03805 174.949 9.07217 174.957 9.11089V25.8263C174.957 26.1417 174.975 26.4921 174.992 26.8776C175.01 27.263 175.045 27.5959 175.062 27.8938C175.066 27.953 175.051 28.0119 175.02 28.0622C174.989 28.1125 174.942 28.1515 174.887 28.1741C173.971 28.5598 173.014 28.8419 172.035 29.0152C171.146 29.1765 170.244 29.2587 169.34 29.2605ZM171.055 25.7562V18.0468C170.899 18.0091 170.741 17.9799 170.582 17.9592C170.39 17.9417 170.197 17.9241 170.005 17.9241C169.319 17.9164 168.641 18.0725 168.027 18.3797C167.429 18.6781 166.917 19.1243 166.54 19.6763C166.155 20.237 165.962 20.9904 165.962 21.9015C165.947 22.5165 166.048 23.1287 166.26 23.7062C166.429 24.1731 166.698 24.5977 167.047 24.9502C167.385 25.2726 167.792 25.5125 168.237 25.6511C168.706 25.8047 169.197 25.8816 169.69 25.8788C169.952 25.8788 170.197 25.8613 170.425 25.8438C170.639 25.8603 170.854 25.8305 171.055 25.7562Z" fill="#FF3366"/>
<path d="M223.935 41H201.065C196.059 41 192 36.9408 192 31.9347V9.0653C192 4.05923 196.059 0 201.065 0H223.93C228.936 0 232.995 4.05923 232.995 9.0653V31.9302C233 36.9408 228.941 41 223.935 41Z" fill="#242424"/>
<path d="M211 17.5232C205.822 19.0635 196.675 22.5927 196.236 36.9133C197.889 29.2025 201.967 28.0971 209.46 26.3348C216.953 24.577 221.026 22.5927 225.547 17.1925C230.064 11.7923 228.524 4.08154 228.524 4.08154C228.524 8.26762 225.547 11.0221 222.684 13.0064C219.821 14.9907 216.178 15.9829 211 17.5232Z" fill="url(#paint0_linear_98_7087)"/>
<path d="M196.235 36.918C196.249 36.5465 196.267 36.1886 196.29 35.8352C196.249 36.2158 196.226 36.5782 196.235 36.918Z" fill="url(#paint1_linear_98_7087)"/>
<path d="M215.508 24.568C211.616 25.3019 207.652 25.2158 205.051 25.8999C200.426 27.1095 196.571 32.6184 196.235 36.9133C196.249 36.5463 196.267 36.1884 196.29 35.8305C196.802 31.1551 201.11 23.4852 210.56 19.2855C213.569 17.9491 216.278 16.531 218.634 15.0813C220.156 14.4878 221.488 13.8309 222.679 13.0064C225.542 11.0221 228.519 8.26762 228.519 4.08154C228.519 4.08154 228.764 10.3697 226.725 15.7518C226.444 16.2638 226.127 16.7576 225.764 17.2242C223.019 20.7896 219.78 22.9733 215.508 24.568Z" fill="url(#paint2_linear_98_7087)"/>
<path d="M196.299 35.6493C196.272 36.0615 196.249 36.4829 196.236 36.9133C196.209 36.5236 196.231 36.0978 196.299 35.6493C197.223 22.3798 205.976 19.0182 211 17.5232C216.179 15.9829 219.816 14.9907 222.68 13.0064C225.543 11.0221 228.519 8.26762 228.519 4.08154C228.519 4.08154 230.064 11.7923 225.543 17.1925C221.026 22.5927 217.279 20.3864 209.786 22.1487C202.95 23.7615 197.029 30.9694 196.299 35.6493Z" fill="url(#paint3_linear_98_7087)"/>
<path d="M207.915 22.9234C214.969 21.6005 219.372 21.7093 224.224 16.531C229.072 11.3528 228.519 4.08154 228.519 4.08154C228.519 8.26762 225.542 11.0221 222.679 13.0064C221.483 13.8355 220.151 14.4878 218.634 15.0813C216.278 16.531 213.02 18.0125 210.012 19.3489C200.562 23.5486 196.802 31.1551 196.29 35.8305C196.267 36.1839 196.249 36.5418 196.235 36.9133C196.571 32.6139 200.865 24.2463 207.915 22.9234Z" fill="url(#paint4_linear_98_7087)"/>
<path d="M196.235 36.918C196.249 36.5465 196.267 36.1886 196.29 35.8352C196.249 36.2158 196.226 36.5782 196.235 36.918Z" fill="url(#paint5_linear_98_7087)"/>
<path d="M212.876 18.6286C199.983 21.0524 196.127 32.4372 196.236 36.9178C196.567 32.623 200.313 27.6622 205.161 25.0165C212.324 21.3786 219.817 23.3629 224.995 18.0759C230.173 12.7889 228.52 4.08154 228.52 4.08154C228.52 8.26762 226.975 12.2362 224.22 14.5513C221.47 16.8618 215.961 18.0397 212.876 18.6286Z" fill="url(#paint6_linear_98_7087)"/>
<path d="M246.433 3.30467e-06H273.558C274.535 -0.000918618 275.503 0.191064 276.405 0.564963C277.308 0.938862 278.128 1.48734 278.819 2.179C279.51 2.87067 280.058 3.69193 280.431 4.59581C280.805 5.49968 280.996 6.46842 280.996 7.44659V33.5534C280.996 34.5316 280.805 35.5004 280.431 36.4042C280.058 37.3081 279.51 38.1293 278.819 38.821C278.128 39.5126 277.308 40.0612 276.405 40.4351C275.503 40.809 274.535 41.0009 273.558 41H246.433C245.456 41.0009 244.489 40.809 243.586 40.4351C242.683 40.0612 241.863 39.5126 241.172 38.821C240.481 38.1293 239.933 37.3081 239.56 36.4042C239.186 35.5004 238.995 34.5316 238.996 33.5534V7.44659C238.995 6.46842 239.186 5.49968 239.56 4.59581C239.933 3.69193 240.481 2.87067 241.172 2.179C241.863 1.48734 242.683 0.938862 243.586 0.564963C244.489 0.191064 245.456 -0.000918618 246.433 3.30467e-06Z" fill="#000B1D"/>
<path d="M255.621 33.6411C258.037 33.6411 259.996 31.6799 259.996 29.2607V24.8804H255.621C253.204 24.8804 251.246 26.8415 251.246 29.2607C251.246 31.6799 253.204 33.6411 255.621 33.6411Z" fill="#0ACF83"/>
<path d="M251.246 20.5C251.246 18.0808 253.204 16.1196 255.621 16.1196H259.996V24.8803H255.621C253.204 24.8803 251.246 22.9191 251.246 20.5Z" fill="#A259FF"/>
<path d="M251.246 11.7395C251.246 9.32028 253.204 7.35913 255.621 7.35913H259.996V16.1198H255.621C253.204 16.1198 251.246 14.1587 251.246 11.7395Z" fill="#F24E1E"/>
<path d="M259.996 7.35913H264.371C266.787 7.35913 268.746 9.32028 268.746 11.7395C268.746 14.1587 266.787 16.1198 264.371 16.1198H259.996V7.35913Z" fill="#FF7262"/>
<path d="M268.746 20.5C268.746 22.9191 266.787 24.8803 264.371 24.8803C261.954 24.8803 259.996 22.9191 259.996 20.5C259.996 18.0808 261.954 16.1196 264.371 16.1196C266.787 16.1196 268.746 18.0808 268.746 20.5Z" fill="#1ABCFE"/>
<path d="M294.433 3.30467e-06H321.558C322.535 -0.000918617 323.503 0.191063 324.405 0.564962C325.308 0.938861 326.128 1.48734 326.819 2.17899C327.51 2.87067 328.058 3.69193 328.431 4.5958C328.805 5.49969 328.996 6.46843 328.996 7.44658V33.5534C328.996 34.5316 328.805 35.5004 328.431 36.4041C328.058 37.3081 327.51 38.1293 326.819 38.821C326.128 39.5126 325.308 40.0612 324.405 40.4351C323.503 40.809 322.535 41.0009 321.558 41H294.433C293.456 41.0009 292.489 40.809 291.586 40.4351C290.683 40.0612 289.863 39.5126 289.172 38.821C288.481 38.1293 287.933 37.3081 287.56 36.4041C287.186 35.5004 286.995 34.5316 286.996 33.5534V7.44658C286.995 6.46843 287.186 5.49969 287.56 4.5958C287.933 3.69193 288.481 2.87067 289.172 2.17899C289.863 1.48734 290.683 0.938861 291.586 0.564962C292.489 0.191063 293.456 -0.000918617 294.433 3.30467e-06Z" fill="#FAFAFA"/>
<path d="M297.287 35.146L294.996 9.44751H320.172L317.878 35.142L307.568 38.0001L297.287 35.146Z" fill="#E44D26"/>
<path d="M307.584 35.8148L315.915 33.505L317.875 11.5483H307.584V35.8148Z" fill="#F16529"/>
<path d="M307.584 21.0801H303.413L303.125 17.8522H307.584V14.7004H299.68L299.756 15.5462L300.53 24.2316H307.584V21.0801ZM307.584 29.2653L307.57 29.269L304.06 28.321L303.835 25.8076H300.671L301.113 30.7563L307.569 32.5487L307.584 32.5445V29.2653Z" fill="#EBEBEB"/>
<path d="M297.338 2H298.94V3.58274H300.405V2H302.007V6.7921H300.405V5.18742H298.94V6.7921H297.338V2ZM304.113 3.58929H302.703V2H307.126V3.58929H305.715V6.7921H304.113V3.58929ZM307.828 2H309.497L310.525 3.68387L311.551 2H313.222V6.7921H311.627V4.41684L310.525 6.12066H310.497L309.395 4.41684V6.7921H307.827V2H307.828ZM314.019 2H315.622V5.20821H317.874V6.79238H314.019V2Z" fill="black"/>
<path d="M307.573 21.0801V24.2316H311.454L311.088 28.3193L307.573 29.2682V32.547L314.034 30.7563L314.082 30.2236L314.822 21.9262L314.899 21.0801H314.05H307.573ZM307.573 14.7004V17.8522H315.186L315.249 17.1438L315.393 15.5462L315.468 14.7004H307.573Z" fill="white"/>
<path d="M342.433 3.30467e-06H369.558C370.535 -0.000918617 371.503 0.191064 372.405 0.564962C373.308 0.938861 374.128 1.48734 374.819 2.17899C375.51 2.87067 376.058 3.69193 376.431 4.5958C376.805 5.49969 376.996 6.46843 376.996 7.44658V33.5534C376.996 34.5316 376.805 35.5004 376.431 36.4041C376.058 37.3081 375.51 38.1293 374.819 38.821C374.128 39.5126 373.308 40.0612 372.405 40.4351C371.503 40.809 370.535 41.0009 369.558 41H342.433C341.456 41.0009 340.489 40.809 339.586 40.4351C338.683 40.0612 337.863 39.5126 337.172 38.821C336.481 38.1293 335.933 37.3081 335.56 36.4041C335.186 35.5004 334.995 34.5316 334.996 33.5534V7.44658C334.995 6.46843 335.186 5.49969 335.56 4.5958C335.933 3.69193 336.481 2.87067 337.172 2.17899C337.863 1.48734 338.683 0.938861 339.586 0.564962C340.489 0.191064 341.456 -0.000918617 342.433 3.30467e-06Z" fill="#FAFAFA"/>
<path d="M362.981 3.33266H360.864L363.065 5.72137V6.85853H358.532V5.52702H360.732L358.532 3.13831V2H362.981V3.33266ZM357.633 3.33266H355.516L357.717 5.72137V6.85853H353.183V5.52702H355.384L353.183 3.13831V2H357.633V3.33266ZM352.337 3.38713H350.053V5.47141H352.337V6.85853H348.429V2H352.337V3.38713Z" fill="black"/>
<path d="M345.317 35.1085L342.996 9.07642H368.499L366.175 35.1042L355.731 38L345.317 35.1085Z" fill="#1572B6"/>
<path d="M355.748 35.7867L364.187 33.447L366.172 11.2051H355.748V35.7867Z" fill="#33A9DC"/>
<path d="M355.747 20.6364H359.972L360.264 17.3671H355.747V14.1743H363.753L363.677 15.0308L362.892 23.8289H355.747V20.6364Z" fill="white"/>
<path d="M355.766 28.9282L355.752 28.9322L352.197 27.9719L351.969 25.4255H348.765L349.212 30.4386L355.752 32.254L355.767 32.2497L355.766 28.9282Z" fill="#EBEBEB"/>
<path d="M359.701 23.6938L359.316 27.9696L355.755 28.9308V32.2525L362.301 30.4386L362.349 29.8991L362.904 23.6938H359.701Z" fill="white"/>
<path d="M355.759 14.1743V17.3668H348.047L347.983 16.6493L347.837 15.0308L347.761 14.1743H355.759ZM355.748 20.6367V23.8295H352.237L352.173 23.112L352.027 21.4932L351.951 20.6367H355.748Z" fill="#EBEBEB"/>
<rect x="382" width="42" height="41" rx="5" fill="#FAFAFA"/>
<path d="M416.855 20.4466C415.803 20.4479 414.764 20.6886 413.819 21.1503C413.523 20.6589 413.294 20.13 413.139 19.5777C413.05 19.1447 413.029 18.7005 413.078 18.2612C413.18 17.7777 413.313 17.3013 413.475 16.8346C413.469 16.7735 413.402 16.4851 412.729 16.4755C412.055 16.4659 411.474 16.6036 411.412 16.7819C411.295 17.1076 411.201 17.4412 411.131 17.78C410.573 19.1558 409.887 20.4758 409.081 21.7224C408.629 20.982 408.443 20.1098 408.554 19.2497C408.656 18.7663 408.789 18.2898 408.951 17.8231C408.945 17.7621 408.878 17.4737 408.205 17.4641C407.531 17.4545 406.95 17.5921 406.888 17.7705C406.826 17.9488 406.747 18.3689 406.607 18.7686C406.467 19.1684 404.832 22.821 404.403 23.7629C404.183 24.2417 403.993 24.6318 403.859 24.8951C403.853 24.9122 403.845 24.9287 403.835 24.9442C403.715 25.1704 403.652 25.2937 403.652 25.2937V25.2996C403.56 25.4648 403.462 25.618 403.412 25.618C403.327 25.2761 403.331 24.9178 403.424 24.578C403.664 23.3105 404.25 21.3406 404.244 21.2724C404.244 21.2353 404.354 20.893 403.865 20.7158C403.751 20.6618 403.624 20.6443 403.5 20.6657C403.376 20.6872 403.262 20.7465 403.173 20.8355C403.13 20.8355 403.1 20.9396 403.1 20.9396C403.1 20.9396 403.633 18.7243 402.084 18.7243C401.481 18.8456 400.908 19.0863 400.399 19.4323C399.891 19.7782 399.456 20.2223 399.122 20.7386C398.705 20.9648 397.819 21.4483 396.869 21.9689C396.51 22.1712 396.135 22.3734 395.786 22.5673C395.762 22.5434 395.737 22.5123 395.713 22.4883C393.828 20.4801 390.364 19.063 390.513 16.3762C390.568 15.3972 390.905 12.8264 397.166 9.70393C402.32 7.16429 406.421 7.86802 407.131 9.42867C408.147 11.6571 404.934 15.7945 399.609 16.3941C399.02 16.5136 398.412 16.4992 397.829 16.3519C397.246 16.2046 396.704 15.9283 396.242 15.5432C395.961 15.2368 395.918 15.2189 395.814 15.2799C395.643 15.3721 395.753 15.6473 395.814 15.8065C396.017 16.1741 396.292 16.4973 396.622 16.7569C396.952 17.0165 397.331 17.2073 397.736 17.3181C399.831 17.7707 402.015 17.5543 403.98 16.6993C407.211 15.451 409.724 11.9803 408.987 9.07321C408.246 6.12306 403.35 5.15005 398.716 6.79926C395.814 7.77595 393.132 9.31437 390.823 11.3268C388.27 13.7145 387.867 15.7885 388.032 16.6586C388.631 19.744 392.881 21.7511 394.581 23.2411C394.495 23.2902 394.416 23.3333 394.349 23.3692C393.498 23.7917 390.255 25.4875 389.442 27.2804C388.524 29.315 389.589 30.7691 390.293 30.9654C391.353 31.2192 392.467 31.1356 393.477 30.7262C394.488 30.3168 395.345 29.6021 395.93 28.6818C396.428 27.9185 396.734 27.0462 396.822 26.1391C396.91 25.232 396.778 24.317 396.436 23.4721C396.43 23.4584 396.422 23.4459 396.412 23.435L397.079 23.0436C397.513 22.7863 397.942 22.5482 398.309 22.3519C398.06 23.0705 397.914 23.8208 397.875 24.5804C397.79 25.7446 398.147 26.8981 398.873 27.8118C398.984 27.9069 399.112 27.9792 399.25 28.0244C399.389 28.0696 399.535 28.0868 399.681 28.0751C400.399 28.0751 400.728 27.4767 401.088 26.7657C401.529 25.8969 401.926 24.8867 401.926 24.8867C401.926 24.8867 401.431 27.6167 402.777 27.6167C403.266 27.6167 403.762 26.98 403.983 26.6592V26.6652C403.983 26.6652 403.995 26.6473 404.02 26.6042L404.099 26.4761V26.4641C404.296 26.1219 404.736 25.3439 405.391 24.0526C406.236 22.3878 407.05 20.3065 407.05 20.3065C407.128 20.7639 407.236 21.2157 407.374 21.6589C407.571 22.1962 407.804 22.7196 408.072 23.2256C407.875 23.5008 407.753 23.654 407.753 23.654L407.759 23.66C407.6 23.8683 407.429 24.0944 407.239 24.3147C406.673 24.9371 406.147 25.5955 405.666 26.2858C405.595 26.4018 405.57 26.5406 405.597 26.674C405.625 26.8075 405.702 26.9254 405.813 27.0039C406.065 27.135 406.352 27.1824 406.633 27.1391C407.056 27.1153 407.472 27.0202 407.863 26.8579C408.242 26.7248 408.598 26.5373 408.923 26.3014C409.257 26.0699 409.526 25.7562 409.704 25.3907C409.882 25.0252 409.963 24.62 409.939 24.2141C409.901 23.7029 409.77 23.2028 409.553 22.7385C409.614 22.6523 409.673 22.5673 409.73 22.4811C410.411 21.4655 411.024 20.4065 411.566 19.3108C411.645 19.7682 411.753 20.2199 411.891 20.6632C412.053 21.1275 412.253 21.5778 412.489 22.0096C411.706 22.6118 411.09 23.4035 410.698 24.3099C410.312 25.4241 410.611 25.9256 411.176 26.0417C411.485 26.063 411.794 25.9997 412.07 25.8586C412.476 25.7253 412.858 25.529 413.202 25.2769C413.566 25.0625 413.87 24.7611 414.088 24.3999C414.306 24.0387 414.43 23.629 414.451 23.2076C414.424 22.787 414.329 22.3736 414.169 21.9833C415.202 21.5797 416.322 21.451 417.42 21.6099C420.333 21.9521 420.909 23.7701 420.799 24.5361C420.747 24.8076 420.638 25.065 420.478 25.2908C420.319 25.5166 420.113 25.7057 419.875 25.8454C419.672 25.9735 419.605 26.0165 419.623 26.1087C419.647 26.2439 419.743 26.2367 419.917 26.2128C420.356 26.0764 420.743 25.81 421.028 25.4489C421.312 25.0878 421.481 24.649 421.511 24.1902C421.603 22.395 419.889 20.4262 416.859 20.4442L416.855 20.4466ZM394.379 28.02C393.412 29.0732 392.065 29.4705 391.484 29.1342C390.859 28.7752 391.104 27.2193 392.292 26.1039C392.996 25.4699 393.757 24.9022 394.566 24.408C394.707 24.3218 394.915 24.1998 395.164 24.049L395.231 24.0119L395.378 23.9197C395.59 24.6304 395.61 25.3847 395.434 26.1052C395.258 26.8258 394.894 27.4866 394.379 28.02ZM401.417 23.2327C401.081 24.0526 400.377 26.153 399.949 26.0357C399.581 25.9375 399.35 24.3458 399.876 22.7732C400.141 22.0161 400.528 21.3072 401.02 20.6739C401.547 20.0863 402.128 19.89 402.268 20.1294C402.141 21.2004 401.854 22.2464 401.417 23.2327ZM407.226 26.0117C407.084 26.0848 406.95 26.1314 406.889 26.0979C406.846 26.074 406.95 25.9782 406.95 25.9782C406.95 25.9782 407.679 25.1943 407.966 24.8401C408.132 24.6318 408.325 24.3877 408.536 24.1112V24.1902C408.536 25.1261 407.63 25.7568 407.227 26.0141L407.226 26.0117ZM411.706 24.9897C411.602 24.9167 411.62 24.6713 411.97 23.9065C412.213 23.4154 412.552 22.9782 412.968 22.6212C413.032 22.8023 413.065 22.9928 413.066 23.1849C413.071 23.5936 412.94 23.9925 412.694 24.3191C412.449 24.6458 412.102 24.882 411.708 24.9909L411.706 24.9897Z" fill="#CD6799"/>
<rect x="430" width="42" height="41" fill="#F0DB4F"/>
<path d="M465.909 31.5351C465.665 29.9739 464.67 28.6625 461.724 27.4397C460.701 26.9583 459.56 26.6136 459.22 25.8197C459.099 25.3577 459.083 25.0975 459.159 24.8178C459.379 23.9102 460.437 23.6273 461.276 23.8875C461.816 24.0729 462.328 24.4991 462.636 25.179C464.079 24.2227 464.076 24.229 465.083 23.5718C464.714 22.9865 464.518 22.7164 464.276 22.466C463.408 21.4739 462.226 20.963 460.335 21.0021L459.35 21.1325C458.406 21.3766 457.507 21.8837 456.98 22.5636C455.397 24.4018 455.848 27.6188 457.774 28.9427C459.671 30.4004 462.458 30.732 462.814 32.095C463.161 33.7637 461.616 34.3039 460.081 34.112C458.95 33.8711 458.321 33.2825 457.641 32.2123C456.389 32.9539 456.389 32.9539 455.101 33.7117C455.406 34.3949 455.727 34.7041 456.239 35.2959C458.661 37.8104 464.721 37.6869 465.808 33.881C465.852 33.7503 466.145 32.8788 465.909 31.5351ZM453.388 21.2036H450.261L450.248 29.4791C450.248 31.2391 450.337 32.8525 450.057 33.3471C449.6 34.3197 448.414 34.1992 447.874 34.0105C447.324 33.7339 447.045 33.3405 446.721 32.7845C446.632 32.6248 446.565 32.5012 446.542 32.4917L444 34.0854C444.423 34.9736 445.046 35.7445 445.843 36.2454C447.035 36.9775 448.637 37.2019 450.312 36.8082C451.402 36.4832 452.342 35.8099 452.835 34.785C453.547 33.4414 453.394 31.8151 453.388 30.0163C453.404 27.0816 453.388 24.1475 453.388 21.2036Z" fill="#323330"/>
<path d="M485.433 3.30467e-06H512.558C513.535 -0.000918617 514.503 0.191064 515.405 0.564962C516.308 0.938861 517.128 1.48734 517.819 2.17899C518.51 2.87067 519.058 3.69193 519.431 4.5958C519.805 5.49969 519.996 6.46843 519.995 7.44658V33.5534C519.996 34.5316 519.805 35.5004 519.431 36.4041C519.058 37.3081 518.51 38.1293 517.819 38.821C517.128 39.5126 516.308 40.0612 515.405 40.4351C514.503 40.809 513.535 41.0009 512.558 41H485.433C484.456 41.0009 483.488 40.809 482.586 40.4351C481.683 40.0612 480.863 39.5126 480.172 38.821C479.481 38.1293 478.933 37.3081 478.56 36.4041C478.186 35.5004 477.995 34.5316 477.995 33.5534V7.44658C477.995 6.46843 478.186 5.49969 478.56 4.5958C478.933 3.69193 479.481 2.87067 480.172 2.17899C480.863 1.48734 481.683 0.938861 482.586 0.564962C483.488 0.191064 484.456 -0.000918617 485.433 3.30467e-06Z" fill="#FAFAFA"/>
<path d="M498.879 19.7749C500.079 19.7749 501.051 18.8025 501.051 17.6029C501.051 16.4034 500.079 15.4309 498.879 15.4309C497.68 15.4309 496.707 16.4034 496.707 17.6029C496.707 18.8025 497.68 19.7749 498.879 19.7749Z" fill="#25CEFC"/>
<path d="M498.883 25.5906C500.588 27.2488 502.27 28.2297 503.624 28.2297C504.068 28.2297 504.488 28.1363 504.839 27.9261C506.053 27.2255 506.497 25.4738 506.077 22.9748C506.006 22.5311 505.913 22.0873 505.796 21.6202C506.263 21.4801 506.684 21.34 507.104 21.1999C509.463 20.289 510.771 19.0278 510.771 17.6499C510.771 16.2486 509.463 14.9874 507.104 14.0999C506.684 13.9364 506.263 13.7963 505.796 13.6795C505.913 13.2124 506.006 12.7687 506.077 12.3249C506.474 9.77925 506.03 8.00427 504.815 7.30362C504.465 7.09342 504.045 7 503.601 7C502.27 7 500.565 7.98091 498.86 9.63912C497.178 7.98091 495.497 7 494.142 7C493.698 7 493.278 7.09342 492.928 7.30362C491.713 8.00427 491.269 9.75589 491.69 12.2549C491.76 12.6986 491.853 13.1424 491.97 13.6095C491.503 13.7496 491.083 13.8897 490.662 14.0299C488.303 14.9407 486.995 16.2019 486.995 17.5798C486.995 18.9811 488.303 20.2423 490.662 21.1298C491.083 21.2933 491.503 21.4334 491.97 21.5502C491.853 22.0173 491.76 22.461 491.69 22.9048C491.293 25.4038 491.737 27.1787 492.928 27.856C493.278 28.0662 493.698 28.1597 494.142 28.1597C495.497 28.2064 497.178 27.2255 498.883 25.5906ZM497.575 22.4377C497.996 22.461 498.439 22.461 498.883 22.461C499.327 22.461 499.771 22.461 500.191 22.4377C499.771 22.9982 499.327 23.512 498.883 24.0025C498.439 23.512 497.996 22.9982 497.575 22.4377ZM494.679 20.0321C494.913 20.4291 495.123 20.8028 495.38 21.1765C494.656 21.0831 493.979 20.9663 493.325 20.8262C493.535 20.1956 493.768 19.5417 494.049 18.8877C494.236 19.2614 494.446 19.6584 494.679 20.0321ZM493.325 14.4035C493.979 14.2634 494.656 14.1466 495.38 14.0532C495.146 14.4269 494.913 14.8006 494.679 15.1976C494.446 15.5947 494.236 15.9683 494.049 16.3654C493.745 15.6881 493.512 15.0341 493.325 14.4035ZM494.609 17.6032C494.913 16.9726 495.24 16.342 495.613 15.7114C495.964 15.1042 496.361 14.497 496.758 13.8897C497.459 13.843 498.159 13.8197 498.883 13.8197C499.631 13.8197 500.331 13.843 501.008 13.8897C501.429 14.497 501.803 15.1042 502.153 15.7114C502.527 16.342 502.854 16.9726 503.157 17.6032C502.854 18.2338 502.527 18.8644 502.153 19.4949C501.803 20.1022 501.406 20.7094 501.008 21.3166C500.308 21.3633 499.607 21.3867 498.883 21.3867C498.136 21.3867 497.435 21.3633 496.758 21.3166C496.337 20.7094 495.964 20.1022 495.613 19.4949C495.24 18.8644 494.913 18.2338 494.609 17.6032ZM503.741 16.342L503.11 15.1743C502.877 14.7772 502.667 14.4035 502.41 14.0299C503.134 14.1233 503.811 14.2401 504.465 14.3802C504.255 15.0341 504.021 15.6881 503.741 16.342ZM503.741 18.8644C504.021 19.5183 504.255 20.1722 504.465 20.8028C503.811 20.943 503.134 21.0597 502.41 21.1531C502.643 20.7795 502.877 20.4058 503.11 20.0088C503.321 19.6584 503.531 19.2614 503.741 18.8644ZM504.278 26.9685C504.091 27.0853 503.858 27.132 503.601 27.132C502.457 27.132 501.032 26.1978 499.631 24.7965C500.308 24.0725 500.962 23.2551 501.616 22.3443C502.713 22.2508 503.764 22.0873 504.745 21.8538C504.862 22.2742 504.932 22.6946 505.002 23.115C505.329 25.1001 505.072 26.5248 504.278 26.9685ZM505.493 14.6605C508.108 15.4078 509.673 16.5522 509.673 17.6032C509.673 18.514 508.599 19.4249 506.707 20.1489C506.333 20.289 505.913 20.4291 505.493 20.5459C505.189 19.5884 504.815 18.6074 504.348 17.6032C504.815 16.5989 505.212 15.618 505.493 14.6605ZM503.624 8.07433C503.881 8.07433 504.091 8.12104 504.302 8.23782C505.072 8.68156 505.353 10.0829 505.026 12.0914C504.955 12.4884 504.862 12.9088 504.769 13.3526C503.788 13.1424 502.737 12.9789 501.639 12.8621C501.009 11.9513 500.331 11.1338 499.654 10.4098C501.055 9.03189 502.48 8.07433 503.624 8.07433ZM500.191 12.7687C499.771 12.7453 499.327 12.7453 498.883 12.7453C498.439 12.7453 497.996 12.7453 497.575 12.7687C497.996 12.2082 498.439 11.6944 498.883 11.2039C499.327 11.6944 499.771 12.2315 500.191 12.7687ZM493.488 8.23782C493.675 8.12104 493.909 8.07433 494.165 8.07433C495.31 8.07433 496.735 9.00853 498.136 10.4098C497.459 11.1338 496.805 11.9513 496.151 12.8621C495.053 12.9555 494.002 13.119 493.021 13.3526C492.904 12.9322 492.834 12.5118 492.764 12.0914C492.437 10.1062 492.694 8.70492 493.488 8.23782ZM492.274 20.5459C489.658 19.7986 488.093 18.6542 488.093 17.6032C488.093 16.6923 489.168 15.7815 491.059 15.0575C491.433 14.9174 491.853 14.7772 492.274 14.6605C492.577 15.618 492.951 16.5989 493.418 17.6032C492.951 18.6074 492.554 19.6117 492.274 20.5459ZM492.764 23.115C492.834 22.7179 492.928 22.2975 493.021 21.8538C494.002 22.064 495.053 22.2275 496.151 22.3443C496.781 23.2551 497.459 24.0725 498.136 24.7965C496.735 26.1745 495.31 27.132 494.165 27.132C493.909 27.132 493.698 27.0853 493.488 26.9685C492.694 26.5248 492.437 25.1001 492.764 23.115ZM491.783 32.7372C492.297 32.1067 492.32 31.406 492.04 30.7054C491.76 30.0047 491.176 29.6777 490.452 29.6544C489.588 29.631 488.7 29.6544 487.836 29.6544H487.673V35.7033H488.373V33.4145H489.471C489.611 33.4145 489.728 33.4612 489.798 33.578L491.199 35.75C491.223 35.7968 491.293 35.8668 491.34 35.8668H492.25C491.69 35.0027 491.153 34.1853 490.592 33.3445C491.083 33.2744 491.503 33.1109 491.783 32.7372ZM488.373 32.6905V30.3784H488.63C489.168 30.3784 489.728 30.355 490.265 30.4017C490.896 30.4251 491.34 30.9155 491.34 31.5461C491.34 32.1767 490.826 32.6672 490.195 32.6905C489.635 32.7139 489.074 32.6905 488.373 32.6905ZM497.412 32.9941C497.038 31.3593 495.543 30.9389 494.399 31.4527C493.512 31.8498 493.115 32.6205 493.091 33.578C493.068 34.302 493.278 34.956 493.839 35.4464C494.469 36.0069 495.24 36.077 496.034 35.9369C496.478 35.8435 496.875 35.6333 497.178 35.3063C497.061 35.1428 496.945 34.9793 496.828 34.8392C496.174 35.3997 495.45 35.5866 494.656 35.2129C494.142 34.956 493.885 34.3254 493.839 33.8583H497.459V33.5547C497.482 33.3445 497.459 33.1576 497.412 32.9941ZM493.885 33.3678C493.815 32.6672 494.516 31.9198 495.287 31.9198C496.174 31.8965 496.735 32.4336 496.758 33.3678H493.885ZM501.055 31.3359C500.705 31.2659 500.331 31.2425 499.981 31.2659C499.42 31.3126 498.93 31.5695 498.533 31.9899C498.65 32.1534 498.743 32.3169 498.883 32.5037C498.93 32.457 498.977 32.4103 499.023 32.3869C499.397 32.0366 499.841 31.8497 500.378 31.8965C500.798 31.9198 501.195 32.0599 501.312 32.4803C501.406 32.8073 501.382 33.1576 501.406 33.508C501.335 33.508 501.312 33.4846 501.289 33.4612C500.728 32.9941 500.098 32.9007 499.42 33.0642C498.79 33.2277 498.393 33.7182 498.346 34.3487C498.299 35.0727 498.626 35.6099 499.257 35.8668C499.654 36.0303 500.098 36.0303 500.518 35.9369C500.845 35.8668 500.985 35.68 501.452 35.4231V35.7267H502.106C502.106 34.7925 502.13 33.6481 502.106 32.5738C502.106 31.8965 501.709 31.4761 501.055 31.3359ZM501.382 34.2787C501.359 34.3487 501.382 34.4188 501.382 34.4889C501.382 34.9793 501.265 35.1428 500.798 35.3297C500.471 35.4464 500.121 35.4931 499.771 35.3764C499.374 35.2596 499.093 34.9093 499.093 34.5122C499.07 34.1152 499.327 33.7182 499.724 33.6014C500.261 33.4145 500.752 33.5313 501.195 33.8583C501.335 33.9751 501.429 34.0918 501.382 34.2787ZM505.026 31.9665C505.633 31.7797 506.193 31.8965 506.614 32.4103L506.684 32.457C506.847 32.3169 506.987 32.1767 507.174 32.0132C507.104 31.9432 507.081 31.8965 507.034 31.8264C506.357 31.1024 505.026 31.009 504.208 31.5928C503.064 32.4336 503.087 34.0685 503.648 34.9326C504.185 35.75 504.955 36.0303 505.866 35.9135C506.404 35.8435 506.847 35.5866 507.198 35.1428C507.034 35.0027 506.871 34.8625 506.707 34.6991C506.66 34.7458 506.637 34.7691 506.614 34.8158C505.983 35.5165 504.932 35.4464 504.372 34.6991C504.045 34.2553 503.975 33.7415 504.068 33.2277C504.115 32.6438 504.418 32.1767 505.026 31.9665ZM509.883 35.1428C509.837 35.1662 509.813 35.1895 509.813 35.1895C509.627 35.3297 509.44 35.353 509.229 35.2829C509.019 35.1895 508.996 35.0027 508.973 34.8158V32.1534C508.973 32.1067 508.973 32.2001 508.996 31.9665H509.883V31.2659H508.949V30.0981H508.249V31.3593H507.641C507.595 31.3593 507.525 31.406 507.525 31.4527C507.501 31.6162 507.525 31.733 507.525 31.9665H508.272V34.956C508.272 35.3296 508.365 35.6566 508.692 35.8435C509.043 36.0537 509.72 36.0069 510.024 35.75C510.07 35.7267 510.094 35.6333 510.094 35.6099C510.024 35.4698 509.953 35.3063 509.883 35.1428Z" fill="#25CEFC"/>
<path d="M533.433 3.30467e-06H560.558C561.535 -0.000918617 562.503 0.191064 563.405 0.564962C564.308 0.938861 565.128 1.48734 565.819 2.17899C566.51 2.87067 567.058 3.69193 567.431 4.5958C567.805 5.49969 567.996 6.46843 567.996 7.44658V33.5534C567.996 34.5316 567.805 35.5004 567.431 36.4041C567.058 37.3081 566.51 38.1293 565.819 38.821C565.128 39.5126 564.308 40.0612 563.405 40.4351C562.503 40.809 561.535 41.0009 560.558 41H533.433C532.456 41.0009 531.489 40.809 530.586 40.4351C529.683 40.0612 528.863 39.5126 528.172 38.821C527.481 38.1293 526.933 37.3081 526.56 36.4041C526.186 35.5004 525.995 34.5316 525.996 33.5534V7.44658C525.995 6.46843 526.186 5.49969 526.56 4.5958C526.933 3.69193 527.481 2.87067 528.172 2.17899C528.863 1.48734 529.683 0.938861 530.586 0.564962C531.489 0.191064 532.456 -0.000918617 533.433 3.30467e-06Z" fill="#FAFAFA"/>
<path fill-rule="evenodd" clip-rule="evenodd" d="M547.5 7C542.15 7 537.811 11.3669 537.811 16.7544C537.811 21.064 540.587 24.7204 544.437 26.01C544.921 26.1004 545.099 25.7984 545.099 25.5407C545.099 25.3082 545.09 24.5397 545.086 23.7249C542.39 24.3148 541.822 22.574 541.822 22.574C541.381 21.4464 540.746 21.1465 540.746 21.1465C539.867 20.5412 540.812 20.5536 540.812 20.5536C541.785 20.6224 542.297 21.559 542.297 21.559C543.161 23.0502 544.564 22.6189 545.117 22.3697C545.204 21.7392 545.455 21.3086 545.732 21.0651C543.58 20.8187 541.318 19.982 541.318 16.2445C541.318 15.1795 541.696 14.3094 542.316 13.6262C542.215 13.3804 541.884 12.3881 542.41 11.0446C542.41 11.0446 543.223 10.7828 545.074 12.0449C545.847 11.8287 546.676 11.7202 547.5 11.7166C548.323 11.7205 549.153 11.8289 549.927 12.0449C551.776 10.783 552.589 11.0448 552.589 11.0448C553.116 12.3883 552.784 13.3804 552.684 13.6264C553.305 14.3092 553.681 15.1795 553.681 16.2447C553.681 19.991 551.414 20.8159 549.257 21.0571C549.604 21.3597 549.914 21.9535 549.914 22.8638C549.914 24.1688 549.903 25.2191 549.903 25.5403C549.903 25.7993 550.077 26.1038 550.568 26.008C554.416 24.7167 557.188 21.0617 557.188 16.7534C557.189 11.3672 552.851 7 547.5 7Z" fill="#151515"/>
<path d="M541.481 21.0048C541.46 21.0534 541.384 21.0679 541.315 21.0346C541.244 21.0025 541.205 20.9367 541.228 20.8879C541.248 20.8384 541.325 20.8244 541.395 20.8576C541.465 20.8897 541.505 20.9562 541.481 21.0048ZM541.874 21.4459C541.827 21.4888 541.737 21.4689 541.675 21.4005C541.612 21.3324 541.6 21.2414 541.647 21.1979C541.695 21.1548 541.782 21.1749 541.845 21.243C541.909 21.3118 541.922 21.4021 541.874 21.4459ZM542.255 22.0072C542.196 22.0489 542.099 22.0099 542.039 21.923C541.979 21.8366 541.979 21.7328 542.04 21.6908C542.1 21.6491 542.196 21.6867 542.257 21.7726C542.316 21.8609 542.316 21.965 542.255 22.0072ZM542.779 22.5501C542.726 22.609 542.613 22.5932 542.53 22.5127C542.445 22.4341 542.422 22.3224 542.475 22.2635C542.529 22.2046 542.642 22.2211 542.726 22.3009C542.81 22.3793 542.836 22.4914 542.779 22.5501ZM543.501 22.8651C543.477 22.9417 543.369 22.9763 543.259 22.944C543.149 22.9105 543.078 22.8211 543.099 22.7441C543.122 22.667 543.232 22.631 543.342 22.6657C543.452 22.6987 543.524 22.7872 543.501 22.8651ZM544.294 22.9236C544.297 23.0038 544.203 23.0708 544.088 23.0722C543.973 23.0749 543.879 23.0098 543.877 22.9305C543.877 22.8493 543.968 22.7833 544.084 22.7814C544.199 22.7792 544.294 22.8438 544.294 22.9236ZM545.032 22.7973C545.045 22.8757 544.965 22.9564 544.851 22.9777C544.738 22.9988 544.635 22.9502 544.62 22.8722C544.606 22.792 544.688 22.7117 544.8 22.6907C544.914 22.6705 545.017 22.7175 545.032 22.7973Z" fill="#151515"/>
<path d="M538.586 31.484H536.149C536.119 31.484 536.09 31.4961 536.068 31.5176C536.047 31.5391 536.035 31.5683 536.035 31.5987V32.7982C536.035 32.8286 536.047 32.8578 536.068 32.8793C536.09 32.9008 536.119 32.9129 536.149 32.9129H537.099V34.4031C537.099 34.4031 536.886 34.4765 536.295 34.4765C535.599 34.4765 534.627 34.2206 534.627 32.0673C534.627 29.9138 535.64 29.6302 536.591 29.6302C537.414 29.6302 537.768 29.776 537.994 29.8464C538.065 29.8679 538.131 29.7968 538.131 29.7336L538.402 28.5746C538.403 28.5572 538.399 28.54 538.391 28.5245C538.384 28.5089 538.372 28.4954 538.359 28.4852C538.267 28.4191 537.708 28.1046 536.296 28.1046C534.669 28.1046 533 28.8011 533 32.1512C533 35.5009 534.911 36 536.521 36C537.854 36 538.663 35.4264 538.663 35.4264C538.696 35.408 538.699 35.361 538.699 35.3392V31.5984C538.699 31.568 538.687 31.5389 538.666 31.5174C538.645 31.4959 538.616 31.484 538.586 31.484ZM551.031 28.3907H549.659C549.644 28.3908 549.629 28.3938 549.615 28.3996C549.602 28.4055 549.589 28.414 549.579 28.4247C549.568 28.4354 549.56 28.4481 549.554 28.4621C549.548 28.476 549.546 28.491 549.546 28.506L549.546 31.1757H547.407V28.506C547.407 28.491 547.404 28.4761 547.399 28.4621C547.393 28.4482 547.385 28.4355 547.374 28.4248C547.364 28.4141 547.351 28.4055 547.338 28.3997C547.324 28.3939 547.309 28.3908 547.294 28.3907H545.922C545.907 28.3908 545.892 28.3938 545.878 28.3996C545.865 28.4055 545.852 28.414 545.841 28.4247C545.831 28.4354 545.823 28.4481 545.817 28.4621C545.811 28.476 545.808 28.491 545.809 28.506V35.735C545.809 35.7985 545.86 35.8503 545.922 35.8503H547.294C547.309 35.8502 547.324 35.8471 547.338 35.8413C547.351 35.8354 547.364 35.8269 547.374 35.8161C547.385 35.8054 547.393 35.7927 547.399 35.7787C547.404 35.7648 547.407 35.7498 547.407 35.7347V32.6428H549.546L549.542 35.7347C549.542 35.7985 549.593 35.8503 549.656 35.8503H551.031C551.046 35.8502 551.061 35.8471 551.075 35.8413C551.089 35.8354 551.101 35.8269 551.112 35.8161C551.122 35.8054 551.131 35.7927 551.136 35.7787C551.142 35.7648 551.145 35.7498 551.144 35.7347V28.5058C551.145 28.4907 551.142 28.4758 551.136 28.4618C551.131 28.4479 551.122 28.4352 551.112 28.4245C551.101 28.4138 551.089 28.4053 551.075 28.3995C551.061 28.3937 551.046 28.3907 551.031 28.3907ZM540.29 28.5551C539.802 28.5551 539.406 28.957 539.406 29.4545C539.406 29.9514 539.802 30.3544 540.29 30.3544C540.779 30.3544 541.175 29.9514 541.175 29.4545C541.175 28.957 540.779 28.5551 540.29 28.5551ZM540.963 30.7579H539.596C539.533 30.7579 539.477 30.823 539.477 30.8863V35.6671C539.477 35.8076 539.564 35.8494 539.676 35.8494H540.908C541.044 35.8494 541.077 35.7824 541.077 35.6648V30.8733C541.077 30.8582 541.074 30.8433 541.068 30.8294C541.063 30.8154 541.054 30.8028 541.044 30.7921C541.033 30.7814 541.021 30.7729 541.007 30.7671C540.993 30.7612 540.978 30.758 540.963 30.7579ZM556.359 30.7687H554.997C554.983 30.7688 554.968 30.7719 554.954 30.7778C554.94 30.7837 554.928 30.7922 554.917 30.8029C554.907 30.8137 554.898 30.8264 554.893 30.8403C554.887 30.8543 554.884 30.8692 554.885 30.8843V34.4288C554.885 34.4288 554.538 34.6833 554.048 34.6833C553.557 34.6833 553.427 34.4593 553.427 33.9753V30.8843C553.427 30.8692 553.424 30.8542 553.418 30.8403C553.413 30.8263 553.404 30.8136 553.394 30.8029C553.383 30.7921 553.371 30.7836 553.357 30.7777C553.343 30.7719 553.328 30.7688 553.313 30.7687H551.932C551.901 30.769 551.872 30.7812 551.851 30.8029C551.83 30.8246 551.818 30.8538 551.818 30.8843V34.2092C551.818 35.6467 552.614 35.9984 553.709 35.9984C554.607 35.9984 555.331 35.4986 555.331 35.4986C555.331 35.4986 555.365 35.7622 555.381 35.7932C555.397 35.8244 555.437 35.8558 555.481 35.8558L556.36 35.8519C556.375 35.8518 556.39 35.8488 556.404 35.843C556.418 35.8371 556.431 35.8286 556.441 35.8179C556.452 35.8071 556.46 35.7944 556.466 35.7804C556.471 35.7664 556.474 35.7515 556.474 35.7363L556.474 30.8836C556.474 30.8532 556.462 30.824 556.44 30.8025C556.419 30.7809 556.39 30.769 556.359 30.7687ZM560.081 30.6064C559.308 30.6064 558.781 30.9537 558.781 30.9537V28.5058C558.782 28.4907 558.779 28.4758 558.773 28.4619C558.767 28.4479 558.759 28.4352 558.749 28.4245C558.738 28.4138 558.726 28.4053 558.712 28.3995C558.698 28.3936 558.683 28.3906 558.668 28.3905H557.293C557.278 28.3905 557.263 28.3935 557.249 28.3993C557.235 28.4051 557.222 28.4136 557.212 28.4243C557.201 28.435 557.193 28.4477 557.187 28.4617C557.181 28.4757 557.179 28.4907 557.179 28.5058V35.7347C557.179 35.7498 557.181 35.7648 557.187 35.7788C557.193 35.7928 557.201 35.8055 557.212 35.8162C557.222 35.827 557.235 35.8355 557.249 35.8413C557.263 35.8471 557.278 35.8501 557.293 35.8501H558.247C558.29 35.8501 558.323 35.8278 558.347 35.7886C558.37 35.7496 558.405 35.4553 558.405 35.4553C558.405 35.4553 558.967 35.9917 560.032 35.9917C561.283 35.9917 562 35.3535 562 33.1254C562 30.8973 560.855 30.6064 560.081 30.6064ZM559.543 34.6792C559.071 34.6647 558.751 34.449 558.751 34.449V32.1597C558.751 32.1597 559.067 31.9648 559.455 31.9295C559.945 31.8853 560.417 32.0345 560.417 33.2121C560.417 34.454 560.204 34.6993 559.543 34.6792ZM545.039 34.6521C544.98 34.6521 544.826 34.6766 544.668 34.6766C544.163 34.6766 543.991 34.44 543.991 34.1337V32.101H545.021C545.036 32.101 545.05 32.098 545.064 32.0922C545.078 32.0864 545.091 32.0779 545.101 32.0671C545.112 32.0564 545.12 32.0436 545.126 32.0296C545.132 32.0156 545.135 32.0006 545.134 31.9855V30.8721C545.135 30.857 545.132 30.8421 545.126 30.8281C545.12 30.8141 545.112 30.8014 545.101 30.7908C545.091 30.7801 545.078 30.7716 545.064 30.7658C545.05 30.76 545.036 30.757 545.021 30.757H543.991L543.99 29.3883C543.99 29.3362 543.963 29.3103 543.904 29.3103H542.501C542.447 29.3103 542.417 29.3346 542.417 29.3871V30.8017C542.417 30.8017 541.714 30.9725 541.667 30.9863C541.643 30.9932 541.622 31.0077 541.608 31.0276C541.593 31.0474 541.585 31.0715 541.585 31.0963V31.9852C541.585 32.0003 541.588 32.0152 541.593 32.0291C541.599 32.0431 541.607 32.0558 541.618 32.0665C541.628 32.0772 541.641 32.0857 541.654 32.0916C541.668 32.0974 541.683 32.1005 541.698 32.1005H542.417V34.2392C542.417 35.828 543.524 35.984 544.271 35.984C544.612 35.984 545.02 35.8739 545.088 35.8487C545.129 35.8333 545.152 35.7909 545.152 35.7448L545.153 34.767C545.152 34.7367 545.14 34.7077 545.119 34.6863C545.098 34.6648 545.07 34.6527 545.039 34.6521Z" fill="#151515"/>
<defs>
<linearGradient id="paint0_linear_98_7087" x1="212.278" y1="25.636" x2="211.507" y2="37.0952" gradientUnits="userSpaceOnUse">
<stop stop-color="#FD5200"/>
<stop offset="0.2722" stop-color="#FFDC38"/>
<stop offset="0.9626" stop-color="#F3FEAB"/>
</linearGradient>
<linearGradient id="paint1_linear_98_7087" x1="205.115" y1="2.21575" x2="197.398" y2="31.9963" gradientUnits="userSpaceOnUse">
<stop offset="0.4072" stop-color="#9E010A"/>
<stop offset="0.6244" stop-color="#FC56A4"/>
<stop offset="0.689" stop-color="#F2A780"/>
<stop offset="0.7431" stop-color="#FFC78A"/>
</linearGradient>
<linearGradient id="paint2_linear_98_7087" x1="213.837" y1="11.2661" x2="210.981" y2="31.7959" gradientUnits="userSpaceOnUse">
<stop offset="0.4072" stop-color="#9E010A"/>
<stop offset="0.6244" stop-color="#FC56A4"/>
<stop offset="0.689" stop-color="#F2A780"/>
<stop offset="0.7431" stop-color="#FFC78A"/>
</linearGradient>
<linearGradient id="paint3_linear_98_7087" x1="219.681" y1="15.6564" x2="197.975" y2="31.3025" gradientUnits="userSpaceOnUse">
<stop offset="0.0753769" stop-color="#0C64CC"/>
<stop offset="0.3348" stop-color="#1F9FE3"/>
<stop offset="0.4851" stop-color="#1B9DEB"/>
<stop offset="0.7569" stop-color="#72F07F"/>
<stop offset="0.8584" stop-color="#DBFEC8"/>
<stop offset="0.9913" stop-color="#F6F9B1"/>
</linearGradient>
<linearGradient id="paint4_linear_98_7087" x1="219.043" y1="24.4648" x2="209.699" y2="18.9028" gradientUnits="userSpaceOnUse">
<stop offset="0.0251256" stop-color="#4226A2"/>
<stop offset="0.2769" stop-color="#7357CB"/>
<stop offset="0.4721" stop-color="#4783DF"/>
<stop offset="0.5228" stop-color="#3B8FE4"/>
<stop offset="0.5797" stop-color="#3B9DE4"/>
<stop offset="0.6561" stop-color="#3BA7E4"/>
<stop offset="0.7412" stop-color="#3BABE4"/>
</linearGradient>
<linearGradient id="paint5_linear_98_7087" x1="207.854" y1="43.275" x2="198.599" y2="37.7658" gradientUnits="userSpaceOnUse">
<stop stop-color="#4226A2"/>
<stop offset="0.3221" stop-color="#7357CB"/>
<stop offset="0.6283" stop-color="#3B8FE4"/>
</linearGradient>
<linearGradient id="paint6_linear_98_7087" x1="229.278" y1="8.7845" x2="196.995" y2="34.0165" gradientUnits="userSpaceOnUse">
<stop stop-color="#7C4ADF"/>
<stop offset="0.3459" stop-color="#E251D8"/>
<stop offset="0.7297" stop-color="#FCDFBC"/>
<stop offset="0.8312" stop-color="#F6F8B0"/>
<stop offset="0.9186" stop-color="#FFFFF2"/>
<stop offset="0.9894" stop-color="#F6F8B0"/>
</linearGradient>
</defs>
</svg>
