<svg width="42" height="42" viewBox="0 0 42 42" fill="none" xmlns="http://www.w3.org/2000/svg">
<mask id="mask0_12_70" style="mask-type:luminance" maskUnits="userSpaceOnUse" x="0" y="0" width="42" height="42">
<path d="M42 0H0V42H42V0Z" fill="white"/>
</mask>
<g mask="url(#mask0_12_70)">
<path fill-rule="evenodd" clip-rule="evenodd" d="M20.9374 0.439209C9.35957 0.439209 0 10.0977 0 22.0467C0 31.5981 5.997 39.6832 14.3164 42.5447C15.3566 42.7598 15.7376 42.0798 15.7376 41.5077C15.7376 41.0068 15.7033 39.2898 15.7033 37.5008C9.879 38.7889 8.66614 34.925 8.66614 34.925C7.73014 32.4209 6.34329 31.7772 6.34329 31.7772C4.437 30.4535 6.48214 30.4535 6.48214 30.4535C8.59671 30.5966 9.70629 32.6715 9.70629 32.6715C11.5779 35.9624 14.5937 35.0325 15.807 34.4601C15.9801 33.0649 16.5351 32.099 17.1244 31.5625C12.4791 31.0616 7.59171 29.2014 7.59171 20.9017C7.59171 18.5406 8.42314 16.6089 9.74057 15.1066C9.53271 14.57 8.80457 12.3517 9.94886 9.38257C9.94886 9.38257 11.7167 8.81008 15.7029 11.6005C17.4095 11.1276 19.1695 10.887 20.9374 10.8849C22.7053 10.8849 24.5074 11.1356 26.1716 11.6005C30.1581 8.81008 31.926 9.38257 31.926 9.38257C33.0703 12.3517 32.3417 14.57 32.1339 15.1066C33.486 16.6089 34.2831 18.5406 34.2831 20.9017C34.2831 29.2014 29.3957 31.0256 24.7157 31.5625C25.4786 32.2421 26.1369 33.5298 26.1369 35.569C26.1369 38.4666 26.1026 40.7922 26.1026 41.5073C26.1026 42.0798 26.484 42.7598 27.5237 42.5451C35.8431 39.6828 41.8401 31.5981 41.8401 22.0467C41.8744 10.0977 32.4806 0.439209 20.9374 0.439209Z" fill="white"/>
</g>
</svg>
