<svg width="2033" height="865" viewBox="0 0 2033 865" fill="none" xmlns="http://www.w3.org/2000/svg">
<path d="M261.44 489C258.48 489 257 487.4 257 484.2V409.8C257 406.6 258.48 405 261.44 405H283.04C293.84 405 301.76 408.4 306.8 415.2C311.92 422 314.48 432.6 314.48 447C314.48 461.4 311.92 472 306.8 478.8C301.76 485.6 293.84 489 283.04 489H261.44ZM275.6 473.28H283.16C287.64 473.28 290.8 471.24 292.64 467.16C294.56 463.08 295.52 456.36 295.52 447C295.52 437.64 294.56 430.92 292.64 426.84C290.8 422.76 287.64 420.72 283.16 420.72H275.6V473.28ZM352.348 489.96C344.348 489.96 338.268 487.16 334.108 481.56C329.948 475.96 327.868 467.96 327.868 457.56C327.868 447.08 329.908 439.08 333.988 433.56C338.148 428.04 344.268 425.28 352.348 425.28C360.508 425.28 366.628 428.04 370.708 433.56C374.868 439.08 376.948 447.08 376.948 457.56C376.948 467.96 374.868 475.96 370.708 481.56C366.548 487.16 360.428 489.96 352.348 489.96ZM352.468 475.92C354.788 475.92 356.388 474.56 357.268 471.84C358.228 469.12 358.708 464.36 358.708 457.56C358.708 450.76 358.228 446.04 357.268 443.4C356.388 440.68 354.788 439.32 352.468 439.32C350.148 439.32 348.508 440.68 347.548 443.4C346.588 446.04 346.108 450.76 346.108 457.56C346.108 464.36 346.588 469.12 347.548 471.84C348.508 474.56 350.148 475.92 352.468 475.92ZM404.784 489.24C403.184 489.24 401.784 489.04 400.584 488.64C399.384 488.16 398.624 487.16 398.304 485.64L386.664 430.8C386.584 430.4 386.504 430.04 386.424 429.72C386.424 429.32 386.424 428.96 386.424 428.64C386.424 426.88 388.504 426 392.664 426H396.744C398.424 426 399.904 426.2 401.184 426.6C402.464 427 403.144 427.76 403.224 428.88L406.944 474.24H407.424L412.704 429.72C412.864 428.2 413.424 427.2 414.384 426.72C415.424 426.24 416.984 426 419.064 426H424.584C426.664 426 428.224 426.24 429.264 426.72C430.304 427.2 430.864 428.2 430.944 429.72L435.264 474.24H435.744L439.704 428.88C439.864 427.76 440.544 427 441.744 426.6C443.024 426.2 444.504 426 446.184 426H449.784C453.944 426 456.024 426.88 456.024 428.64C456.024 428.96 455.984 429.32 455.904 429.72C455.904 430.04 455.864 430.4 455.784 430.8L443.904 485.64C443.584 487.16 442.824 488.16 441.624 488.64C440.504 489.04 439.104 489.24 437.424 489.24H433.104C431.504 489.24 430.064 489 428.784 488.52C427.504 488.04 426.784 487.04 426.624 485.52L421.824 439.92H421.344L415.584 485.52C415.424 487.04 414.704 488.04 413.424 488.52C412.224 489 410.784 489.24 409.104 489.24H404.784ZM475.065 489.24C472.505 489.24 470.625 488.92 469.425 488.28C468.305 487.56 467.745 486.56 467.745 485.28V447.12C467.745 443.6 467.625 440.8 467.385 438.72C467.225 436.56 467.025 434.88 466.785 433.68C466.625 432.48 466.545 431.44 466.545 430.56C466.545 429.68 467.105 428.96 468.225 428.4C469.425 427.84 470.825 427.44 472.425 427.2C474.105 426.88 475.665 426.68 477.105 426.6C478.625 426.44 479.705 426.36 480.345 426.36C481.785 426.36 482.745 426.88 483.225 427.92C483.705 428.96 484.265 431.12 484.905 434.4C486.665 432.16 488.945 430.08 491.745 428.16C494.625 426.24 497.945 425.28 501.705 425.28C506.505 425.28 510.185 426.72 512.745 429.6C515.305 432.4 516.585 436.52 516.585 441.96V485.28C516.585 486.56 515.985 487.56 514.785 488.28C513.665 488.92 511.825 489.24 509.265 489.24H505.905C503.345 489.24 501.465 488.92 500.265 488.28C499.145 487.56 498.585 486.56 498.585 485.28V445.56C498.585 443.72 498.185 442.32 497.385 441.36C496.585 440.4 495.145 439.92 493.065 439.92C491.785 439.92 490.465 440.28 489.105 441C487.745 441.72 486.625 442.64 485.745 443.76V485.28C485.745 486.56 485.145 487.56 483.945 488.28C482.825 488.92 480.985 489.24 478.425 489.24H475.065ZM547.588 489.96C537.188 489.96 531.988 484.12 531.988 472.44V402.48C531.988 401.2 532.548 400.24 533.668 399.6C534.868 398.88 536.748 398.52 539.308 398.52H542.668C545.228 398.52 547.068 398.88 548.188 399.6C549.388 400.24 549.988 401.2 549.988 402.48V470.76C549.988 472.52 550.188 473.84 550.588 474.72C551.068 475.52 551.948 475.92 553.228 475.92C554.108 475.92 554.788 475.84 555.268 475.68C555.748 475.52 556.268 475.44 556.828 475.44C557.548 475.44 558.148 476 558.628 477.12C559.108 478.24 559.468 479.48 559.708 480.84C559.948 482.2 560.068 483.24 560.068 483.96C560.068 485.16 559.428 486.24 558.148 487.2C556.948 488.08 555.388 488.76 553.468 489.24C551.628 489.72 549.668 489.96 547.588 489.96ZM591.973 489.96C583.973 489.96 577.893 487.16 573.733 481.56C569.573 475.96 567.493 467.96 567.493 457.56C567.493 447.08 569.533 439.08 573.613 433.56C577.773 428.04 583.893 425.28 591.973 425.28C600.133 425.28 606.253 428.04 610.333 433.56C614.493 439.08 616.573 447.08 616.573 457.56C616.573 467.96 614.493 475.96 610.333 481.56C606.173 487.16 600.053 489.96 591.973 489.96ZM592.093 475.92C594.413 475.92 596.013 474.56 596.893 471.84C597.853 469.12 598.333 464.36 598.333 457.56C598.333 450.76 597.853 446.04 596.893 443.4C596.013 440.68 594.413 439.32 592.093 439.32C589.773 439.32 588.133 440.68 587.173 443.4C586.213 446.04 585.733 450.76 585.733 457.56C585.733 464.36 586.213 469.12 587.173 471.84C588.133 474.56 589.773 475.92 592.093 475.92ZM646.901 489.96C641.221 489.96 636.901 488.24 633.941 484.8C630.981 481.36 629.501 476.8 629.501 471.12C629.501 468.8 629.821 466.36 630.461 463.8C631.101 461.24 632.421 458.84 634.421 456.6C636.421 454.28 639.421 452.4 643.421 450.96C647.421 449.52 652.741 448.8 659.381 448.8V446.88C659.381 444.32 658.781 442.44 657.581 441.24C656.461 439.96 654.621 439.32 652.061 439.32C649.261 439.32 646.701 439.64 644.381 440.28C642.141 440.92 640.261 441.56 638.741 442.2C637.221 442.84 636.101 443.16 635.381 443.16C634.581 443.16 633.941 442.56 633.461 441.36C632.981 440.08 632.621 438.64 632.381 437.04C632.221 435.44 632.141 434.16 632.141 433.2C632.141 432 633.181 430.8 635.261 429.6C637.341 428.4 640.021 427.4 643.301 426.6C646.581 425.72 649.941 425.28 653.381 425.28C659.301 425.28 663.981 426.16 667.421 427.92C670.941 429.68 673.461 432.12 674.981 435.24C676.581 438.36 677.381 441.96 677.381 446.04V468.24C677.381 471.76 677.461 474.56 677.621 476.64C677.861 478.72 678.061 480.4 678.221 481.68C678.461 482.88 678.581 483.92 678.581 484.8C678.581 485.68 677.981 486.4 676.781 486.96C675.661 487.52 674.301 487.96 672.701 488.28C671.101 488.6 669.581 488.84 668.141 489C666.781 489.08 665.861 489.12 665.381 489.12C663.861 489.12 662.821 488.72 662.261 487.92C661.701 487.04 661.181 485.4 660.701 483C659.821 484.36 658.221 485.88 655.901 487.56C653.661 489.16 650.661 489.96 646.901 489.96ZM653.261 477.12C656.061 477.12 658.101 475.8 659.381 473.16V459.12C654.981 459.12 651.861 460.12 650.021 462.12C648.261 464.12 647.381 466.68 647.381 469.8C647.381 471.96 647.861 473.72 648.821 475.08C649.861 476.44 651.341 477.12 653.261 477.12ZM710.362 490.08C704.682 490.08 700.122 487.32 696.682 481.8C693.242 476.2 691.522 468.08 691.522 457.44C691.522 447.12 693.242 439.2 696.682 433.68C700.122 428.08 704.562 425.28 710.002 425.28C712.322 425.28 714.602 425.84 716.842 426.96C719.162 428.08 720.882 429.48 722.002 431.16V402.48C722.002 401.2 722.562 400.24 723.682 399.6C724.882 398.88 726.762 398.52 729.322 398.52H732.682C735.242 398.52 737.082 398.88 738.202 399.6C739.402 400.24 740.002 401.2 740.002 402.48V468.12C740.002 471.64 740.082 474.44 740.242 476.52C740.482 478.6 740.682 480.28 740.842 481.56C741.082 482.76 741.202 483.8 741.202 484.68C741.202 485.56 740.602 486.28 739.402 486.84C738.282 487.4 736.882 487.84 735.202 488.16C733.602 488.48 732.042 488.72 730.522 488.88C729.082 488.96 728.042 489 727.402 489C726.042 489 725.082 488.48 724.522 487.44C724.042 486.32 723.482 484.12 722.842 480.84C721.722 483.48 720.082 485.68 717.922 487.44C715.762 489.2 713.242 490.08 710.362 490.08ZM716.602 475.92C717.722 475.92 718.722 475.64 719.602 475.08C720.562 474.44 721.362 473.72 722.002 472.92V443.88C721.202 442.76 720.322 441.8 719.362 441C718.402 440.2 717.242 439.8 715.882 439.8C713.802 439.8 712.242 441.12 711.202 443.76C710.242 446.32 709.762 450.92 709.762 457.56C709.762 464.76 710.322 469.64 711.442 472.2C712.642 474.68 714.362 475.92 716.602 475.92ZM786.364 489.24C781.564 489.24 779.164 487.92 779.164 485.28V409.8C779.164 406.6 780.644 405 783.604 405H804.364C813.164 405 819.684 407.2 823.924 411.6C828.244 416 830.404 422.6 830.404 431.4C830.404 440.12 828.244 446.72 823.924 451.2C819.684 455.6 813.164 457.8 804.364 457.8H797.764V485.28C797.764 487.92 795.364 489.24 790.564 489.24H786.364ZM797.764 442.08H804.364C807.404 442.08 809.484 441.24 810.604 439.56C811.804 437.88 812.404 435.16 812.404 431.4C812.404 427.64 811.804 424.92 810.604 423.24C809.484 421.56 807.404 420.72 804.364 420.72H797.764V442.08ZM848.432 489C845.472 489 843.992 487.4 843.992 484.2V409.8C843.992 406.6 845.472 405 848.432 405H870.032C880.832 405 888.752 408.4 893.792 415.2C898.912 422 901.472 432.6 901.472 447C901.472 461.4 898.912 472 893.792 478.8C888.752 485.6 880.832 489 870.032 489H848.432ZM862.592 473.28H870.152C874.632 473.28 877.792 471.24 879.632 467.16C881.552 463.08 882.512 456.36 882.512 447C882.512 437.64 881.552 430.92 879.632 426.84C877.792 422.76 874.632 420.72 870.152 420.72H862.592V473.28ZM924.341 489.24C919.541 489.24 917.141 487.92 917.141 485.28V409.8C917.141 406.6 918.621 405 921.581 405H954.221C956.541 405 957.701 407 957.701 411V414.72C957.701 418.72 956.541 420.72 954.221 420.72H935.741V440.52H953.141C955.461 440.52 956.621 442.52 956.621 446.52V450.24C956.621 454.24 955.461 456.24 953.141 456.24H935.741V485.28C935.741 487.92 933.341 489.24 928.541 489.24H924.341Z" fill="#FF8800"/>
<path d="M1172 428.336C1172.01 432.736 1172.18 434.316 1172.39 431.836C1172.6 429.356 1172.6 425.766 1172.39 423.836C1172.17 421.906 1172 423.936 1172 428.336Z" fill="#5A6259"/>
<path fill-rule="evenodd" clip-rule="evenodd" d="M1591.66 13.0157C1601.29 12.9157 1616.36 13.3057 1625.16 13.8757C1633.96 14.4457 1649.04 16.0357 1658.66 17.4157C1668.29 18.7957 1682.46 21.3057 1690.16 22.9857C1697.86 24.6757 1710.12 27.8057 1717.41 29.9457C1724.7 32.0857 1736.4 35.9157 1743.41 38.4557C1750.42 40.9957 1761.33 45.2956 1767.66 48.0056C1773.99 50.7156 1786.36 56.6556 1795.16 61.2056C1803.96 65.7456 1816.56 72.8757 1823.16 77.0557C1829.76 81.2257 1839.43 87.6957 1844.66 91.4157C1849.89 95.1457 1858.21 101.436 1863.16 105.386C1868.11 109.346 1878.46 118.416 1886.16 125.546C1893.86 132.676 1904.97 143.876 1910.85 150.426C1916.72 156.976 1925.64 167.516 1930.66 173.836C1935.68 180.156 1943.98 191.636 1949.11 199.336C1954.24 207.036 1961.49 218.736 1965.23 225.336C1968.96 231.936 1974.92 243.406 1978.47 250.836C1982.02 258.266 1986.85 269.066 1989.21 274.836C1991.58 280.606 1995.76 292.086 1998.51 300.336C2001.26 308.586 2005.34 322.766 2007.56 331.836C2009.79 340.906 2012.74 355.316 2014.11 363.836C2015.48 372.356 2017.08 384.066 2017.67 389.836C2018.25 395.606 2019 408.656 2019.33 418.836C2019.66 429.236 2019.41 445.656 2018.76 456.336C2018.12 466.786 2016.67 481.856 2015.55 489.836C2014.43 497.816 2012.41 509.736 2011.07 516.336C2009.72 522.936 2007.08 534.186 2005.2 541.336C2003.32 548.486 1999.67 560.636 1997.08 568.336C1994.49 576.036 1989.92 588.186 1986.92 595.336C1983.92 602.486 1977.46 616.206 1972.57 625.836C1967.68 635.456 1960.63 648.176 1956.92 654.096C1953.2 660.016 1946.25 670.366 1941.48 677.096C1936.7 683.826 1927.96 695.186 1922.06 702.336C1916.15 709.486 1904.76 721.886 1896.74 729.886C1888.72 737.886 1876.31 749.296 1869.16 755.246C1862.01 761.186 1850.31 770.246 1843.16 775.366C1836.01 780.486 1824.08 788.336 1816.66 792.826C1809.24 797.306 1796.64 804.276 1788.66 808.306C1780.68 812.336 1768.31 818.096 1761.16 821.106C1754.01 824.116 1741.64 828.826 1733.66 831.576C1725.68 834.336 1712.86 838.196 1705.16 840.156C1697.46 842.126 1686.66 844.636 1681.16 845.746C1675.66 846.846 1666.43 848.436 1660.66 849.266C1654.89 850.106 1644.99 851.346 1638.66 852.026C1632.26 852.716 1614.06 853.276 1597.66 853.296C1579.87 853.316 1563.2 852.796 1555.66 851.996C1548.78 851.266 1536.18 849.576 1527.66 848.236C1519.14 846.906 1505.18 844.206 1496.66 842.236C1488.14 840.276 1472.61 835.826 1462.16 832.356C1451.71 828.886 1436.75 823.296 1428.91 819.946C1421.07 816.586 1409.82 811.416 1403.91 808.456C1398 805.496 1388.66 800.486 1383.16 797.316C1377.66 794.156 1367.31 787.686 1360.16 782.946C1353.01 778.216 1341.99 770.326 1335.66 765.436C1329.34 760.536 1319.44 752.376 1313.66 747.306C1307.88 742.236 1297.74 732.516 1291.13 725.706C1284.51 718.906 1274.38 707.666 1268.63 700.726C1262.87 693.796 1254.48 682.996 1249.99 676.726C1245.49 670.466 1238.01 659.036 1233.35 651.336C1228.7 643.636 1221.5 630.586 1217.37 622.336C1213.23 614.086 1207.74 602.386 1205.16 596.336C1202.59 590.286 1197.84 577.456 1194.6 567.836C1191.37 558.206 1187.15 544.036 1185.22 536.336C1183.29 528.636 1180.57 516.036 1179.16 508.336C1177.76 500.636 1175.85 488.706 1174.92 481.836C1173.62 472.116 1173.23 461.226 1173.2 432.836C1173.17 403.116 1173.5 393.736 1174.98 382.336C1175.99 374.636 1177.92 362.266 1179.28 354.836C1180.64 347.406 1183.32 335.036 1185.25 327.336C1187.17 319.636 1191 306.586 1193.75 298.336C1196.51 290.086 1201.03 277.936 1203.81 271.336C1206.59 264.736 1212.17 252.816 1216.21 244.836C1220.26 236.856 1227.22 224.266 1231.69 216.836C1236.16 209.406 1243.27 198.426 1247.49 192.436C1251.71 186.436 1259.87 175.636 1265.63 168.436C1271.39 161.226 1283.09 148.196 1291.63 139.466C1300.17 130.736 1312.11 119.316 1318.16 114.096C1324.21 108.866 1333.66 101.226 1339.16 97.1057C1344.66 92.9857 1354.11 86.3556 1360.16 82.3756C1366.21 78.3856 1376.34 72.1957 1382.66 68.6057C1388.98 65.0257 1398.21 60.0657 1403.16 57.5857C1408.11 55.1157 1417.34 50.8357 1423.66 48.0857C1429.98 45.3257 1440.79 41.0357 1447.66 38.5457C1454.53 36.0457 1465.79 32.3757 1472.66 30.3757C1479.53 28.3857 1490.79 25.4657 1497.66 23.8857C1504.53 22.3057 1515.56 20.0957 1522.16 18.9857C1528.76 17.8657 1540.91 16.2556 1549.16 15.3956C1557.41 14.5356 1566.41 13.6857 1569.16 13.5157C1571.91 13.3357 1582.03 13.1157 1591.66 13.0157ZM1548.16 32.4157C1540.46 33.2657 1528.09 35.0656 1520.66 36.4256C1513.23 37.7856 1500.86 40.4757 1493.16 42.4157C1485.46 44.3557 1472.18 48.2357 1463.66 51.0257C1455.14 53.8257 1442.31 58.5757 1435.16 61.5757C1428.01 64.5857 1415.64 70.3556 1407.66 74.3956C1399.68 78.4456 1388.21 84.7357 1382.16 88.3857C1376.11 92.0257 1366.25 98.4557 1360.26 102.676C1354.26 106.886 1343.46 115.056 1336.26 120.816C1329.05 126.576 1316.17 138.276 1307.63 146.816C1299.08 155.356 1288.35 166.836 1283.79 172.336C1279.22 177.836 1272.28 186.606 1268.36 191.836C1264.45 197.066 1257.6 206.956 1253.13 213.836C1248.67 220.706 1242.97 229.936 1240.46 234.336C1237.96 238.736 1233.21 247.736 1229.9 254.336C1226.59 260.936 1221.62 271.736 1218.85 278.336C1216.08 284.936 1211.77 296.406 1209.28 303.836C1206.78 311.266 1202.93 324.536 1200.73 333.336C1198.52 342.136 1195.62 355.856 1194.27 363.836C1192.92 371.816 1191.23 383.516 1190.51 389.836C1189.7 396.916 1189.2 413.046 1189.22 431.836C1189.23 454.836 1189.67 465.896 1191.01 476.836C1191.99 484.816 1193.67 496.506 1194.74 502.836C1195.82 509.166 1198.3 520.856 1200.26 528.836C1202.22 536.816 1205.64 548.956 1207.87 555.836C1210.1 562.706 1213.85 573.286 1216.19 579.336C1218.53 585.386 1222.73 595.286 1225.51 601.336C1228.3 607.386 1233.58 617.956 1237.24 624.836C1240.91 631.706 1246.66 641.746 1250.03 647.136C1253.4 652.526 1259.98 662.276 1264.66 668.816C1269.34 675.346 1277.18 685.556 1282.1 691.516C1287.01 697.466 1298.26 709.546 1307.1 718.356C1315.93 727.166 1329.05 739.086 1336.26 744.856C1343.46 750.616 1354.26 758.786 1360.26 762.996C1366.25 767.206 1376.34 773.796 1382.66 777.626C1388.98 781.466 1400.23 787.766 1407.66 791.636C1415.09 795.496 1427.23 801.236 1434.66 804.386C1442.09 807.546 1454.91 812.476 1463.16 815.366C1471.41 818.246 1485.36 822.426 1494.16 824.656C1502.96 826.886 1515.34 829.636 1521.66 830.766C1527.98 831.906 1538.11 833.476 1544.16 834.276C1550.21 835.066 1563.03 836.256 1572.66 836.906C1583.08 837.616 1597.45 837.846 1608.16 837.466C1618.06 837.116 1634.03 835.936 1643.66 834.826C1653.28 833.726 1669.03 831.216 1678.66 829.246C1688.28 827.276 1702.24 823.906 1709.66 821.776C1717.08 819.636 1728.56 815.916 1735.16 813.506C1741.76 811.096 1751.66 807.206 1757.16 804.866C1762.66 802.516 1773.01 797.686 1780.16 794.136C1787.31 790.576 1798.78 784.316 1805.66 780.216C1812.53 776.116 1823.43 769.066 1829.87 764.546C1836.32 760.026 1846.44 752.456 1852.37 747.716C1858.31 742.966 1868.78 733.906 1875.66 727.566C1882.53 721.236 1892.5 711.166 1897.81 705.196C1903.12 699.226 1910.36 690.736 1913.9 686.336C1917.45 681.936 1923.7 673.606 1927.81 667.836C1931.91 662.066 1938.37 652.386 1942.17 646.336C1945.97 640.286 1952.78 628.136 1957.31 619.336C1961.84 610.536 1967.87 597.936 1970.7 591.336C1973.54 584.736 1978.23 572.356 1981.12 563.836C1984.02 555.316 1988.01 542.036 1989.99 534.336C1991.96 526.636 1994.7 514.256 1996.07 506.836C1997.44 499.416 1999.31 487.706 2000.23 480.836C2001.32 472.636 2002.07 458.006 2002.39 438.336C2002.78 414.606 2002.53 404.886 2001.2 391.836C2000.28 382.766 1998.41 369.266 1997.05 361.836C1995.69 354.406 1993.21 342.706 1991.54 335.836C1989.87 328.956 1986.46 317.036 1983.96 309.336C1981.46 301.636 1977.22 289.826 1974.54 283.086C1971.86 276.346 1967.04 265.326 1963.84 258.586C1960.64 251.846 1954.95 240.936 1951.21 234.336C1947.46 227.736 1940.22 216.036 1935.11 208.336C1930 200.636 1921.14 188.486 1915.41 181.336C1909.68 174.186 1898.51 161.636 1890.58 153.446C1882.65 145.246 1871.21 134.266 1865.16 129.046C1859.11 123.816 1849.21 115.856 1843.16 111.346C1837.11 106.846 1828.56 100.746 1824.16 97.7957C1819.76 94.8457 1810.99 89.3357 1804.66 85.5757C1798.33 81.8057 1786.86 75.6457 1779.16 71.8857C1771.46 68.1357 1757.74 62.1157 1748.66 58.5257C1739.58 54.9257 1726.76 50.3456 1720.16 48.3556C1713.56 46.3656 1702.99 43.4257 1696.66 41.8357C1690.33 40.2557 1678.86 37.8156 1671.16 36.4256C1663.46 35.0356 1651.08 33.1657 1643.66 32.2757C1634.88 31.2257 1619.84 30.5456 1600.66 30.3556C1584.43 30.1956 1569.14 30.2357 1566.66 30.4557C1564.18 30.6857 1555.86 31.5557 1548.16 32.4157Z" fill="#FF8800"/>
<path d="M2003.03 431.835C2003.03 437.605 2003.2 439.855 2003.4 436.835C2003.6 433.815 2003.6 429.085 2003.4 426.335C2003.2 423.585 2003.03 426.065 2003.03 431.835Z" fill="#B8BEC0"/>
<path d="M1588.16 29.5755C1590.91 29.7755 1594.96 29.7756 1597.16 29.5656C1599.36 29.3556 1597.11 29.1855 1592.16 29.1855C1587.21 29.1955 1585.41 29.3655 1588.16 29.5755Z" fill="#5E5E5D"/>
<path fill-rule="evenodd" clip-rule="evenodd" d="M1612.13 66.3352C1611.98 66.8852 1611.16 79.9352 1610.32 95.3352C1609.47 110.735 1608.87 123.425 1608.97 123.535C1609.08 123.635 1611.63 124.025 1614.66 124.395L1620.16 125.055C1622.91 82.6452 1623.7 69.3252 1623.68 68.0852C1623.66 66.0552 1623.12 65.8152 1618.03 65.5852C1614.91 65.4452 1612.28 65.7852 1612.13 66.3352ZM1652.33 97.5852C1649.18 112.845 1646.61 125.895 1646.63 126.585C1646.65 127.295 1648.49 128.055 1650.91 128.355C1653.25 128.645 1655.58 128.985 1656.1 129.105C1656.61 129.235 1657.84 125.735 1658.83 121.335C1659.82 116.935 1661.55 108.385 1662.68 102.335C1663.81 96.2852 1664.83 91.2652 1664.95 91.1852C1665.06 91.0952 1668.08 100.895 1671.66 112.965C1677.08 131.265 1678.49 134.965 1680.16 135.305C1681.26 135.535 1683.85 135.975 1685.91 136.275C1688.93 136.725 1689.75 136.495 1690.12 135.085C1690.37 134.125 1693.29 121.185 1696.61 106.335C1699.93 91.4852 1702.53 79.2752 1702.4 79.2052C1702.27 79.1252 1699.91 78.5952 1697.16 78.0252C1694.41 77.4552 1692.08 77.0652 1691.98 77.1552C1691.87 77.2552 1689.93 85.6552 1687.66 95.8352C1685.39 106.015 1683.45 114.435 1683.34 114.565C1683.24 114.695 1682.33 111.995 1681.31 108.565C1680.3 105.135 1677.46 95.5852 1675 87.3352C1672.55 79.0852 1670.46 72.2852 1670.35 72.2352C1670.25 72.1752 1668.02 71.6152 1665.41 70.9852C1662.8 70.3552 1660.08 69.8352 1659.37 69.8352C1658.48 69.8352 1656.28 78.5352 1652.33 97.5852ZM1549.55 84.8352C1548.24 85.2052 1546.15 86.0352 1544.91 86.6752C1543.67 87.3152 1541.93 89.2952 1541.03 91.0852C1539.9 93.3552 1539.59 95.6952 1539.99 98.8352C1540.35 101.595 1541.46 104.225 1542.87 105.635C1544.13 106.905 1546.73 108.415 1548.66 109.005C1551.18 109.775 1553.21 109.765 1555.91 108.955C1557.97 108.335 1560.55 106.595 1561.63 105.085C1562.71 103.575 1563.89 100.765 1564.25 98.8352C1564.69 96.5019 1564.37 94.1686 1563.29 91.8352C1562.4 89.9052 1560.66 87.7052 1559.42 86.9352C1558.18 86.1652 1555.99 85.2252 1554.55 84.8452C1553.12 84.4652 1550.87 84.4652 1549.55 84.8352ZM1459.87 88.1852L1453.63 91.3352C1454.47 100.635 1455.15 113.905 1455.68 126.835C1456.22 139.765 1456.66 151.125 1456.66 152.085C1456.66 153.695 1457.14 153.655 1462.71 151.585L1468.75 149.335L1467.39 136.335C1481.94 130.475 1486.2 128.895 1486.25 129.055C1486.3 129.205 1488.21 131.925 1490.5 135.085L1494.66 140.835C1502.02 137.175 1504.78 135.935 1505.53 135.725C1506.4 135.475 1499.89 126.595 1487.64 111.335C1477.05 98.1352 1467.87 86.8152 1467.25 86.1852C1466.4 85.3252 1464.56 85.8252 1459.87 88.1852ZM1465.13 103.335C1464.86 101.135 1464.94 100.015 1465.3 100.835C1465.67 101.655 1469.08 106.385 1479.82 120.335L1475.49 122.135C1473.11 123.135 1470.26 124.165 1469.16 124.445C1467.31 124.905 1467.1 124.265 1466.38 116.135C1465.96 111.295 1465.39 105.535 1465.13 103.335ZM1723.86 116.585C1717.73 130.745 1712.6 142.935 1712.44 143.675C1712.28 144.435 1714.3 145.995 1717.16 147.315L1722.16 149.615C1728.99 133.895 1731.24 128.985 1731.57 128.565C1731.89 128.135 1736.21 129.615 1741.16 131.845C1746.11 134.075 1750.52 135.775 1750.95 135.615C1751.39 135.465 1752.63 133.425 1753.7 131.085L1755.66 126.835C1748.3 123.635 1744 121.715 1741.37 120.515C1738.74 119.315 1736.61 117.885 1736.65 117.335C1736.68 116.785 1737.94 113.735 1739.44 110.545C1740.93 107.365 1742.5 104.775 1742.91 104.795C1743.32 104.815 1748.38 106.865 1754.16 109.335L1764.66 113.835C1767.78 106.475 1768.57 104.245 1768.42 104.135C1768.28 104.035 1760.96 100.985 1752.16 97.3652C1743.36 93.7452 1735.9 90.7952 1735.58 90.8152C1735.26 90.8252 1729.98 102.425 1723.86 116.585ZM1406.62 114.025C1404.17 115.635 1402.27 117.375 1402.41 117.895C1402.55 118.415 1408.8 129.975 1416.3 143.585C1423.8 157.195 1429.98 168.415 1430.05 168.515C1430.11 168.625 1432.5 167.275 1435.36 165.515L1440.55 162.335C1418.84 123.585 1412.2 112.055 1411.8 111.715C1411.4 111.375 1409.07 112.415 1406.62 114.025ZM1793.16 127.895C1791.51 128.385 1788.4 130.255 1786.25 132.055C1784.09 133.855 1780.52 138.035 1778.31 141.335C1776.1 144.635 1773.18 149.805 1771.83 152.835C1769.87 157.235 1769.46 159.545 1769.77 164.405C1770.06 168.885 1770.87 171.555 1772.91 174.655C1774.42 176.955 1777.8 180.195 1780.41 181.865C1783.02 183.535 1786.96 185.385 1789.16 185.965C1791.36 186.555 1795.07 186.775 1797.41 186.435C1799.75 186.105 1803.35 184.975 1805.41 183.925C1807.47 182.875 1810.58 180.505 1812.31 178.675C1814.04 176.835 1817.33 172.405 1819.61 168.835C1821.9 165.265 1824.47 159.865 1825.34 156.835C1826.62 152.365 1826.71 150.445 1825.79 146.585C1825.17 143.975 1823.52 140.145 1822.13 138.085C1820.75 136.025 1817.71 133.075 1815.38 131.545C1813.06 130.005 1809.58 128.325 1807.66 127.795C1805.73 127.275 1802.36 126.885 1800.16 126.935C1797.96 126.975 1794.81 127.415 1793.16 127.895ZM1798.66 138.535C1799.48 138.235 1801.17 137.955 1802.41 137.915C1803.65 137.875 1806.01 138.515 1807.66 139.335C1809.31 140.155 1811.39 142.295 1812.28 144.085C1813.26 146.035 1813.72 148.735 1813.44 150.835C1813.19 152.765 1811.89 156.555 1810.57 159.265C1809.24 161.975 1806.02 166.585 1803.41 169.515C1800.12 173.205 1797.66 175.015 1795.41 175.425C1793.43 175.785 1790.7 175.395 1788.41 174.425C1785.93 173.375 1784.07 171.625 1782.91 169.275C1781.36 166.125 1781.31 165.185 1782.48 161.025C1783.21 158.445 1785.31 153.865 1787.16 150.835C1789.01 147.805 1792.01 143.925 1793.84 142.205C1795.67 140.485 1797.83 138.835 1798.66 138.535ZM1355.5 148.565C1353.12 150.455 1351.04 152.085 1350.89 152.175C1350.74 152.265 1358.29 162.685 1367.67 175.335C1377.05 187.985 1385.05 198.455 1385.44 198.615C1385.84 198.765 1392.01 194.355 1399.16 188.805C1406.31 183.255 1412.28 178.405 1412.42 178.025C1412.56 177.645 1411.32 175.645 1409.67 173.585L1406.66 169.835C1393.48 179.905 1389.32 182.815 1388.91 182.795C1388.5 182.775 1381.79 174.285 1374 163.935L1359.85 145.125L1355.5 148.565ZM1569.15 156.465C1566.95 156.685 1559.08 157.765 1551.65 158.855C1544.23 159.945 1532.08 162.365 1524.65 164.245C1517.23 166.125 1505.53 169.655 1498.65 172.095C1491.78 174.535 1481.65 178.605 1476.15 181.125C1470.65 183.645 1462.33 187.815 1457.65 190.375C1452.98 192.945 1444.2 198.295 1438.15 202.255C1432.1 206.225 1422.43 213.265 1416.66 217.905C1410.88 222.535 1401.18 231.285 1395.09 237.335C1389.01 243.385 1380.28 253.055 1375.7 258.835C1371.12 264.605 1364.1 274.285 1360.1 280.335C1356.11 286.385 1349.9 296.955 1346.31 303.835C1342.72 310.705 1337.78 321.285 1335.32 327.335C1332.85 333.385 1329.23 343.505 1327.26 349.835C1325.29 356.155 1322.57 366.505 1321.22 372.835C1319.86 379.155 1318.04 389.735 1317.18 396.335C1316.31 402.935 1315.33 415.085 1315 423.335C1314.65 432.085 1314.89 444.365 1315.59 452.835C1316.25 460.805 1317.66 472.505 1318.73 478.835C1319.79 485.155 1322.06 495.955 1323.77 502.835C1325.48 509.705 1328.59 520.055 1330.67 525.835C1332.76 531.605 1336.11 540.155 1338.12 544.835C1340.13 549.505 1344.26 558.055 1347.3 563.835C1350.35 569.605 1356.1 579.285 1360.09 585.335C1364.08 591.385 1370.49 600.385 1374.34 605.335C1378.19 610.285 1385.84 619.055 1391.34 624.835C1396.85 630.605 1405.97 639.155 1411.6 643.835C1417.24 648.505 1425.97 655.285 1431.01 658.895C1436.04 662.495 1444.2 667.945 1449.15 670.995C1454.1 674.055 1462.77 678.865 1468.4 681.695C1474.04 684.515 1482.59 688.465 1487.4 690.455C1492.22 692.445 1499.98 695.385 1504.65 696.995C1509.33 698.605 1518.33 701.225 1524.65 702.835C1530.98 704.435 1541.55 706.635 1548.15 707.715C1554.75 708.785 1566.68 710.215 1574.65 710.885C1583.54 711.625 1595.55 711.845 1605.65 711.465C1614.73 711.115 1628.23 709.955 1635.65 708.885C1643.08 707.815 1652.53 706.235 1656.65 705.365C1660.78 704.505 1669.78 702.185 1676.65 700.195C1683.53 698.215 1693.88 694.755 1699.65 692.515C1705.43 690.265 1716.45 685.245 1724.15 681.365C1731.85 677.475 1744.2 670.245 1751.58 665.315C1758.96 660.375 1770.44 651.785 1777.08 646.225C1783.72 640.665 1793.43 631.655 1798.65 626.205C1803.88 620.755 1811.08 612.715 1814.65 608.335C1818.23 603.955 1825.21 594.285 1830.16 586.855C1835.11 579.415 1842.15 567.485 1845.8 560.335C1849.45 553.185 1854.49 542.155 1856.99 535.835C1859.49 529.505 1863.16 518.935 1865.15 512.335C1867.13 505.735 1869.85 494.935 1871.18 488.335C1872.52 481.735 1874.29 470.485 1875.13 463.335C1875.97 456.185 1876.65 442.685 1876.65 433.335C1876.65 423.985 1876.19 411.385 1875.63 405.335C1875.06 399.285 1873.91 390.285 1873.07 385.335C1872.23 380.385 1870.2 370.935 1868.55 364.335C1866.91 357.735 1864.18 348.285 1862.49 343.335C1860.8 338.385 1856.99 328.705 1854.02 321.835C1851.06 314.955 1846.12 304.835 1843.05 299.335C1839.98 293.835 1834.18 284.385 1830.14 278.335C1826.11 272.285 1819.75 263.505 1816 258.835C1812.26 254.155 1803.79 244.895 1797.17 238.245C1790.56 231.595 1780.43 222.415 1774.65 217.845C1768.88 213.265 1759.65 206.525 1754.15 202.845C1748.65 199.165 1739.2 193.415 1733.15 190.055C1727.1 186.695 1717.2 181.845 1711.15 179.265C1705.1 176.685 1694.3 172.635 1687.15 170.255C1680 167.885 1668.98 164.755 1662.65 163.305C1656.33 161.855 1645.3 159.765 1638.15 158.645C1628.1 157.075 1619.27 156.545 1599.15 156.335C1584.85 156.175 1571.35 156.235 1569.15 156.465ZM1579.65 172.525C1582.68 172.345 1588.3 172.125 1592.15 172.025C1596 171.925 1605.45 172.305 1613.15 172.855C1620.85 173.415 1631.65 174.565 1637.15 175.425C1642.65 176.275 1653.45 178.495 1661.15 180.335C1668.85 182.185 1680.55 185.565 1687.15 187.845C1693.75 190.125 1704.55 194.565 1711.15 197.715C1717.75 200.855 1727.2 205.835 1732.15 208.785C1737.1 211.735 1745.65 217.325 1751.15 221.215C1756.65 225.105 1765.65 232.155 1771.15 236.885C1776.65 241.615 1784.72 249.275 1789.08 253.915C1793.44 258.545 1800.41 266.605 1804.58 271.835C1808.75 277.065 1814.91 285.615 1818.28 290.835C1821.65 296.055 1826.53 304.155 1829.11 308.835C1831.69 313.505 1835.99 322.285 1838.67 328.335C1841.34 334.385 1845.31 344.735 1847.5 351.335C1849.68 357.935 1852.62 368.505 1854.03 374.835C1855.43 381.155 1857.23 391.505 1858.03 397.835C1858.83 404.155 1859.79 414.735 1860.16 421.335C1860.53 427.975 1860.32 440.475 1859.69 449.335C1859.06 458.135 1857.67 470.505 1856.58 476.835C1855.5 483.155 1853.08 494.185 1851.21 501.335C1849.33 508.485 1845.72 519.735 1843.17 526.335C1840.62 532.935 1835.93 543.505 1832.75 549.835C1829.56 556.155 1824.46 565.385 1821.41 570.335C1818.36 575.285 1813.05 583.155 1809.6 587.835C1806.16 592.505 1799.2 601.055 1794.14 606.835C1789.08 612.605 1781.39 620.525 1777.05 624.435C1772.71 628.335 1765.33 634.605 1760.65 638.375C1755.98 642.135 1746.75 648.765 1740.15 653.105C1733.55 657.445 1722.08 664.015 1714.65 667.705C1707.23 671.395 1695.98 676.295 1689.65 678.585C1683.33 680.885 1674.1 683.895 1669.15 685.275C1664.2 686.665 1655.65 688.725 1650.15 689.855C1644.65 690.975 1634.53 692.555 1627.65 693.365C1620.78 694.175 1606.6 694.835 1596.15 694.835C1585.7 694.835 1571.53 694.175 1564.65 693.365C1557.78 692.555 1547.65 690.995 1542.15 689.895C1536.65 688.785 1527.43 686.535 1521.65 684.885C1515.88 683.235 1505.3 679.585 1498.15 676.775C1491 673.975 1479.75 668.905 1473.15 665.535C1466.55 662.155 1455.75 655.775 1449.15 651.365C1442.54 646.945 1432.87 639.895 1427.65 635.705C1422.43 631.515 1414.09 624.085 1409.12 619.205C1404.15 614.325 1396.72 606.285 1392.6 601.335C1388.48 596.385 1383.78 590.535 1382.14 588.335C1380.51 586.135 1376.33 580.055 1372.86 574.835C1369.39 569.605 1363 558.135 1358.64 549.335C1354.29 540.535 1348.51 526.805 1345.81 518.835C1343.1 510.855 1339.73 499.155 1338.3 492.835C1336.88 486.505 1334.92 476.385 1333.95 470.335C1332.6 461.885 1332.18 453.295 1332.17 433.335C1332.16 416.565 1332.63 404.135 1333.5 398.335C1334.24 393.385 1335.97 383.935 1337.33 377.335C1338.69 370.735 1342.05 358.585 1344.79 350.335C1347.54 342.085 1352.93 328.805 1356.79 320.835C1360.64 312.855 1366.09 302.505 1368.9 297.835C1371.71 293.155 1377.68 284.385 1382.18 278.335C1386.67 272.285 1393.71 263.505 1397.82 258.835C1401.93 254.155 1409.09 246.915 1413.73 242.745C1418.36 238.565 1425.75 232.325 1430.15 228.865C1434.55 225.405 1442.43 219.765 1447.65 216.345C1452.88 212.915 1460.98 207.955 1465.65 205.315C1470.33 202.675 1479.1 198.275 1485.15 195.545C1491.2 192.805 1502.68 188.415 1510.65 185.785C1518.63 183.155 1530.55 179.865 1537.15 178.475C1543.75 177.085 1554.78 175.245 1561.65 174.395C1568.53 173.535 1576.63 172.695 1579.65 172.525ZM1289.15 259.985C1288.05 260.585 1286.58 261.815 1285.89 262.705C1285.19 263.605 1284.63 265.795 1284.64 267.585C1284.65 269.695 1285.53 271.705 1287.15 273.335C1288.58 274.755 1290.84 275.845 1292.4 275.865C1293.92 275.885 1296.39 274.985 1297.9 273.865C1299.99 272.325 1300.65 270.995 1300.65 268.335C1300.65 266.405 1300.32 264.095 1299.9 263.195C1299.49 262.285 1297.92 260.935 1296.4 260.195C1294.89 259.445 1293.09 258.845 1292.4 258.865C1291.72 258.875 1290.25 259.385 1289.15 259.985ZM1895.15 259.945C1894.05 260.565 1892.58 261.815 1891.89 262.705C1891.19 263.605 1890.63 265.795 1890.64 267.585C1890.65 269.695 1891.53 271.705 1893.15 273.335C1894.73 274.905 1896.78 275.835 1898.7 275.835C1900.63 275.835 1902.65 274.915 1904.2 273.335C1905.76 271.745 1906.67 269.645 1906.7 267.585C1906.72 265.795 1905.93 263.325 1904.95 262.085C1903.96 260.845 1901.8 259.605 1900.15 259.325C1898.5 259.045 1896.25 259.325 1895.15 259.945ZM1270.15 299.285C1268.71 300.755 1267.73 302.965 1267.7 304.785C1267.68 306.465 1268.05 308.615 1268.52 309.585C1269 310.545 1270.69 311.945 1272.27 312.705C1274.71 313.865 1275.67 313.865 1278.54 312.705C1280.4 311.945 1282.31 310.545 1282.79 309.585C1283.26 308.615 1283.65 306.485 1283.65 304.835C1283.65 302.965 1282.71 300.885 1281.15 299.335C1279.58 297.755 1277.52 296.835 1275.61 296.835C1273.7 296.835 1271.67 297.745 1270.15 299.285ZM1910.15 299.465C1908.27 301.265 1907.43 303.025 1907.52 304.965C1907.59 306.545 1908.74 309.065 1910.07 310.585C1911.89 312.655 1913.37 313.315 1916.09 313.285C1918.44 313.245 1920.48 312.455 1921.93 311.005C1923.4 309.535 1924.15 307.565 1924.15 305.215C1924.15 302.585 1923.44 301.025 1921.4 299.245C1919.87 297.895 1917.39 296.835 1915.79 296.835C1914.06 296.835 1911.83 297.875 1910.15 299.465ZM1256.05 337.935C1254.86 339.265 1254.15 341.515 1254.15 344.025C1254.15 347.085 1254.73 348.465 1256.65 349.965C1258.03 351.035 1260.39 351.895 1261.9 351.875C1263.42 351.855 1265.39 351.495 1266.3 351.085C1267.2 350.665 1268.55 349.095 1269.3 347.585C1270.04 346.065 1270.65 343.935 1270.65 342.835C1270.65 341.735 1269.53 339.705 1268.15 338.335C1266.35 336.535 1264.58 335.835 1261.8 335.835C1259.15 335.835 1257.36 336.485 1256.05 337.935ZM1923.9 337.325C1922.67 338.155 1921.43 340.185 1921.15 341.835C1920.88 343.485 1921.18 345.845 1921.82 347.085C1922.46 348.315 1923.7 349.885 1924.57 350.555C1925.44 351.225 1927.5 351.805 1929.15 351.845C1930.8 351.885 1933.18 351.115 1934.44 350.125C1935.69 349.135 1937 346.755 1937.34 344.835C1937.87 341.915 1937.53 340.875 1935.31 338.585C1933.49 336.695 1931.63 335.825 1929.4 335.825C1927.62 335.815 1925.14 336.495 1923.9 337.325ZM1251.8 375.635C1250.66 375.815 1248.79 377.175 1247.64 378.645C1246.09 380.635 1245.68 382.235 1246.07 384.835C1246.37 386.815 1247.58 389.105 1248.87 390.125C1250.13 391.115 1252.5 391.905 1254.15 391.895C1255.8 391.885 1258.17 390.965 1259.4 389.855C1260.64 388.745 1261.93 386.815 1262.26 385.585C1262.59 384.345 1262.26 382.015 1261.51 380.395C1260.7 378.635 1258.9 377.025 1257.01 376.375C1255.29 375.785 1252.94 375.445 1251.8 375.635ZM1933.99 375.765C1932.8 376.225 1931.36 377.225 1930.79 377.975C1930.22 378.715 1929.46 380.685 1929.1 382.335C1928.59 384.675 1929.02 386.045 1931.05 388.585C1933.11 391.145 1934.4 391.835 1937.2 391.835C1939.66 391.835 1941.5 391.065 1943.2 389.335C1944.71 387.795 1945.65 385.675 1945.65 383.835C1945.65 382.115 1944.69 379.775 1943.4 378.365C1942.17 377.015 1940.03 375.685 1938.65 375.415C1937.28 375.135 1935.18 375.295 1933.99 375.765ZM1246.96 417.105C1245.75 417.815 1244.06 419.615 1243.21 421.115C1242.18 422.929 1241.91 424.722 1242.4 426.495C1242.82 427.955 1244.28 429.995 1245.65 431.025C1247.03 432.055 1249.2 432.885 1250.48 432.865C1251.76 432.845 1254.12 431.485 1255.73 429.835C1257.38 428.135 1258.65 425.745 1258.65 424.335C1258.65 422.955 1257.64 420.725 1256.4 419.365C1255.17 418.015 1253.03 416.665 1251.65 416.365C1250.28 416.055 1248.17 416.395 1246.96 417.105ZM1935.15 418.285C1933.71 419.755 1932.73 421.965 1932.7 423.785C1932.68 425.465 1932.99 427.575 1933.4 428.475C1933.82 429.375 1935.39 430.725 1936.9 431.475C1938.42 432.225 1940.36 432.835 1941.23 432.835C1942.1 432.835 1944.12 431.485 1945.73 429.835C1947.65 427.865 1948.65 425.795 1948.65 423.835C1948.65 421.965 1947.71 419.885 1946.15 418.335C1944.58 416.755 1942.52 415.835 1940.61 415.835C1938.7 415.835 1936.67 416.745 1935.15 418.285ZM1247.88 458.145C1246.64 458.795 1245.12 460.455 1244.51 461.835C1243.68 463.735 1243.74 465.145 1244.78 467.715C1245.54 469.575 1246.6 471.495 1247.15 471.995C1247.7 472.485 1249.9 472.925 1252.03 472.965C1254.71 473.015 1256.55 472.375 1258.03 470.905C1259.4 469.535 1260.15 467.515 1260.15 465.215C1260.15 462.585 1259.44 461.025 1257.4 459.245C1255.89 457.915 1253.64 456.865 1252.4 456.895C1251.17 456.935 1249.13 457.495 1247.88 458.145ZM1934.21 458.905C1932.05 460.535 1931.48 461.765 1931.54 464.655C1931.58 466.845 1932.43 469.235 1933.63 470.585C1934.75 471.815 1936.44 472.885 1937.4 472.945C1938.37 473.015 1940.05 472.985 1941.15 472.895C1942.25 472.795 1944.17 471.625 1945.4 470.275C1946.69 468.875 1947.65 466.555 1947.65 464.835C1947.65 462.965 1946.71 460.885 1945.15 459.335C1943.66 457.835 1941.51 456.835 1939.81 456.835C1938.24 456.835 1935.72 457.765 1934.21 458.905ZM1254.15 497.905C1253.05 498.415 1251.59 499.955 1250.9 501.335C1250.22 502.705 1249.65 504.955 1249.65 506.335C1249.65 507.705 1250.78 509.955 1252.15 511.335C1253.73 512.905 1255.78 513.835 1257.7 513.835C1259.63 513.835 1261.65 512.915 1263.2 511.335C1264.71 509.795 1265.65 507.675 1265.65 505.835C1265.65 504.185 1265.32 502.095 1264.9 501.195C1264.49 500.285 1262.92 498.935 1261.4 498.195C1259.89 497.445 1258.09 496.865 1257.4 496.895C1256.72 496.935 1255.25 497.385 1254.15 497.905ZM1930.15 497.985C1929.05 498.585 1927.58 499.815 1926.89 500.705C1926.19 501.605 1925.63 503.795 1925.64 505.585C1925.65 507.695 1926.53 509.705 1928.15 511.335C1929.73 512.905 1931.78 513.835 1933.7 513.835C1935.63 513.835 1937.65 512.915 1939.2 511.335C1940.55 509.955 1941.65 507.705 1941.65 506.335C1941.65 504.955 1941.2 502.815 1940.65 501.585C1940.1 500.345 1938.52 498.765 1937.15 498.085C1935.78 497.395 1934.09 496.845 1933.4 496.865C1932.72 496.875 1931.25 497.385 1930.15 497.985ZM1265.15 536.945C1264.05 537.565 1262.58 538.815 1261.89 539.705C1261.19 540.605 1260.63 542.345 1260.64 543.585C1260.65 544.815 1261.22 546.965 1261.9 548.355C1262.59 549.735 1264.28 551.335 1265.65 551.905C1267.11 552.505 1269.37 552.595 1271.06 552.135C1272.66 551.695 1274.57 550.435 1275.32 549.335C1276.06 548.235 1276.69 545.985 1276.7 544.335C1276.72 542.685 1275.93 540.325 1274.95 539.085C1273.96 537.845 1271.8 536.605 1270.15 536.325C1268.5 536.045 1266.25 536.325 1265.15 536.945ZM1917.97 538.205C1915.86 539.985 1915.16 541.465 1915.16 544.175C1915.16 546.445 1915.89 548.515 1917.15 549.775C1918.25 550.875 1920.62 552.015 1922.4 552.305C1925.07 552.735 1926.19 552.295 1928.65 549.835C1930.39 548.095 1931.65 545.775 1931.65 544.335C1931.65 542.885 1930.39 540.565 1928.65 538.835C1926.96 537.135 1924.59 535.835 1923.21 535.835C1921.87 535.835 1919.51 536.895 1917.97 538.205ZM1278.15 576.285C1276.83 577.635 1275.73 579.665 1275.7 580.785C1275.68 581.915 1276.27 584.065 1277.01 585.585C1277.76 587.095 1279.11 588.665 1280.01 589.085C1280.92 589.495 1282.78 589.835 1284.15 589.835C1285.53 589.835 1287.39 589.495 1288.3 589.085C1289.2 588.665 1290.55 587.095 1291.3 585.585C1292.04 584.065 1292.43 581.485 1292.15 579.835C1291.88 578.185 1290.64 576.155 1289.4 575.325C1288.17 574.495 1285.67 573.815 1283.86 573.825C1281.69 573.825 1279.74 574.665 1278.15 576.285ZM1901.9 575.325C1900.67 576.155 1899.43 578.185 1899.15 579.835C1898.88 581.485 1899.27 584.065 1900.01 585.585C1900.76 587.095 1902.11 588.665 1903.01 589.085C1903.92 589.495 1905.78 589.835 1907.15 589.835C1908.53 589.835 1910.39 589.495 1911.3 589.085C1912.2 588.665 1913.55 587.095 1914.3 585.585C1915.04 584.065 1915.43 581.485 1915.15 579.835C1914.88 578.185 1913.64 576.155 1912.4 575.325C1911.17 574.495 1908.8 573.815 1907.15 573.815C1905.5 573.815 1903.14 574.495 1901.9 575.325ZM1298.15 611.285C1296.71 612.755 1295.73 614.965 1295.7 616.785C1295.68 618.465 1296.1 620.735 1296.65 621.835C1297.2 622.935 1299 624.285 1300.65 624.835C1302.65 625.502 1304.65 625.502 1306.65 624.835C1308.3 624.285 1310.1 622.935 1310.65 621.835C1311.2 620.735 1311.65 618.485 1311.65 616.835C1311.65 614.965 1310.71 612.885 1309.15 611.335C1307.58 609.755 1305.52 608.835 1303.61 608.835C1301.7 608.835 1299.67 609.745 1298.15 611.285ZM1883.57 610.115C1882.7 610.785 1881.46 612.345 1880.82 613.585C1880.18 614.815 1879.65 616.735 1879.65 617.835C1879.65 618.935 1880.74 621.065 1882.07 622.585C1883.89 624.655 1885.37 625.315 1888.09 625.285C1890.28 625.255 1892.47 624.465 1893.65 623.285C1894.72 622.205 1895.84 619.865 1896.13 618.085C1896.56 615.415 1896.11 614.295 1893.65 611.835C1891.74 609.925 1889.66 608.845 1887.9 608.865C1886.39 608.885 1884.44 609.445 1883.57 610.115ZM1320.82 644.635C1319.13 646.345 1317.77 648.805 1317.73 650.255C1317.68 651.855 1318.79 653.965 1320.65 655.835C1322.39 657.565 1324.71 658.835 1326.15 658.835C1327.53 658.835 1329.89 657.745 1331.4 656.415C1333.44 654.635 1334.15 653.075 1334.15 650.445C1334.15 648.225 1333.41 646.135 1332.15 644.885C1331.05 643.785 1328.73 642.595 1327 642.245C1324.35 641.705 1323.35 642.095 1320.82 644.635ZM1862.01 642.825C1860.83 643.295 1859.13 644.735 1858.25 646.015C1857.36 647.285 1856.64 649.345 1856.65 650.585C1856.65 651.815 1858 654.185 1859.65 655.835C1862.12 658.305 1863.23 658.735 1865.9 658.295C1867.69 657.995 1869.94 656.975 1870.89 656.045C1871.85 655.105 1872.8 653.435 1873 652.335C1873.21 651.235 1872.76 648.865 1872.02 647.085C1871.27 645.295 1869.53 643.385 1868.15 642.835C1866.78 642.285 1865.32 641.865 1864.9 641.895C1864.49 641.935 1863.19 642.345 1862.01 642.825ZM1348.91 673.505C1348.22 673.785 1346.99 675.325 1346.16 676.925C1345.32 678.555 1344.87 681.145 1345.15 682.835C1345.43 684.485 1346.67 686.515 1347.9 687.335C1349.14 688.165 1351.64 688.845 1353.45 688.835C1355.64 688.829 1357.56 687.995 1359.2 686.335C1360.55 684.955 1361.65 682.935 1361.65 681.835C1361.65 680.735 1361.04 678.595 1360.3 677.085C1359.55 675.565 1358.2 673.995 1357.3 673.585C1356.39 673.165 1354.42 672.865 1352.9 672.915C1351.39 672.955 1349.59 673.215 1348.91 673.505ZM1833.91 673.505C1833.22 673.785 1831.99 675.325 1831.16 676.925C1830.32 678.555 1829.87 681.145 1830.15 682.835C1830.43 684.485 1831.67 686.515 1832.9 687.335C1834.14 688.165 1836.39 688.845 1837.9 688.835C1839.42 688.835 1841.44 688.445 1842.4 687.965C1843.37 687.485 1844.74 685.795 1845.45 684.215C1846.45 681.995 1846.48 680.645 1845.61 678.335C1844.98 676.685 1843.72 674.785 1842.81 674.115C1841.9 673.445 1839.8 672.915 1838.15 672.945C1836.5 672.965 1834.59 673.215 1833.91 673.505ZM1804.89 699.895C1803.78 700.335 1802.13 701.735 1801.25 703.015C1800.36 704.285 1799.64 706.345 1799.65 707.585C1799.65 708.815 1801 711.185 1802.65 712.835C1804.3 714.485 1806.67 715.835 1807.9 715.835C1809.14 715.845 1811.17 715.165 1812.4 714.335C1813.64 713.515 1815.1 711.705 1815.65 710.335C1816.36 708.555 1816.28 706.815 1815.37 704.335C1814.66 702.405 1813.87 700.835 1813.62 700.835C1813.36 700.835 1811.75 700.445 1810.04 699.975C1808.33 699.495 1806.01 699.465 1804.89 699.895ZM1377.65 701.835C1376.42 703.065 1375.65 705.165 1375.65 707.335C1375.65 709.735 1376.44 711.615 1378.15 713.335C1379.53 714.705 1381.44 715.825 1382.4 715.815C1383.37 715.815 1385.23 715.475 1386.54 715.065C1387.85 714.665 1389.54 713.095 1390.29 711.585C1391.04 710.065 1391.67 708.045 1391.69 707.085C1391.71 706.115 1390.81 704.095 1389.69 702.585C1388.06 700.375 1386.86 699.835 1383.65 699.835C1380.98 699.835 1378.98 700.502 1377.65 701.835ZM1411.63 724.145C1410 725.745 1409.33 727.445 1409.46 729.645C1409.58 731.515 1410.69 733.865 1412.15 735.335C1413.73 736.905 1415.78 737.835 1417.7 737.835C1419.63 737.835 1421.65 736.915 1423.2 735.335C1424.71 733.795 1425.65 731.675 1425.65 729.835C1425.65 727.965 1424.71 725.885 1423.15 724.335C1421.48 722.669 1419.54 721.835 1417.32 721.835C1415.19 721.835 1413.15 722.665 1411.63 724.145ZM1769.15 724.285C1767.71 725.755 1766.73 727.965 1766.7 729.785C1766.67 731.745 1767.55 733.725 1769.15 735.335C1770.58 736.755 1772.84 737.845 1774.4 737.865C1775.92 737.885 1778.39 736.985 1779.9 735.865C1782.04 734.285 1782.66 732.995 1782.68 730.085C1782.7 727.475 1782.01 725.655 1780.43 724.105C1779.02 722.725 1776.9 721.865 1774.86 721.855C1772.66 721.842 1770.76 722.652 1769.15 724.285ZM1735.11 740.835C1733.99 741.325 1732.52 742.645 1731.86 743.775C1731.2 744.905 1730.64 747.065 1730.61 748.585C1730.59 750.095 1731.38 752.345 1732.36 753.575C1733.35 754.815 1735.5 756.105 1737.15 756.435C1739.47 756.915 1740.84 756.475 1743.15 754.525C1745.49 752.565 1746.15 751.185 1746.15 748.335C1746.15 745.575 1745.47 744.055 1743.4 742.245C1741.89 740.915 1739.87 739.865 1738.9 739.895C1737.94 739.935 1736.23 740.355 1735.11 740.835ZM1448.91 741.505C1448.22 741.785 1447.03 743.205 1446.26 744.675C1445.4 746.295 1445.1 748.465 1445.5 750.235C1445.86 751.835 1447.28 753.985 1448.65 755.025C1450.03 756.055 1451.94 756.885 1452.9 756.865C1453.87 756.845 1455.79 756.265 1457.17 755.585C1458.56 754.895 1460.16 753.205 1460.72 751.835C1461.33 750.375 1461.42 748.115 1460.96 746.425C1460.52 744.825 1459.25 742.915 1458.15 742.165C1457.05 741.425 1454.8 740.855 1453.15 740.905C1451.5 740.955 1449.59 741.215 1448.91 741.505ZM1486.82 756.635C1485.17 758.305 1483.76 760.725 1483.7 762.005C1483.64 763.285 1484.43 765.455 1485.46 766.835C1486.49 768.205 1488.53 769.665 1489.99 770.085C1491.66 770.555 1493.68 770.325 1495.4 769.475C1496.92 768.725 1498.49 767.375 1498.9 766.475C1499.32 765.575 1499.67 763.595 1499.7 762.085C1499.72 760.565 1498.93 758.325 1497.95 757.085C1496.96 755.845 1494.73 754.555 1493 754.215C1490.37 753.705 1489.34 754.105 1486.82 756.635ZM1695.56 755.665C1694.24 756.675 1692.82 758.705 1692.4 760.165C1691.93 761.835 1692.16 763.855 1693.01 765.585C1693.76 767.095 1695.11 768.665 1696.01 769.085C1696.92 769.495 1698.78 769.835 1700.15 769.835C1701.53 769.835 1703.39 769.495 1704.3 769.085C1705.2 768.665 1706.55 767.095 1707.3 765.585C1708.15 763.855 1708.37 761.835 1707.9 760.165C1707.49 758.705 1706.03 756.665 1704.65 755.635C1703.28 754.605 1701.21 753.775 1700.06 753.795C1698.9 753.815 1696.88 754.655 1695.56 755.665ZM1525.63 767.145C1524 768.745 1523.33 770.445 1523.46 772.645C1523.58 774.515 1524.69 776.865 1526.15 778.335C1527.57 779.745 1529.85 780.855 1531.4 780.875C1532.92 780.895 1535.18 780.115 1536.44 779.125C1537.69 778.135 1539 775.755 1539.34 773.835C1539.87 770.915 1539.53 769.875 1537.31 767.585C1535.46 765.665 1533.65 764.835 1531.32 764.835C1529.19 764.835 1527.15 765.665 1525.63 767.145ZM1653.15 767.285C1651.83 768.635 1650.73 770.665 1650.7 771.785C1650.68 772.915 1651.18 774.845 1651.82 776.085C1652.46 777.315 1653.7 778.885 1654.57 779.555C1655.44 780.225 1657.41 780.785 1658.95 780.805C1660.64 780.815 1662.71 779.845 1664.2 778.335C1665.86 776.635 1666.65 774.705 1666.65 772.335C1666.65 770.165 1665.89 768.065 1664.65 766.835C1663.41 765.585 1661.32 764.835 1659.11 764.835C1656.67 764.835 1654.81 765.595 1653.15 767.285ZM1567.15 771.285C1565.71 772.755 1564.73 774.965 1564.7 776.785C1564.67 778.745 1565.55 780.725 1567.15 782.335C1568.73 783.905 1570.78 784.835 1572.7 784.835C1574.63 784.835 1576.65 783.915 1578.2 782.335C1579.71 780.795 1580.65 778.675 1580.65 776.835C1580.65 774.965 1579.71 772.885 1578.15 771.335C1576.58 769.755 1574.52 768.835 1572.61 768.835C1570.7 768.835 1568.67 769.745 1567.15 771.285ZM1610.63 771.145C1608.96 772.785 1608.32 774.455 1608.44 776.895C1608.54 778.985 1609.5 781.205 1610.88 782.565C1612.29 783.945 1614.41 784.795 1616.45 784.815C1618.76 784.825 1620.53 784.015 1622.36 782.085C1624.53 779.805 1624.87 778.735 1624.34 775.835C1624 773.905 1622.69 771.525 1621.44 770.535C1620.18 769.555 1617.77 768.765 1616.07 768.785C1614.24 768.815 1612.03 769.775 1610.63 771.145Z" fill="#FF8800"/>
<path opacity="0.99" d="M1502.11 415.836C1502.11 433.716 1502.24 440.916 1502.41 431.836C1502.57 422.766 1502.57 408.136 1502.41 399.336C1502.24 390.536 1502.11 397.956 1502.11 415.836Z" fill="#242524"/>
<path d="M1598.66 466.566C1600.58 466.776 1603.96 466.776 1606.16 466.566C1608.36 466.346 1606.79 466.176 1602.66 466.176C1598.53 466.176 1596.74 466.346 1598.66 466.566ZM1649.16 466.566C1651.36 466.776 1655.18 466.776 1657.66 466.566C1660.14 466.356 1658.33 466.186 1653.66 466.186C1648.99 466.186 1646.96 466.356 1649.16 466.566ZM1575.16 549.836C1579.01 553.696 1582.39 556.856 1582.66 556.856C1582.93 556.856 1580.15 553.696 1576.46 549.846C1572.78 545.986 1569.4 542.836 1568.96 542.826C1568.52 542.826 1571.31 545.976 1575.16 549.836Z" fill="#8F9998"/>
<path d="M1635.1 281.336C1635.1 298.386 1635.24 305.586 1635.41 297.336C1635.57 289.086 1635.58 275.136 1635.41 266.336C1635.24 257.536 1635.11 264.286 1635.1 281.336ZM1748.14 459.836C1748.14 527.756 1748.26 555.436 1748.41 521.336C1748.56 487.236 1748.56 431.656 1748.41 397.836C1748.26 364.016 1748.14 391.906 1748.14 459.836Z" fill="#D1D1D1"/>
<path d="M1522.01 612.836C1522.01 617.506 1522.18 619.316 1522.39 616.836C1522.6 614.356 1522.6 610.536 1522.39 608.336C1522.18 606.136 1522.01 608.166 1522.01 612.836ZM1491.16 621.576C1493.91 621.776 1497.96 621.776 1500.16 621.566C1502.36 621.356 1500.11 621.186 1495.16 621.186C1490.21 621.196 1488.41 621.366 1491.16 621.576ZM1509.66 621.566C1511.58 621.776 1514.96 621.776 1517.16 621.566C1519.36 621.346 1517.78 621.176 1513.66 621.176C1509.53 621.176 1507.73 621.346 1509.66 621.566Z" fill="#797D7C"/>
<path d="M1520.66 466.566C1523.14 466.776 1526.73 466.776 1528.66 466.566C1530.59 466.346 1528.56 466.176 1524.16 466.176C1519.76 466.186 1518.18 466.356 1520.66 466.566ZM1618.16 466.586C1623.11 466.766 1631.43 466.766 1636.66 466.586C1641.89 466.396 1637.83 466.256 1627.66 466.256C1617.49 466.256 1613.21 466.396 1618.16 466.586Z" fill="#9D9496"/>
<path fill-rule="evenodd" clip-rule="evenodd" d="M1563.16 232.926C1617.09 232.876 1645.5 233.196 1648.16 233.906C1651.58 234.806 1658.82 241.616 1698.33 281.146C1729.85 312.686 1745 328.526 1746.08 331.086C1747.49 334.436 1747.66 348.206 1747.67 460.586C1747.68 572.846 1747.51 586.926 1746.08 591.836C1745.2 594.866 1743.06 599.546 1741.32 602.256C1739.58 604.956 1736.14 608.926 1733.66 611.066C1731.18 613.216 1726.68 616.176 1723.66 617.656C1718.24 620.296 1717.82 620.336 1671.16 620.966L1670.66 604.836L1690.91 604.816C1709.11 604.796 1711.62 604.586 1715.66 602.756C1718.14 601.636 1721.66 599.286 1723.5 597.526C1725.33 595.776 1727.58 592.986 1728.5 591.336C1730.01 588.596 1730.2 577.776 1731.16 346.836L1700.16 346.846C1674.7 346.856 1668.18 346.566 1663.66 345.256C1660.64 344.376 1656.14 342.386 1653.66 340.836C1651.18 339.286 1647.39 336.066 1645.22 333.676C1643.05 331.286 1640.13 326.866 1636.16 318.336L1635.66 249.836L1481.16 249.816L1475.7 252.576C1472.16 254.366 1469.11 256.916 1467 259.836C1465.21 262.316 1463.28 266.476 1462.7 269.086C1462 272.266 1461.66 324.966 1461.66 428.836C1461.66 580.506 1461.7 583.946 1463.63 589.086C1464.71 591.976 1467.07 595.776 1468.88 597.526C1470.68 599.286 1474.18 601.636 1476.66 602.756C1480.7 604.586 1483.21 604.796 1521.66 604.836V620.836L1476.16 620.336L1469.66 617.226C1466.09 615.516 1460.97 612.136 1458.3 609.726C1455.08 606.816 1452.21 602.826 1446.16 590.436L1445.91 429.886C1445.68 286.446 1445.82 268.696 1447.23 263.336C1448.09 260.036 1449.86 255.536 1451.15 253.336C1452.45 251.136 1455.68 247.276 1458.33 244.756C1460.99 242.236 1465.18 239.116 1467.66 237.826C1470.14 236.536 1474.41 234.926 1477.16 234.246C1480.91 233.316 1502.33 232.986 1563.16 232.926ZM1652.66 285.336C1652.67 299.636 1653.12 313.026 1653.67 315.086C1654.26 317.316 1656.49 320.666 1659.16 323.336C1661.75 325.926 1665.25 328.276 1667.41 328.886C1669.72 329.536 1681.12 329.816 1697.16 329.636L1723.16 329.336L1652.65 259.336L1652.66 285.336ZM1516.16 367.816L1596.66 367.846C1672.62 367.876 1677.38 367.986 1681.16 369.716C1683.36 370.726 1685.92 372.406 1686.85 373.446C1687.78 374.486 1689.24 377.026 1690.1 379.086C1691.41 382.236 1691.66 388.386 1691.67 417.586C1691.68 451.676 1691.63 452.426 1689.42 456.836C1687.92 459.816 1685.81 462.076 1679.16 465.806L1514.16 465.896L1510.71 463.616C1508.81 462.366 1506.21 459.766 1502.6 454.336V416.836C1502.6 379.456 1502.61 379.326 1504.89 375.836C1506.15 373.916 1509.2 371.316 1511.67 370.076L1516.16 367.816ZM1528.66 389.836V445.836H1540.66V426.836C1550.73 426.866 1553.52 426.176 1557.62 424.096C1561.89 421.936 1563.58 420.356 1565.39 416.836C1566.86 413.966 1567.69 410.616 1567.68 407.586C1567.67 404.976 1567.18 401.596 1566.59 400.086C1566 398.576 1564.54 396.266 1563.34 394.956C1562.14 393.646 1559.81 392.006 1558.16 391.306C1556.51 390.606 1552.23 389.836 1548.66 389.586C1545.08 389.336 1539.12 389.296 1535.41 389.486L1528.66 389.836ZM1578.66 444.836C1584.47 445.836 1589.98 445.836 1594.66 445.476C1600.63 445.026 1604.72 444.086 1608.41 442.336C1612.29 440.486 1614.44 438.606 1616.66 435.086C1618.31 432.476 1620.17 427.866 1620.78 424.836C1621.4 421.816 1621.67 416.416 1621.39 412.836C1621.11 409.266 1619.97 404.536 1618.86 402.336C1617.76 400.136 1615.8 397.346 1614.5 396.146C1613.21 394.936 1610.36 393.166 1608.16 392.216C1605.32 390.996 1600.48 390.356 1591.53 390.046L1578.9 389.596L1578.66 444.836ZM1633.66 445.836H1644.66V423.836H1663.66V413.836H1644.66V399.836H1666.66V389.836H1633.16L1633.66 445.836ZM1595.87 486.806C1597.13 486.786 1599.4 487.686 1603.66 490.836L1603.69 563.336L1614.42 552.566C1620.46 546.506 1626.48 541.366 1628.16 540.826C1630.28 540.146 1631.9 540.236 1633.66 541.116C1635.04 541.806 1636.72 543.606 1637.41 545.106C1638.43 547.326 1638.4 548.446 1637.27 551.086C1636.51 552.876 1627.85 562.316 1618.02 572.066C1600.89 589.076 1600 589.796 1596.16 589.816C1592.3 589.836 1591.53 589.206 1573.44 571.086C1556.9 554.526 1554.71 551.956 1554.69 549.086C1554.67 547.306 1555 545.096 1555.41 544.196C1555.82 543.296 1557.29 541.976 1558.66 541.256C1560.04 540.546 1562.29 540.216 1563.66 540.526C1565.04 540.836 1571.23 546.096 1588.67 563.336L1588.75 491.746L1591.16 489.296C1592.49 487.946 1594.6 486.826 1595.87 486.806ZM1647.66 604.836L1650.16 607.336C1651.72 608.896 1652.66 610.976 1652.66 612.836C1652.66 614.676 1651.71 616.806 1647.75 620.836H1596.71C1568.63 620.836 1544.92 620.506 1544.02 620.086C1543.12 619.676 1541.77 618.106 1541.02 616.586C1540.17 614.866 1539.94 612.846 1540.41 611.176C1540.82 609.716 1542.24 607.686 1543.56 606.676C1545.82 604.946 1549 604.836 1647.66 604.836Z" fill="#FF8800"/>
<path d="M1462.15 433.336C1462.15 512.536 1462.27 544.716 1462.41 504.836C1462.55 464.956 1462.55 400.156 1462.41 360.836C1462.27 321.516 1462.15 354.136 1462.15 433.336ZM1555.16 621.586C1560.11 621.766 1568.43 621.766 1573.66 621.586C1578.89 621.396 1574.83 621.255 1564.66 621.255C1554.48 621.255 1550.21 621.396 1555.16 621.586ZM1610.16 621.586C1615.66 621.766 1624.21 621.766 1629.16 621.576C1634.11 621.396 1629.61 621.255 1619.16 621.255C1608.71 621.255 1604.66 621.406 1610.16 621.586ZM1681.16 621.576C1684.46 621.776 1690.08 621.776 1693.66 621.576C1697.24 621.386 1694.53 621.226 1687.66 621.226C1680.78 621.226 1677.86 621.386 1681.16 621.576Z" fill="#5E5E5D"/>
<path d="M1633.1 417.336C1633.1 432.186 1633.24 438.486 1633.41 431.336C1633.58 424.186 1633.58 412.036 1633.41 404.336C1633.24 396.636 1633.1 402.486 1633.1 417.336Z" fill="#D1D1D1"/>
<path d="M1711.66 330.566C1714.14 330.776 1717.74 330.776 1719.66 330.566C1721.58 330.346 1719.56 330.176 1715.16 330.176C1710.76 330.186 1709.18 330.356 1711.66 330.566Z" fill="#9D9496"/>
<path d="M1640.66 389.576C1645.33 389.766 1653.21 389.766 1658.16 389.576C1663.11 389.396 1659.29 389.246 1649.66 389.246C1640.03 389.246 1635.99 389.396 1640.66 389.576Z" fill="#72706E"/>
<path d="M1672.16 278.836C1682.61 289.286 1691.39 297.846 1691.66 297.846C1691.93 297.846 1683.73 289.296 1673.43 278.836C1663.13 268.386 1654.35 259.836 1653.93 259.836C1653.51 259.826 1661.71 268.386 1672.16 278.836Z" fill="#B2AFAC"/>
<path d="M1652.09 285.336C1652.09 299.086 1652.23 304.936 1652.41 298.336C1652.58 291.736 1652.58 280.486 1652.41 273.336C1652.24 266.186 1652.09 271.586 1652.09 285.336Z" fill="#5E5E5D"/>
<path d="M1541.24 399.406C1540.74 399.826 1540.4 403.916 1540.49 408.506L1540.66 416.836C1551.03 416.146 1552.51 415.606 1553.95 413.706C1555.05 412.256 1555.73 409.676 1555.7 407.086C1555.67 403.556 1555.2 402.546 1552.91 401.136C1551.4 400.196 1548.36 399.256 1546.16 399.036C1543.96 398.816 1541.75 398.986 1541.24 399.406ZM1590.81 417.446L1590.64 435.336C1598.79 434.296 1602.29 433.126 1603.66 432.076C1605.04 431.016 1606.79 428.846 1607.56 427.246C1608.33 425.646 1609.19 421.636 1609.47 418.336C1609.87 413.586 1609.54 411.396 1607.88 407.836C1606.61 405.106 1604.67 402.806 1602.97 402.006C1601.42 401.266 1598.09 400.416 1595.57 400.116L1590.97 399.556L1590.81 417.446Z" fill="#FF8800"/>
<path d="M1258.21 198H248.215C118.98 198 14.2148 302.765 14.2148 432V432C14.2148 561.235 118.98 666 248.215 666H1258.21" stroke="#FF8800" stroke-width="16"/>
</svg>
