<svg width="2010" height="841" viewBox="0 0 2010 841" fill="none" xmlns="http://www.w3.org/2000/svg">
<path d="M251.44 476C248.48 476 247 474.4 247 471.2V395.72C247 393.08 249.4 391.76 254.2 391.76H258.4C263.2 391.76 265.6 393.08 265.6 395.72V460.28H283.12C285.52 460.28 286.72 462.28 286.72 466.28V470C286.72 474 285.52 476 283.12 476H251.44ZM298.086 476.24C296.246 476.24 294.926 475.96 294.126 475.4C293.326 474.84 292.926 474.16 292.926 473.36C292.926 473.04 292.966 472.72 293.046 472.4C293.046 472 293.166 471.28 293.406 470.24L310.686 396.32C311.086 394.56 311.926 393.36 313.206 392.72C314.486 392.08 316.166 391.76 318.246 391.76H327.246C329.486 391.76 331.206 392.08 332.406 392.72C333.686 393.36 334.526 394.56 334.926 396.32L352.206 470.24C352.446 471.28 352.566 472 352.566 472.4C352.646 472.72 352.686 473.04 352.686 473.36C352.686 474.16 352.286 474.84 351.486 475.4C350.686 475.96 349.366 476.24 347.526 476.24H341.166C339.486 476.24 338.046 476.04 336.846 475.64C335.646 475.24 334.926 474.4 334.686 473.12L332.046 459.08H313.566L310.926 473.12C310.686 474.4 309.966 475.24 308.766 475.64C307.566 476.04 306.166 476.24 304.566 476.24H298.086ZM320.886 419L316.206 444.44H329.166L324.366 419C324.046 417.48 323.766 415.96 323.526 414.44C323.286 412.92 323.086 411.4 322.926 409.88H322.326C322.166 411.4 321.966 412.92 321.726 414.44C321.486 415.96 321.206 417.48 320.886 419ZM368.674 476C365.714 476 364.234 474.4 364.234 471.2V396.8C364.234 393.6 365.714 392 368.674 392H390.274C401.074 392 408.994 395.4 414.034 402.2C419.154 409 421.714 419.6 421.714 434C421.714 448.4 419.154 459 414.034 465.8C408.994 472.6 401.074 476 390.274 476H368.674ZM382.834 460.28H390.394C394.874 460.28 398.034 458.24 399.874 454.16C401.794 450.08 402.754 443.36 402.754 434C402.754 424.64 401.794 417.92 399.874 413.84C398.034 409.76 394.874 407.72 390.394 407.72H382.834V460.28ZM441.823 476C438.863 476 437.383 474.4 437.383 471.2V396.8C437.383 393.6 438.863 392 441.823 392H463.423C474.223 392 482.143 395.4 487.183 402.2C492.303 409 494.863 419.6 494.863 434C494.863 448.4 492.303 459 487.183 465.8C482.143 472.6 474.223 476 463.423 476H441.823ZM455.983 460.28H463.543C468.023 460.28 471.183 458.24 473.023 454.16C474.943 450.08 475.903 443.36 475.903 434C475.903 424.64 474.943 417.92 473.023 413.84C471.183 409.76 468.023 407.72 463.543 407.72H455.983V460.28ZM509.211 476.24C507.371 476.24 506.051 475.96 505.251 475.4C504.451 474.84 504.051 474.16 504.051 473.36C504.051 473.04 504.091 472.72 504.171 472.4C504.171 472 504.291 471.28 504.531 470.24L521.811 396.32C522.211 394.56 523.051 393.36 524.331 392.72C525.611 392.08 527.291 391.76 529.371 391.76H538.371C540.611 391.76 542.331 392.08 543.531 392.72C544.811 393.36 545.651 394.56 546.051 396.32L563.331 470.24C563.571 471.28 563.691 472 563.691 472.4C563.771 472.72 563.811 473.04 563.811 473.36C563.811 474.16 563.411 474.84 562.611 475.4C561.811 475.96 560.491 476.24 558.651 476.24H552.291C550.611 476.24 549.171 476.04 547.971 475.64C546.771 475.24 546.051 474.4 545.811 473.12L543.171 459.08H524.691L522.051 473.12C521.811 474.4 521.091 475.24 519.891 475.64C518.691 476.04 517.291 476.24 515.691 476.24H509.211ZM532.011 419L527.331 444.44H540.291L535.491 419C535.171 417.48 534.891 415.96 534.651 414.44C534.411 412.92 534.211 411.4 534.051 409.88H533.451C533.291 411.4 533.091 412.92 532.851 414.44C532.611 415.96 532.331 417.48 532.011 419ZM604.966 476.24C600.166 476.24 597.766 474.92 597.766 472.28V395.72C597.766 393.08 600.166 391.76 604.966 391.76H609.046C611.766 391.76 613.766 392.04 615.046 392.6C616.326 393.16 617.326 394.2 618.046 395.72L636.766 433.04C637.166 433.92 637.606 435 638.086 436.28C638.566 437.56 639.006 438.84 639.406 440.12L640.006 440C639.846 438.64 639.686 437.28 639.526 435.92C639.366 434.56 639.286 433.2 639.286 431.84V395.72C639.286 393.08 641.686 391.76 646.486 391.76H649.366C654.166 391.76 656.566 393.08 656.566 395.72V472.28C656.566 474.92 654.166 476.24 649.366 476.24H645.286C642.646 476.24 640.686 475.96 639.406 475.4C638.126 474.84 637.126 473.8 636.406 472.28L617.566 434.36C617.166 433.48 616.726 432.4 616.246 431.12C615.766 429.84 615.326 428.56 614.926 427.28L614.326 427.4C614.486 428.76 614.646 430.12 614.806 431.48C614.966 432.84 615.046 434.2 615.046 435.56V472.28C615.046 474.92 612.646 476.24 607.846 476.24H604.966ZM678.987 476C676.027 476 674.547 474.4 674.547 471.2V396.8C674.547 393.6 676.027 392 678.987 392H714.267C716.667 392 717.867 394 717.867 398V401.72C717.867 405.72 716.667 407.72 714.267 407.72H693.147V425.12H711.987C714.307 425.12 715.467 427.12 715.467 431.12V434.84C715.467 438.84 714.307 440.84 711.987 440.84H693.147V460.28H714.267C716.667 460.28 717.867 462.28 717.867 466.28V470C717.867 474 716.667 476 714.267 476H678.987ZM738.841 476.24C734.041 476.24 731.641 474.92 731.641 472.28V396.8C731.641 393.6 733.241 392 736.441 392H756.841C765.641 392 772.161 394.16 776.401 398.48C780.721 402.72 782.881 409.36 782.881 418.4C782.881 422.24 782.201 425.56 780.841 428.36C779.561 431.08 777.921 433.24 775.921 434.84C773.921 436.36 771.801 437.2 769.561 437.36V437.84C771.161 438.4 772.641 439.48 774.001 441.08C775.441 442.6 776.441 444.36 777.001 446.36L784.321 470.36C784.641 471.32 784.801 472.24 784.801 473.12C784.801 474.4 784.281 475.24 783.241 475.64C782.281 476.04 780.401 476.24 777.601 476.24H773.401C771.481 476.24 769.881 476 768.601 475.52C767.321 475.04 766.521 474.16 766.201 472.88L760.681 450.68C760.121 448.36 759.281 446.8 758.161 446C757.121 445.2 755.441 444.8 753.121 444.8H750.241V472.28C750.241 474.92 747.841 476.24 743.041 476.24H738.841ZM750.241 429.08H756.841C759.881 429.08 761.961 428.24 763.081 426.56C764.281 424.88 764.881 422.16 764.881 418.4C764.881 414.64 764.281 411.92 763.081 410.24C761.961 408.56 759.881 407.72 756.841 407.72H750.241V429.08ZM827.247 476.24C822.447 476.24 820.047 474.92 820.047 472.28V396.8C820.047 393.6 821.527 392 824.487 392H845.247C854.047 392 860.567 394.2 864.807 398.6C869.127 403 871.287 409.6 871.287 418.4C871.287 427.12 869.127 433.72 864.807 438.2C860.567 442.6 854.047 444.8 845.247 444.8H838.647V472.28C838.647 474.92 836.247 476.24 831.447 476.24H827.247ZM838.647 429.08H845.247C848.287 429.08 850.367 428.24 851.487 426.56C852.687 424.88 853.287 422.16 853.287 418.4C853.287 414.64 852.687 411.92 851.487 410.24C850.367 408.56 848.287 407.72 845.247 407.72H838.647V429.08ZM889.315 476C886.355 476 884.875 474.4 884.875 471.2V396.8C884.875 393.6 886.355 392 889.315 392H910.915C921.715 392 929.635 395.4 934.675 402.2C939.795 409 942.355 419.6 942.355 434C942.355 448.4 939.795 459 934.675 465.8C929.635 472.6 921.715 476 910.915 476H889.315ZM903.475 460.28H911.035C915.515 460.28 918.675 458.24 920.515 454.16C922.435 450.08 923.395 443.36 923.395 434C923.395 424.64 922.435 417.92 920.515 413.84C918.675 409.76 915.515 407.72 911.035 407.72H903.475V460.28ZM965.223 476.24C960.423 476.24 958.023 474.92 958.023 472.28V396.8C958.023 393.6 959.503 392 962.463 392H995.103C997.423 392 998.583 394 998.583 398V401.72C998.583 405.72 997.423 407.72 995.103 407.72H976.623V427.52H994.023C996.343 427.52 997.503 429.52 997.503 433.52V437.24C997.503 441.24 996.343 443.24 994.023 443.24H976.623V472.28C976.623 474.92 974.223 476.24 969.423 476.24H965.223Z" fill="#FF8800"/>
<path d="M1162 415.336C1162.01 419.736 1162.18 421.316 1162.39 418.836C1162.6 416.356 1162.6 412.766 1162.39 410.836C1162.17 408.906 1162 410.936 1162 415.336Z" fill="#5A6259"/>
<path fill-rule="evenodd" clip-rule="evenodd" d="M1581.66 0.0156525C1591.29 -0.0843475 1606.36 0.305653 1615.16 0.875653C1623.96 1.44565 1639.04 3.03565 1648.66 4.41565C1658.29 5.79565 1672.46 8.30565 1680.16 9.98565C1687.86 11.6757 1700.12 14.8057 1707.41 16.9457C1714.7 19.0857 1726.4 22.9157 1733.41 25.4557C1740.42 27.9957 1751.33 32.2956 1757.66 35.0056C1763.99 37.7156 1776.36 43.6556 1785.16 48.2056C1793.96 52.7456 1806.56 59.8757 1813.16 64.0557C1819.76 68.2257 1829.43 74.6957 1834.66 78.4157C1839.89 82.1457 1848.21 88.4357 1853.16 92.3857C1858.11 96.3457 1868.46 105.416 1876.16 112.546C1883.86 119.676 1894.97 130.876 1900.85 137.426C1906.72 143.976 1915.64 154.516 1920.66 160.836C1925.68 167.156 1933.98 178.636 1939.11 186.336C1944.24 194.036 1951.49 205.736 1955.23 212.336C1958.96 218.936 1964.92 230.406 1968.47 237.836C1972.02 245.266 1976.85 256.066 1979.21 261.836C1981.58 267.606 1985.76 279.086 1988.51 287.336C1991.26 295.586 1995.34 309.766 1997.56 318.836C1999.79 327.906 2002.74 342.316 2004.11 350.836C2005.48 359.356 2007.08 371.066 2007.67 376.836C2008.25 382.606 2009 395.656 2009.33 405.836C2009.66 416.236 2009.41 432.656 2008.76 443.336C2008.12 453.786 2006.67 468.856 2005.55 476.836C2004.43 484.816 2002.41 496.736 2001.07 503.336C1999.72 509.936 1997.08 521.186 1995.2 528.336C1993.32 535.486 1989.67 547.636 1987.08 555.336C1984.49 563.036 1979.92 575.186 1976.92 582.336C1973.92 589.486 1967.46 603.206 1962.57 612.836C1957.68 622.456 1950.63 635.176 1946.92 641.096C1943.2 647.016 1936.25 657.366 1931.48 664.096C1926.7 670.826 1917.96 682.186 1912.06 689.336C1906.15 696.486 1894.76 708.886 1886.74 716.886C1878.72 724.886 1866.31 736.296 1859.16 742.246C1852.01 748.186 1840.31 757.246 1833.16 762.366C1826.01 767.486 1814.08 775.336 1806.66 779.826C1799.24 784.306 1786.64 791.276 1778.66 795.306C1770.68 799.336 1758.31 805.096 1751.16 808.106C1744.01 811.116 1731.64 815.826 1723.66 818.576C1715.68 821.336 1702.86 825.196 1695.16 827.156C1687.46 829.126 1676.66 831.636 1671.16 832.746C1665.66 833.846 1656.43 835.436 1650.66 836.266C1644.89 837.106 1634.99 838.346 1628.66 839.026C1622.26 839.716 1604.06 840.276 1587.66 840.296C1569.87 840.316 1553.2 839.796 1545.66 838.996C1538.78 838.266 1526.18 836.576 1517.66 835.236C1509.14 833.906 1495.18 831.206 1486.66 829.236C1478.14 827.276 1462.61 822.826 1452.16 819.356C1441.71 815.886 1426.75 810.296 1418.91 806.946C1411.07 803.586 1399.82 798.416 1393.91 795.456C1388 792.496 1378.66 787.486 1373.16 784.316C1367.66 781.156 1357.31 774.686 1350.16 769.946C1343.01 765.216 1331.99 757.326 1325.66 752.436C1319.34 747.536 1309.44 739.376 1303.66 734.306C1297.88 729.236 1287.74 719.516 1281.13 712.706C1274.51 705.906 1264.38 694.666 1258.63 687.726C1252.87 680.796 1244.48 669.996 1239.99 663.726C1235.49 657.466 1228.01 646.036 1223.35 638.336C1218.7 630.636 1211.5 617.586 1207.37 609.336C1203.23 601.086 1197.74 589.386 1195.16 583.336C1192.59 577.286 1187.84 564.456 1184.6 554.836C1181.37 545.206 1177.15 531.036 1175.22 523.336C1173.29 515.636 1170.57 503.036 1169.16 495.336C1167.76 487.636 1165.85 475.706 1164.92 468.836C1163.62 459.116 1163.23 448.226 1163.2 419.836C1163.17 390.116 1163.5 380.736 1164.98 369.336C1165.99 361.636 1167.92 349.266 1169.28 341.836C1170.64 334.406 1173.32 322.036 1175.25 314.336C1177.17 306.636 1181 293.586 1183.75 285.336C1186.51 277.086 1191.03 264.936 1193.81 258.336C1196.59 251.736 1202.17 239.816 1206.21 231.836C1210.26 223.856 1217.22 211.266 1221.69 203.836C1226.16 196.406 1233.27 185.426 1237.49 179.436C1241.71 173.436 1249.87 162.636 1255.63 155.436C1261.39 148.226 1273.09 135.196 1281.63 126.466C1290.17 117.736 1302.11 106.316 1308.16 101.096C1314.21 95.8656 1323.66 88.2257 1329.16 84.1057C1334.66 79.9857 1344.11 73.3556 1350.16 69.3756C1356.21 65.3856 1366.34 59.1957 1372.66 55.6057C1378.98 52.0257 1388.21 47.0657 1393.16 44.5857C1398.11 42.1157 1407.34 37.8357 1413.66 35.0857C1419.98 32.3257 1430.79 28.0357 1437.66 25.5457C1444.53 23.0457 1455.79 19.3757 1462.66 17.3757C1469.53 15.3857 1480.79 12.4657 1487.66 10.8857C1494.53 9.30566 1505.56 7.09565 1512.16 5.98565C1518.76 4.86565 1530.91 3.25565 1539.16 2.39565C1547.41 1.53565 1556.41 0.685653 1559.16 0.515653C1561.91 0.335653 1572.03 0.115653 1581.66 0.0156525ZM1538.16 19.4157C1530.46 20.2657 1518.09 22.0656 1510.66 23.4256C1503.23 24.7856 1490.86 27.4757 1483.16 29.4157C1475.46 31.3557 1462.18 35.2357 1453.66 38.0257C1445.14 40.8257 1432.31 45.5757 1425.16 48.5757C1418.01 51.5857 1405.64 57.3556 1397.66 61.3956C1389.68 65.4456 1378.21 71.7357 1372.16 75.3857C1366.11 79.0257 1356.25 85.4557 1350.26 89.6757C1344.26 93.8857 1333.46 102.056 1326.26 107.816C1319.05 113.576 1306.17 125.276 1297.63 133.816C1289.08 142.356 1278.35 153.836 1273.79 159.336C1269.22 164.836 1262.28 173.606 1258.36 178.836C1254.45 184.066 1247.6 193.956 1243.13 200.836C1238.67 207.706 1232.97 216.936 1230.46 221.336C1227.96 225.736 1223.21 234.736 1219.9 241.336C1216.59 247.936 1211.62 258.736 1208.85 265.336C1206.08 271.936 1201.77 283.406 1199.28 290.836C1196.78 298.266 1192.93 311.536 1190.73 320.336C1188.52 329.136 1185.62 342.856 1184.27 350.836C1182.92 358.816 1181.23 370.516 1180.51 376.836C1179.7 383.916 1179.2 400.046 1179.22 418.836C1179.23 441.836 1179.67 452.896 1181.01 463.836C1181.99 471.816 1183.67 483.506 1184.74 489.836C1185.82 496.166 1188.3 507.856 1190.26 515.836C1192.22 523.816 1195.64 535.956 1197.87 542.836C1200.1 549.706 1203.85 560.286 1206.19 566.336C1208.53 572.386 1212.73 582.286 1215.51 588.336C1218.3 594.386 1223.58 604.956 1227.24 611.836C1230.91 618.706 1236.66 628.746 1240.03 634.136C1243.4 639.526 1249.98 649.276 1254.66 655.816C1259.34 662.346 1267.18 672.556 1272.1 678.516C1277.01 684.466 1288.26 696.546 1297.1 705.356C1305.93 714.166 1319.05 726.086 1326.26 731.856C1333.46 737.616 1344.26 745.786 1350.26 749.996C1356.25 754.206 1366.34 760.796 1372.66 764.626C1378.98 768.466 1390.23 774.766 1397.66 778.636C1405.09 782.496 1417.23 788.236 1424.66 791.386C1432.09 794.546 1444.91 799.476 1453.16 802.366C1461.41 805.246 1475.36 809.426 1484.16 811.656C1492.96 813.886 1505.34 816.636 1511.66 817.766C1517.98 818.906 1528.11 820.476 1534.16 821.276C1540.21 822.066 1553.03 823.256 1562.66 823.906C1573.08 824.616 1587.45 824.846 1598.16 824.466C1608.06 824.116 1624.03 822.936 1633.66 821.826C1643.28 820.726 1659.03 818.216 1668.66 816.246C1678.28 814.276 1692.24 810.906 1699.66 808.776C1707.08 806.636 1718.56 802.916 1725.16 800.506C1731.76 798.096 1741.66 794.206 1747.16 791.866C1752.66 789.516 1763.01 784.686 1770.16 781.136C1777.31 777.576 1788.78 771.316 1795.66 767.216C1802.53 763.116 1813.43 756.066 1819.87 751.546C1826.32 747.026 1836.44 739.456 1842.37 734.716C1848.31 729.966 1858.78 720.906 1865.66 714.566C1872.53 708.236 1882.5 698.166 1887.81 692.196C1893.12 686.226 1900.36 677.736 1903.9 673.336C1907.45 668.936 1913.7 660.606 1917.81 654.836C1921.91 649.066 1928.37 639.386 1932.17 633.336C1935.97 627.286 1942.78 615.136 1947.31 606.336C1951.84 597.536 1957.87 584.936 1960.7 578.336C1963.54 571.736 1968.23 559.356 1971.12 550.836C1974.02 542.316 1978.01 529.036 1979.99 521.336C1981.96 513.636 1984.7 501.256 1986.07 493.836C1987.44 486.416 1989.31 474.706 1990.23 467.836C1991.32 459.636 1992.07 445.006 1992.39 425.336C1992.78 401.606 1992.53 391.886 1991.2 378.836C1990.28 369.766 1988.41 356.266 1987.05 348.836C1985.69 341.406 1983.21 329.706 1981.54 322.836C1979.87 315.956 1976.46 304.036 1973.96 296.336C1971.46 288.636 1967.22 276.826 1964.54 270.086C1961.86 263.346 1957.04 252.326 1953.84 245.586C1950.64 238.846 1944.95 227.936 1941.21 221.336C1937.46 214.736 1930.22 203.036 1925.11 195.336C1920 187.636 1911.14 175.486 1905.41 168.336C1899.68 161.186 1888.51 148.636 1880.58 140.446C1872.65 132.246 1861.21 121.266 1855.16 116.046C1849.11 110.816 1839.21 102.856 1833.16 98.3456C1827.11 93.8456 1818.56 87.7457 1814.16 84.7957C1809.76 81.8457 1800.99 76.3357 1794.66 72.5757C1788.33 68.8057 1776.86 62.6457 1769.16 58.8857C1761.46 55.1357 1747.74 49.1157 1738.66 45.5257C1729.58 41.9257 1716.76 37.3456 1710.16 35.3556C1703.56 33.3656 1692.99 30.4257 1686.66 28.8357C1680.33 27.2557 1668.86 24.8156 1661.16 23.4256C1653.46 22.0356 1641.08 20.1657 1633.66 19.2757C1624.88 18.2257 1609.84 17.5456 1590.66 17.3556C1574.43 17.1956 1559.14 17.2357 1556.66 17.4557C1554.18 17.6857 1545.86 18.5557 1538.16 19.4157Z" fill="#FF8800"/>
<path d="M1993.03 418.835C1993.03 424.605 1993.2 426.855 1993.4 423.835C1993.6 420.815 1993.6 416.085 1993.4 413.335C1993.2 410.585 1993.03 413.065 1993.03 418.835Z" fill="#B8BEC0"/>
<path d="M1578.16 16.5755C1580.91 16.7755 1584.96 16.7756 1587.16 16.5656C1589.36 16.3556 1587.11 16.1855 1582.16 16.1855C1577.21 16.1955 1575.41 16.3655 1578.16 16.5755Z" fill="#5E5E5D"/>
<path fill-rule="evenodd" clip-rule="evenodd" d="M1602.13 53.3352C1601.98 53.8852 1601.16 66.9352 1600.32 82.3352C1599.47 97.7352 1598.87 110.425 1598.97 110.535C1599.08 110.635 1601.63 111.025 1604.66 111.395L1610.16 112.055C1612.91 69.6452 1613.7 56.3252 1613.68 55.0852C1613.66 53.0552 1613.12 52.8152 1608.03 52.5852C1604.91 52.4452 1602.28 52.7852 1602.13 53.3352ZM1642.33 84.5852C1639.18 99.8452 1636.61 112.895 1636.63 113.585C1636.65 114.295 1638.49 115.055 1640.91 115.355C1643.25 115.645 1645.58 115.985 1646.1 116.105C1646.61 116.235 1647.84 112.735 1648.83 108.335C1649.82 103.935 1651.55 95.3852 1652.68 89.3352C1653.81 83.2852 1654.83 78.2652 1654.95 78.1852C1655.06 78.0952 1658.08 87.8952 1661.66 99.9652C1667.08 118.265 1668.49 121.965 1670.16 122.305C1671.26 122.535 1673.85 122.975 1675.91 123.275C1678.93 123.725 1679.75 123.495 1680.12 122.085C1680.37 121.125 1683.29 108.185 1686.61 93.3352C1689.93 78.4852 1692.53 66.2752 1692.4 66.2052C1692.27 66.1252 1689.91 65.5952 1687.16 65.0252C1684.41 64.4552 1682.08 64.0652 1681.98 64.1552C1681.87 64.2552 1679.93 72.6552 1677.66 82.8352C1675.39 93.0152 1673.45 101.435 1673.34 101.565C1673.24 101.695 1672.33 98.9952 1671.31 95.5652C1670.3 92.1352 1667.46 82.5852 1665 74.3352C1662.55 66.0852 1660.46 59.2852 1660.35 59.2352C1660.25 59.1752 1658.02 58.6152 1655.41 57.9852C1652.8 57.3552 1650.08 56.8352 1649.37 56.8352C1648.48 56.8352 1646.28 65.5352 1642.33 84.5852ZM1539.55 71.8352C1538.24 72.2052 1536.15 73.0352 1534.91 73.6752C1533.67 74.3152 1531.93 76.2952 1531.03 78.0852C1529.9 80.3552 1529.59 82.6952 1529.99 85.8352C1530.35 88.5952 1531.46 91.2252 1532.87 92.6352C1534.13 93.9052 1536.73 95.4152 1538.66 96.0052C1541.18 96.7752 1543.21 96.7652 1545.91 95.9552C1547.97 95.3352 1550.55 93.5952 1551.63 92.0852C1552.71 90.5752 1553.89 87.7652 1554.25 85.8352C1554.69 83.5019 1554.37 81.1686 1553.29 78.8352C1552.4 76.9052 1550.66 74.7052 1549.42 73.9352C1548.18 73.1652 1545.99 72.2252 1544.55 71.8452C1543.12 71.4652 1540.87 71.4652 1539.55 71.8352ZM1449.87 75.1852L1443.63 78.3352C1444.47 87.6352 1445.15 100.905 1445.68 113.835C1446.22 126.765 1446.66 138.125 1446.66 139.085C1446.66 140.695 1447.14 140.655 1452.71 138.585L1458.75 136.335L1457.39 123.335C1471.94 117.475 1476.2 115.895 1476.25 116.055C1476.3 116.205 1478.21 118.925 1480.5 122.085L1484.66 127.835C1492.02 124.175 1494.78 122.935 1495.53 122.725C1496.4 122.475 1489.89 113.595 1477.64 98.3352C1467.05 85.1352 1457.87 73.8152 1457.25 73.1852C1456.4 72.3252 1454.56 72.8252 1449.87 75.1852ZM1455.13 90.3352C1454.86 88.1352 1454.94 87.0152 1455.3 87.8352C1455.67 88.6552 1459.08 93.3852 1469.82 107.335L1465.49 109.135C1463.11 110.135 1460.26 111.165 1459.16 111.445C1457.31 111.905 1457.1 111.265 1456.38 103.135C1455.96 98.2952 1455.39 92.5352 1455.13 90.3352ZM1713.86 103.585C1707.73 117.745 1702.6 129.935 1702.44 130.675C1702.28 131.435 1704.3 132.995 1707.16 134.315L1712.16 136.615C1718.99 120.895 1721.24 115.985 1721.57 115.565C1721.89 115.135 1726.21 116.615 1731.16 118.845C1736.11 121.075 1740.52 122.775 1740.95 122.615C1741.39 122.465 1742.63 120.425 1743.7 118.085L1745.66 113.835C1738.3 110.635 1734 108.715 1731.37 107.515C1728.74 106.315 1726.61 104.885 1726.65 104.335C1726.68 103.785 1727.94 100.735 1729.44 97.5452C1730.93 94.3652 1732.5 91.7752 1732.91 91.7952C1733.32 91.8152 1738.38 93.8652 1744.16 96.3352L1754.66 100.835C1757.78 93.4752 1758.57 91.2452 1758.42 91.1352C1758.28 91.0352 1750.96 87.9852 1742.16 84.3652C1733.36 80.7452 1725.9 77.7952 1725.58 77.8152C1725.26 77.8252 1719.98 89.4252 1713.86 103.585ZM1396.62 101.025C1394.17 102.635 1392.27 104.375 1392.41 104.895C1392.55 105.415 1398.8 116.975 1406.3 130.585C1413.8 144.195 1419.98 155.415 1420.05 155.515C1420.11 155.625 1422.5 154.275 1425.36 152.515L1430.55 149.335C1408.84 110.585 1402.2 99.0552 1401.8 98.7152C1401.4 98.3752 1399.07 99.4152 1396.62 101.025ZM1783.16 114.895C1781.51 115.385 1778.4 117.255 1776.25 119.055C1774.09 120.855 1770.52 125.035 1768.31 128.335C1766.1 131.635 1763.18 136.805 1761.83 139.835C1759.87 144.235 1759.46 146.545 1759.77 151.405C1760.06 155.885 1760.87 158.555 1762.91 161.655C1764.42 163.955 1767.8 167.195 1770.41 168.865C1773.02 170.535 1776.96 172.385 1779.16 172.965C1781.36 173.555 1785.07 173.775 1787.41 173.435C1789.75 173.105 1793.35 171.975 1795.41 170.925C1797.47 169.875 1800.58 167.505 1802.31 165.675C1804.04 163.835 1807.33 159.405 1809.61 155.835C1811.9 152.265 1814.47 146.865 1815.34 143.835C1816.62 139.365 1816.71 137.445 1815.79 133.585C1815.17 130.975 1813.52 127.145 1812.13 125.085C1810.75 123.025 1807.71 120.075 1805.38 118.545C1803.06 117.005 1799.58 115.325 1797.66 114.795C1795.73 114.275 1792.36 113.885 1790.16 113.935C1787.96 113.975 1784.81 114.415 1783.16 114.895ZM1788.66 125.535C1789.48 125.235 1791.17 124.955 1792.41 124.915C1793.65 124.875 1796.01 125.515 1797.66 126.335C1799.31 127.155 1801.39 129.295 1802.28 131.085C1803.26 133.035 1803.72 135.735 1803.44 137.835C1803.19 139.765 1801.89 143.555 1800.57 146.265C1799.24 148.975 1796.02 153.585 1793.41 156.515C1790.12 160.205 1787.66 162.015 1785.41 162.425C1783.43 162.785 1780.7 162.395 1778.41 161.425C1775.93 160.375 1774.07 158.625 1772.91 156.275C1771.36 153.125 1771.31 152.185 1772.48 148.025C1773.21 145.445 1775.31 140.865 1777.16 137.835C1779.01 134.805 1782.01 130.925 1783.84 129.205C1785.67 127.485 1787.83 125.835 1788.66 125.535ZM1345.5 135.565C1343.12 137.455 1341.04 139.085 1340.89 139.175C1340.74 139.265 1348.29 149.685 1357.67 162.335C1367.05 174.985 1375.05 185.455 1375.44 185.615C1375.84 185.765 1382.01 181.355 1389.16 175.805C1396.31 170.255 1402.28 165.405 1402.42 165.025C1402.56 164.645 1401.32 162.645 1399.67 160.585L1396.66 156.835C1383.48 166.905 1379.32 169.815 1378.91 169.795C1378.5 169.775 1371.79 161.285 1364 150.935L1349.85 132.125L1345.5 135.565ZM1559.15 143.465C1556.95 143.685 1549.08 144.765 1541.65 145.855C1534.23 146.945 1522.08 149.365 1514.65 151.245C1507.23 153.125 1495.53 156.655 1488.65 159.095C1481.78 161.535 1471.65 165.605 1466.15 168.125C1460.65 170.645 1452.33 174.815 1447.65 177.375C1442.98 179.945 1434.2 185.295 1428.15 189.255C1422.1 193.225 1412.43 200.265 1406.66 204.905C1400.88 209.535 1391.18 218.285 1385.09 224.335C1379.01 230.385 1370.28 240.055 1365.7 245.835C1361.12 251.605 1354.1 261.285 1350.1 267.335C1346.11 273.385 1339.9 283.955 1336.31 290.835C1332.72 297.705 1327.78 308.285 1325.32 314.335C1322.85 320.385 1319.23 330.505 1317.26 336.835C1315.29 343.155 1312.57 353.505 1311.22 359.835C1309.86 366.155 1308.04 376.735 1307.18 383.335C1306.31 389.935 1305.33 402.085 1305 410.335C1304.65 419.085 1304.89 431.365 1305.59 439.835C1306.25 447.805 1307.66 459.505 1308.73 465.835C1309.79 472.155 1312.06 482.955 1313.77 489.835C1315.48 496.705 1318.59 507.055 1320.67 512.835C1322.76 518.605 1326.11 527.155 1328.12 531.835C1330.13 536.505 1334.26 545.055 1337.3 550.835C1340.35 556.605 1346.1 566.285 1350.09 572.335C1354.08 578.385 1360.49 587.385 1364.34 592.335C1368.19 597.285 1375.84 606.055 1381.34 611.835C1386.85 617.605 1395.97 626.155 1401.6 630.835C1407.24 635.505 1415.97 642.285 1421.01 645.895C1426.04 649.495 1434.2 654.945 1439.15 657.995C1444.1 661.055 1452.77 665.865 1458.4 668.695C1464.04 671.515 1472.59 675.465 1477.4 677.455C1482.22 679.445 1489.98 682.385 1494.65 683.995C1499.33 685.605 1508.33 688.225 1514.65 689.835C1520.98 691.435 1531.55 693.635 1538.15 694.715C1544.75 695.785 1556.68 697.215 1564.65 697.885C1573.54 698.625 1585.55 698.845 1595.65 698.465C1604.73 698.115 1618.23 696.955 1625.65 695.885C1633.08 694.815 1642.53 693.235 1646.65 692.365C1650.78 691.505 1659.78 689.185 1666.65 687.195C1673.53 685.215 1683.88 681.755 1689.65 679.515C1695.43 677.265 1706.45 672.245 1714.15 668.365C1721.85 664.475 1734.2 657.245 1741.58 652.315C1748.96 647.375 1760.44 638.785 1767.08 633.225C1773.72 627.665 1783.43 618.655 1788.65 613.205C1793.88 607.755 1801.08 599.715 1804.65 595.335C1808.23 590.955 1815.21 581.285 1820.16 573.855C1825.11 566.415 1832.15 554.485 1835.8 547.335C1839.45 540.185 1844.49 529.155 1846.99 522.835C1849.49 516.505 1853.16 505.935 1855.15 499.335C1857.13 492.735 1859.85 481.935 1861.18 475.335C1862.52 468.735 1864.29 457.485 1865.13 450.335C1865.97 443.185 1866.65 429.685 1866.65 420.335C1866.65 410.985 1866.19 398.385 1865.63 392.335C1865.06 386.285 1863.91 377.285 1863.07 372.335C1862.23 367.385 1860.2 357.935 1858.55 351.335C1856.91 344.735 1854.18 335.285 1852.49 330.335C1850.8 325.385 1846.99 315.705 1844.02 308.835C1841.06 301.955 1836.12 291.835 1833.05 286.335C1829.98 280.835 1824.18 271.385 1820.14 265.335C1816.11 259.285 1809.75 250.505 1806 245.835C1802.26 241.155 1793.79 231.895 1787.17 225.245C1780.56 218.595 1770.43 209.415 1764.65 204.845C1758.88 200.265 1749.65 193.525 1744.15 189.845C1738.65 186.165 1729.2 180.415 1723.15 177.055C1717.1 173.695 1707.2 168.845 1701.15 166.265C1695.1 163.685 1684.3 159.635 1677.15 157.255C1670 154.885 1658.98 151.755 1652.65 150.305C1646.33 148.855 1635.3 146.765 1628.15 145.645C1618.1 144.075 1609.27 143.545 1589.15 143.335C1574.85 143.175 1561.35 143.235 1559.15 143.465ZM1569.65 159.525C1572.68 159.345 1578.3 159.125 1582.15 159.025C1586 158.925 1595.45 159.305 1603.15 159.855C1610.85 160.415 1621.65 161.565 1627.15 162.425C1632.65 163.275 1643.45 165.495 1651.15 167.335C1658.85 169.185 1670.55 172.565 1677.15 174.845C1683.75 177.125 1694.55 181.565 1701.15 184.715C1707.75 187.855 1717.2 192.835 1722.15 195.785C1727.1 198.735 1735.65 204.325 1741.15 208.215C1746.65 212.105 1755.65 219.155 1761.15 223.885C1766.65 228.615 1774.72 236.275 1779.08 240.915C1783.44 245.545 1790.41 253.605 1794.58 258.835C1798.75 264.065 1804.91 272.615 1808.28 277.835C1811.65 283.055 1816.53 291.155 1819.11 295.835C1821.69 300.505 1825.99 309.285 1828.67 315.335C1831.34 321.385 1835.31 331.735 1837.5 338.335C1839.68 344.935 1842.62 355.505 1844.03 361.835C1845.43 368.155 1847.23 378.505 1848.03 384.835C1848.83 391.155 1849.79 401.735 1850.16 408.335C1850.53 414.975 1850.32 427.475 1849.69 436.335C1849.06 445.135 1847.67 457.505 1846.58 463.835C1845.5 470.155 1843.08 481.185 1841.21 488.335C1839.33 495.485 1835.72 506.735 1833.17 513.335C1830.62 519.935 1825.93 530.505 1822.75 536.835C1819.56 543.155 1814.46 552.385 1811.41 557.335C1808.36 562.285 1803.05 570.155 1799.6 574.835C1796.16 579.505 1789.2 588.055 1784.14 593.835C1779.08 599.605 1771.39 607.525 1767.05 611.435C1762.71 615.335 1755.33 621.605 1750.65 625.375C1745.98 629.135 1736.75 635.765 1730.15 640.105C1723.55 644.445 1712.08 651.015 1704.65 654.705C1697.23 658.395 1685.98 663.295 1679.65 665.585C1673.33 667.885 1664.1 670.895 1659.15 672.275C1654.2 673.665 1645.65 675.725 1640.15 676.855C1634.65 677.975 1624.53 679.555 1617.65 680.365C1610.78 681.175 1596.6 681.835 1586.15 681.835C1575.7 681.835 1561.53 681.175 1554.65 680.365C1547.78 679.555 1537.65 677.995 1532.15 676.895C1526.65 675.785 1517.43 673.535 1511.65 671.885C1505.88 670.235 1495.3 666.585 1488.15 663.775C1481 660.975 1469.75 655.905 1463.15 652.535C1456.55 649.155 1445.75 642.775 1439.15 638.365C1432.54 633.945 1422.87 626.895 1417.65 622.705C1412.43 618.515 1404.09 611.085 1399.12 606.205C1394.15 601.325 1386.72 593.285 1382.6 588.335C1378.48 583.385 1373.78 577.535 1372.14 575.335C1370.51 573.135 1366.33 567.055 1362.86 561.835C1359.39 556.605 1353 545.135 1348.64 536.335C1344.29 527.535 1338.51 513.805 1335.81 505.835C1333.1 497.855 1329.73 486.155 1328.3 479.835C1326.88 473.505 1324.92 463.385 1323.95 457.335C1322.6 448.885 1322.18 440.295 1322.17 420.335C1322.16 403.565 1322.63 391.135 1323.5 385.335C1324.24 380.385 1325.97 370.935 1327.33 364.335C1328.69 357.735 1332.05 345.585 1334.79 337.335C1337.54 329.085 1342.93 315.805 1346.79 307.835C1350.64 299.855 1356.09 289.505 1358.9 284.835C1361.71 280.155 1367.68 271.385 1372.18 265.335C1376.67 259.285 1383.71 250.505 1387.82 245.835C1391.93 241.155 1399.09 233.915 1403.73 229.745C1408.36 225.565 1415.75 219.325 1420.15 215.865C1424.55 212.405 1432.43 206.765 1437.65 203.345C1442.88 199.915 1450.98 194.955 1455.65 192.315C1460.33 189.675 1469.1 185.275 1475.15 182.545C1481.2 179.805 1492.68 175.415 1500.65 172.785C1508.63 170.155 1520.55 166.865 1527.15 165.475C1533.75 164.085 1544.78 162.245 1551.65 161.395C1558.53 160.535 1566.63 159.695 1569.65 159.525ZM1279.15 246.985C1278.05 247.585 1276.58 248.815 1275.89 249.705C1275.19 250.605 1274.63 252.795 1274.64 254.585C1274.65 256.695 1275.53 258.705 1277.15 260.335C1278.58 261.755 1280.84 262.845 1282.4 262.865C1283.92 262.885 1286.39 261.985 1287.9 260.865C1289.99 259.325 1290.65 257.995 1290.65 255.335C1290.65 253.405 1290.32 251.095 1289.9 250.195C1289.49 249.285 1287.92 247.935 1286.4 247.195C1284.89 246.445 1283.09 245.845 1282.4 245.865C1281.72 245.875 1280.25 246.385 1279.15 246.985ZM1885.15 246.945C1884.05 247.565 1882.58 248.815 1881.89 249.705C1881.19 250.605 1880.63 252.795 1880.64 254.585C1880.65 256.695 1881.53 258.705 1883.15 260.335C1884.73 261.905 1886.78 262.835 1888.7 262.835C1890.63 262.835 1892.65 261.915 1894.2 260.335C1895.76 258.745 1896.67 256.645 1896.7 254.585C1896.72 252.795 1895.93 250.325 1894.95 249.085C1893.96 247.845 1891.8 246.605 1890.15 246.325C1888.5 246.045 1886.25 246.325 1885.15 246.945ZM1260.15 286.285C1258.71 287.755 1257.73 289.965 1257.7 291.785C1257.68 293.465 1258.05 295.615 1258.52 296.585C1259 297.545 1260.69 298.945 1262.27 299.705C1264.71 300.865 1265.67 300.865 1268.54 299.705C1270.4 298.945 1272.31 297.545 1272.79 296.585C1273.26 295.615 1273.65 293.485 1273.65 291.835C1273.65 289.965 1272.71 287.885 1271.15 286.335C1269.58 284.755 1267.52 283.835 1265.61 283.835C1263.7 283.835 1261.67 284.745 1260.15 286.285ZM1900.15 286.465C1898.27 288.265 1897.43 290.025 1897.52 291.965C1897.59 293.545 1898.74 296.065 1900.07 297.585C1901.89 299.655 1903.37 300.315 1906.09 300.285C1908.44 300.245 1910.48 299.455 1911.93 298.005C1913.4 296.535 1914.15 294.565 1914.15 292.215C1914.15 289.585 1913.44 288.025 1911.4 286.245C1909.87 284.895 1907.39 283.835 1905.79 283.835C1904.06 283.835 1901.83 284.875 1900.15 286.465ZM1246.05 324.935C1244.86 326.265 1244.15 328.515 1244.15 331.025C1244.15 334.085 1244.73 335.465 1246.65 336.965C1248.03 338.035 1250.39 338.895 1251.9 338.875C1253.42 338.855 1255.39 338.495 1256.3 338.085C1257.2 337.665 1258.55 336.095 1259.3 334.585C1260.04 333.065 1260.65 330.935 1260.65 329.835C1260.65 328.735 1259.53 326.705 1258.15 325.335C1256.35 323.535 1254.58 322.835 1251.8 322.835C1249.15 322.835 1247.36 323.485 1246.05 324.935ZM1913.9 324.325C1912.67 325.155 1911.43 327.185 1911.15 328.835C1910.88 330.485 1911.18 332.845 1911.82 334.085C1912.46 335.315 1913.7 336.885 1914.57 337.555C1915.44 338.225 1917.5 338.805 1919.15 338.845C1920.8 338.885 1923.18 338.115 1924.44 337.125C1925.69 336.135 1927 333.755 1927.34 331.835C1927.87 328.915 1927.53 327.875 1925.31 325.585C1923.49 323.695 1921.63 322.825 1919.4 322.825C1917.62 322.815 1915.14 323.495 1913.9 324.325ZM1241.8 362.635C1240.66 362.815 1238.79 364.175 1237.64 365.645C1236.09 367.635 1235.68 369.235 1236.07 371.835C1236.37 373.815 1237.58 376.105 1238.87 377.125C1240.13 378.115 1242.5 378.905 1244.15 378.895C1245.8 378.885 1248.17 377.965 1249.4 376.855C1250.64 375.745 1251.93 373.815 1252.26 372.585C1252.59 371.345 1252.26 369.015 1251.51 367.395C1250.7 365.635 1248.9 364.025 1247.01 363.375C1245.29 362.785 1242.94 362.445 1241.8 362.635ZM1923.99 362.765C1922.8 363.225 1921.36 364.225 1920.79 364.975C1920.22 365.715 1919.46 367.685 1919.1 369.335C1918.59 371.675 1919.02 373.045 1921.05 375.585C1923.11 378.145 1924.4 378.835 1927.2 378.835C1929.66 378.835 1931.5 378.065 1933.2 376.335C1934.71 374.795 1935.65 372.675 1935.65 370.835C1935.65 369.115 1934.69 366.775 1933.4 365.365C1932.17 364.015 1930.03 362.685 1928.65 362.415C1927.28 362.135 1925.18 362.295 1923.99 362.765ZM1236.96 404.105C1235.75 404.815 1234.06 406.615 1233.21 408.115C1232.18 409.929 1231.91 411.722 1232.4 413.495C1232.82 414.955 1234.28 416.995 1235.65 418.025C1237.03 419.055 1239.2 419.885 1240.48 419.865C1241.76 419.845 1244.12 418.485 1245.73 416.835C1247.38 415.135 1248.65 412.745 1248.65 411.335C1248.65 409.955 1247.64 407.725 1246.4 406.365C1245.17 405.015 1243.03 403.665 1241.65 403.365C1240.28 403.055 1238.17 403.395 1236.96 404.105ZM1925.15 405.285C1923.71 406.755 1922.73 408.965 1922.7 410.785C1922.68 412.465 1922.99 414.575 1923.4 415.475C1923.82 416.375 1925.39 417.725 1926.9 418.475C1928.42 419.225 1930.36 419.835 1931.23 419.835C1932.1 419.835 1934.12 418.485 1935.73 416.835C1937.65 414.865 1938.65 412.795 1938.65 410.835C1938.65 408.965 1937.71 406.885 1936.15 405.335C1934.58 403.755 1932.52 402.835 1930.61 402.835C1928.7 402.835 1926.67 403.745 1925.15 405.285ZM1237.88 445.145C1236.64 445.795 1235.12 447.455 1234.51 448.835C1233.68 450.735 1233.74 452.145 1234.78 454.715C1235.54 456.575 1236.6 458.495 1237.15 458.995C1237.7 459.485 1239.9 459.925 1242.03 459.965C1244.71 460.015 1246.55 459.375 1248.03 457.905C1249.4 456.535 1250.15 454.515 1250.15 452.215C1250.15 449.585 1249.44 448.025 1247.4 446.245C1245.89 444.915 1243.64 443.865 1242.4 443.895C1241.17 443.935 1239.13 444.495 1237.88 445.145ZM1924.21 445.905C1922.05 447.535 1921.48 448.765 1921.54 451.655C1921.58 453.845 1922.43 456.235 1923.63 457.585C1924.75 458.815 1926.44 459.885 1927.4 459.945C1928.37 460.015 1930.05 459.985 1931.15 459.895C1932.25 459.795 1934.17 458.625 1935.4 457.275C1936.69 455.875 1937.65 453.555 1937.65 451.835C1937.65 449.965 1936.71 447.885 1935.15 446.335C1933.66 444.835 1931.51 443.835 1929.81 443.835C1928.24 443.835 1925.72 444.765 1924.21 445.905ZM1244.15 484.905C1243.05 485.415 1241.59 486.955 1240.9 488.335C1240.22 489.705 1239.65 491.955 1239.65 493.335C1239.65 494.705 1240.78 496.955 1242.15 498.335C1243.73 499.905 1245.78 500.835 1247.7 500.835C1249.63 500.835 1251.65 499.915 1253.2 498.335C1254.71 496.795 1255.65 494.675 1255.65 492.835C1255.65 491.185 1255.32 489.095 1254.9 488.195C1254.49 487.285 1252.92 485.935 1251.4 485.195C1249.89 484.445 1248.09 483.865 1247.4 483.895C1246.72 483.935 1245.25 484.385 1244.15 484.905ZM1920.15 484.985C1919.05 485.585 1917.58 486.815 1916.89 487.705C1916.19 488.605 1915.63 490.795 1915.64 492.585C1915.65 494.695 1916.53 496.705 1918.15 498.335C1919.73 499.905 1921.78 500.835 1923.7 500.835C1925.63 500.835 1927.65 499.915 1929.2 498.335C1930.55 496.955 1931.65 494.705 1931.65 493.335C1931.65 491.955 1931.2 489.815 1930.65 488.585C1930.1 487.345 1928.52 485.765 1927.15 485.085C1925.78 484.395 1924.09 483.845 1923.4 483.865C1922.72 483.875 1921.25 484.385 1920.15 484.985ZM1255.15 523.945C1254.05 524.565 1252.58 525.815 1251.89 526.705C1251.19 527.605 1250.63 529.345 1250.64 530.585C1250.65 531.815 1251.22 533.965 1251.9 535.355C1252.59 536.735 1254.28 538.335 1255.65 538.905C1257.11 539.505 1259.37 539.595 1261.06 539.135C1262.66 538.695 1264.57 537.435 1265.32 536.335C1266.06 535.235 1266.69 532.985 1266.7 531.335C1266.72 529.685 1265.93 527.325 1264.95 526.085C1263.96 524.845 1261.8 523.605 1260.15 523.325C1258.5 523.045 1256.25 523.325 1255.15 523.945ZM1907.97 525.205C1905.86 526.985 1905.16 528.465 1905.16 531.175C1905.16 533.445 1905.89 535.515 1907.15 536.775C1908.25 537.875 1910.62 539.015 1912.4 539.305C1915.07 539.735 1916.19 539.295 1918.65 536.835C1920.39 535.095 1921.65 532.775 1921.65 531.335C1921.65 529.885 1920.39 527.565 1918.65 525.835C1916.96 524.135 1914.59 522.835 1913.21 522.835C1911.87 522.835 1909.51 523.895 1907.97 525.205ZM1268.15 563.285C1266.83 564.635 1265.73 566.665 1265.7 567.785C1265.68 568.915 1266.27 571.065 1267.01 572.585C1267.76 574.095 1269.11 575.665 1270.01 576.085C1270.92 576.495 1272.78 576.835 1274.15 576.835C1275.53 576.835 1277.39 576.495 1278.3 576.085C1279.2 575.665 1280.55 574.095 1281.3 572.585C1282.04 571.065 1282.43 568.485 1282.15 566.835C1281.88 565.185 1280.64 563.155 1279.4 562.325C1278.17 561.495 1275.67 560.815 1273.86 560.825C1271.69 560.825 1269.74 561.665 1268.15 563.285ZM1891.9 562.325C1890.67 563.155 1889.43 565.185 1889.15 566.835C1888.88 568.485 1889.27 571.065 1890.01 572.585C1890.76 574.095 1892.11 575.665 1893.01 576.085C1893.92 576.495 1895.78 576.835 1897.15 576.835C1898.53 576.835 1900.39 576.495 1901.3 576.085C1902.2 575.665 1903.55 574.095 1904.3 572.585C1905.04 571.065 1905.43 568.485 1905.15 566.835C1904.88 565.185 1903.64 563.155 1902.4 562.325C1901.17 561.495 1898.8 560.815 1897.15 560.815C1895.5 560.815 1893.14 561.495 1891.9 562.325ZM1288.15 598.285C1286.71 599.755 1285.73 601.965 1285.7 603.785C1285.68 605.465 1286.1 607.735 1286.65 608.835C1287.2 609.935 1289 611.285 1290.65 611.835C1292.65 612.502 1294.65 612.502 1296.65 611.835C1298.3 611.285 1300.1 609.935 1300.65 608.835C1301.2 607.735 1301.65 605.485 1301.65 603.835C1301.65 601.965 1300.71 599.885 1299.15 598.335C1297.58 596.755 1295.52 595.835 1293.61 595.835C1291.7 595.835 1289.67 596.745 1288.15 598.285ZM1873.57 597.115C1872.7 597.785 1871.46 599.345 1870.82 600.585C1870.18 601.815 1869.65 603.735 1869.65 604.835C1869.65 605.935 1870.74 608.065 1872.07 609.585C1873.89 611.655 1875.37 612.315 1878.09 612.285C1880.28 612.255 1882.47 611.465 1883.65 610.285C1884.72 609.205 1885.84 606.865 1886.13 605.085C1886.56 602.415 1886.11 601.295 1883.65 598.835C1881.74 596.925 1879.66 595.845 1877.9 595.865C1876.39 595.885 1874.44 596.445 1873.57 597.115ZM1310.82 631.635C1309.13 633.345 1307.77 635.805 1307.73 637.255C1307.68 638.855 1308.79 640.965 1310.65 642.835C1312.39 644.565 1314.71 645.835 1316.15 645.835C1317.53 645.835 1319.89 644.745 1321.4 643.415C1323.44 641.635 1324.15 640.075 1324.15 637.445C1324.15 635.225 1323.41 633.135 1322.15 631.885C1321.05 630.785 1318.73 629.595 1317 629.245C1314.35 628.705 1313.35 629.095 1310.82 631.635ZM1852.01 629.825C1850.83 630.295 1849.13 631.735 1848.25 633.015C1847.36 634.285 1846.64 636.345 1846.65 637.585C1846.65 638.815 1848 641.185 1849.65 642.835C1852.12 645.305 1853.23 645.735 1855.9 645.295C1857.69 644.995 1859.94 643.975 1860.89 643.045C1861.85 642.105 1862.8 640.435 1863 639.335C1863.21 638.235 1862.76 635.865 1862.02 634.085C1861.27 632.295 1859.53 630.385 1858.15 629.835C1856.78 629.285 1855.32 628.865 1854.9 628.895C1854.49 628.935 1853.19 629.345 1852.01 629.825ZM1338.91 660.505C1338.22 660.785 1336.99 662.325 1336.16 663.925C1335.32 665.555 1334.87 668.145 1335.15 669.835C1335.43 671.485 1336.67 673.515 1337.9 674.335C1339.14 675.165 1341.64 675.845 1343.45 675.835C1345.64 675.829 1347.56 674.995 1349.2 673.335C1350.55 671.955 1351.65 669.935 1351.65 668.835C1351.65 667.735 1351.04 665.595 1350.3 664.085C1349.55 662.565 1348.2 660.995 1347.3 660.585C1346.39 660.165 1344.42 659.865 1342.9 659.915C1341.39 659.955 1339.59 660.215 1338.91 660.505ZM1823.91 660.505C1823.22 660.785 1821.99 662.325 1821.16 663.925C1820.32 665.555 1819.87 668.145 1820.15 669.835C1820.43 671.485 1821.67 673.515 1822.9 674.335C1824.14 675.165 1826.39 675.845 1827.9 675.835C1829.42 675.835 1831.44 675.445 1832.4 674.965C1833.37 674.485 1834.74 672.795 1835.45 671.215C1836.45 668.995 1836.48 667.645 1835.61 665.335C1834.98 663.685 1833.72 661.785 1832.81 661.115C1831.9 660.445 1829.8 659.915 1828.15 659.945C1826.5 659.965 1824.59 660.215 1823.91 660.505ZM1794.89 686.895C1793.78 687.335 1792.13 688.735 1791.25 690.015C1790.36 691.285 1789.64 693.345 1789.65 694.585C1789.65 695.815 1791 698.185 1792.65 699.835C1794.3 701.485 1796.67 702.835 1797.9 702.835C1799.14 702.845 1801.17 702.165 1802.4 701.335C1803.64 700.515 1805.1 698.705 1805.65 697.335C1806.36 695.555 1806.28 693.815 1805.37 691.335C1804.66 689.405 1803.87 687.835 1803.62 687.835C1803.36 687.835 1801.75 687.445 1800.04 686.975C1798.33 686.495 1796.01 686.465 1794.89 686.895ZM1367.65 688.835C1366.42 690.065 1365.65 692.165 1365.65 694.335C1365.65 696.735 1366.44 698.615 1368.15 700.335C1369.53 701.705 1371.44 702.825 1372.4 702.815C1373.37 702.815 1375.23 702.475 1376.54 702.065C1377.85 701.665 1379.54 700.095 1380.29 698.585C1381.04 697.065 1381.67 695.045 1381.69 694.085C1381.71 693.115 1380.81 691.095 1379.69 689.585C1378.06 687.375 1376.86 686.835 1373.65 686.835C1370.98 686.835 1368.98 687.502 1367.65 688.835ZM1401.63 711.145C1400 712.745 1399.33 714.445 1399.46 716.645C1399.58 718.515 1400.69 720.865 1402.15 722.335C1403.73 723.905 1405.78 724.835 1407.7 724.835C1409.63 724.835 1411.65 723.915 1413.2 722.335C1414.71 720.795 1415.65 718.675 1415.65 716.835C1415.65 714.965 1414.71 712.885 1413.15 711.335C1411.48 709.669 1409.54 708.835 1407.32 708.835C1405.19 708.835 1403.15 709.665 1401.63 711.145ZM1759.15 711.285C1757.71 712.755 1756.73 714.965 1756.7 716.785C1756.67 718.745 1757.55 720.725 1759.15 722.335C1760.58 723.755 1762.84 724.845 1764.4 724.865C1765.92 724.885 1768.39 723.985 1769.9 722.865C1772.04 721.285 1772.66 719.995 1772.68 717.085C1772.7 714.475 1772.01 712.655 1770.43 711.105C1769.02 709.725 1766.9 708.865 1764.86 708.855C1762.66 708.842 1760.76 709.652 1759.15 711.285ZM1725.11 727.835C1723.99 728.325 1722.52 729.645 1721.86 730.775C1721.2 731.905 1720.64 734.065 1720.61 735.585C1720.59 737.095 1721.38 739.345 1722.36 740.575C1723.35 741.815 1725.5 743.105 1727.15 743.435C1729.47 743.915 1730.84 743.475 1733.15 741.525C1735.49 739.565 1736.15 738.185 1736.15 735.335C1736.15 732.575 1735.47 731.055 1733.4 729.245C1731.89 727.915 1729.87 726.865 1728.9 726.895C1727.94 726.935 1726.23 727.355 1725.11 727.835ZM1438.91 728.505C1438.22 728.785 1437.03 730.205 1436.26 731.675C1435.4 733.295 1435.1 735.465 1435.5 737.235C1435.86 738.835 1437.28 740.985 1438.65 742.025C1440.03 743.055 1441.94 743.885 1442.9 743.865C1443.87 743.845 1445.79 743.265 1447.17 742.585C1448.56 741.895 1450.16 740.205 1450.72 738.835C1451.33 737.375 1451.42 735.115 1450.96 733.425C1450.52 731.825 1449.25 729.915 1448.15 729.165C1447.05 728.425 1444.8 727.855 1443.15 727.905C1441.5 727.955 1439.59 728.215 1438.91 728.505ZM1476.82 743.635C1475.17 745.305 1473.76 747.725 1473.7 749.005C1473.64 750.285 1474.43 752.455 1475.46 753.835C1476.49 755.205 1478.53 756.665 1479.99 757.085C1481.66 757.555 1483.68 757.325 1485.4 756.475C1486.92 755.725 1488.49 754.375 1488.9 753.475C1489.32 752.575 1489.67 750.595 1489.7 749.085C1489.72 747.565 1488.93 745.325 1487.95 744.085C1486.96 742.845 1484.73 741.555 1483 741.215C1480.37 740.705 1479.34 741.105 1476.82 743.635ZM1685.56 742.665C1684.24 743.675 1682.82 745.705 1682.4 747.165C1681.93 748.835 1682.16 750.855 1683.01 752.585C1683.76 754.095 1685.11 755.665 1686.01 756.085C1686.92 756.495 1688.78 756.835 1690.15 756.835C1691.53 756.835 1693.39 756.495 1694.3 756.085C1695.2 755.665 1696.55 754.095 1697.3 752.585C1698.15 750.855 1698.37 748.835 1697.9 747.165C1697.49 745.705 1696.03 743.665 1694.65 742.635C1693.28 741.605 1691.21 740.775 1690.06 740.795C1688.9 740.815 1686.88 741.655 1685.56 742.665ZM1515.63 754.145C1514 755.745 1513.33 757.445 1513.46 759.645C1513.58 761.515 1514.69 763.865 1516.15 765.335C1517.57 766.745 1519.85 767.855 1521.4 767.875C1522.92 767.895 1525.18 767.115 1526.44 766.125C1527.69 765.135 1529 762.755 1529.34 760.835C1529.87 757.915 1529.53 756.875 1527.31 754.585C1525.46 752.665 1523.65 751.835 1521.32 751.835C1519.19 751.835 1517.15 752.665 1515.63 754.145ZM1643.15 754.285C1641.83 755.635 1640.73 757.665 1640.7 758.785C1640.68 759.915 1641.18 761.845 1641.82 763.085C1642.46 764.315 1643.7 765.885 1644.57 766.555C1645.44 767.225 1647.41 767.785 1648.95 767.805C1650.64 767.815 1652.71 766.845 1654.2 765.335C1655.86 763.635 1656.65 761.705 1656.65 759.335C1656.65 757.165 1655.89 755.065 1654.65 753.835C1653.41 752.585 1651.32 751.835 1649.11 751.835C1646.67 751.835 1644.81 752.595 1643.15 754.285ZM1557.15 758.285C1555.71 759.755 1554.73 761.965 1554.7 763.785C1554.67 765.745 1555.55 767.725 1557.15 769.335C1558.73 770.905 1560.78 771.835 1562.7 771.835C1564.63 771.835 1566.65 770.915 1568.2 769.335C1569.71 767.795 1570.65 765.675 1570.65 763.835C1570.65 761.965 1569.71 759.885 1568.15 758.335C1566.58 756.755 1564.52 755.835 1562.61 755.835C1560.7 755.835 1558.67 756.745 1557.15 758.285ZM1600.63 758.145C1598.96 759.785 1598.32 761.455 1598.44 763.895C1598.54 765.985 1599.5 768.205 1600.88 769.565C1602.29 770.945 1604.41 771.795 1606.45 771.815C1608.76 771.825 1610.53 771.015 1612.36 769.085C1614.53 766.805 1614.87 765.735 1614.34 762.835C1614 760.905 1612.69 758.525 1611.44 757.535C1610.18 756.555 1607.77 755.765 1606.07 755.785C1604.24 755.815 1602.03 756.775 1600.63 758.145Z" fill="#FF8800"/>
<path opacity="0.99" d="M1492.11 402.836C1492.11 420.716 1492.24 427.916 1492.41 418.836C1492.57 409.766 1492.57 395.136 1492.41 386.336C1492.24 377.536 1492.11 384.956 1492.11 402.836Z" fill="#242524"/>
<path d="M1588.66 453.566C1590.58 453.776 1593.96 453.776 1596.16 453.566C1598.36 453.346 1596.79 453.176 1592.66 453.176C1588.53 453.176 1586.74 453.346 1588.66 453.566ZM1639.16 453.566C1641.36 453.776 1645.18 453.776 1647.66 453.566C1650.14 453.356 1648.33 453.186 1643.66 453.186C1638.99 453.186 1636.96 453.356 1639.16 453.566ZM1565.16 536.836C1569.01 540.696 1572.39 543.856 1572.66 543.856C1572.93 543.856 1570.15 540.696 1566.46 536.846C1562.78 532.986 1559.4 529.836 1558.96 529.826C1558.52 529.826 1561.31 532.976 1565.16 536.836Z" fill="#8F9998"/>
<path d="M1625.1 268.336C1625.1 285.386 1625.24 292.586 1625.41 284.336C1625.57 276.086 1625.58 262.136 1625.41 253.336C1625.24 244.536 1625.11 251.286 1625.1 268.336ZM1738.14 446.836C1738.14 514.756 1738.26 542.436 1738.41 508.336C1738.56 474.236 1738.56 418.656 1738.41 384.836C1738.26 351.016 1738.14 378.906 1738.14 446.836Z" fill="#D1D1D1"/>
<path d="M1512.01 599.836C1512.01 604.506 1512.18 606.316 1512.39 603.836C1512.6 601.356 1512.6 597.536 1512.39 595.336C1512.18 593.136 1512.01 595.166 1512.01 599.836ZM1481.16 608.576C1483.91 608.776 1487.96 608.776 1490.16 608.566C1492.36 608.356 1490.11 608.186 1485.16 608.186C1480.21 608.196 1478.41 608.366 1481.16 608.576ZM1499.66 608.566C1501.58 608.776 1504.96 608.776 1507.16 608.566C1509.36 608.346 1507.78 608.176 1503.66 608.176C1499.53 608.176 1497.73 608.346 1499.66 608.566Z" fill="#797D7C"/>
<path d="M1510.66 453.566C1513.14 453.776 1516.73 453.776 1518.66 453.566C1520.59 453.346 1518.56 453.176 1514.16 453.176C1509.76 453.186 1508.18 453.356 1510.66 453.566ZM1608.16 453.586C1613.11 453.766 1621.43 453.766 1626.66 453.586C1631.89 453.396 1627.83 453.256 1617.66 453.256C1607.49 453.256 1603.21 453.396 1608.16 453.586Z" fill="#9D9496"/>
<path fill-rule="evenodd" clip-rule="evenodd" d="M1553.16 219.926C1607.09 219.876 1635.5 220.196 1638.16 220.906C1641.58 221.806 1648.82 228.616 1688.33 268.146C1719.85 299.686 1735 315.526 1736.08 318.086C1737.49 321.436 1737.66 335.206 1737.67 447.586C1737.68 559.846 1737.51 573.926 1736.08 578.836C1735.2 581.866 1733.06 586.546 1731.32 589.256C1729.58 591.956 1726.14 595.926 1723.66 598.066C1721.18 600.216 1716.68 603.176 1713.66 604.656C1708.24 607.296 1707.82 607.336 1661.16 607.966L1660.66 591.836L1680.91 591.816C1699.11 591.796 1701.62 591.586 1705.66 589.756C1708.14 588.636 1711.66 586.286 1713.5 584.526C1715.33 582.776 1717.58 579.986 1718.5 578.336C1720.01 575.596 1720.2 564.776 1721.16 333.836L1690.16 333.846C1664.7 333.856 1658.18 333.566 1653.66 332.256C1650.64 331.376 1646.14 329.386 1643.66 327.836C1641.18 326.286 1637.39 323.066 1635.22 320.676C1633.05 318.286 1630.13 313.866 1626.16 305.336L1625.66 236.836L1471.16 236.816L1465.7 239.576C1462.16 241.366 1459.11 243.916 1457 246.836C1455.21 249.316 1453.28 253.476 1452.7 256.086C1452 259.266 1451.66 311.966 1451.66 415.836C1451.66 567.506 1451.7 570.946 1453.63 576.086C1454.71 578.976 1457.07 582.776 1458.88 584.526C1460.68 586.286 1464.18 588.636 1466.66 589.756C1470.7 591.586 1473.21 591.796 1511.66 591.836V607.836L1466.16 607.336L1459.66 604.226C1456.09 602.516 1450.97 599.136 1448.3 596.726C1445.08 593.816 1442.21 589.826 1436.16 577.436L1435.91 416.886C1435.68 273.446 1435.82 255.696 1437.23 250.336C1438.09 247.036 1439.86 242.536 1441.15 240.336C1442.45 238.136 1445.68 234.276 1448.33 231.756C1450.99 229.236 1455.18 226.116 1457.66 224.826C1460.14 223.536 1464.41 221.926 1467.16 221.246C1470.91 220.316 1492.33 219.986 1553.16 219.926ZM1642.66 272.336C1642.67 286.636 1643.12 300.026 1643.67 302.086C1644.26 304.316 1646.49 307.666 1649.16 310.336C1651.75 312.926 1655.25 315.276 1657.41 315.886C1659.72 316.536 1671.12 316.816 1687.16 316.636L1713.16 316.336L1642.65 246.336L1642.66 272.336ZM1506.16 354.816L1586.66 354.846C1662.62 354.876 1667.38 354.986 1671.16 356.716C1673.36 357.726 1675.92 359.406 1676.85 360.446C1677.78 361.486 1679.24 364.026 1680.1 366.086C1681.41 369.236 1681.66 375.386 1681.67 404.586C1681.68 438.676 1681.63 439.426 1679.42 443.836C1677.92 446.816 1675.81 449.076 1669.16 452.806L1504.16 452.896L1500.71 450.616C1498.81 449.366 1496.21 446.766 1492.6 441.336V403.836C1492.6 366.456 1492.61 366.326 1494.89 362.836C1496.15 360.916 1499.2 358.316 1501.67 357.076L1506.16 354.816ZM1518.66 376.836V432.836H1530.66V413.836C1540.73 413.866 1543.52 413.176 1547.62 411.096C1551.89 408.936 1553.58 407.356 1555.39 403.836C1556.86 400.966 1557.69 397.616 1557.68 394.586C1557.67 391.976 1557.18 388.596 1556.59 387.086C1556 385.576 1554.54 383.266 1553.34 381.956C1552.14 380.646 1549.81 379.006 1548.16 378.306C1546.51 377.606 1542.23 376.836 1538.66 376.586C1535.08 376.336 1529.12 376.296 1525.41 376.486L1518.66 376.836ZM1568.66 431.836C1574.47 432.836 1579.98 432.836 1584.66 432.476C1590.63 432.026 1594.72 431.086 1598.41 429.336C1602.29 427.486 1604.44 425.606 1606.66 422.086C1608.31 419.476 1610.17 414.866 1610.78 411.836C1611.4 408.816 1611.67 403.416 1611.39 399.836C1611.11 396.266 1609.97 391.536 1608.86 389.336C1607.76 387.136 1605.8 384.346 1604.5 383.146C1603.21 381.936 1600.36 380.166 1598.16 379.216C1595.32 377.996 1590.48 377.356 1581.53 377.046L1568.9 376.596L1568.66 431.836ZM1623.66 432.836H1634.66V410.836H1653.66V400.836H1634.66V386.836H1656.66V376.836H1623.16L1623.66 432.836ZM1585.87 473.806C1587.13 473.786 1589.4 474.686 1593.66 477.836L1593.69 550.336L1604.42 539.566C1610.46 533.506 1616.48 528.366 1618.16 527.826C1620.28 527.146 1621.9 527.236 1623.66 528.116C1625.04 528.806 1626.72 530.606 1627.41 532.106C1628.43 534.326 1628.4 535.446 1627.27 538.086C1626.51 539.876 1617.85 549.316 1608.02 559.066C1590.89 576.076 1590 576.796 1586.16 576.816C1582.3 576.836 1581.53 576.206 1563.44 558.086C1546.9 541.526 1544.71 538.956 1544.69 536.086C1544.67 534.306 1545 532.096 1545.41 531.196C1545.82 530.296 1547.29 528.976 1548.66 528.256C1550.04 527.546 1552.29 527.216 1553.66 527.526C1555.04 527.836 1561.23 533.096 1578.67 550.336L1578.75 478.746L1581.16 476.296C1582.49 474.946 1584.6 473.826 1585.87 473.806ZM1637.66 591.836L1640.16 594.336C1641.72 595.896 1642.66 597.976 1642.66 599.836C1642.66 601.676 1641.71 603.806 1637.75 607.836H1586.71C1558.63 607.836 1534.92 607.506 1534.02 607.086C1533.12 606.676 1531.77 605.106 1531.02 603.586C1530.17 601.866 1529.94 599.846 1530.41 598.176C1530.82 596.716 1532.24 594.686 1533.56 593.676C1535.82 591.946 1539 591.836 1637.66 591.836Z" fill="#FF8800"/>
<path d="M1452.15 420.336C1452.15 499.536 1452.27 531.716 1452.41 491.836C1452.55 451.956 1452.55 387.156 1452.41 347.836C1452.27 308.516 1452.15 341.136 1452.15 420.336ZM1545.16 608.586C1550.11 608.766 1558.43 608.766 1563.66 608.586C1568.89 608.396 1564.83 608.255 1554.66 608.255C1544.48 608.255 1540.21 608.396 1545.16 608.586ZM1600.16 608.586C1605.66 608.766 1614.21 608.766 1619.16 608.576C1624.11 608.396 1619.61 608.255 1609.16 608.255C1598.71 608.255 1594.66 608.406 1600.16 608.586ZM1671.16 608.576C1674.46 608.776 1680.08 608.776 1683.66 608.576C1687.24 608.386 1684.53 608.226 1677.66 608.226C1670.78 608.226 1667.86 608.386 1671.16 608.576Z" fill="#5E5E5D"/>
<path d="M1623.1 404.336C1623.1 419.186 1623.24 425.486 1623.41 418.336C1623.58 411.186 1623.58 399.036 1623.41 391.336C1623.24 383.636 1623.1 389.486 1623.1 404.336Z" fill="#D1D1D1"/>
<path d="M1701.66 317.566C1704.14 317.776 1707.74 317.776 1709.66 317.566C1711.58 317.346 1709.56 317.176 1705.16 317.176C1700.76 317.186 1699.18 317.356 1701.66 317.566Z" fill="#9D9496"/>
<path d="M1630.66 376.576C1635.33 376.766 1643.21 376.766 1648.16 376.576C1653.11 376.396 1649.29 376.246 1639.66 376.246C1630.03 376.246 1625.99 376.396 1630.66 376.576Z" fill="#72706E"/>
<path d="M1662.16 265.836C1672.61 276.286 1681.39 284.846 1681.66 284.846C1681.93 284.846 1673.73 276.296 1663.43 265.836C1653.13 255.386 1644.35 246.836 1643.93 246.836C1643.51 246.826 1651.71 255.386 1662.16 265.836Z" fill="#B2AFAC"/>
<path d="M1642.09 272.336C1642.09 286.086 1642.23 291.936 1642.41 285.336C1642.58 278.736 1642.58 267.486 1642.41 260.336C1642.24 253.186 1642.09 258.586 1642.09 272.336Z" fill="#5E5E5D"/>
<path d="M1531.24 386.406C1530.74 386.826 1530.4 390.916 1530.49 395.506L1530.66 403.836C1541.03 403.146 1542.51 402.606 1543.95 400.706C1545.05 399.256 1545.73 396.676 1545.7 394.086C1545.67 390.556 1545.2 389.546 1542.91 388.136C1541.4 387.196 1538.36 386.256 1536.16 386.036C1533.96 385.816 1531.75 385.986 1531.24 386.406ZM1580.81 404.446L1580.64 422.336C1588.79 421.296 1592.29 420.126 1593.66 419.076C1595.04 418.016 1596.79 415.846 1597.56 414.246C1598.33 412.646 1599.19 408.636 1599.47 405.336C1599.87 400.586 1599.54 398.396 1597.88 394.836C1596.61 392.106 1594.67 389.806 1592.97 389.006C1591.42 388.266 1588.09 387.416 1585.57 387.116L1580.97 386.556L1580.81 404.446Z" fill="#FF8800"/>
<path d="M1252 185H242C112.765 185 8 289.765 8 419V419C8 548.235 112.765 653 242 653H1252" stroke="#FF8800" stroke-width="16"/>
</svg>
