<svg width="28" height="28" viewBox="0 0 28 28" fill="none" xmlns="http://www.w3.org/2000/svg">
<path d="M14 1V27" stroke="white" stroke-width="2" stroke-miterlimit="10" stroke-linecap="round" stroke-linejoin="round"/>
<path d="M14 21C10.13 21 7 17.87 7 14C7 10.13 10.13 7 14 7" stroke="white" stroke-width="2" stroke-miterlimit="10" stroke-linecap="round" stroke-linejoin="round"/>
<path d="M4.81006 4.81006L6.93006 6.93006" stroke="white" stroke-width="2" stroke-miterlimit="10" stroke-linecap="round" stroke-linejoin="round"/>
<path d="M1 14H4" stroke="white" stroke-width="2" stroke-miterlimit="10" stroke-linecap="round" stroke-linejoin="round"/>
<path d="M4.81006 23.1901L6.93006 21.0701" stroke="white" stroke-width="2" stroke-miterlimit="10" stroke-linecap="round" stroke-linejoin="round"/>
<path d="M14 10.55C15.2 8.43 17.48 7 20.09 7C20.25 7 20.4 7.01 20.56 7.02C18.89 7.9 17.76 9.65 17.76 11.66C17.76 14.56 20.11 16.91 23.01 16.91C24.61 16.91 26.04 16.19 27 15.06C26.48 18.43 23.59 21 20.09 21C17.48 21 15.2 19.57 14 17.45" stroke="white" stroke-width="2" stroke-miterlimit="10" stroke-linecap="round" stroke-linejoin="round"/>
</svg>
